G04 EAGLE Gerber RS-274X export*
G75*
%MOMM*%
%FSLAX34Y34*%
%LPD*%
%IN*%
%IPPOS*%
%AMOC8*
5,1,8,0,0,1.08239X$1,22.5*%
G01*
%ADD10C,0.254000*%


D10*
X165100Y381000D02*
X660400Y381000D01*
X660400Y787400D01*
X165100Y787400D01*
X165100Y381000D01*
X619300Y631900D02*
X619311Y631639D01*
X619346Y631379D01*
X619402Y631124D01*
X619481Y630874D01*
X619581Y630632D01*
X619702Y630400D01*
X619843Y630179D01*
X620002Y629972D01*
X620179Y629779D01*
X620372Y629602D01*
X620579Y629443D01*
X620800Y629302D01*
X621032Y629181D01*
X621274Y629081D01*
X621524Y629002D01*
X621779Y628946D01*
X622039Y628911D01*
X622300Y628900D01*
X629300Y628900D01*
X629561Y628911D01*
X629821Y628946D01*
X630076Y629002D01*
X630326Y629081D01*
X630568Y629181D01*
X630800Y629302D01*
X631021Y629443D01*
X631228Y629602D01*
X631421Y629779D01*
X631598Y629972D01*
X631757Y630179D01*
X631898Y630400D01*
X632019Y630632D01*
X632119Y630874D01*
X632198Y631124D01*
X632254Y631379D01*
X632289Y631639D01*
X632300Y631900D01*
X632289Y632161D01*
X632254Y632421D01*
X632198Y632676D01*
X632119Y632926D01*
X632019Y633168D01*
X631898Y633400D01*
X631757Y633621D01*
X631598Y633828D01*
X631421Y634021D01*
X631228Y634198D01*
X631021Y634357D01*
X630800Y634498D01*
X630568Y634619D01*
X630326Y634719D01*
X630076Y634798D01*
X629821Y634854D01*
X629561Y634889D01*
X629300Y634900D01*
X622300Y634900D01*
X622039Y634889D01*
X621779Y634854D01*
X621524Y634798D01*
X621274Y634719D01*
X621032Y634619D01*
X620800Y634498D01*
X620579Y634357D01*
X620372Y634198D01*
X620179Y634021D01*
X620002Y633828D01*
X619843Y633621D01*
X619702Y633400D01*
X619581Y633168D01*
X619481Y632926D01*
X619402Y632676D01*
X619346Y632421D01*
X619311Y632161D01*
X619300Y631900D01*
X619300Y561900D02*
X619311Y561639D01*
X619346Y561379D01*
X619402Y561124D01*
X619481Y560874D01*
X619581Y560632D01*
X619702Y560400D01*
X619843Y560179D01*
X620002Y559972D01*
X620179Y559779D01*
X620372Y559602D01*
X620579Y559443D01*
X620800Y559302D01*
X621032Y559181D01*
X621274Y559081D01*
X621524Y559002D01*
X621779Y558946D01*
X622039Y558911D01*
X622300Y558900D01*
X629300Y558900D01*
X629561Y558911D01*
X629821Y558946D01*
X630076Y559002D01*
X630326Y559081D01*
X630568Y559181D01*
X630800Y559302D01*
X631021Y559443D01*
X631228Y559602D01*
X631421Y559779D01*
X631598Y559972D01*
X631757Y560179D01*
X631898Y560400D01*
X632019Y560632D01*
X632119Y560874D01*
X632198Y561124D01*
X632254Y561379D01*
X632289Y561639D01*
X632300Y561900D01*
X632289Y562161D01*
X632254Y562421D01*
X632198Y562676D01*
X632119Y562926D01*
X632019Y563168D01*
X631898Y563400D01*
X631757Y563621D01*
X631598Y563828D01*
X631421Y564021D01*
X631228Y564198D01*
X631021Y564357D01*
X630800Y564498D01*
X630568Y564619D01*
X630326Y564719D01*
X630076Y564798D01*
X629821Y564854D01*
X629561Y564889D01*
X629300Y564900D01*
X622300Y564900D01*
X622039Y564889D01*
X621779Y564854D01*
X621524Y564798D01*
X621274Y564719D01*
X621032Y564619D01*
X620800Y564498D01*
X620579Y564357D01*
X620372Y564198D01*
X620179Y564021D01*
X620002Y563828D01*
X619843Y563621D01*
X619702Y563400D01*
X619581Y563168D01*
X619481Y562926D01*
X619402Y562676D01*
X619346Y562421D01*
X619311Y562161D01*
X619300Y561900D01*
X207010Y761460D02*
X206939Y760381D01*
X206798Y759309D01*
X206587Y758249D01*
X206308Y757205D01*
X205960Y756181D01*
X205546Y755183D01*
X205068Y754213D01*
X204528Y753277D01*
X203927Y752378D01*
X203269Y751521D01*
X202557Y750708D01*
X201792Y749944D01*
X200979Y749231D01*
X200122Y748573D01*
X199223Y747972D01*
X198287Y747432D01*
X197317Y746954D01*
X196319Y746540D01*
X195295Y746192D01*
X194251Y745913D01*
X193191Y745702D01*
X192119Y745561D01*
X191040Y745490D01*
X189960Y745490D01*
X188881Y745561D01*
X187809Y745702D01*
X186749Y745913D01*
X185705Y746192D01*
X184681Y746540D01*
X183683Y746954D01*
X182713Y747432D01*
X181777Y747972D01*
X180878Y748573D01*
X180021Y749231D01*
X179208Y749944D01*
X178444Y750708D01*
X177731Y751521D01*
X177073Y752378D01*
X176472Y753277D01*
X175932Y754213D01*
X175454Y755183D01*
X175040Y756181D01*
X174692Y757205D01*
X174413Y758249D01*
X174202Y759309D01*
X174061Y760381D01*
X173990Y761460D01*
X173990Y762540D01*
X174061Y763619D01*
X174202Y764691D01*
X174413Y765751D01*
X174692Y766795D01*
X175040Y767819D01*
X175454Y768817D01*
X175932Y769787D01*
X176472Y770723D01*
X177073Y771622D01*
X177731Y772479D01*
X178444Y773292D01*
X179208Y774057D01*
X180021Y774769D01*
X180878Y775427D01*
X181777Y776028D01*
X182713Y776568D01*
X183683Y777046D01*
X184681Y777460D01*
X185705Y777808D01*
X186749Y778087D01*
X187809Y778298D01*
X188881Y778439D01*
X189960Y778510D01*
X191040Y778510D01*
X192119Y778439D01*
X193191Y778298D01*
X194251Y778087D01*
X195295Y777808D01*
X196319Y777460D01*
X197317Y777046D01*
X198287Y776568D01*
X199223Y776028D01*
X200122Y775427D01*
X200979Y774769D01*
X201792Y774057D01*
X202557Y773292D01*
X203269Y772479D01*
X203927Y771622D01*
X204528Y770723D01*
X205068Y769787D01*
X205546Y768817D01*
X205960Y767819D01*
X206308Y766795D01*
X206587Y765751D01*
X206798Y764691D01*
X206939Y763619D01*
X207010Y762540D01*
X207010Y761460D01*
X651510Y761460D02*
X651439Y760381D01*
X651298Y759309D01*
X651087Y758249D01*
X650808Y757205D01*
X650460Y756181D01*
X650046Y755183D01*
X649568Y754213D01*
X649028Y753277D01*
X648427Y752378D01*
X647769Y751521D01*
X647057Y750708D01*
X646292Y749944D01*
X645479Y749231D01*
X644622Y748573D01*
X643723Y747972D01*
X642787Y747432D01*
X641817Y746954D01*
X640819Y746540D01*
X639795Y746192D01*
X638751Y745913D01*
X637691Y745702D01*
X636619Y745561D01*
X635540Y745490D01*
X634460Y745490D01*
X633381Y745561D01*
X632309Y745702D01*
X631249Y745913D01*
X630205Y746192D01*
X629181Y746540D01*
X628183Y746954D01*
X627213Y747432D01*
X626277Y747972D01*
X625378Y748573D01*
X624521Y749231D01*
X623708Y749944D01*
X622944Y750708D01*
X622231Y751521D01*
X621573Y752378D01*
X620972Y753277D01*
X620432Y754213D01*
X619954Y755183D01*
X619540Y756181D01*
X619192Y757205D01*
X618913Y758249D01*
X618702Y759309D01*
X618561Y760381D01*
X618490Y761460D01*
X618490Y762540D01*
X618561Y763619D01*
X618702Y764691D01*
X618913Y765751D01*
X619192Y766795D01*
X619540Y767819D01*
X619954Y768817D01*
X620432Y769787D01*
X620972Y770723D01*
X621573Y771622D01*
X622231Y772479D01*
X622944Y773292D01*
X623708Y774057D01*
X624521Y774769D01*
X625378Y775427D01*
X626277Y776028D01*
X627213Y776568D01*
X628183Y777046D01*
X629181Y777460D01*
X630205Y777808D01*
X631249Y778087D01*
X632309Y778298D01*
X633381Y778439D01*
X634460Y778510D01*
X635540Y778510D01*
X636619Y778439D01*
X637691Y778298D01*
X638751Y778087D01*
X639795Y777808D01*
X640819Y777460D01*
X641817Y777046D01*
X642787Y776568D01*
X643723Y776028D01*
X644622Y775427D01*
X645479Y774769D01*
X646292Y774057D01*
X647057Y773292D01*
X647769Y772479D01*
X648427Y771622D01*
X649028Y770723D01*
X649568Y769787D01*
X650046Y768817D01*
X650460Y767819D01*
X650808Y766795D01*
X651087Y765751D01*
X651298Y764691D01*
X651439Y763619D01*
X651510Y762540D01*
X651510Y761460D01*
X207010Y405860D02*
X206939Y404781D01*
X206798Y403709D01*
X206587Y402649D01*
X206308Y401605D01*
X205960Y400581D01*
X205546Y399583D01*
X205068Y398613D01*
X204528Y397677D01*
X203927Y396778D01*
X203269Y395921D01*
X202557Y395108D01*
X201792Y394344D01*
X200979Y393631D01*
X200122Y392973D01*
X199223Y392372D01*
X198287Y391832D01*
X197317Y391354D01*
X196319Y390940D01*
X195295Y390592D01*
X194251Y390313D01*
X193191Y390102D01*
X192119Y389961D01*
X191040Y389890D01*
X189960Y389890D01*
X188881Y389961D01*
X187809Y390102D01*
X186749Y390313D01*
X185705Y390592D01*
X184681Y390940D01*
X183683Y391354D01*
X182713Y391832D01*
X181777Y392372D01*
X180878Y392973D01*
X180021Y393631D01*
X179208Y394344D01*
X178444Y395108D01*
X177731Y395921D01*
X177073Y396778D01*
X176472Y397677D01*
X175932Y398613D01*
X175454Y399583D01*
X175040Y400581D01*
X174692Y401605D01*
X174413Y402649D01*
X174202Y403709D01*
X174061Y404781D01*
X173990Y405860D01*
X173990Y406940D01*
X174061Y408019D01*
X174202Y409091D01*
X174413Y410151D01*
X174692Y411195D01*
X175040Y412219D01*
X175454Y413217D01*
X175932Y414187D01*
X176472Y415123D01*
X177073Y416022D01*
X177731Y416879D01*
X178444Y417692D01*
X179208Y418457D01*
X180021Y419169D01*
X180878Y419827D01*
X181777Y420428D01*
X182713Y420968D01*
X183683Y421446D01*
X184681Y421860D01*
X185705Y422208D01*
X186749Y422487D01*
X187809Y422698D01*
X188881Y422839D01*
X189960Y422910D01*
X191040Y422910D01*
X192119Y422839D01*
X193191Y422698D01*
X194251Y422487D01*
X195295Y422208D01*
X196319Y421860D01*
X197317Y421446D01*
X198287Y420968D01*
X199223Y420428D01*
X200122Y419827D01*
X200979Y419169D01*
X201792Y418457D01*
X202557Y417692D01*
X203269Y416879D01*
X203927Y416022D01*
X204528Y415123D01*
X205068Y414187D01*
X205546Y413217D01*
X205960Y412219D01*
X206308Y411195D01*
X206587Y410151D01*
X206798Y409091D01*
X206939Y408019D01*
X207010Y406940D01*
X207010Y405860D01*
X651510Y405860D02*
X651439Y404781D01*
X651298Y403709D01*
X651087Y402649D01*
X650808Y401605D01*
X650460Y400581D01*
X650046Y399583D01*
X649568Y398613D01*
X649028Y397677D01*
X648427Y396778D01*
X647769Y395921D01*
X647057Y395108D01*
X646292Y394344D01*
X645479Y393631D01*
X644622Y392973D01*
X643723Y392372D01*
X642787Y391832D01*
X641817Y391354D01*
X640819Y390940D01*
X639795Y390592D01*
X638751Y390313D01*
X637691Y390102D01*
X636619Y389961D01*
X635540Y389890D01*
X634460Y389890D01*
X633381Y389961D01*
X632309Y390102D01*
X631249Y390313D01*
X630205Y390592D01*
X629181Y390940D01*
X628183Y391354D01*
X627213Y391832D01*
X626277Y392372D01*
X625378Y392973D01*
X624521Y393631D01*
X623708Y394344D01*
X622944Y395108D01*
X622231Y395921D01*
X621573Y396778D01*
X620972Y397677D01*
X620432Y398613D01*
X619954Y399583D01*
X619540Y400581D01*
X619192Y401605D01*
X618913Y402649D01*
X618702Y403709D01*
X618561Y404781D01*
X618490Y405860D01*
X618490Y406940D01*
X618561Y408019D01*
X618702Y409091D01*
X618913Y410151D01*
X619192Y411195D01*
X619540Y412219D01*
X619954Y413217D01*
X620432Y414187D01*
X620972Y415123D01*
X621573Y416022D01*
X622231Y416879D01*
X622944Y417692D01*
X623708Y418457D01*
X624521Y419169D01*
X625378Y419827D01*
X626277Y420428D01*
X627213Y420968D01*
X628183Y421446D01*
X629181Y421860D01*
X630205Y422208D01*
X631249Y422487D01*
X632309Y422698D01*
X633381Y422839D01*
X634460Y422910D01*
X635540Y422910D01*
X636619Y422839D01*
X637691Y422698D01*
X638751Y422487D01*
X639795Y422208D01*
X640819Y421860D01*
X641817Y421446D01*
X642787Y420968D01*
X643723Y420428D01*
X644622Y419827D01*
X645479Y419169D01*
X646292Y418457D01*
X647057Y417692D01*
X647769Y416879D01*
X648427Y416022D01*
X649028Y415123D01*
X649568Y414187D01*
X650046Y413217D01*
X650460Y412219D01*
X650808Y411195D01*
X651087Y410151D01*
X651298Y409091D01*
X651439Y408019D01*
X651510Y406940D01*
X651510Y405860D01*
M02*
