G04 EAGLE Gerber RS-274X export*
G75*
%MOMM*%
%FSLAX34Y34*%
%LPD*%
%INSolderpaste Top*%
%IPPOS*%
%AMOC8*
5,1,8,0,0,1.08239X$1,22.5*%
G01*
%ADD10R,2.000000X1.200000*%
%ADD11R,1.350000X0.600000*%
%ADD12R,1.100000X1.000000*%
%ADD13R,1.000000X1.100000*%
%ADD14R,4.200000X1.700000*%
%ADD15C,0.300000*%
%ADD16R,0.830000X0.630000*%
%ADD17R,2.750000X1.600000*%
%ADD18R,1.600000X2.750000*%
%ADD19R,1.350000X0.400000*%
%ADD20R,1.900000X1.500000*%
%ADD21R,1.900000X1.200000*%

G36*
X208062Y668923D02*
X208062Y668923D01*
X208106Y668926D01*
X208128Y668942D01*
X208154Y668950D01*
X208183Y668983D01*
X208218Y669009D01*
X208228Y669035D01*
X208246Y669055D01*
X208253Y669099D01*
X208268Y669139D01*
X208263Y669166D01*
X208267Y669193D01*
X208249Y669234D01*
X208240Y669276D01*
X208214Y669312D01*
X208210Y669321D01*
X208205Y669325D01*
X208196Y669336D01*
X184196Y693336D01*
X184158Y693357D01*
X184125Y693386D01*
X184098Y693390D01*
X184074Y693403D01*
X184030Y693400D01*
X183987Y693407D01*
X183962Y693396D01*
X183934Y693394D01*
X183899Y693368D01*
X183859Y693350D01*
X183844Y693327D01*
X183822Y693311D01*
X183806Y693270D01*
X183782Y693234D01*
X183775Y693190D01*
X183772Y693181D01*
X183773Y693174D01*
X183771Y693160D01*
X183771Y669160D01*
X183776Y669144D01*
X183773Y669127D01*
X183795Y669077D01*
X183810Y669026D01*
X183823Y669015D01*
X183830Y668999D01*
X183875Y668969D01*
X183915Y668934D01*
X183932Y668931D01*
X183947Y668922D01*
X184020Y668911D01*
X208020Y668911D01*
X208062Y668923D01*
G37*
D10*
X179150Y612200D03*
X179150Y556200D03*
D11*
X215900Y599200D03*
X215900Y589200D03*
X215900Y579200D03*
X215900Y569200D03*
D12*
X199000Y533400D03*
X182000Y533400D03*
D13*
X446786Y728100D03*
X446786Y745100D03*
X431800Y728100D03*
X431800Y745100D03*
X228600Y753500D03*
X228600Y770500D03*
D14*
X204820Y714460D03*
D13*
X495300Y473320D03*
X495300Y456320D03*
X546100Y474590D03*
X546100Y457590D03*
D15*
X200350Y477330D02*
X193350Y477330D01*
X200350Y477330D02*
X200350Y470330D01*
X193350Y470330D01*
X193350Y477330D01*
X193350Y473180D02*
X200350Y473180D01*
X200350Y476030D02*
X193350Y476030D01*
X193350Y494870D02*
X200350Y494870D01*
X200350Y487870D01*
X193350Y487870D01*
X193350Y494870D01*
X193350Y490720D02*
X200350Y490720D01*
X200350Y493570D02*
X193350Y493570D01*
D16*
X266700Y750500D03*
X266700Y773500D03*
D13*
X247650Y753500D03*
X247650Y770500D03*
X215900Y474100D03*
X215900Y491100D03*
D17*
X297050Y622200D03*
X297050Y603200D03*
X297050Y584200D03*
X297050Y565200D03*
X297050Y546200D03*
D18*
X330300Y512950D03*
X349300Y512950D03*
X368300Y512950D03*
X387300Y512950D03*
X406300Y512950D03*
D17*
X439550Y546200D03*
X439550Y565200D03*
X439550Y584200D03*
X439550Y603200D03*
X439550Y622200D03*
D18*
X406300Y655450D03*
X387300Y655450D03*
X368300Y655450D03*
X349300Y655450D03*
X330300Y655450D03*
D12*
X410600Y457200D03*
X427600Y457200D03*
X448700Y457200D03*
X465700Y457200D03*
X553330Y631190D03*
X536330Y631190D03*
D15*
X542100Y642930D02*
X542100Y649930D01*
X542100Y642930D02*
X535100Y642930D01*
X535100Y649930D01*
X542100Y649930D01*
X542100Y645780D02*
X535100Y645780D01*
X535100Y648630D02*
X542100Y648630D01*
X559640Y649930D02*
X559640Y642930D01*
X552640Y642930D01*
X552640Y649930D01*
X559640Y649930D01*
X559640Y645780D02*
X552640Y645780D01*
X552640Y648630D02*
X559640Y648630D01*
D19*
X598800Y583900D03*
X598800Y590400D03*
X598800Y596900D03*
X598800Y603400D03*
X598800Y609900D03*
D20*
X625800Y586900D03*
X625800Y606900D03*
D21*
X625800Y567900D03*
X625800Y625900D03*
M02*
