G04 EAGLE Gerber RS-274X export*
G75*
%MOMM*%
%FSLAX34Y34*%
%LPD*%
%INTop Copper*%
%IPPOS*%
%AMOC8*
5,1,8,0,0,1.08239X$1,22.5*%
G01*
%ADD10R,1.100000X1.000000*%
%ADD11R,1.651000X1.000000*%
%ADD12C,1.879600*%
%ADD13C,0.152400*%
%ADD14C,0.756400*%

G36*
X366112Y2301D02*
X366112Y2301D01*
X366202Y2309D01*
X366232Y2321D01*
X366264Y2326D01*
X366345Y2369D01*
X366429Y2405D01*
X366461Y2431D01*
X366482Y2442D01*
X366504Y2465D01*
X366560Y2510D01*
X405961Y41911D01*
X416313Y41911D01*
X416404Y41925D01*
X416494Y41933D01*
X416524Y41945D01*
X416556Y41950D01*
X416637Y41993D01*
X416721Y42029D01*
X416753Y42055D01*
X416774Y42066D01*
X416796Y42089D01*
X416852Y42134D01*
X477550Y102832D01*
X477603Y102906D01*
X477663Y102976D01*
X477675Y103006D01*
X477694Y103032D01*
X477721Y103119D01*
X477755Y103204D01*
X477759Y103245D01*
X477766Y103267D01*
X477765Y103299D01*
X477773Y103371D01*
X477773Y121343D01*
X491606Y135176D01*
X491648Y135234D01*
X491697Y135286D01*
X491719Y135333D01*
X491749Y135375D01*
X491770Y135444D01*
X491801Y135509D01*
X491806Y135561D01*
X491822Y135611D01*
X491820Y135682D01*
X491828Y135753D01*
X491817Y135804D01*
X491815Y135856D01*
X491791Y135924D01*
X491776Y135994D01*
X491749Y136039D01*
X491731Y136087D01*
X491686Y136143D01*
X491649Y136205D01*
X491610Y136239D01*
X491577Y136279D01*
X491517Y136318D01*
X491462Y136365D01*
X491414Y136384D01*
X491370Y136412D01*
X491301Y136430D01*
X491234Y136457D01*
X491163Y136465D01*
X491132Y136473D01*
X491108Y136471D01*
X491068Y136475D01*
X490854Y136475D01*
X489961Y137368D01*
X489961Y148632D01*
X490854Y149525D01*
X508627Y149525D01*
X509520Y148632D01*
X509520Y137368D01*
X508627Y136475D01*
X499689Y136475D01*
X499598Y136461D01*
X499508Y136453D01*
X499478Y136441D01*
X499446Y136436D01*
X499365Y136393D01*
X499281Y136357D01*
X499249Y136331D01*
X499228Y136320D01*
X499206Y136297D01*
X499150Y136252D01*
X482570Y119672D01*
X482517Y119598D01*
X482457Y119528D01*
X482445Y119498D01*
X482426Y119472D01*
X482399Y119385D01*
X482365Y119300D01*
X482361Y119259D01*
X482354Y119237D01*
X482355Y119205D01*
X482347Y119133D01*
X482347Y107942D01*
X482358Y107872D01*
X482360Y107800D01*
X482378Y107751D01*
X482386Y107700D01*
X482420Y107636D01*
X482445Y107569D01*
X482477Y107528D01*
X482502Y107482D01*
X482554Y107433D01*
X482598Y107377D01*
X482642Y107349D01*
X482680Y107313D01*
X482745Y107283D01*
X482805Y107244D01*
X482856Y107231D01*
X482903Y107209D01*
X482974Y107201D01*
X483044Y107184D01*
X483096Y107188D01*
X483147Y107182D01*
X483218Y107197D01*
X483289Y107203D01*
X483337Y107223D01*
X483388Y107234D01*
X483449Y107271D01*
X483515Y107299D01*
X483571Y107344D01*
X483599Y107361D01*
X483614Y107378D01*
X483646Y107404D01*
X488257Y112015D01*
X489199Y112015D01*
X489219Y112018D01*
X489239Y112016D01*
X489340Y112038D01*
X489442Y112054D01*
X489460Y112064D01*
X489479Y112068D01*
X489568Y112121D01*
X489660Y112170D01*
X489673Y112184D01*
X489690Y112194D01*
X489758Y112273D01*
X489829Y112348D01*
X489837Y112366D01*
X489850Y112381D01*
X489889Y112477D01*
X489933Y112571D01*
X489935Y112591D01*
X489942Y112609D01*
X489961Y112776D01*
X489961Y116632D01*
X490854Y117525D01*
X508627Y117525D01*
X509520Y116632D01*
X509520Y111647D01*
X509529Y111593D01*
X509528Y111538D01*
X509549Y111473D01*
X509560Y111405D01*
X509586Y111356D01*
X509602Y111304D01*
X509643Y111248D01*
X509675Y111187D01*
X509715Y111150D01*
X509747Y111105D01*
X509804Y111065D01*
X509853Y111018D01*
X509903Y110995D01*
X509948Y110963D01*
X510014Y110943D01*
X510076Y110914D01*
X510131Y110908D01*
X510184Y110892D01*
X510253Y110895D01*
X510321Y110887D01*
X510375Y110899D01*
X510430Y110901D01*
X510494Y110925D01*
X510561Y110939D01*
X510609Y110968D01*
X510660Y110987D01*
X510713Y111030D01*
X510772Y111066D01*
X510808Y111107D01*
X510851Y111142D01*
X510913Y111230D01*
X510932Y111253D01*
X510937Y111264D01*
X510948Y111279D01*
X519212Y126233D01*
X519222Y126260D01*
X519249Y126310D01*
X531850Y156731D01*
X531857Y156759D01*
X531878Y156811D01*
X540994Y188452D01*
X540997Y188481D01*
X541013Y188535D01*
X546528Y220997D01*
X546528Y221026D01*
X546538Y221082D01*
X548384Y253957D01*
X548381Y253986D01*
X548384Y254043D01*
X546538Y286918D01*
X546532Y286947D01*
X546528Y287003D01*
X541013Y319465D01*
X541003Y319492D01*
X540994Y319548D01*
X531878Y351189D01*
X531868Y351211D01*
X531866Y351219D01*
X531864Y351223D01*
X531850Y351269D01*
X519249Y381690D01*
X519234Y381715D01*
X519212Y381767D01*
X510948Y396721D01*
X510914Y396764D01*
X510888Y396813D01*
X510838Y396860D01*
X510795Y396914D01*
X510749Y396944D01*
X510709Y396982D01*
X510647Y397011D01*
X510590Y397049D01*
X510536Y397062D01*
X510486Y397086D01*
X510418Y397093D01*
X510352Y397111D01*
X510297Y397107D01*
X510242Y397113D01*
X510175Y397098D01*
X510106Y397093D01*
X510055Y397072D01*
X510002Y397060D01*
X509943Y397025D01*
X509879Y396999D01*
X509838Y396963D01*
X509790Y396934D01*
X509746Y396882D01*
X509694Y396837D01*
X509666Y396789D01*
X509631Y396747D01*
X509605Y396684D01*
X509570Y396624D01*
X509559Y396570D01*
X509539Y396519D01*
X509527Y396413D01*
X509521Y396383D01*
X509522Y396371D01*
X509520Y396353D01*
X509520Y391368D01*
X508627Y390475D01*
X490854Y390475D01*
X489961Y391368D01*
X489961Y402632D01*
X490854Y403525D01*
X505897Y403525D01*
X505984Y403539D01*
X506072Y403545D01*
X506105Y403559D01*
X506139Y403564D01*
X506217Y403606D01*
X506299Y403640D01*
X506326Y403663D01*
X506357Y403680D01*
X506418Y403743D01*
X506484Y403802D01*
X506502Y403832D01*
X506526Y403858D01*
X506563Y403938D01*
X506608Y404014D01*
X506615Y404049D01*
X506630Y404081D01*
X506640Y404169D01*
X506657Y404255D01*
X506653Y404290D01*
X506657Y404325D01*
X506638Y404412D01*
X506627Y404499D01*
X506610Y404541D01*
X506605Y404566D01*
X506589Y404593D01*
X506563Y404654D01*
X503285Y410586D01*
X503267Y410608D01*
X503239Y410658D01*
X484185Y437512D01*
X484165Y437533D01*
X484132Y437579D01*
X462191Y462131D01*
X462169Y462149D01*
X462131Y462191D01*
X437579Y484132D01*
X437554Y484148D01*
X437512Y484185D01*
X410658Y503239D01*
X410632Y503252D01*
X410586Y503285D01*
X381767Y519212D01*
X381740Y519222D01*
X381690Y519249D01*
X351269Y531850D01*
X351241Y531857D01*
X351189Y531878D01*
X323373Y539892D01*
X323318Y539898D01*
X323266Y539915D01*
X323197Y539913D01*
X323129Y539921D01*
X323075Y539910D01*
X323020Y539908D01*
X322955Y539885D01*
X322888Y539871D01*
X322840Y539843D01*
X322789Y539824D01*
X322735Y539781D01*
X322708Y539765D01*
X322705Y539776D01*
X322697Y539790D01*
X322692Y539807D01*
X322634Y539895D01*
X322579Y539987D01*
X322566Y539998D01*
X322557Y540012D01*
X322473Y540078D01*
X322392Y540147D01*
X322376Y540153D01*
X322363Y540164D01*
X322208Y540227D01*
X319548Y540994D01*
X319519Y540997D01*
X319465Y541013D01*
X287003Y546528D01*
X286974Y546528D01*
X286918Y546538D01*
X254043Y548384D01*
X254014Y548381D01*
X253957Y548384D01*
X221082Y546538D01*
X221053Y546532D01*
X220997Y546528D01*
X188535Y541013D01*
X188508Y541003D01*
X188452Y540994D01*
X156811Y531878D01*
X156785Y531866D01*
X156731Y531850D01*
X126310Y519249D01*
X126285Y519234D01*
X126233Y519212D01*
X97414Y503285D01*
X97392Y503267D01*
X97342Y503239D01*
X70488Y484185D01*
X70467Y484165D01*
X70421Y484132D01*
X45869Y462191D01*
X45851Y462169D01*
X45809Y462131D01*
X23868Y437579D01*
X23852Y437554D01*
X23815Y437512D01*
X4761Y410658D01*
X4748Y410632D01*
X4715Y410586D01*
X1999Y405670D01*
X1969Y405587D01*
X1932Y405507D01*
X1928Y405472D01*
X1916Y405439D01*
X1914Y405350D01*
X1905Y405263D01*
X1912Y405228D01*
X1911Y405193D01*
X1938Y405109D01*
X1957Y405022D01*
X1975Y404992D01*
X1986Y404958D01*
X2038Y404887D01*
X2083Y404811D01*
X2110Y404788D01*
X2131Y404760D01*
X2203Y404709D01*
X2270Y404651D01*
X2303Y404638D01*
X2332Y404618D01*
X2416Y404592D01*
X2498Y404559D01*
X2543Y404554D01*
X2567Y404547D01*
X2599Y404548D01*
X2665Y404541D01*
X6736Y404541D01*
X6736Y397762D01*
X6740Y397742D01*
X6737Y397723D01*
X6759Y397621D01*
X6776Y397519D01*
X6785Y397502D01*
X6790Y397482D01*
X6843Y397393D01*
X6891Y397302D01*
X6906Y397288D01*
X6916Y397271D01*
X6995Y397204D01*
X7070Y397133D01*
X7088Y397124D01*
X7103Y397111D01*
X7199Y397072D01*
X7293Y397029D01*
X7312Y397027D01*
X7331Y397019D01*
X7498Y397001D01*
X8260Y397001D01*
X8260Y396999D01*
X7498Y396999D01*
X7478Y396996D01*
X7458Y396998D01*
X7357Y396976D01*
X7255Y396959D01*
X7237Y396950D01*
X7218Y396946D01*
X7129Y396893D01*
X7037Y396844D01*
X7024Y396830D01*
X7007Y396820D01*
X6939Y396741D01*
X6868Y396666D01*
X6860Y396648D01*
X6847Y396633D01*
X6808Y396537D01*
X6764Y396443D01*
X6762Y396423D01*
X6755Y396405D01*
X6736Y396238D01*
X6736Y389459D01*
X-330Y389459D01*
X-976Y389632D01*
X-1555Y389967D01*
X-2029Y390440D01*
X-2363Y391019D01*
X-2536Y391666D01*
X-2536Y394514D01*
X-2545Y394569D01*
X-2544Y394624D01*
X-2565Y394689D01*
X-2576Y394757D01*
X-2602Y394806D01*
X-2618Y394858D01*
X-2659Y394914D01*
X-2691Y394974D01*
X-2731Y395012D01*
X-2763Y395057D01*
X-2820Y395096D01*
X-2869Y395144D01*
X-2919Y395167D01*
X-2964Y395199D01*
X-3030Y395218D01*
X-3092Y395247D01*
X-3147Y395253D01*
X-3200Y395269D01*
X-3269Y395267D01*
X-3337Y395274D01*
X-3391Y395263D01*
X-3446Y395261D01*
X-3510Y395237D01*
X-3577Y395222D01*
X-3625Y395194D01*
X-3676Y395175D01*
X-3729Y395131D01*
X-3788Y395096D01*
X-3824Y395054D01*
X-3867Y395019D01*
X-3929Y394932D01*
X-3948Y394909D01*
X-3953Y394898D01*
X-3964Y394882D01*
X-11212Y381767D01*
X-11222Y381740D01*
X-11249Y381690D01*
X-23850Y351269D01*
X-23857Y351241D01*
X-23878Y351189D01*
X-32994Y319548D01*
X-32997Y319519D01*
X-33013Y319465D01*
X-38528Y287003D01*
X-38528Y286974D01*
X-38538Y286918D01*
X-40384Y254043D01*
X-40381Y254014D01*
X-40384Y253957D01*
X-38538Y221082D01*
X-38532Y221053D01*
X-38528Y220997D01*
X-33013Y188535D01*
X-33003Y188508D01*
X-32994Y188452D01*
X-23878Y156811D01*
X-23866Y156785D01*
X-23850Y156731D01*
X-11249Y126310D01*
X-11234Y126285D01*
X-11212Y126233D01*
X-2948Y111279D01*
X-2914Y111236D01*
X-2888Y111187D01*
X-2838Y111140D01*
X-2795Y111086D01*
X-2749Y111056D01*
X-2709Y111018D01*
X-2647Y110989D01*
X-2590Y110951D01*
X-2536Y110938D01*
X-2486Y110914D01*
X-2418Y110907D01*
X-2352Y110889D01*
X-2297Y110893D01*
X-2242Y110887D01*
X-2175Y110902D01*
X-2106Y110907D01*
X-2055Y110928D01*
X-2002Y110940D01*
X-1943Y110975D01*
X-1879Y111001D01*
X-1838Y111037D01*
X-1790Y111066D01*
X-1746Y111118D01*
X-1694Y111163D01*
X-1666Y111211D01*
X-1631Y111253D01*
X-1605Y111316D01*
X-1570Y111376D01*
X-1559Y111430D01*
X-1539Y111481D01*
X-1527Y111587D01*
X-1521Y111617D01*
X-1522Y111629D01*
X-1520Y111647D01*
X-1520Y116632D01*
X-627Y117525D01*
X17146Y117525D01*
X18039Y116632D01*
X18039Y105368D01*
X17146Y104475D01*
X12192Y104475D01*
X12172Y104472D01*
X12153Y104474D01*
X12051Y104452D01*
X11949Y104436D01*
X11932Y104426D01*
X11912Y104422D01*
X11823Y104369D01*
X11732Y104320D01*
X11718Y104306D01*
X11701Y104296D01*
X11634Y104217D01*
X11562Y104142D01*
X11554Y104124D01*
X11541Y104109D01*
X11502Y104013D01*
X11459Y103919D01*
X11457Y103899D01*
X11449Y103881D01*
X11431Y103714D01*
X11431Y100323D01*
X11445Y100232D01*
X11453Y100142D01*
X11465Y100112D01*
X11470Y100080D01*
X11513Y99999D01*
X11549Y99915D01*
X11575Y99883D01*
X11586Y99862D01*
X11609Y99840D01*
X11654Y99784D01*
X89155Y22283D01*
X89155Y16503D01*
X89169Y16413D01*
X89177Y16322D01*
X89189Y16292D01*
X89194Y16260D01*
X89237Y16179D01*
X89273Y16095D01*
X89299Y16063D01*
X89310Y16042D01*
X89333Y16020D01*
X89378Y15964D01*
X90151Y15191D01*
X90209Y15149D01*
X90261Y15100D01*
X90308Y15078D01*
X90350Y15048D01*
X90419Y15027D01*
X90484Y14996D01*
X90536Y14991D01*
X90586Y14975D01*
X90657Y14977D01*
X90728Y14969D01*
X90779Y14980D01*
X90831Y14982D01*
X90899Y15006D01*
X90969Y15021D01*
X91014Y15048D01*
X91062Y15066D01*
X91118Y15111D01*
X91180Y15148D01*
X91214Y15187D01*
X91254Y15220D01*
X91293Y15280D01*
X91340Y15335D01*
X91359Y15383D01*
X91387Y15427D01*
X91405Y15496D01*
X91432Y15563D01*
X91440Y15634D01*
X91448Y15665D01*
X91446Y15689D01*
X91450Y15729D01*
X91450Y23661D01*
X92343Y24554D01*
X97536Y24554D01*
X97556Y24558D01*
X97575Y24555D01*
X97677Y24577D01*
X97779Y24594D01*
X97796Y24603D01*
X97816Y24608D01*
X97905Y24661D01*
X97996Y24709D01*
X98010Y24724D01*
X98027Y24734D01*
X98094Y24812D01*
X98166Y24887D01*
X98174Y24906D01*
X98187Y24921D01*
X98226Y25017D01*
X98269Y25111D01*
X98271Y25130D01*
X98279Y25149D01*
X98297Y25316D01*
X98297Y26169D01*
X98283Y26260D01*
X98275Y26350D01*
X98263Y26380D01*
X98258Y26412D01*
X98215Y26493D01*
X98179Y26577D01*
X98153Y26609D01*
X98142Y26630D01*
X98119Y26652D01*
X98074Y26708D01*
X43433Y81349D01*
X43433Y119819D01*
X58489Y134875D01*
X70365Y134875D01*
X70456Y134889D01*
X70546Y134897D01*
X70576Y134909D01*
X70608Y134914D01*
X70689Y134957D01*
X70773Y134993D01*
X70805Y135019D01*
X70826Y135030D01*
X70848Y135053D01*
X70904Y135098D01*
X72166Y136360D01*
X72219Y136434D01*
X72279Y136504D01*
X72291Y136534D01*
X72310Y136560D01*
X72337Y136647D01*
X72371Y136732D01*
X72375Y136773D01*
X72382Y136795D01*
X72381Y136827D01*
X72389Y136899D01*
X72389Y170949D01*
X72375Y171040D01*
X72367Y171130D01*
X72355Y171160D01*
X72350Y171192D01*
X72307Y171273D01*
X72271Y171357D01*
X72245Y171389D01*
X72234Y171410D01*
X72211Y171432D01*
X72166Y171488D01*
X63022Y180632D01*
X62964Y180674D01*
X62912Y180723D01*
X62865Y180745D01*
X62823Y180775D01*
X62754Y180796D01*
X62689Y180827D01*
X62637Y180832D01*
X62587Y180848D01*
X62516Y180846D01*
X62445Y180854D01*
X62394Y180843D01*
X62342Y180841D01*
X62274Y180817D01*
X62204Y180802D01*
X62159Y180775D01*
X62111Y180757D01*
X62055Y180712D01*
X61993Y180675D01*
X61959Y180636D01*
X61919Y180603D01*
X61880Y180543D01*
X61833Y180488D01*
X61814Y180440D01*
X61786Y180396D01*
X61768Y180327D01*
X61741Y180260D01*
X61733Y180189D01*
X61725Y180158D01*
X61727Y180134D01*
X61723Y180094D01*
X61723Y150286D01*
X61726Y150266D01*
X61724Y150247D01*
X61746Y150145D01*
X61762Y150043D01*
X61772Y150026D01*
X61776Y150006D01*
X61829Y149917D01*
X61878Y149826D01*
X61892Y149812D01*
X61902Y149795D01*
X61981Y149728D01*
X62056Y149656D01*
X62074Y149648D01*
X62089Y149635D01*
X62185Y149596D01*
X62279Y149553D01*
X62299Y149551D01*
X62317Y149543D01*
X62484Y149525D01*
X68686Y149525D01*
X69579Y148632D01*
X69579Y137368D01*
X68686Y136475D01*
X50913Y136475D01*
X50020Y137368D01*
X50020Y148632D01*
X50913Y149525D01*
X56388Y149525D01*
X56408Y149528D01*
X56427Y149526D01*
X56529Y149548D01*
X56631Y149564D01*
X56648Y149574D01*
X56668Y149578D01*
X56757Y149631D01*
X56848Y149680D01*
X56862Y149694D01*
X56879Y149704D01*
X56946Y149783D01*
X57018Y149858D01*
X57026Y149876D01*
X57039Y149891D01*
X57078Y149987D01*
X57121Y150081D01*
X57123Y150101D01*
X57131Y150119D01*
X57149Y150286D01*
X57149Y181617D01*
X57135Y181708D01*
X57127Y181798D01*
X57115Y181828D01*
X57110Y181860D01*
X57067Y181941D01*
X57031Y182025D01*
X57005Y182057D01*
X56994Y182078D01*
X56971Y182100D01*
X56926Y182156D01*
X8381Y230701D01*
X8381Y357714D01*
X8378Y357734D01*
X8380Y357753D01*
X8358Y357855D01*
X8342Y357957D01*
X8332Y357974D01*
X8328Y357994D01*
X8275Y358083D01*
X8226Y358174D01*
X8212Y358188D01*
X8202Y358205D01*
X8123Y358272D01*
X8048Y358344D01*
X8030Y358352D01*
X8015Y358365D01*
X7919Y358404D01*
X7825Y358447D01*
X7805Y358449D01*
X7787Y358457D01*
X7620Y358475D01*
X-627Y358475D01*
X-1520Y359368D01*
X-1520Y370632D01*
X-627Y371525D01*
X17146Y371525D01*
X18039Y370632D01*
X18039Y359368D01*
X17146Y358475D01*
X13716Y358475D01*
X13696Y358472D01*
X13677Y358474D01*
X13575Y358452D01*
X13473Y358436D01*
X13456Y358426D01*
X13436Y358422D01*
X13347Y358369D01*
X13256Y358320D01*
X13242Y358306D01*
X13225Y358296D01*
X13158Y358217D01*
X13086Y358142D01*
X13078Y358124D01*
X13065Y358109D01*
X13026Y358013D01*
X12983Y357919D01*
X12981Y357899D01*
X12973Y357881D01*
X12955Y357714D01*
X12955Y258818D01*
X12957Y258803D01*
X12956Y258789D01*
X12967Y258739D01*
X12968Y258676D01*
X12986Y258627D01*
X12994Y258576D01*
X13007Y258552D01*
X13008Y258548D01*
X13017Y258533D01*
X13028Y258512D01*
X13053Y258445D01*
X13085Y258404D01*
X13110Y258358D01*
X13161Y258309D01*
X13206Y258253D01*
X13250Y258225D01*
X13288Y258189D01*
X13353Y258159D01*
X13413Y258120D01*
X13464Y258107D01*
X13511Y258085D01*
X13582Y258077D01*
X13652Y258060D01*
X13704Y258064D01*
X13755Y258058D01*
X13826Y258073D01*
X13897Y258079D01*
X13945Y258099D01*
X13996Y258110D01*
X14057Y258147D01*
X14123Y258175D01*
X14172Y258214D01*
X14186Y258222D01*
X14191Y258227D01*
X14207Y258237D01*
X14222Y258254D01*
X14254Y258280D01*
X18150Y262176D01*
X18192Y262234D01*
X18241Y262286D01*
X18263Y262333D01*
X18293Y262375D01*
X18314Y262444D01*
X18345Y262509D01*
X18350Y262561D01*
X18366Y262611D01*
X18364Y262682D01*
X18372Y262753D01*
X18361Y262804D01*
X18359Y262856D01*
X18335Y262924D01*
X18320Y262994D01*
X18293Y263038D01*
X18275Y263087D01*
X18230Y263143D01*
X18193Y263205D01*
X18154Y263239D01*
X18121Y263279D01*
X18061Y263318D01*
X18006Y263365D01*
X17958Y263384D01*
X17914Y263412D01*
X17845Y263430D01*
X17778Y263457D01*
X17707Y263465D01*
X17676Y263473D01*
X17652Y263471D01*
X17612Y263475D01*
X16883Y263475D01*
X15990Y264368D01*
X15990Y275632D01*
X16883Y276525D01*
X34657Y276525D01*
X35550Y275632D01*
X35550Y264368D01*
X34657Y263475D01*
X26233Y263475D01*
X26142Y263461D01*
X26052Y263453D01*
X26022Y263441D01*
X25990Y263436D01*
X25909Y263393D01*
X25825Y263357D01*
X25793Y263331D01*
X25772Y263320D01*
X25750Y263297D01*
X25694Y263252D01*
X16226Y253784D01*
X16173Y253710D01*
X16113Y253640D01*
X16101Y253610D01*
X16082Y253584D01*
X16055Y253497D01*
X16021Y253412D01*
X16017Y253371D01*
X16010Y253349D01*
X16011Y253317D01*
X16003Y253245D01*
X16003Y245286D01*
X16006Y245266D01*
X16004Y245247D01*
X16026Y245145D01*
X16042Y245043D01*
X16052Y245026D01*
X16056Y245006D01*
X16109Y244917D01*
X16158Y244826D01*
X16172Y244812D01*
X16182Y244795D01*
X16261Y244728D01*
X16336Y244656D01*
X16354Y244648D01*
X16369Y244635D01*
X16465Y244596D01*
X16559Y244553D01*
X16579Y244551D01*
X16597Y244543D01*
X16764Y244525D01*
X34657Y244525D01*
X35550Y243632D01*
X35550Y243313D01*
X35561Y243243D01*
X35563Y243171D01*
X35581Y243122D01*
X35589Y243071D01*
X35623Y243007D01*
X35648Y242940D01*
X35680Y242899D01*
X35705Y242853D01*
X35757Y242804D01*
X35801Y242748D01*
X35845Y242720D01*
X35883Y242684D01*
X35948Y242654D01*
X36008Y242615D01*
X36059Y242602D01*
X36106Y242580D01*
X36177Y242572D01*
X36247Y242555D01*
X36299Y242559D01*
X36350Y242553D01*
X36421Y242568D01*
X36492Y242574D01*
X36540Y242594D01*
X36591Y242605D01*
X36652Y242642D01*
X36718Y242670D01*
X36774Y242715D01*
X36802Y242732D01*
X36817Y242749D01*
X36849Y242775D01*
X37376Y243302D01*
X50869Y256795D01*
X59914Y256795D01*
X59934Y256798D01*
X59953Y256796D01*
X60055Y256818D01*
X60157Y256834D01*
X60174Y256844D01*
X60194Y256848D01*
X60283Y256901D01*
X60374Y256950D01*
X60388Y256964D01*
X60405Y256974D01*
X60472Y257053D01*
X60544Y257128D01*
X60552Y257146D01*
X60565Y257161D01*
X60604Y257257D01*
X60647Y257351D01*
X60649Y257371D01*
X60657Y257389D01*
X60675Y257556D01*
X60675Y259632D01*
X61568Y260525D01*
X64951Y260525D01*
X65042Y260539D01*
X65132Y260547D01*
X65162Y260559D01*
X65194Y260564D01*
X65275Y260607D01*
X65359Y260643D01*
X65391Y260669D01*
X65412Y260680D01*
X65434Y260703D01*
X65490Y260748D01*
X76738Y271996D01*
X76781Y272055D01*
X76825Y272102D01*
X76833Y272119D01*
X76851Y272140D01*
X76863Y272170D01*
X76882Y272196D01*
X76907Y272278D01*
X76929Y272325D01*
X76930Y272337D01*
X76943Y272368D01*
X76947Y272409D01*
X76954Y272431D01*
X76953Y272463D01*
X76961Y272535D01*
X76961Y341638D01*
X76947Y341728D01*
X76939Y341819D01*
X76927Y341848D01*
X76922Y341880D01*
X76879Y341961D01*
X76843Y342045D01*
X76817Y342077D01*
X76806Y342098D01*
X76783Y342120D01*
X76738Y342176D01*
X60662Y358252D01*
X60588Y358305D01*
X60518Y358365D01*
X60488Y358377D01*
X60462Y358396D01*
X60375Y358423D01*
X60290Y358457D01*
X60249Y358461D01*
X60227Y358468D01*
X60195Y358467D01*
X60124Y358475D01*
X50913Y358475D01*
X50020Y359368D01*
X50020Y370632D01*
X50913Y371525D01*
X68686Y371525D01*
X69579Y370632D01*
X69579Y359368D01*
X68675Y358464D01*
X68674Y358464D01*
X68602Y358462D01*
X68553Y358444D01*
X68502Y358436D01*
X68438Y358402D01*
X68371Y358377D01*
X68330Y358345D01*
X68284Y358320D01*
X68235Y358269D01*
X68179Y358224D01*
X68151Y358180D01*
X68115Y358142D01*
X68085Y358077D01*
X68046Y358017D01*
X68033Y357966D01*
X68011Y357919D01*
X68003Y357848D01*
X67986Y357778D01*
X67990Y357726D01*
X67984Y357675D01*
X67999Y357604D01*
X68005Y357533D01*
X68025Y357485D01*
X68036Y357434D01*
X68073Y357373D01*
X68101Y357307D01*
X68146Y357251D01*
X68163Y357223D01*
X68180Y357208D01*
X68206Y357176D01*
X79972Y345410D01*
X80046Y345357D01*
X80116Y345297D01*
X80146Y345285D01*
X80172Y345266D01*
X80259Y345239D01*
X80344Y345205D01*
X80385Y345201D01*
X80407Y345194D01*
X80439Y345195D01*
X80510Y345187D01*
X83735Y345187D01*
X83754Y345190D01*
X83774Y345188D01*
X83875Y345210D01*
X83977Y345226D01*
X83995Y345236D01*
X84015Y345240D01*
X84104Y345293D01*
X84195Y345342D01*
X84209Y345356D01*
X84226Y345366D01*
X84293Y345445D01*
X84364Y345520D01*
X84373Y345538D01*
X84386Y345553D01*
X84424Y345649D01*
X84468Y345743D01*
X84470Y345763D01*
X84477Y345781D01*
X84496Y345948D01*
X84496Y348532D01*
X85389Y349425D01*
X89916Y349425D01*
X89936Y349428D01*
X89955Y349426D01*
X90057Y349448D01*
X90159Y349464D01*
X90176Y349474D01*
X90196Y349478D01*
X90285Y349531D01*
X90376Y349580D01*
X90390Y349594D01*
X90407Y349604D01*
X90474Y349683D01*
X90546Y349758D01*
X90554Y349776D01*
X90567Y349791D01*
X90606Y349887D01*
X90649Y349981D01*
X90651Y350001D01*
X90659Y350019D01*
X90677Y350186D01*
X90677Y351467D01*
X148366Y409156D01*
X149352Y410142D01*
X149405Y410216D01*
X149465Y410286D01*
X149477Y410316D01*
X149496Y410342D01*
X149523Y410429D01*
X149557Y410514D01*
X149561Y410555D01*
X149568Y410577D01*
X149567Y410609D01*
X149575Y410680D01*
X149575Y413611D01*
X150468Y414504D01*
X153924Y414504D01*
X153944Y414507D01*
X153963Y414505D01*
X154065Y414527D01*
X154167Y414544D01*
X154184Y414553D01*
X154204Y414557D01*
X154293Y414611D01*
X154384Y414659D01*
X154398Y414673D01*
X154415Y414684D01*
X154482Y414762D01*
X154554Y414837D01*
X154562Y414855D01*
X154575Y414870D01*
X154614Y414967D01*
X154657Y415060D01*
X154659Y415080D01*
X154667Y415099D01*
X154685Y415265D01*
X154685Y450684D01*
X154683Y450695D01*
X154684Y450702D01*
X154683Y450710D01*
X154684Y450724D01*
X154662Y450825D01*
X154646Y450927D01*
X154636Y450945D01*
X154632Y450964D01*
X154579Y451053D01*
X154530Y451145D01*
X154516Y451158D01*
X154506Y451175D01*
X154427Y451243D01*
X154352Y451314D01*
X154334Y451322D01*
X154319Y451335D01*
X154223Y451374D01*
X154129Y451418D01*
X154109Y451420D01*
X154091Y451427D01*
X153924Y451446D01*
X143883Y451446D01*
X142990Y452339D01*
X142990Y463602D01*
X143883Y464495D01*
X161657Y464495D01*
X162550Y463602D01*
X162550Y452339D01*
X161657Y451446D01*
X160020Y451446D01*
X160000Y451442D01*
X159981Y451445D01*
X159879Y451423D01*
X159777Y451406D01*
X159760Y451397D01*
X159740Y451392D01*
X159651Y451339D01*
X159560Y451291D01*
X159546Y451276D01*
X159529Y451266D01*
X159462Y451188D01*
X159390Y451113D01*
X159382Y451094D01*
X159369Y451079D01*
X159330Y450983D01*
X159287Y450889D01*
X159285Y450870D01*
X159277Y450851D01*
X159259Y450684D01*
X159259Y434340D01*
X159262Y434320D01*
X159260Y434301D01*
X159282Y434199D01*
X159298Y434097D01*
X159308Y434080D01*
X159312Y434060D01*
X159365Y433971D01*
X159414Y433880D01*
X159428Y433866D01*
X159438Y433849D01*
X159517Y433782D01*
X159592Y433710D01*
X159610Y433702D01*
X159625Y433689D01*
X159721Y433650D01*
X159815Y433607D01*
X159835Y433605D01*
X159853Y433597D01*
X160020Y433579D01*
X237714Y433579D01*
X237734Y433582D01*
X237753Y433580D01*
X237855Y433602D01*
X237957Y433618D01*
X237974Y433628D01*
X237994Y433632D01*
X238083Y433685D01*
X238174Y433734D01*
X238188Y433748D01*
X238205Y433758D01*
X238272Y433837D01*
X238344Y433912D01*
X238352Y433930D01*
X238365Y433945D01*
X238404Y434041D01*
X238447Y434135D01*
X238449Y434155D01*
X238457Y434173D01*
X238475Y434340D01*
X238475Y437432D01*
X239368Y438325D01*
X242316Y438325D01*
X242336Y438328D01*
X242355Y438326D01*
X242457Y438348D01*
X242559Y438364D01*
X242576Y438374D01*
X242596Y438378D01*
X242685Y438431D01*
X242776Y438480D01*
X242790Y438494D01*
X242807Y438504D01*
X242874Y438583D01*
X242946Y438658D01*
X242954Y438676D01*
X242967Y438691D01*
X243006Y438787D01*
X243049Y438881D01*
X243051Y438901D01*
X243059Y438919D01*
X243077Y439086D01*
X243077Y455099D01*
X262928Y474950D01*
X272154Y484176D01*
X272196Y484234D01*
X272245Y484286D01*
X272267Y484333D01*
X272297Y484375D01*
X272318Y484444D01*
X272349Y484509D01*
X272354Y484561D01*
X272370Y484611D01*
X272368Y484682D01*
X272376Y484753D01*
X272365Y484804D01*
X272363Y484856D01*
X272339Y484924D01*
X272324Y484994D01*
X272297Y485039D01*
X272279Y485087D01*
X272234Y485143D01*
X272197Y485205D01*
X272158Y485239D01*
X272125Y485279D01*
X272065Y485318D01*
X272010Y485365D01*
X271962Y485384D01*
X271918Y485412D01*
X271849Y485430D01*
X271782Y485457D01*
X271711Y485465D01*
X271680Y485473D01*
X271656Y485471D01*
X271616Y485475D01*
X270883Y485475D01*
X269990Y486368D01*
X269990Y497632D01*
X270883Y498525D01*
X288657Y498525D01*
X289550Y497632D01*
X289550Y486368D01*
X288657Y485475D01*
X280236Y485475D01*
X280146Y485461D01*
X280055Y485453D01*
X280026Y485441D01*
X279994Y485436D01*
X279913Y485393D01*
X279829Y485357D01*
X279797Y485331D01*
X279776Y485320D01*
X279754Y485297D01*
X279698Y485252D01*
X279616Y485170D01*
X267424Y472978D01*
X267413Y472962D01*
X267397Y472950D01*
X267341Y472862D01*
X267281Y472779D01*
X267275Y472760D01*
X267264Y472743D01*
X267239Y472642D01*
X267208Y472543D01*
X267209Y472524D01*
X267204Y472504D01*
X267212Y472401D01*
X267215Y472298D01*
X267222Y472279D01*
X267223Y472259D01*
X267263Y472164D01*
X267299Y472067D01*
X267312Y472051D01*
X267319Y472033D01*
X267424Y471902D01*
X326076Y413250D01*
X326134Y413208D01*
X326186Y413159D01*
X326233Y413137D01*
X326275Y413107D01*
X326344Y413086D01*
X326409Y413055D01*
X326461Y413050D01*
X326511Y413034D01*
X326582Y413036D01*
X326653Y413028D01*
X326704Y413039D01*
X326756Y413041D01*
X326824Y413065D01*
X326894Y413080D01*
X326938Y413107D01*
X326987Y413125D01*
X327043Y413170D01*
X327105Y413207D01*
X327139Y413246D01*
X327179Y413279D01*
X327218Y413339D01*
X327265Y413394D01*
X327284Y413442D01*
X327312Y413486D01*
X327330Y413555D01*
X327337Y413573D01*
X328268Y414504D01*
X340532Y414504D01*
X341425Y413611D01*
X341425Y402348D01*
X340532Y401455D01*
X339709Y401455D01*
X339638Y401443D01*
X339567Y401441D01*
X339518Y401423D01*
X339466Y401415D01*
X339403Y401381D01*
X339336Y401357D01*
X339295Y401324D01*
X339249Y401300D01*
X339200Y401248D01*
X339144Y401203D01*
X339115Y401159D01*
X339080Y401121D01*
X339049Y401056D01*
X339011Y400996D01*
X338998Y400946D01*
X338976Y400898D01*
X338968Y400827D01*
X338951Y400758D01*
X338955Y400706D01*
X338949Y400654D01*
X338964Y400584D01*
X338970Y400512D01*
X338990Y400465D01*
X339001Y400414D01*
X339038Y400352D01*
X339066Y400286D01*
X339111Y400230D01*
X339127Y400202D01*
X339145Y400187D01*
X339171Y400155D01*
X349982Y389344D01*
X349998Y389333D01*
X350010Y389317D01*
X350098Y389261D01*
X350181Y389201D01*
X350200Y389195D01*
X350217Y389184D01*
X350318Y389159D01*
X350417Y389128D01*
X350436Y389129D01*
X350456Y389124D01*
X350559Y389132D01*
X350662Y389135D01*
X350681Y389142D01*
X350701Y389143D01*
X350796Y389183D01*
X350893Y389219D01*
X350909Y389232D01*
X350927Y389239D01*
X351058Y389344D01*
X404398Y442684D01*
X404451Y442758D01*
X404511Y442828D01*
X404523Y442858D01*
X404542Y442884D01*
X404569Y442971D01*
X404603Y443056D01*
X404607Y443097D01*
X404614Y443119D01*
X404613Y443151D01*
X404621Y443223D01*
X404621Y450684D01*
X404619Y450695D01*
X404620Y450702D01*
X404619Y450710D01*
X404620Y450724D01*
X404598Y450825D01*
X404582Y450927D01*
X404572Y450945D01*
X404568Y450964D01*
X404515Y451053D01*
X404466Y451145D01*
X404452Y451158D01*
X404442Y451175D01*
X404363Y451243D01*
X404288Y451314D01*
X404270Y451322D01*
X404255Y451335D01*
X404159Y451374D01*
X404065Y451418D01*
X404045Y451420D01*
X404027Y451427D01*
X403860Y451446D01*
X397883Y451446D01*
X396990Y452339D01*
X396990Y463602D01*
X397883Y464495D01*
X412829Y464495D01*
X412900Y464507D01*
X412972Y464509D01*
X413021Y464527D01*
X413072Y464535D01*
X413135Y464568D01*
X413203Y464593D01*
X413243Y464626D01*
X413289Y464650D01*
X413339Y464702D01*
X413395Y464747D01*
X413423Y464791D01*
X413459Y464828D01*
X413489Y464893D01*
X413528Y464954D01*
X413540Y465004D01*
X413562Y465051D01*
X413570Y465123D01*
X413588Y465192D01*
X413584Y465244D01*
X413589Y465296D01*
X413574Y465366D01*
X413569Y465437D01*
X413548Y465485D01*
X413537Y465536D01*
X413500Y465598D01*
X413472Y465664D01*
X413427Y465720D01*
X413411Y465747D01*
X413393Y465763D01*
X413367Y465795D01*
X412280Y466882D01*
X412206Y466935D01*
X412136Y466995D01*
X412106Y467007D01*
X412080Y467026D01*
X411993Y467053D01*
X411908Y467087D01*
X411867Y467091D01*
X411845Y467098D01*
X411813Y467097D01*
X411741Y467105D01*
X397503Y467105D01*
X397412Y467091D01*
X397322Y467083D01*
X397292Y467071D01*
X397260Y467066D01*
X397179Y467023D01*
X397095Y466987D01*
X397063Y466961D01*
X397042Y466950D01*
X397020Y466927D01*
X396964Y466882D01*
X386519Y456437D01*
X365771Y456437D01*
X365751Y456434D01*
X365732Y456436D01*
X365630Y456414D01*
X365528Y456398D01*
X365511Y456388D01*
X365491Y456384D01*
X365402Y456331D01*
X365311Y456282D01*
X365297Y456268D01*
X365280Y456258D01*
X365213Y456179D01*
X365141Y456104D01*
X365133Y456086D01*
X365120Y456071D01*
X365081Y455975D01*
X365038Y455881D01*
X365036Y455861D01*
X365028Y455843D01*
X365010Y455676D01*
X365010Y452339D01*
X364117Y451446D01*
X346343Y451446D01*
X345450Y452339D01*
X345450Y463602D01*
X346343Y464495D01*
X364117Y464495D01*
X365010Y463602D01*
X365010Y461772D01*
X365013Y461752D01*
X365011Y461733D01*
X365033Y461631D01*
X365049Y461529D01*
X365059Y461512D01*
X365063Y461492D01*
X365116Y461403D01*
X365165Y461312D01*
X365179Y461298D01*
X365189Y461281D01*
X365268Y461214D01*
X365343Y461142D01*
X365361Y461134D01*
X365376Y461121D01*
X365472Y461082D01*
X365566Y461039D01*
X365586Y461037D01*
X365604Y461029D01*
X365771Y461011D01*
X384309Y461011D01*
X384400Y461025D01*
X384490Y461033D01*
X384520Y461045D01*
X384552Y461050D01*
X384633Y461093D01*
X384717Y461129D01*
X384749Y461155D01*
X384770Y461166D01*
X384792Y461189D01*
X384848Y461234D01*
X395293Y471679D01*
X410218Y471679D01*
X410288Y471690D01*
X410360Y471692D01*
X410409Y471710D01*
X410460Y471718D01*
X410524Y471752D01*
X410591Y471777D01*
X410632Y471809D01*
X410678Y471834D01*
X410727Y471886D01*
X410783Y471930D01*
X410811Y471974D01*
X410847Y472012D01*
X410877Y472077D01*
X410916Y472137D01*
X410929Y472188D01*
X410951Y472235D01*
X410959Y472306D01*
X410976Y472376D01*
X410972Y472428D01*
X410978Y472479D01*
X410963Y472550D01*
X410957Y472621D01*
X410937Y472669D01*
X410926Y472720D01*
X410889Y472781D01*
X410861Y472847D01*
X410816Y472903D01*
X410799Y472931D01*
X410782Y472946D01*
X410756Y472978D01*
X407708Y476026D01*
X407634Y476079D01*
X407564Y476139D01*
X407534Y476151D01*
X407508Y476170D01*
X407421Y476197D01*
X407336Y476231D01*
X407295Y476235D01*
X407273Y476242D01*
X407241Y476241D01*
X407169Y476249D01*
X334333Y476249D01*
X290849Y519733D01*
X290791Y519775D01*
X290739Y519824D01*
X290692Y519846D01*
X290650Y519876D01*
X290581Y519897D01*
X290516Y519928D01*
X290464Y519933D01*
X290414Y519949D01*
X290343Y519947D01*
X290272Y519955D01*
X290221Y519944D01*
X290169Y519942D01*
X290101Y519918D01*
X290031Y519903D01*
X289986Y519876D01*
X289938Y519858D01*
X289882Y519813D01*
X289820Y519776D01*
X289786Y519737D01*
X289746Y519704D01*
X289707Y519644D01*
X289660Y519589D01*
X289641Y519541D01*
X289613Y519497D01*
X289595Y519428D01*
X289568Y519361D01*
X289560Y519290D01*
X289552Y519259D01*
X289554Y519235D01*
X289550Y519195D01*
X289550Y518368D01*
X288657Y517475D01*
X270883Y517475D01*
X269990Y518368D01*
X269990Y529632D01*
X270883Y530525D01*
X288657Y530525D01*
X289550Y529632D01*
X289550Y525780D01*
X289553Y525760D01*
X289551Y525741D01*
X289573Y525639D01*
X289589Y525537D01*
X289599Y525520D01*
X289603Y525500D01*
X289656Y525411D01*
X289705Y525320D01*
X289719Y525306D01*
X289729Y525289D01*
X289808Y525222D01*
X289883Y525150D01*
X289901Y525142D01*
X289916Y525129D01*
X290012Y525090D01*
X290106Y525047D01*
X290126Y525045D01*
X290144Y525037D01*
X290311Y525019D01*
X292031Y525019D01*
X336004Y481046D01*
X336078Y480993D01*
X336148Y480933D01*
X336178Y480921D01*
X336204Y480902D01*
X336291Y480875D01*
X336376Y480841D01*
X336417Y480837D01*
X336439Y480830D01*
X336471Y480831D01*
X336543Y480823D01*
X409379Y480823D01*
X422911Y467291D01*
X422911Y402075D01*
X422925Y401984D01*
X422933Y401894D01*
X422945Y401864D01*
X422950Y401832D01*
X422993Y401751D01*
X423029Y401667D01*
X423055Y401635D01*
X423066Y401614D01*
X423089Y401592D01*
X423134Y401536D01*
X450343Y374327D01*
X450343Y372286D01*
X450346Y372266D01*
X450344Y372247D01*
X450366Y372145D01*
X450382Y372043D01*
X450392Y372026D01*
X450396Y372006D01*
X450449Y371917D01*
X450498Y371826D01*
X450512Y371812D01*
X450522Y371795D01*
X450601Y371728D01*
X450676Y371656D01*
X450694Y371648D01*
X450709Y371635D01*
X450805Y371596D01*
X450899Y371553D01*
X450919Y371551D01*
X450937Y371543D01*
X451104Y371525D01*
X457087Y371525D01*
X457980Y370632D01*
X457980Y359368D01*
X457087Y358475D01*
X439314Y358475D01*
X438421Y359368D01*
X438421Y370632D01*
X439314Y371525D01*
X444840Y371525D01*
X444910Y371536D01*
X444982Y371538D01*
X445031Y371556D01*
X445082Y371564D01*
X445146Y371598D01*
X445213Y371623D01*
X445254Y371655D01*
X445300Y371680D01*
X445349Y371731D01*
X445405Y371776D01*
X445433Y371820D01*
X445469Y371858D01*
X445499Y371923D01*
X445538Y371983D01*
X445551Y372034D01*
X445573Y372081D01*
X445581Y372152D01*
X445598Y372222D01*
X445594Y372274D01*
X445600Y372325D01*
X445585Y372396D01*
X445579Y372467D01*
X445559Y372515D01*
X445548Y372566D01*
X445511Y372627D01*
X445483Y372693D01*
X445438Y372749D01*
X445421Y372777D01*
X445404Y372792D01*
X445378Y372824D01*
X421162Y397040D01*
X421104Y397082D01*
X421052Y397131D01*
X421005Y397153D01*
X420963Y397183D01*
X420894Y397204D01*
X420829Y397235D01*
X420777Y397240D01*
X420727Y397256D01*
X420656Y397254D01*
X420585Y397262D01*
X420534Y397251D01*
X420482Y397249D01*
X420414Y397225D01*
X420344Y397210D01*
X420300Y397183D01*
X420251Y397165D01*
X420195Y397120D01*
X420133Y397083D01*
X420099Y397044D01*
X420059Y397011D01*
X420020Y396951D01*
X419973Y396896D01*
X419954Y396848D01*
X419926Y396804D01*
X419908Y396735D01*
X419881Y396668D01*
X419873Y396597D01*
X419865Y396566D01*
X419867Y396542D01*
X419863Y396502D01*
X419863Y374643D01*
X419877Y374552D01*
X419885Y374462D01*
X419897Y374432D01*
X419902Y374400D01*
X419945Y374319D01*
X419981Y374235D01*
X420007Y374203D01*
X420018Y374182D01*
X420041Y374160D01*
X420086Y374104D01*
X518884Y275306D01*
X518958Y275253D01*
X519028Y275193D01*
X519058Y275181D01*
X519084Y275162D01*
X519171Y275135D01*
X519256Y275101D01*
X519297Y275097D01*
X519319Y275090D01*
X519351Y275091D01*
X519423Y275083D01*
X523229Y275083D01*
X523249Y275086D01*
X523268Y275084D01*
X523370Y275106D01*
X523472Y275122D01*
X523489Y275132D01*
X523509Y275136D01*
X523598Y275189D01*
X523689Y275238D01*
X523703Y275252D01*
X523720Y275262D01*
X523787Y275341D01*
X523859Y275416D01*
X523867Y275434D01*
X523880Y275449D01*
X523919Y275545D01*
X523931Y275573D01*
X524883Y276525D01*
X542657Y276525D01*
X543550Y275632D01*
X543550Y264368D01*
X542657Y263475D01*
X524883Y263475D01*
X523990Y264368D01*
X523990Y269748D01*
X523987Y269768D01*
X523989Y269787D01*
X523967Y269889D01*
X523951Y269991D01*
X523941Y270008D01*
X523937Y270028D01*
X523884Y270117D01*
X523835Y270208D01*
X523821Y270222D01*
X523811Y270239D01*
X523732Y270306D01*
X523657Y270378D01*
X523639Y270386D01*
X523624Y270399D01*
X523528Y270438D01*
X523434Y270481D01*
X523414Y270483D01*
X523396Y270491D01*
X523229Y270509D01*
X517213Y270509D01*
X415289Y372433D01*
X415289Y450684D01*
X415287Y450695D01*
X415288Y450702D01*
X415287Y450710D01*
X415288Y450724D01*
X415266Y450825D01*
X415250Y450927D01*
X415240Y450945D01*
X415236Y450964D01*
X415183Y451053D01*
X415134Y451145D01*
X415120Y451158D01*
X415110Y451175D01*
X415031Y451243D01*
X414956Y451314D01*
X414938Y451322D01*
X414923Y451335D01*
X414827Y451374D01*
X414733Y451418D01*
X414713Y451420D01*
X414695Y451427D01*
X414528Y451446D01*
X409956Y451446D01*
X409936Y451442D01*
X409917Y451445D01*
X409815Y451423D01*
X409713Y451406D01*
X409696Y451397D01*
X409676Y451392D01*
X409587Y451339D01*
X409496Y451291D01*
X409482Y451276D01*
X409465Y451266D01*
X409398Y451188D01*
X409326Y451113D01*
X409318Y451094D01*
X409305Y451079D01*
X409266Y450983D01*
X409223Y450889D01*
X409221Y450870D01*
X409213Y450851D01*
X409195Y450684D01*
X409195Y441013D01*
X354292Y386110D01*
X354281Y386094D01*
X354265Y386082D01*
X354209Y385994D01*
X354149Y385911D01*
X354143Y385892D01*
X354132Y385875D01*
X354107Y385774D01*
X354076Y385675D01*
X354077Y385656D01*
X354072Y385636D01*
X354080Y385533D01*
X354083Y385430D01*
X354090Y385411D01*
X354091Y385391D01*
X354131Y385296D01*
X354167Y385199D01*
X354180Y385183D01*
X354187Y385165D01*
X354292Y385034D01*
X391155Y348171D01*
X391213Y348129D01*
X391265Y348080D01*
X391313Y348058D01*
X391355Y348027D01*
X391423Y348006D01*
X391488Y347976D01*
X391540Y347970D01*
X391590Y347955D01*
X391662Y347957D01*
X391733Y347949D01*
X391784Y347960D01*
X391836Y347961D01*
X391903Y347986D01*
X391973Y348001D01*
X392018Y348028D01*
X392067Y348046D01*
X392123Y348091D01*
X392184Y348127D01*
X392218Y348167D01*
X392259Y348199D01*
X392298Y348260D01*
X392344Y348314D01*
X392364Y348363D01*
X392392Y348406D01*
X392409Y348476D01*
X392416Y348493D01*
X393348Y349425D01*
X405611Y349425D01*
X406504Y348532D01*
X406504Y337268D01*
X405611Y336375D01*
X404788Y336375D01*
X404718Y336364D01*
X404646Y336362D01*
X404597Y336344D01*
X404546Y336336D01*
X404482Y336302D01*
X404415Y336277D01*
X404374Y336245D01*
X404328Y336220D01*
X404279Y336168D01*
X404223Y336124D01*
X404195Y336080D01*
X404159Y336042D01*
X404129Y335977D01*
X404090Y335917D01*
X404077Y335866D01*
X404055Y335819D01*
X404047Y335748D01*
X404030Y335678D01*
X404034Y335626D01*
X404028Y335575D01*
X404043Y335504D01*
X404049Y335433D01*
X404069Y335385D01*
X404080Y335334D01*
X404117Y335273D01*
X404145Y335207D01*
X404190Y335151D01*
X404207Y335123D01*
X404224Y335108D01*
X404250Y335076D01*
X425959Y313367D01*
X425959Y269748D01*
X425962Y269728D01*
X425960Y269709D01*
X425982Y269607D01*
X425998Y269505D01*
X426008Y269488D01*
X426012Y269468D01*
X426065Y269379D01*
X426114Y269288D01*
X426128Y269274D01*
X426138Y269257D01*
X426217Y269190D01*
X426292Y269118D01*
X426310Y269110D01*
X426325Y269097D01*
X426421Y269058D01*
X426515Y269015D01*
X426535Y269013D01*
X426553Y269005D01*
X426720Y268987D01*
X449003Y268987D01*
X467068Y250922D01*
X467142Y250869D01*
X467212Y250809D01*
X467242Y250797D01*
X467268Y250778D01*
X467355Y250751D01*
X467440Y250717D01*
X467481Y250713D01*
X467503Y250706D01*
X467535Y250707D01*
X467607Y250699D01*
X527867Y250699D01*
X527957Y250713D01*
X528048Y250721D01*
X528077Y250733D01*
X528109Y250738D01*
X528190Y250781D01*
X528274Y250817D01*
X528306Y250843D01*
X528327Y250854D01*
X528349Y250877D01*
X528405Y250922D01*
X531202Y253719D01*
X535598Y253719D01*
X538707Y250610D01*
X538707Y246214D01*
X538317Y245824D01*
X538275Y245766D01*
X538226Y245714D01*
X538204Y245667D01*
X538174Y245625D01*
X538152Y245556D01*
X538122Y245491D01*
X538117Y245439D01*
X538101Y245389D01*
X538103Y245318D01*
X538095Y245247D01*
X538106Y245196D01*
X538108Y245144D01*
X538132Y245076D01*
X538147Y245006D01*
X538174Y244961D01*
X538192Y244913D01*
X538237Y244857D01*
X538274Y244795D01*
X538313Y244761D01*
X538346Y244721D01*
X538406Y244682D01*
X538461Y244635D01*
X538509Y244616D01*
X538553Y244588D01*
X538622Y244570D01*
X538689Y244543D01*
X538760Y244535D01*
X538791Y244527D01*
X538814Y244529D01*
X538855Y244525D01*
X542657Y244525D01*
X543550Y243632D01*
X543550Y232368D01*
X542657Y231475D01*
X524883Y231475D01*
X523990Y232368D01*
X523990Y243632D01*
X524883Y244525D01*
X527945Y244525D01*
X528015Y244536D01*
X528087Y244538D01*
X528136Y244556D01*
X528187Y244564D01*
X528251Y244598D01*
X528318Y244623D01*
X528359Y244655D01*
X528405Y244680D01*
X528454Y244732D01*
X528510Y244776D01*
X528538Y244820D01*
X528574Y244858D01*
X528604Y244923D01*
X528643Y244983D01*
X528656Y245034D01*
X528678Y245081D01*
X528686Y245152D01*
X528703Y245222D01*
X528699Y245274D01*
X528705Y245325D01*
X528690Y245396D01*
X528684Y245467D01*
X528664Y245515D01*
X528653Y245566D01*
X528616Y245627D01*
X528588Y245693D01*
X528543Y245749D01*
X528526Y245777D01*
X528509Y245792D01*
X528483Y245824D01*
X528405Y245902D01*
X528331Y245956D01*
X528261Y246015D01*
X528231Y246027D01*
X528205Y246046D01*
X528118Y246073D01*
X528033Y246107D01*
X527992Y246111D01*
X527970Y246118D01*
X527938Y246117D01*
X527867Y246125D01*
X465397Y246125D01*
X447332Y264190D01*
X447258Y264243D01*
X447188Y264303D01*
X447158Y264315D01*
X447132Y264334D01*
X447045Y264361D01*
X446960Y264395D01*
X446919Y264399D01*
X446897Y264406D01*
X446865Y264405D01*
X446793Y264413D01*
X426720Y264413D01*
X426700Y264410D01*
X426681Y264412D01*
X426579Y264390D01*
X426477Y264374D01*
X426460Y264364D01*
X426440Y264360D01*
X426351Y264307D01*
X426260Y264258D01*
X426246Y264244D01*
X426229Y264234D01*
X426162Y264155D01*
X426090Y264080D01*
X426082Y264062D01*
X426069Y264047D01*
X426030Y263951D01*
X425987Y263857D01*
X425985Y263837D01*
X425977Y263819D01*
X425959Y263652D01*
X425959Y261286D01*
X425962Y261266D01*
X425960Y261247D01*
X425982Y261145D01*
X425998Y261043D01*
X426008Y261026D01*
X426012Y261006D01*
X426065Y260917D01*
X426114Y260826D01*
X426128Y260812D01*
X426138Y260795D01*
X426217Y260728D01*
X426292Y260656D01*
X426310Y260648D01*
X426325Y260635D01*
X426421Y260596D01*
X426515Y260553D01*
X426535Y260551D01*
X426553Y260543D01*
X426720Y260525D01*
X429432Y260525D01*
X430325Y259632D01*
X430325Y248368D01*
X429432Y247475D01*
X417168Y247475D01*
X416275Y248368D01*
X416275Y259632D01*
X417168Y260525D01*
X420624Y260525D01*
X420644Y260528D01*
X420663Y260526D01*
X420765Y260548D01*
X420867Y260564D01*
X420884Y260574D01*
X420904Y260578D01*
X420993Y260631D01*
X421084Y260680D01*
X421098Y260694D01*
X421115Y260704D01*
X421182Y260783D01*
X421254Y260858D01*
X421262Y260876D01*
X421275Y260891D01*
X421314Y260987D01*
X421357Y261081D01*
X421359Y261101D01*
X421367Y261119D01*
X421385Y261286D01*
X421385Y311157D01*
X421371Y311248D01*
X421363Y311338D01*
X421351Y311368D01*
X421346Y311400D01*
X421303Y311481D01*
X421267Y311565D01*
X421241Y311597D01*
X421230Y311618D01*
X421207Y311640D01*
X421162Y311696D01*
X396706Y336152D01*
X396632Y336205D01*
X396562Y336265D01*
X396532Y336277D01*
X396506Y336296D01*
X396419Y336323D01*
X396334Y336357D01*
X396293Y336361D01*
X396271Y336368D01*
X396239Y336367D01*
X396167Y336375D01*
X393348Y336375D01*
X392455Y337268D01*
X392455Y340088D01*
X392440Y340178D01*
X392433Y340269D01*
X392420Y340299D01*
X392415Y340331D01*
X392372Y340412D01*
X392336Y340495D01*
X392311Y340528D01*
X392300Y340548D01*
X392276Y340570D01*
X392232Y340626D01*
X331626Y401232D01*
X331553Y401285D01*
X331483Y401344D01*
X331453Y401356D01*
X331427Y401375D01*
X331340Y401402D01*
X331255Y401436D01*
X331214Y401441D01*
X331192Y401448D01*
X331159Y401447D01*
X331088Y401455D01*
X328268Y401455D01*
X327375Y402348D01*
X327375Y405168D01*
X327361Y405258D01*
X327353Y405349D01*
X327341Y405378D01*
X327336Y405410D01*
X327293Y405491D01*
X327257Y405575D01*
X327231Y405607D01*
X327220Y405628D01*
X327197Y405650D01*
X327152Y405706D01*
X326674Y406184D01*
X264190Y468668D01*
X264174Y468679D01*
X264162Y468695D01*
X264074Y468751D01*
X263991Y468811D01*
X263972Y468817D01*
X263955Y468828D01*
X263854Y468853D01*
X263755Y468884D01*
X263736Y468883D01*
X263716Y468888D01*
X263613Y468880D01*
X263510Y468877D01*
X263491Y468870D01*
X263471Y468869D01*
X263376Y468829D01*
X263279Y468793D01*
X263263Y468780D01*
X263245Y468773D01*
X263114Y468668D01*
X247874Y453428D01*
X247821Y453354D01*
X247761Y453284D01*
X247749Y453254D01*
X247730Y453228D01*
X247703Y453141D01*
X247669Y453056D01*
X247665Y453015D01*
X247658Y452993D01*
X247659Y452961D01*
X247651Y452889D01*
X247651Y439086D01*
X247654Y439066D01*
X247652Y439047D01*
X247674Y438945D01*
X247690Y438843D01*
X247700Y438826D01*
X247704Y438806D01*
X247757Y438717D01*
X247806Y438626D01*
X247820Y438612D01*
X247830Y438595D01*
X247909Y438528D01*
X247984Y438456D01*
X248002Y438448D01*
X248017Y438435D01*
X248113Y438396D01*
X248207Y438353D01*
X248227Y438351D01*
X248245Y438343D01*
X248412Y438325D01*
X251632Y438325D01*
X252525Y437432D01*
X252525Y426168D01*
X251632Y425275D01*
X239368Y425275D01*
X238475Y426168D01*
X238475Y428244D01*
X238472Y428264D01*
X238474Y428283D01*
X238452Y428385D01*
X238436Y428487D01*
X238426Y428504D01*
X238422Y428524D01*
X238369Y428613D01*
X238320Y428704D01*
X238306Y428718D01*
X238296Y428735D01*
X238217Y428802D01*
X238142Y428874D01*
X238124Y428882D01*
X238109Y428895D01*
X238013Y428934D01*
X237919Y428977D01*
X237899Y428979D01*
X237881Y428987D01*
X237714Y429005D01*
X160020Y429005D01*
X160000Y429002D01*
X159981Y429004D01*
X159879Y428982D01*
X159777Y428966D01*
X159760Y428956D01*
X159740Y428952D01*
X159651Y428899D01*
X159560Y428850D01*
X159546Y428836D01*
X159529Y428826D01*
X159462Y428747D01*
X159390Y428672D01*
X159382Y428654D01*
X159369Y428639D01*
X159330Y428543D01*
X159287Y428449D01*
X159285Y428429D01*
X159277Y428411D01*
X159259Y428244D01*
X159259Y415265D01*
X159262Y415246D01*
X159260Y415226D01*
X159282Y415125D01*
X159298Y415023D01*
X159308Y415005D01*
X159312Y414985D01*
X159365Y414896D01*
X159414Y414805D01*
X159428Y414791D01*
X159438Y414774D01*
X159517Y414707D01*
X159592Y414636D01*
X159610Y414627D01*
X159625Y414614D01*
X159721Y414576D01*
X159815Y414532D01*
X159835Y414530D01*
X159853Y414523D01*
X160020Y414504D01*
X162732Y414504D01*
X163625Y413611D01*
X163625Y402348D01*
X162732Y401455D01*
X150468Y401455D01*
X149440Y402483D01*
X149420Y402520D01*
X149369Y402569D01*
X149324Y402625D01*
X149280Y402653D01*
X149242Y402689D01*
X149177Y402719D01*
X149117Y402758D01*
X149066Y402771D01*
X149019Y402793D01*
X148948Y402801D01*
X148878Y402818D01*
X148826Y402814D01*
X148775Y402820D01*
X148704Y402805D01*
X148633Y402799D01*
X148585Y402779D01*
X148534Y402768D01*
X148473Y402731D01*
X148407Y402703D01*
X148351Y402658D01*
X148323Y402641D01*
X148308Y402624D01*
X148276Y402598D01*
X96402Y350724D01*
X96360Y350666D01*
X96311Y350614D01*
X96289Y350567D01*
X96259Y350525D01*
X96238Y350456D01*
X96207Y350391D01*
X96202Y350339D01*
X96186Y350289D01*
X96188Y350218D01*
X96180Y350147D01*
X96191Y350096D01*
X96193Y350044D01*
X96217Y349976D01*
X96232Y349906D01*
X96259Y349862D01*
X96277Y349813D01*
X96322Y349757D01*
X96359Y349695D01*
X96398Y349661D01*
X96431Y349621D01*
X96491Y349582D01*
X96546Y349535D01*
X96594Y349516D01*
X96638Y349488D01*
X96707Y349470D01*
X96774Y349443D01*
X96845Y349435D01*
X96876Y349427D01*
X96900Y349429D01*
X96940Y349425D01*
X97652Y349425D01*
X98545Y348532D01*
X98545Y337268D01*
X97652Y336375D01*
X85389Y336375D01*
X84496Y337268D01*
X84496Y339852D01*
X84493Y339872D01*
X84495Y339891D01*
X84473Y339993D01*
X84456Y340095D01*
X84447Y340112D01*
X84443Y340132D01*
X84389Y340221D01*
X84341Y340312D01*
X84327Y340326D01*
X84316Y340343D01*
X84238Y340410D01*
X84163Y340482D01*
X84145Y340490D01*
X84130Y340503D01*
X84033Y340542D01*
X83940Y340585D01*
X83920Y340587D01*
X83901Y340595D01*
X83735Y340613D01*
X82296Y340613D01*
X82276Y340610D01*
X82257Y340612D01*
X82155Y340590D01*
X82053Y340574D01*
X82036Y340564D01*
X82016Y340560D01*
X81927Y340507D01*
X81836Y340458D01*
X81822Y340444D01*
X81805Y340434D01*
X81738Y340355D01*
X81666Y340280D01*
X81658Y340262D01*
X81645Y340247D01*
X81606Y340151D01*
X81563Y340057D01*
X81561Y340037D01*
X81553Y340019D01*
X81535Y339852D01*
X81535Y270325D01*
X73034Y261824D01*
X72992Y261766D01*
X72943Y261714D01*
X72921Y261667D01*
X72891Y261625D01*
X72870Y261556D01*
X72839Y261491D01*
X72834Y261439D01*
X72818Y261389D01*
X72820Y261318D01*
X72812Y261247D01*
X72823Y261196D01*
X72825Y261144D01*
X72849Y261076D01*
X72864Y261006D01*
X72891Y260961D01*
X72909Y260913D01*
X72954Y260857D01*
X72991Y260795D01*
X73030Y260761D01*
X73063Y260721D01*
X73123Y260682D01*
X73178Y260635D01*
X73226Y260616D01*
X73270Y260588D01*
X73339Y260570D01*
X73406Y260543D01*
X73477Y260535D01*
X73508Y260527D01*
X73532Y260529D01*
X73572Y260525D01*
X73832Y260525D01*
X74725Y259632D01*
X74725Y248368D01*
X73832Y247475D01*
X61568Y247475D01*
X60675Y248368D01*
X60675Y251460D01*
X60672Y251480D01*
X60674Y251499D01*
X60652Y251601D01*
X60636Y251703D01*
X60626Y251720D01*
X60622Y251740D01*
X60569Y251829D01*
X60520Y251920D01*
X60506Y251934D01*
X60496Y251951D01*
X60417Y252018D01*
X60342Y252090D01*
X60324Y252098D01*
X60309Y252111D01*
X60213Y252150D01*
X60119Y252193D01*
X60099Y252195D01*
X60081Y252203D01*
X59914Y252221D01*
X53079Y252221D01*
X52988Y252207D01*
X52898Y252199D01*
X52868Y252187D01*
X52836Y252182D01*
X52755Y252139D01*
X52671Y252103D01*
X52639Y252077D01*
X52618Y252066D01*
X52596Y252043D01*
X52540Y251998D01*
X41872Y241330D01*
X41861Y241314D01*
X41845Y241302D01*
X41789Y241214D01*
X41729Y241131D01*
X41723Y241112D01*
X41712Y241095D01*
X41687Y240994D01*
X41656Y240895D01*
X41657Y240876D01*
X41652Y240856D01*
X41660Y240753D01*
X41663Y240650D01*
X41670Y240631D01*
X41671Y240611D01*
X41711Y240516D01*
X41747Y240419D01*
X41760Y240403D01*
X41767Y240385D01*
X41872Y240254D01*
X90679Y191447D01*
X90679Y172386D01*
X90682Y172366D01*
X90680Y172347D01*
X90702Y172245D01*
X90718Y172143D01*
X90728Y172126D01*
X90732Y172106D01*
X90785Y172017D01*
X90834Y171926D01*
X90848Y171912D01*
X90858Y171895D01*
X90937Y171828D01*
X91012Y171756D01*
X91030Y171748D01*
X91045Y171735D01*
X91141Y171696D01*
X91235Y171653D01*
X91255Y171651D01*
X91273Y171643D01*
X91440Y171625D01*
X97652Y171625D01*
X98545Y170732D01*
X98545Y159468D01*
X97652Y158575D01*
X96432Y158575D01*
X96362Y158564D01*
X96290Y158562D01*
X96241Y158544D01*
X96190Y158536D01*
X96126Y158502D01*
X96059Y158477D01*
X96018Y158445D01*
X95972Y158420D01*
X95923Y158369D01*
X95867Y158324D01*
X95839Y158280D01*
X95803Y158242D01*
X95773Y158177D01*
X95734Y158117D01*
X95721Y158066D01*
X95699Y158019D01*
X95691Y157948D01*
X95674Y157878D01*
X95678Y157826D01*
X95672Y157775D01*
X95687Y157704D01*
X95693Y157633D01*
X95713Y157585D01*
X95724Y157534D01*
X95761Y157473D01*
X95789Y157407D01*
X95834Y157351D01*
X95851Y157323D01*
X95868Y157308D01*
X95894Y157276D01*
X98260Y154910D01*
X100046Y153124D01*
X148276Y104894D01*
X148334Y104852D01*
X148386Y104803D01*
X148433Y104781D01*
X148475Y104751D01*
X148544Y104730D01*
X148609Y104699D01*
X148661Y104694D01*
X148711Y104678D01*
X148782Y104680D01*
X148853Y104672D01*
X148904Y104683D01*
X148956Y104685D01*
X149024Y104709D01*
X149094Y104724D01*
X149138Y104751D01*
X149187Y104769D01*
X149243Y104814D01*
X149305Y104851D01*
X149339Y104890D01*
X149379Y104923D01*
X149418Y104983D01*
X149465Y105038D01*
X149484Y105086D01*
X149512Y105130D01*
X149530Y105199D01*
X149557Y105266D01*
X149565Y105337D01*
X149573Y105368D01*
X149571Y105392D01*
X149575Y105432D01*
X149575Y105652D01*
X150468Y106545D01*
X162732Y106545D01*
X163625Y105652D01*
X163625Y94389D01*
X162578Y93342D01*
X162576Y93341D01*
X162554Y93319D01*
X162519Y93283D01*
X162470Y93244D01*
X162442Y93201D01*
X162406Y93163D01*
X162376Y93098D01*
X162337Y93037D01*
X162325Y92987D01*
X162303Y92940D01*
X162295Y92868D01*
X162277Y92799D01*
X162281Y92747D01*
X162276Y92695D01*
X162291Y92625D01*
X162296Y92554D01*
X162317Y92506D01*
X162328Y92455D01*
X162365Y92393D01*
X162393Y92327D01*
X162437Y92271D01*
X162454Y92244D01*
X162472Y92229D01*
X162497Y92196D01*
X175984Y78710D01*
X176058Y78657D01*
X176128Y78597D01*
X176158Y78585D01*
X176184Y78566D01*
X176271Y78539D01*
X176356Y78505D01*
X176397Y78501D01*
X176419Y78494D01*
X176451Y78495D01*
X176523Y78487D01*
X237714Y78487D01*
X237734Y78490D01*
X237753Y78488D01*
X237855Y78510D01*
X237957Y78526D01*
X237974Y78536D01*
X237994Y78540D01*
X238083Y78593D01*
X238174Y78642D01*
X238188Y78656D01*
X238205Y78666D01*
X238272Y78745D01*
X238344Y78820D01*
X238352Y78838D01*
X238365Y78853D01*
X238404Y78949D01*
X238447Y79043D01*
X238449Y79063D01*
X238457Y79081D01*
X238475Y79248D01*
X238475Y81832D01*
X239368Y82725D01*
X243768Y82725D01*
X243858Y82739D01*
X243949Y82747D01*
X243978Y82759D01*
X244010Y82764D01*
X244091Y82807D01*
X244175Y82843D01*
X244207Y82869D01*
X244228Y82880D01*
X244250Y82903D01*
X244306Y82948D01*
X244640Y83282D01*
X264229Y102871D01*
X326614Y102871D01*
X326634Y102874D01*
X326653Y102872D01*
X326755Y102894D01*
X326857Y102910D01*
X326874Y102920D01*
X326894Y102924D01*
X326983Y102977D01*
X327074Y103026D01*
X327088Y103040D01*
X327105Y103050D01*
X327172Y103129D01*
X327244Y103204D01*
X327252Y103222D01*
X327265Y103237D01*
X327304Y103333D01*
X327347Y103427D01*
X327349Y103447D01*
X327357Y103465D01*
X327375Y103632D01*
X327375Y105652D01*
X328268Y106545D01*
X332232Y106545D01*
X332252Y106549D01*
X332271Y106546D01*
X332373Y106568D01*
X332475Y106585D01*
X332492Y106594D01*
X332512Y106599D01*
X332601Y106652D01*
X332692Y106700D01*
X332706Y106715D01*
X332723Y106725D01*
X332790Y106804D01*
X332862Y106879D01*
X332870Y106897D01*
X332883Y106912D01*
X332922Y107008D01*
X332965Y107102D01*
X332967Y107121D01*
X332975Y107140D01*
X332993Y107307D01*
X332993Y107627D01*
X392232Y166866D01*
X392285Y166939D01*
X392344Y167009D01*
X392356Y167039D01*
X392375Y167065D01*
X392402Y167152D01*
X392436Y167237D01*
X392441Y167278D01*
X392448Y167300D01*
X392447Y167333D01*
X392455Y167404D01*
X392455Y170732D01*
X393348Y171625D01*
X405611Y171625D01*
X406504Y170732D01*
X406504Y159468D01*
X405611Y158575D01*
X393348Y158575D01*
X392417Y159506D01*
X392401Y159518D01*
X392388Y159533D01*
X392301Y159590D01*
X392217Y159650D01*
X392198Y159656D01*
X392181Y159666D01*
X392081Y159692D01*
X391982Y159722D01*
X391962Y159722D01*
X391943Y159727D01*
X391840Y159718D01*
X391736Y159716D01*
X391717Y159709D01*
X391697Y159707D01*
X391603Y159667D01*
X391505Y159631D01*
X391489Y159619D01*
X391471Y159611D01*
X391340Y159506D01*
X339679Y107845D01*
X339637Y107787D01*
X339588Y107735D01*
X339566Y107687D01*
X339535Y107645D01*
X339514Y107577D01*
X339484Y107512D01*
X339478Y107460D01*
X339463Y107410D01*
X339465Y107338D01*
X339457Y107267D01*
X339468Y107216D01*
X339469Y107164D01*
X339494Y107097D01*
X339509Y107027D01*
X339536Y106982D01*
X339554Y106933D01*
X339599Y106877D01*
X339635Y106816D01*
X339675Y106782D01*
X339707Y106741D01*
X339768Y106702D01*
X339822Y106656D01*
X339871Y106636D01*
X339914Y106608D01*
X339984Y106591D01*
X340050Y106564D01*
X340122Y106556D01*
X340153Y106548D01*
X340176Y106550D01*
X340217Y106545D01*
X340532Y106545D01*
X341425Y105652D01*
X341425Y94389D01*
X340532Y93496D01*
X328268Y93496D01*
X327375Y94389D01*
X327375Y97536D01*
X327372Y97556D01*
X327374Y97575D01*
X327352Y97677D01*
X327336Y97779D01*
X327326Y97796D01*
X327322Y97816D01*
X327269Y97905D01*
X327220Y97996D01*
X327206Y98010D01*
X327196Y98027D01*
X327117Y98094D01*
X327042Y98166D01*
X327024Y98174D01*
X327009Y98187D01*
X326913Y98226D01*
X326819Y98269D01*
X326799Y98271D01*
X326781Y98279D01*
X326614Y98297D01*
X266439Y98297D01*
X266348Y98283D01*
X266258Y98275D01*
X266228Y98263D01*
X266196Y98258D01*
X266115Y98215D01*
X266031Y98179D01*
X265999Y98153D01*
X265978Y98142D01*
X265956Y98119D01*
X265900Y98074D01*
X251629Y83803D01*
X251618Y83787D01*
X251602Y83775D01*
X251546Y83687D01*
X251486Y83604D01*
X251480Y83585D01*
X251469Y83568D01*
X251444Y83467D01*
X251413Y83369D01*
X251414Y83349D01*
X251409Y83329D01*
X251417Y83226D01*
X251420Y83123D01*
X251427Y83104D01*
X251428Y83084D01*
X251469Y82989D01*
X251504Y82892D01*
X251517Y82876D01*
X251525Y82858D01*
X251629Y82727D01*
X252525Y81832D01*
X252525Y70568D01*
X251632Y69675D01*
X239368Y69675D01*
X238475Y70568D01*
X238475Y73152D01*
X238472Y73172D01*
X238474Y73191D01*
X238452Y73293D01*
X238436Y73395D01*
X238426Y73412D01*
X238422Y73432D01*
X238369Y73521D01*
X238320Y73612D01*
X238306Y73626D01*
X238296Y73643D01*
X238217Y73710D01*
X238142Y73782D01*
X238124Y73790D01*
X238109Y73803D01*
X238013Y73842D01*
X237919Y73885D01*
X237899Y73887D01*
X237881Y73895D01*
X237714Y73913D01*
X178308Y73913D01*
X178288Y73910D01*
X178269Y73912D01*
X178167Y73890D01*
X178065Y73874D01*
X178048Y73864D01*
X178028Y73860D01*
X177939Y73807D01*
X177848Y73758D01*
X177834Y73744D01*
X177817Y73734D01*
X177750Y73655D01*
X177678Y73580D01*
X177670Y73562D01*
X177657Y73547D01*
X177618Y73451D01*
X177575Y73357D01*
X177573Y73337D01*
X177565Y73319D01*
X177547Y73152D01*
X177547Y44773D01*
X175984Y43210D01*
X158628Y25854D01*
X158586Y25796D01*
X158537Y25744D01*
X158515Y25696D01*
X158484Y25654D01*
X158463Y25586D01*
X158433Y25521D01*
X158427Y25469D01*
X158412Y25419D01*
X158414Y25347D01*
X158406Y25276D01*
X158417Y25225D01*
X158418Y25173D01*
X158443Y25106D01*
X158458Y25036D01*
X158485Y24991D01*
X158503Y24942D01*
X158548Y24886D01*
X158584Y24825D01*
X158624Y24791D01*
X158656Y24750D01*
X158717Y24711D01*
X158771Y24665D01*
X158819Y24645D01*
X158863Y24617D01*
X158933Y24600D01*
X158999Y24573D01*
X159071Y24565D01*
X159102Y24557D01*
X159125Y24559D01*
X159166Y24554D01*
X161657Y24554D01*
X162550Y23661D01*
X162550Y12398D01*
X161657Y11505D01*
X147491Y11505D01*
X147420Y11493D01*
X147348Y11491D01*
X147299Y11473D01*
X147248Y11465D01*
X147185Y11432D01*
X147117Y11407D01*
X147077Y11374D01*
X147031Y11350D01*
X146981Y11298D01*
X146925Y11253D01*
X146897Y11209D01*
X146861Y11172D01*
X146831Y11107D01*
X146792Y11046D01*
X146780Y10996D01*
X146758Y10949D01*
X146750Y10877D01*
X146732Y10808D01*
X146736Y10756D01*
X146731Y10704D01*
X146746Y10634D01*
X146751Y10563D01*
X146772Y10515D01*
X146783Y10464D01*
X146820Y10402D01*
X146848Y10336D01*
X146893Y10280D01*
X146909Y10253D01*
X146927Y10237D01*
X146953Y10205D01*
X147028Y10130D01*
X147102Y10077D01*
X147172Y10017D01*
X147202Y10005D01*
X147228Y9986D01*
X147315Y9959D01*
X147400Y9925D01*
X147441Y9921D01*
X147463Y9914D01*
X147495Y9915D01*
X147566Y9907D01*
X195333Y9907D01*
X195424Y9921D01*
X195514Y9929D01*
X195544Y9941D01*
X195576Y9946D01*
X195657Y9989D01*
X195741Y10025D01*
X195773Y10051D01*
X195794Y10062D01*
X195816Y10085D01*
X195872Y10130D01*
X216985Y31243D01*
X258503Y31243D01*
X268691Y21055D01*
X268749Y21013D01*
X268801Y20964D01*
X268848Y20942D01*
X268890Y20912D01*
X268959Y20891D01*
X269024Y20860D01*
X269076Y20855D01*
X269126Y20839D01*
X269197Y20841D01*
X269268Y20833D01*
X269319Y20844D01*
X269371Y20846D01*
X269439Y20870D01*
X269509Y20885D01*
X269554Y20912D01*
X269602Y20930D01*
X269658Y20975D01*
X269720Y21012D01*
X269754Y21051D01*
X269794Y21084D01*
X269833Y21144D01*
X269880Y21199D01*
X269899Y21247D01*
X269927Y21291D01*
X269945Y21360D01*
X269972Y21427D01*
X269980Y21498D01*
X269988Y21529D01*
X269986Y21553D01*
X269990Y21593D01*
X269990Y21632D01*
X270883Y22525D01*
X288657Y22525D01*
X289550Y21632D01*
X289550Y10368D01*
X288657Y9475D01*
X270883Y9475D01*
X269990Y10368D01*
X269990Y12973D01*
X269989Y12981D01*
X269989Y12984D01*
X269986Y12999D01*
X269976Y13063D01*
X269968Y13154D01*
X269956Y13183D01*
X269951Y13215D01*
X269908Y13296D01*
X269872Y13380D01*
X269846Y13412D01*
X269835Y13433D01*
X269812Y13455D01*
X269767Y13511D01*
X268762Y14516D01*
X256832Y26446D01*
X256758Y26499D01*
X256688Y26559D01*
X256658Y26571D01*
X256632Y26590D01*
X256545Y26617D01*
X256460Y26651D01*
X256419Y26655D01*
X256397Y26662D01*
X256365Y26661D01*
X256293Y26669D01*
X219195Y26669D01*
X219104Y26655D01*
X219014Y26647D01*
X218984Y26635D01*
X218952Y26630D01*
X218871Y26587D01*
X218787Y26551D01*
X218755Y26525D01*
X218734Y26514D01*
X218714Y26493D01*
X218712Y26492D01*
X218707Y26487D01*
X218656Y26446D01*
X198844Y6634D01*
X198802Y6576D01*
X198753Y6524D01*
X198731Y6477D01*
X198701Y6435D01*
X198680Y6366D01*
X198649Y6301D01*
X198644Y6249D01*
X198628Y6199D01*
X198630Y6128D01*
X198622Y6057D01*
X198633Y6006D01*
X198635Y5954D01*
X198659Y5886D01*
X198674Y5816D01*
X198701Y5771D01*
X198719Y5723D01*
X198764Y5667D01*
X198801Y5605D01*
X198840Y5571D01*
X198873Y5531D01*
X198933Y5492D01*
X198988Y5445D01*
X199036Y5426D01*
X199080Y5398D01*
X199149Y5380D01*
X199216Y5353D01*
X199287Y5345D01*
X199318Y5337D01*
X199342Y5339D01*
X199382Y5335D01*
X329445Y5335D01*
X329536Y5349D01*
X329626Y5357D01*
X329656Y5369D01*
X329688Y5374D01*
X329769Y5417D01*
X329853Y5453D01*
X329885Y5479D01*
X329906Y5490D01*
X329928Y5513D01*
X329984Y5558D01*
X341914Y17488D01*
X343477Y19051D01*
X344689Y19051D01*
X344709Y19054D01*
X344728Y19052D01*
X344830Y19074D01*
X344932Y19090D01*
X344949Y19100D01*
X344969Y19104D01*
X345058Y19157D01*
X345149Y19206D01*
X345163Y19220D01*
X345180Y19230D01*
X345247Y19309D01*
X345319Y19384D01*
X345327Y19402D01*
X345340Y19417D01*
X345379Y19513D01*
X345422Y19607D01*
X345424Y19627D01*
X345432Y19645D01*
X345450Y19812D01*
X345450Y23661D01*
X346343Y24554D01*
X364117Y24554D01*
X365010Y23661D01*
X365010Y12398D01*
X364117Y11505D01*
X346343Y11505D01*
X345450Y12398D01*
X345450Y12719D01*
X345439Y12789D01*
X345437Y12861D01*
X345419Y12910D01*
X345411Y12961D01*
X345377Y13025D01*
X345352Y13092D01*
X345320Y13133D01*
X345295Y13179D01*
X345244Y13228D01*
X345199Y13284D01*
X345155Y13312D01*
X345117Y13348D01*
X345052Y13378D01*
X344992Y13417D01*
X344941Y13430D01*
X344894Y13452D01*
X344823Y13460D01*
X344753Y13477D01*
X344701Y13473D01*
X344650Y13479D01*
X344579Y13464D01*
X344508Y13458D01*
X344460Y13438D01*
X344409Y13427D01*
X344348Y13390D01*
X344282Y13362D01*
X344226Y13317D01*
X344198Y13300D01*
X344183Y13283D01*
X344151Y13257D01*
X334480Y3586D01*
X334438Y3528D01*
X334389Y3476D01*
X334367Y3429D01*
X334337Y3387D01*
X334316Y3318D01*
X334285Y3253D01*
X334280Y3201D01*
X334264Y3151D01*
X334266Y3080D01*
X334258Y3009D01*
X334269Y2958D01*
X334271Y2906D01*
X334295Y2838D01*
X334310Y2768D01*
X334337Y2724D01*
X334355Y2675D01*
X334400Y2619D01*
X334437Y2557D01*
X334476Y2523D01*
X334509Y2483D01*
X334569Y2444D01*
X334624Y2397D01*
X334672Y2378D01*
X334716Y2350D01*
X334785Y2332D01*
X334852Y2305D01*
X334923Y2297D01*
X334954Y2289D01*
X334978Y2291D01*
X335018Y2287D01*
X366021Y2287D01*
X366112Y2301D01*
G37*
G36*
X111604Y9921D02*
X111604Y9921D01*
X111694Y9929D01*
X111724Y9941D01*
X111756Y9946D01*
X111837Y9989D01*
X111921Y10025D01*
X111953Y10051D01*
X111974Y10062D01*
X111996Y10085D01*
X112052Y10130D01*
X136174Y34252D01*
X136227Y34326D01*
X136287Y34396D01*
X136299Y34426D01*
X136318Y34452D01*
X136345Y34539D01*
X136379Y34624D01*
X136383Y34665D01*
X136390Y34687D01*
X136389Y34719D01*
X136397Y34791D01*
X136397Y58859D01*
X140785Y63247D01*
X164015Y63247D01*
X169927Y57335D01*
X169927Y45458D01*
X169938Y45388D01*
X169940Y45316D01*
X169958Y45267D01*
X169966Y45216D01*
X170000Y45152D01*
X170025Y45085D01*
X170057Y45044D01*
X170082Y44998D01*
X170134Y44949D01*
X170178Y44893D01*
X170222Y44865D01*
X170260Y44829D01*
X170325Y44799D01*
X170385Y44760D01*
X170436Y44747D01*
X170483Y44725D01*
X170554Y44717D01*
X170624Y44700D01*
X170676Y44704D01*
X170727Y44698D01*
X170798Y44713D01*
X170869Y44719D01*
X170917Y44739D01*
X170968Y44750D01*
X171029Y44787D01*
X171095Y44815D01*
X171151Y44860D01*
X171179Y44877D01*
X171194Y44894D01*
X171226Y44920D01*
X172750Y46444D01*
X172803Y46518D01*
X172863Y46588D01*
X172875Y46618D01*
X172894Y46644D01*
X172921Y46731D01*
X172955Y46816D01*
X172959Y46857D01*
X172966Y46879D01*
X172965Y46911D01*
X172973Y46983D01*
X172973Y74937D01*
X172959Y75028D01*
X172951Y75118D01*
X172939Y75148D01*
X172934Y75180D01*
X172891Y75261D01*
X172855Y75345D01*
X172829Y75377D01*
X172818Y75398D01*
X172795Y75420D01*
X172750Y75476D01*
X154953Y93273D01*
X154879Y93326D01*
X154810Y93386D01*
X154780Y93398D01*
X154753Y93417D01*
X154666Y93443D01*
X154582Y93477D01*
X154541Y93482D01*
X154518Y93489D01*
X154486Y93488D01*
X154415Y93496D01*
X150468Y93496D01*
X149575Y94389D01*
X149575Y97536D01*
X149572Y97556D01*
X149574Y97575D01*
X149552Y97677D01*
X149536Y97779D01*
X149526Y97796D01*
X149522Y97816D01*
X149469Y97905D01*
X149420Y97996D01*
X149406Y98010D01*
X149396Y98027D01*
X149317Y98094D01*
X149242Y98166D01*
X149224Y98174D01*
X149209Y98187D01*
X149113Y98226D01*
X149019Y98269D01*
X148999Y98271D01*
X148981Y98279D01*
X148814Y98297D01*
X148405Y98297D01*
X98074Y148628D01*
X98058Y148639D01*
X98046Y148655D01*
X97958Y148711D01*
X97875Y148771D01*
X97856Y148777D01*
X97839Y148788D01*
X97738Y148813D01*
X97639Y148844D01*
X97620Y148843D01*
X97600Y148848D01*
X97497Y148840D01*
X97394Y148837D01*
X97375Y148830D01*
X97355Y148829D01*
X97260Y148789D01*
X97163Y148753D01*
X97147Y148740D01*
X97129Y148733D01*
X96998Y148628D01*
X67194Y118824D01*
X67152Y118766D01*
X67103Y118714D01*
X67081Y118667D01*
X67051Y118625D01*
X67030Y118556D01*
X66999Y118491D01*
X66994Y118439D01*
X66978Y118389D01*
X66980Y118318D01*
X66972Y118247D01*
X66983Y118196D01*
X66985Y118144D01*
X67009Y118076D01*
X67024Y118006D01*
X67051Y117961D01*
X67069Y117913D01*
X67114Y117857D01*
X67151Y117795D01*
X67190Y117761D01*
X67223Y117721D01*
X67283Y117682D01*
X67338Y117635D01*
X67386Y117616D01*
X67430Y117588D01*
X67499Y117570D01*
X67566Y117543D01*
X67637Y117535D01*
X67668Y117527D01*
X67692Y117529D01*
X67732Y117525D01*
X68686Y117525D01*
X69579Y116632D01*
X69579Y105368D01*
X68686Y104475D01*
X50913Y104475D01*
X50020Y105368D01*
X50020Y116632D01*
X50913Y117525D01*
X59111Y117525D01*
X59202Y117539D01*
X59292Y117547D01*
X59322Y117559D01*
X59354Y117564D01*
X59435Y117607D01*
X59519Y117643D01*
X59551Y117669D01*
X59572Y117680D01*
X59594Y117703D01*
X59650Y117748D01*
X70904Y129002D01*
X70946Y129060D01*
X70995Y129112D01*
X71017Y129159D01*
X71047Y129201D01*
X71068Y129270D01*
X71099Y129335D01*
X71104Y129387D01*
X71120Y129437D01*
X71118Y129508D01*
X71126Y129579D01*
X71115Y129630D01*
X71113Y129682D01*
X71089Y129750D01*
X71074Y129820D01*
X71047Y129865D01*
X71029Y129913D01*
X70984Y129969D01*
X70947Y130031D01*
X70908Y130065D01*
X70875Y130105D01*
X70815Y130144D01*
X70760Y130191D01*
X70712Y130210D01*
X70668Y130238D01*
X70599Y130256D01*
X70532Y130283D01*
X70461Y130291D01*
X70430Y130299D01*
X70406Y130297D01*
X70366Y130301D01*
X60699Y130301D01*
X60608Y130287D01*
X60518Y130279D01*
X60488Y130267D01*
X60456Y130262D01*
X60375Y130219D01*
X60291Y130183D01*
X60259Y130157D01*
X60238Y130146D01*
X60216Y130123D01*
X60160Y130078D01*
X48230Y118148D01*
X48177Y118074D01*
X48117Y118004D01*
X48105Y117974D01*
X48086Y117948D01*
X48059Y117861D01*
X48025Y117776D01*
X48021Y117735D01*
X48014Y117713D01*
X48015Y117681D01*
X48007Y117609D01*
X48007Y83559D01*
X48021Y83468D01*
X48029Y83378D01*
X48041Y83348D01*
X48046Y83316D01*
X48089Y83235D01*
X48125Y83151D01*
X48151Y83119D01*
X48162Y83098D01*
X48185Y83076D01*
X48230Y83020D01*
X102871Y28379D01*
X102871Y25316D01*
X102874Y25296D01*
X102872Y25276D01*
X102894Y25175D01*
X102910Y25073D01*
X102920Y25055D01*
X102924Y25036D01*
X102977Y24947D01*
X103026Y24855D01*
X103040Y24842D01*
X103050Y24825D01*
X103129Y24757D01*
X103204Y24686D01*
X103222Y24678D01*
X103237Y24665D01*
X103333Y24626D01*
X103427Y24582D01*
X103447Y24580D01*
X103465Y24573D01*
X103632Y24554D01*
X110117Y24554D01*
X111010Y23661D01*
X111010Y12398D01*
X110117Y11505D01*
X101771Y11505D01*
X101700Y11493D01*
X101628Y11491D01*
X101579Y11473D01*
X101528Y11465D01*
X101465Y11432D01*
X101397Y11407D01*
X101357Y11374D01*
X101311Y11350D01*
X101261Y11298D01*
X101205Y11253D01*
X101177Y11209D01*
X101141Y11172D01*
X101111Y11107D01*
X101072Y11046D01*
X101060Y10996D01*
X101038Y10949D01*
X101030Y10877D01*
X101012Y10808D01*
X101016Y10756D01*
X101011Y10704D01*
X101026Y10634D01*
X101032Y10562D01*
X101052Y10515D01*
X101063Y10464D01*
X101100Y10402D01*
X101128Y10336D01*
X101173Y10280D01*
X101189Y10253D01*
X101207Y10237D01*
X101233Y10205D01*
X101308Y10130D01*
X101382Y10076D01*
X101452Y10017D01*
X101482Y10005D01*
X101508Y9986D01*
X101595Y9959D01*
X101680Y9925D01*
X101721Y9921D01*
X101743Y9914D01*
X101775Y9915D01*
X101847Y9907D01*
X111513Y9907D01*
X111604Y9921D01*
G37*
%LPC*%
G36*
X-34657Y231475D02*
X-34657Y231475D01*
X-35550Y232368D01*
X-35550Y243632D01*
X-34657Y244525D01*
X-28956Y244525D01*
X-28936Y244528D01*
X-28917Y244526D01*
X-28815Y244548D01*
X-28713Y244564D01*
X-28696Y244574D01*
X-28676Y244578D01*
X-28587Y244631D01*
X-28496Y244680D01*
X-28482Y244694D01*
X-28465Y244704D01*
X-28398Y244783D01*
X-28326Y244858D01*
X-28318Y244876D01*
X-28305Y244891D01*
X-28266Y244987D01*
X-28223Y245081D01*
X-28221Y245101D01*
X-28213Y245119D01*
X-28195Y245286D01*
X-28195Y247835D01*
X-8606Y267424D01*
X-8563Y267484D01*
X-8514Y267535D01*
X-8507Y267552D01*
X-8493Y267568D01*
X-8481Y267598D01*
X-8462Y267624D01*
X-8441Y267694D01*
X-8411Y267758D01*
X-8409Y267777D01*
X-8401Y267796D01*
X-8397Y267837D01*
X-8390Y267859D01*
X-8391Y267891D01*
X-8383Y267963D01*
X-8383Y372803D01*
X3586Y384772D01*
X5149Y386335D01*
X17025Y386335D01*
X17116Y386349D01*
X17206Y386357D01*
X17236Y386369D01*
X17268Y386374D01*
X17349Y386417D01*
X17433Y386453D01*
X17465Y386479D01*
X17486Y386490D01*
X17508Y386513D01*
X17564Y386558D01*
X84358Y453352D01*
X84411Y453426D01*
X84471Y453496D01*
X84483Y453526D01*
X84502Y453552D01*
X84529Y453639D01*
X84563Y453724D01*
X84567Y453765D01*
X84574Y453787D01*
X84573Y453819D01*
X84581Y453891D01*
X84581Y465767D01*
X98113Y479299D01*
X128277Y479299D01*
X128368Y479313D01*
X128458Y479321D01*
X128488Y479333D01*
X128520Y479338D01*
X128601Y479381D01*
X128685Y479417D01*
X128717Y479443D01*
X128738Y479454D01*
X128760Y479477D01*
X128816Y479522D01*
X140785Y491491D01*
X142229Y491491D01*
X142249Y491494D01*
X142268Y491492D01*
X142370Y491514D01*
X142472Y491530D01*
X142489Y491540D01*
X142509Y491544D01*
X142598Y491597D01*
X142689Y491646D01*
X142703Y491660D01*
X142720Y491670D01*
X142787Y491749D01*
X142859Y491824D01*
X142867Y491842D01*
X142880Y491857D01*
X142919Y491953D01*
X142962Y492047D01*
X142964Y492067D01*
X142972Y492085D01*
X142990Y492252D01*
X142990Y495602D01*
X143883Y496495D01*
X161657Y496495D01*
X162550Y495602D01*
X162550Y487661D01*
X162561Y487591D01*
X162563Y487519D01*
X162581Y487470D01*
X162589Y487419D01*
X162623Y487355D01*
X162648Y487288D01*
X162680Y487247D01*
X162705Y487201D01*
X162757Y487152D01*
X162801Y487096D01*
X162845Y487068D01*
X162883Y487032D01*
X162948Y487002D01*
X163008Y486963D01*
X163059Y486950D01*
X163106Y486928D01*
X163177Y486920D01*
X163247Y486903D01*
X163299Y486907D01*
X163350Y486901D01*
X163421Y486916D01*
X163492Y486922D01*
X163540Y486942D01*
X163591Y486953D01*
X163652Y486990D01*
X163718Y487018D01*
X163774Y487063D01*
X163802Y487080D01*
X163817Y487097D01*
X163849Y487123D01*
X213898Y537172D01*
X215461Y538735D01*
X321997Y538735D01*
X322014Y538737D01*
X322031Y538735D01*
X322135Y538757D01*
X322240Y538774D01*
X322255Y538782D01*
X322272Y538786D01*
X322363Y538840D01*
X322457Y538889D01*
X322467Y538850D01*
X322497Y538804D01*
X322519Y538753D01*
X322586Y538670D01*
X322602Y538644D01*
X322612Y538637D01*
X322624Y538622D01*
X324074Y537172D01*
X357340Y503906D01*
X357414Y503853D01*
X357484Y503793D01*
X357514Y503781D01*
X357540Y503762D01*
X357627Y503735D01*
X357712Y503701D01*
X357753Y503697D01*
X357775Y503690D01*
X357807Y503691D01*
X357878Y503683D01*
X386519Y503683D01*
X395691Y494511D01*
X395749Y494469D01*
X395801Y494420D01*
X395848Y494398D01*
X395890Y494368D01*
X395959Y494347D01*
X396024Y494316D01*
X396076Y494311D01*
X396126Y494295D01*
X396197Y494297D01*
X396268Y494289D01*
X396319Y494300D01*
X396371Y494302D01*
X396439Y494326D01*
X396509Y494341D01*
X396554Y494368D01*
X396602Y494386D01*
X396658Y494431D01*
X396720Y494468D01*
X396754Y494507D01*
X396794Y494540D01*
X396833Y494600D01*
X396880Y494655D01*
X396899Y494703D01*
X396927Y494747D01*
X396945Y494816D01*
X396972Y494883D01*
X396980Y494954D01*
X396988Y494985D01*
X396986Y495009D01*
X396990Y495049D01*
X396990Y495602D01*
X397883Y496495D01*
X415657Y496495D01*
X416550Y495602D01*
X416550Y484339D01*
X415657Y483446D01*
X397883Y483446D01*
X396990Y484339D01*
X396990Y486429D01*
X396976Y486519D01*
X396968Y486610D01*
X396956Y486639D01*
X396951Y486671D01*
X396908Y486752D01*
X396872Y486836D01*
X396846Y486868D01*
X396835Y486889D01*
X396812Y486911D01*
X396806Y486918D01*
X396798Y486933D01*
X396788Y486941D01*
X396767Y486967D01*
X395254Y488480D01*
X384848Y498886D01*
X384774Y498939D01*
X384704Y498999D01*
X384674Y499011D01*
X384648Y499030D01*
X384561Y499057D01*
X384476Y499091D01*
X384435Y499095D01*
X384413Y499102D01*
X384381Y499101D01*
X384309Y499109D01*
X355669Y499109D01*
X354106Y500672D01*
X320840Y533938D01*
X320766Y533991D01*
X320696Y534051D01*
X320666Y534063D01*
X320640Y534082D01*
X320553Y534109D01*
X320468Y534143D01*
X320427Y534147D01*
X320405Y534154D01*
X320373Y534153D01*
X320302Y534161D01*
X217671Y534161D01*
X217580Y534147D01*
X217490Y534139D01*
X217460Y534127D01*
X217428Y534122D01*
X217347Y534079D01*
X217263Y534043D01*
X217231Y534017D01*
X217210Y534006D01*
X217188Y533983D01*
X217132Y533938D01*
X165316Y482122D01*
X165274Y482064D01*
X165225Y482012D01*
X165203Y481965D01*
X165173Y481923D01*
X165152Y481854D01*
X165121Y481789D01*
X165116Y481737D01*
X165100Y481687D01*
X165102Y481616D01*
X165094Y481545D01*
X165105Y481494D01*
X165107Y481442D01*
X165131Y481374D01*
X165146Y481304D01*
X165173Y481259D01*
X165191Y481211D01*
X165236Y481155D01*
X165273Y481093D01*
X165312Y481059D01*
X165345Y481019D01*
X165405Y480980D01*
X165460Y480933D01*
X165508Y480914D01*
X165552Y480886D01*
X165621Y480868D01*
X165688Y480841D01*
X165759Y480833D01*
X165790Y480825D01*
X165814Y480827D01*
X165854Y480823D01*
X204477Y480823D01*
X204568Y480837D01*
X204658Y480845D01*
X204688Y480857D01*
X204720Y480862D01*
X204801Y480905D01*
X204885Y480941D01*
X204917Y480967D01*
X204938Y480978D01*
X204960Y481001D01*
X205016Y481046D01*
X216946Y492976D01*
X218227Y494257D01*
X218280Y494331D01*
X218340Y494401D01*
X218352Y494431D01*
X218371Y494457D01*
X218398Y494544D01*
X218432Y494629D01*
X218436Y494670D01*
X218443Y494692D01*
X218442Y494724D01*
X218450Y494795D01*
X218450Y497632D01*
X219343Y498525D01*
X237117Y498525D01*
X238010Y497632D01*
X238010Y486368D01*
X237117Y485475D01*
X219343Y485475D01*
X218412Y486406D01*
X218411Y486417D01*
X218377Y486481D01*
X218352Y486548D01*
X218320Y486589D01*
X218295Y486635D01*
X218243Y486684D01*
X218199Y486740D01*
X218155Y486768D01*
X218117Y486804D01*
X218052Y486834D01*
X217992Y486873D01*
X217941Y486886D01*
X217894Y486908D01*
X217823Y486916D01*
X217753Y486933D01*
X217701Y486929D01*
X217650Y486935D01*
X217579Y486920D01*
X217508Y486914D01*
X217460Y486894D01*
X217409Y486883D01*
X217348Y486846D01*
X217282Y486818D01*
X217226Y486773D01*
X217198Y486756D01*
X217183Y486739D01*
X217151Y486713D01*
X206687Y476249D01*
X153663Y476249D01*
X153572Y476235D01*
X153482Y476227D01*
X153452Y476215D01*
X153420Y476210D01*
X153339Y476167D01*
X153255Y476131D01*
X153223Y476105D01*
X153202Y476094D01*
X153180Y476071D01*
X153124Y476026D01*
X72575Y395477D01*
X70341Y395477D01*
X70321Y395474D01*
X70301Y395476D01*
X70200Y395454D01*
X70098Y395438D01*
X70080Y395428D01*
X70061Y395424D01*
X69972Y395371D01*
X69880Y395322D01*
X69867Y395308D01*
X69850Y395298D01*
X69782Y395219D01*
X69711Y395144D01*
X69703Y395126D01*
X69690Y395111D01*
X69651Y395015D01*
X69607Y394921D01*
X69605Y394901D01*
X69598Y394883D01*
X69579Y394716D01*
X69579Y391368D01*
X68686Y390475D01*
X50913Y390475D01*
X50020Y391368D01*
X50020Y402632D01*
X50913Y403525D01*
X68686Y403525D01*
X69579Y402632D01*
X69579Y400812D01*
X69583Y400792D01*
X69580Y400773D01*
X69602Y400671D01*
X69619Y400569D01*
X69628Y400552D01*
X69633Y400532D01*
X69686Y400443D01*
X69734Y400352D01*
X69749Y400338D01*
X69759Y400321D01*
X69837Y400254D01*
X69912Y400182D01*
X69931Y400174D01*
X69946Y400161D01*
X70042Y400122D01*
X70136Y400079D01*
X70155Y400077D01*
X70174Y400069D01*
X70290Y400056D01*
X70301Y400053D01*
X70310Y400054D01*
X70341Y400051D01*
X70365Y400051D01*
X70375Y400052D01*
X70380Y400052D01*
X70405Y400057D01*
X70456Y400065D01*
X70546Y400073D01*
X70576Y400085D01*
X70608Y400090D01*
X70689Y400133D01*
X70773Y400169D01*
X70805Y400195D01*
X70826Y400206D01*
X70848Y400229D01*
X70904Y400274D01*
X125768Y455138D01*
X125810Y455196D01*
X125859Y455248D01*
X125881Y455295D01*
X125911Y455337D01*
X125932Y455406D01*
X125963Y455471D01*
X125968Y455523D01*
X125984Y455573D01*
X125982Y455644D01*
X125990Y455715D01*
X125979Y455766D01*
X125977Y455818D01*
X125953Y455886D01*
X125938Y455956D01*
X125911Y456001D01*
X125893Y456049D01*
X125848Y456105D01*
X125811Y456167D01*
X125772Y456201D01*
X125739Y456241D01*
X125679Y456280D01*
X125624Y456327D01*
X125576Y456346D01*
X125532Y456374D01*
X125463Y456392D01*
X125396Y456419D01*
X125325Y456427D01*
X125294Y456435D01*
X125270Y456433D01*
X125230Y456437D01*
X111771Y456437D01*
X111751Y456434D01*
X111732Y456436D01*
X111630Y456414D01*
X111528Y456398D01*
X111511Y456388D01*
X111491Y456384D01*
X111402Y456331D01*
X111311Y456282D01*
X111297Y456268D01*
X111280Y456258D01*
X111213Y456179D01*
X111141Y456104D01*
X111133Y456086D01*
X111120Y456071D01*
X111081Y455975D01*
X111038Y455881D01*
X111036Y455861D01*
X111028Y455843D01*
X111010Y455676D01*
X111010Y452339D01*
X110117Y451446D01*
X92343Y451446D01*
X91450Y452339D01*
X91450Y463602D01*
X92343Y464495D01*
X110117Y464495D01*
X111010Y463602D01*
X111010Y461772D01*
X111013Y461752D01*
X111011Y461733D01*
X111033Y461631D01*
X111049Y461529D01*
X111059Y461512D01*
X111063Y461492D01*
X111116Y461403D01*
X111165Y461312D01*
X111179Y461298D01*
X111189Y461281D01*
X111268Y461214D01*
X111343Y461142D01*
X111361Y461134D01*
X111376Y461121D01*
X111472Y461082D01*
X111566Y461039D01*
X111586Y461037D01*
X111604Y461029D01*
X111771Y461011D01*
X126753Y461011D01*
X126844Y461025D01*
X126934Y461033D01*
X126964Y461045D01*
X126996Y461050D01*
X127077Y461093D01*
X127161Y461129D01*
X127193Y461155D01*
X127214Y461166D01*
X127236Y461189D01*
X127292Y461234D01*
X148204Y482146D01*
X148246Y482204D01*
X148295Y482256D01*
X148317Y482304D01*
X148348Y482346D01*
X148369Y482414D01*
X148399Y482479D01*
X148405Y482531D01*
X148420Y482581D01*
X148418Y482653D01*
X148426Y482724D01*
X148415Y482775D01*
X148414Y482827D01*
X148389Y482894D01*
X148374Y482964D01*
X148347Y483009D01*
X148329Y483058D01*
X148284Y483114D01*
X148248Y483175D01*
X148208Y483209D01*
X148176Y483250D01*
X148115Y483289D01*
X148061Y483335D01*
X148013Y483355D01*
X147969Y483383D01*
X147899Y483400D01*
X147833Y483427D01*
X147761Y483435D01*
X147730Y483443D01*
X147707Y483441D01*
X147666Y483446D01*
X143883Y483446D01*
X142990Y484339D01*
X142990Y485391D01*
X142979Y485461D01*
X142977Y485533D01*
X142959Y485582D01*
X142951Y485633D01*
X142917Y485697D01*
X142892Y485764D01*
X142860Y485805D01*
X142835Y485851D01*
X142783Y485900D01*
X142739Y485956D01*
X142695Y485984D01*
X142657Y486020D01*
X142592Y486050D01*
X142532Y486089D01*
X142481Y486102D01*
X142434Y486124D01*
X142363Y486132D01*
X142293Y486149D01*
X142241Y486145D01*
X142190Y486151D01*
X142119Y486136D01*
X142048Y486130D01*
X142000Y486110D01*
X141949Y486099D01*
X141888Y486062D01*
X141822Y486034D01*
X141766Y485989D01*
X141738Y485972D01*
X141723Y485955D01*
X141691Y485929D01*
X130487Y474725D01*
X100323Y474725D01*
X100232Y474711D01*
X100142Y474703D01*
X100112Y474691D01*
X100080Y474686D01*
X99999Y474643D01*
X99915Y474607D01*
X99883Y474581D01*
X99862Y474570D01*
X99840Y474547D01*
X99784Y474502D01*
X89378Y464096D01*
X89325Y464022D01*
X89265Y463952D01*
X89253Y463922D01*
X89234Y463896D01*
X89207Y463809D01*
X89173Y463724D01*
X89169Y463683D01*
X89162Y463661D01*
X89163Y463629D01*
X89155Y463557D01*
X89155Y451681D01*
X19235Y381761D01*
X7359Y381761D01*
X7268Y381747D01*
X7178Y381739D01*
X7148Y381727D01*
X7116Y381722D01*
X7035Y381679D01*
X6951Y381643D01*
X6919Y381617D01*
X6898Y381606D01*
X6876Y381583D01*
X6820Y381538D01*
X-3586Y371132D01*
X-3639Y371058D01*
X-3699Y370988D01*
X-3711Y370958D01*
X-3730Y370932D01*
X-3757Y370845D01*
X-3791Y370760D01*
X-3795Y370719D01*
X-3802Y370697D01*
X-3801Y370665D01*
X-3809Y370593D01*
X-3809Y265753D01*
X-23398Y246164D01*
X-23451Y246090D01*
X-23511Y246020D01*
X-23523Y245990D01*
X-23542Y245964D01*
X-23569Y245877D01*
X-23603Y245792D01*
X-23607Y245751D01*
X-23614Y245729D01*
X-23613Y245697D01*
X-23621Y245625D01*
X-23621Y245286D01*
X-23618Y245266D01*
X-23620Y245247D01*
X-23598Y245145D01*
X-23582Y245043D01*
X-23572Y245026D01*
X-23568Y245006D01*
X-23515Y244917D01*
X-23466Y244826D01*
X-23452Y244812D01*
X-23442Y244795D01*
X-23363Y244728D01*
X-23288Y244656D01*
X-23270Y244648D01*
X-23255Y244635D01*
X-23159Y244596D01*
X-23065Y244553D01*
X-23045Y244551D01*
X-23027Y244543D01*
X-22860Y244525D01*
X-16883Y244525D01*
X-15990Y243632D01*
X-15990Y232368D01*
X-16883Y231475D01*
X-34657Y231475D01*
G37*
%LPD*%
%LPC*%
G36*
X250489Y341629D02*
X250489Y341629D01*
X243705Y343447D01*
X237624Y346958D01*
X232658Y351924D01*
X229147Y358005D01*
X227329Y364789D01*
X227329Y371811D01*
X229147Y378595D01*
X232658Y384676D01*
X237624Y389642D01*
X243705Y393153D01*
X250489Y394971D01*
X257511Y394971D01*
X264295Y393153D01*
X270376Y389642D01*
X275342Y384676D01*
X278853Y378595D01*
X280671Y371811D01*
X280671Y364789D01*
X278853Y358005D01*
X275342Y351924D01*
X270376Y346958D01*
X264295Y343447D01*
X257511Y341629D01*
X250489Y341629D01*
G37*
%LPD*%
%LPC*%
G36*
X250489Y113029D02*
X250489Y113029D01*
X243705Y114847D01*
X237624Y118358D01*
X232658Y123324D01*
X229147Y129405D01*
X227329Y136189D01*
X227329Y143211D01*
X229147Y149995D01*
X232658Y156076D01*
X237624Y161042D01*
X243705Y164553D01*
X250489Y166371D01*
X257511Y166371D01*
X264295Y164553D01*
X270376Y161042D01*
X275342Y156076D01*
X278853Y149995D01*
X280671Y143211D01*
X280671Y136189D01*
X278853Y129405D01*
X275342Y123324D01*
X270376Y118358D01*
X264295Y114847D01*
X257511Y113029D01*
X250489Y113029D01*
G37*
%LPD*%
%LPC*%
G36*
X473343Y231475D02*
X473343Y231475D01*
X472450Y232368D01*
X472450Y234696D01*
X472447Y234716D01*
X472449Y234735D01*
X472427Y234837D01*
X472411Y234939D01*
X472401Y234956D01*
X472397Y234976D01*
X472344Y235065D01*
X472295Y235156D01*
X472281Y235170D01*
X472271Y235187D01*
X472192Y235254D01*
X472117Y235326D01*
X472099Y235334D01*
X472084Y235347D01*
X471988Y235386D01*
X471894Y235429D01*
X471874Y235431D01*
X471856Y235439D01*
X471689Y235457D01*
X273373Y235457D01*
X262677Y246153D01*
X262661Y246165D01*
X262648Y246180D01*
X262561Y246236D01*
X262477Y246297D01*
X262458Y246303D01*
X262441Y246313D01*
X262341Y246339D01*
X262242Y246369D01*
X262222Y246369D01*
X262203Y246373D01*
X262100Y246365D01*
X261996Y246363D01*
X261977Y246356D01*
X261958Y246354D01*
X261863Y246314D01*
X261765Y246278D01*
X261750Y246266D01*
X261731Y246258D01*
X261600Y246153D01*
X260187Y244740D01*
X256173Y243077D01*
X251827Y243077D01*
X247813Y244740D01*
X244740Y247813D01*
X243077Y251827D01*
X243077Y256173D01*
X244740Y260187D01*
X247813Y263260D01*
X251827Y264923D01*
X256173Y264923D01*
X260187Y263260D01*
X263260Y260187D01*
X264923Y256173D01*
X264923Y251827D01*
X264692Y251270D01*
X264665Y251157D01*
X264637Y251043D01*
X264637Y251037D01*
X264636Y251031D01*
X264647Y250914D01*
X264656Y250798D01*
X264658Y250792D01*
X264659Y250786D01*
X264707Y250679D01*
X264752Y250572D01*
X264757Y250566D01*
X264759Y250561D01*
X264772Y250548D01*
X264857Y250441D01*
X275044Y240254D01*
X275118Y240201D01*
X275188Y240141D01*
X275218Y240129D01*
X275244Y240110D01*
X275331Y240083D01*
X275416Y240049D01*
X275457Y240045D01*
X275479Y240038D01*
X275511Y240039D01*
X275583Y240031D01*
X471689Y240031D01*
X471709Y240034D01*
X471728Y240032D01*
X471830Y240054D01*
X471932Y240070D01*
X471949Y240080D01*
X471969Y240084D01*
X472058Y240137D01*
X472149Y240186D01*
X472163Y240200D01*
X472180Y240210D01*
X472247Y240289D01*
X472319Y240364D01*
X472327Y240382D01*
X472340Y240397D01*
X472379Y240493D01*
X472422Y240587D01*
X472424Y240607D01*
X472432Y240625D01*
X472450Y240792D01*
X472450Y243632D01*
X473343Y244525D01*
X491117Y244525D01*
X492010Y243632D01*
X492010Y232368D01*
X491117Y231475D01*
X473343Y231475D01*
G37*
%LPD*%
%LPC*%
G36*
X397883Y43505D02*
X397883Y43505D01*
X396990Y44398D01*
X396990Y55661D01*
X397883Y56554D01*
X403860Y56554D01*
X403880Y56558D01*
X403899Y56555D01*
X404001Y56577D01*
X404103Y56594D01*
X404120Y56603D01*
X404140Y56608D01*
X404229Y56661D01*
X404320Y56709D01*
X404334Y56724D01*
X404351Y56734D01*
X404418Y56812D01*
X404490Y56887D01*
X404498Y56906D01*
X404511Y56921D01*
X404550Y57017D01*
X404593Y57111D01*
X404595Y57130D01*
X404603Y57149D01*
X404621Y57316D01*
X404621Y68003D01*
X439794Y103176D01*
X439836Y103234D01*
X439885Y103286D01*
X439907Y103333D01*
X439937Y103375D01*
X439958Y103444D01*
X439989Y103509D01*
X439994Y103561D01*
X440010Y103611D01*
X440008Y103682D01*
X440016Y103753D01*
X440005Y103804D01*
X440003Y103856D01*
X439979Y103924D01*
X439964Y103994D01*
X439937Y104039D01*
X439919Y104087D01*
X439874Y104143D01*
X439837Y104205D01*
X439798Y104239D01*
X439765Y104279D01*
X439705Y104318D01*
X439650Y104365D01*
X439602Y104384D01*
X439558Y104412D01*
X439489Y104430D01*
X439422Y104457D01*
X439351Y104465D01*
X439320Y104473D01*
X439317Y104472D01*
X438421Y105368D01*
X438421Y116632D01*
X439314Y117525D01*
X457087Y117525D01*
X457980Y116632D01*
X457980Y105368D01*
X457087Y104475D01*
X447877Y104475D01*
X447786Y104461D01*
X447696Y104453D01*
X447666Y104441D01*
X447634Y104436D01*
X447553Y104393D01*
X447469Y104357D01*
X447437Y104331D01*
X447416Y104320D01*
X447394Y104297D01*
X447338Y104252D01*
X409418Y66332D01*
X409365Y66258D01*
X409305Y66188D01*
X409293Y66158D01*
X409274Y66132D01*
X409247Y66045D01*
X409213Y65960D01*
X409209Y65919D01*
X409202Y65897D01*
X409203Y65865D01*
X409195Y65793D01*
X409195Y57316D01*
X409198Y57296D01*
X409196Y57276D01*
X409218Y57175D01*
X409234Y57073D01*
X409244Y57055D01*
X409248Y57036D01*
X409301Y56947D01*
X409350Y56855D01*
X409364Y56842D01*
X409374Y56825D01*
X409453Y56757D01*
X409528Y56686D01*
X409546Y56678D01*
X409561Y56665D01*
X409657Y56626D01*
X409751Y56582D01*
X409771Y56580D01*
X409789Y56573D01*
X409956Y56554D01*
X415657Y56554D01*
X416550Y55661D01*
X416550Y44398D01*
X415657Y43505D01*
X397883Y43505D01*
G37*
%LPD*%
%LPC*%
G36*
X277227Y243077D02*
X277227Y243077D01*
X273213Y244740D01*
X270140Y247813D01*
X268477Y251827D01*
X268477Y256173D01*
X270140Y260187D01*
X273213Y263260D01*
X277227Y264923D01*
X281573Y264923D01*
X285587Y263260D01*
X288660Y260187D01*
X290323Y256173D01*
X290323Y251827D01*
X288660Y247813D01*
X285587Y244740D01*
X281573Y243077D01*
X277227Y243077D01*
G37*
%LPD*%
%LPC*%
G36*
X490854Y358475D02*
X490854Y358475D01*
X489961Y359368D01*
X489961Y370632D01*
X490854Y371525D01*
X495433Y371525D01*
X495503Y371536D01*
X495575Y371538D01*
X495624Y371556D01*
X495675Y371564D01*
X495739Y371598D01*
X495806Y371623D01*
X495847Y371655D01*
X495893Y371680D01*
X495942Y371732D01*
X495998Y371776D01*
X496026Y371820D01*
X496062Y371858D01*
X496092Y371923D01*
X496131Y371983D01*
X496144Y372034D01*
X496166Y372081D01*
X496174Y372152D01*
X496191Y372222D01*
X496187Y372274D01*
X496193Y372325D01*
X496178Y372396D01*
X496172Y372467D01*
X496152Y372515D01*
X496141Y372566D01*
X496104Y372627D01*
X496076Y372693D01*
X496031Y372749D01*
X496014Y372777D01*
X495997Y372792D01*
X495971Y372824D01*
X494565Y374230D01*
X494565Y378626D01*
X497674Y381735D01*
X502070Y381735D01*
X505179Y378626D01*
X505179Y374230D01*
X503773Y372824D01*
X503731Y372766D01*
X503682Y372714D01*
X503660Y372667D01*
X503630Y372625D01*
X503608Y372556D01*
X503578Y372491D01*
X503573Y372439D01*
X503557Y372389D01*
X503559Y372318D01*
X503551Y372247D01*
X503562Y372196D01*
X503564Y372144D01*
X503588Y372076D01*
X503603Y372006D01*
X503630Y371961D01*
X503648Y371913D01*
X503693Y371857D01*
X503730Y371795D01*
X503769Y371761D01*
X503802Y371721D01*
X503862Y371682D01*
X503917Y371635D01*
X503965Y371616D01*
X504009Y371588D01*
X504078Y371570D01*
X504145Y371543D01*
X504216Y371535D01*
X504247Y371527D01*
X504270Y371529D01*
X504311Y371525D01*
X508627Y371525D01*
X509520Y370632D01*
X509520Y359368D01*
X508627Y358475D01*
X490854Y358475D01*
G37*
%LPD*%
%LPC*%
G36*
X230123Y255523D02*
X230123Y255523D01*
X230123Y265846D01*
X231396Y265645D01*
X233183Y265064D01*
X234857Y264211D01*
X236378Y263106D01*
X237706Y261778D01*
X238811Y260257D01*
X239664Y258583D01*
X240245Y256796D01*
X240446Y255523D01*
X230123Y255523D01*
G37*
%LPD*%
%LPC*%
G36*
X216754Y255523D02*
X216754Y255523D01*
X216955Y256796D01*
X217536Y258583D01*
X218389Y260257D01*
X219494Y261778D01*
X220822Y263106D01*
X222343Y264211D01*
X224017Y265064D01*
X225804Y265645D01*
X227077Y265846D01*
X227077Y255523D01*
X216754Y255523D01*
G37*
%LPD*%
%LPC*%
G36*
X230123Y252477D02*
X230123Y252477D01*
X240446Y252477D01*
X240245Y251204D01*
X239664Y249417D01*
X238811Y247743D01*
X237706Y246222D01*
X236378Y244894D01*
X234857Y243789D01*
X233183Y242936D01*
X231396Y242355D01*
X230123Y242154D01*
X230123Y252477D01*
G37*
%LPD*%
%LPC*%
G36*
X225804Y242355D02*
X225804Y242355D01*
X224017Y242936D01*
X222343Y243789D01*
X220822Y244894D01*
X219494Y246222D01*
X218389Y247743D01*
X217536Y249417D01*
X216955Y251204D01*
X216754Y252477D01*
X227077Y252477D01*
X227077Y242154D01*
X225804Y242355D01*
G37*
%LPD*%
%LPC*%
G36*
X229753Y525523D02*
X229753Y525523D01*
X229753Y531541D01*
X236819Y531541D01*
X237466Y531368D01*
X238045Y531033D01*
X238518Y530560D01*
X238853Y529981D01*
X239026Y529334D01*
X239026Y525523D01*
X229753Y525523D01*
G37*
%LPD*%
%LPC*%
G36*
X9783Y144523D02*
X9783Y144523D01*
X9783Y150541D01*
X16849Y150541D01*
X17495Y150368D01*
X18075Y150033D01*
X18548Y149560D01*
X18882Y148981D01*
X19055Y148334D01*
X19055Y144523D01*
X9783Y144523D01*
G37*
%LPD*%
%LPC*%
G36*
X229753Y17523D02*
X229753Y17523D01*
X229753Y23541D01*
X236819Y23541D01*
X237466Y23368D01*
X238045Y23033D01*
X238518Y22560D01*
X238853Y21981D01*
X239026Y21334D01*
X239026Y17523D01*
X229753Y17523D01*
G37*
%LPD*%
%LPC*%
G36*
X102753Y51553D02*
X102753Y51553D01*
X102753Y57570D01*
X109819Y57570D01*
X110466Y57397D01*
X111045Y57063D01*
X111518Y56590D01*
X111853Y56010D01*
X112026Y55364D01*
X112026Y51553D01*
X102753Y51553D01*
G37*
%LPD*%
%LPC*%
G36*
X449724Y144523D02*
X449724Y144523D01*
X449724Y150541D01*
X456790Y150541D01*
X457436Y150368D01*
X458015Y150033D01*
X458489Y149560D01*
X458823Y148981D01*
X458996Y148334D01*
X458996Y144523D01*
X449724Y144523D01*
G37*
%LPD*%
%LPC*%
G36*
X102753Y491494D02*
X102753Y491494D01*
X102753Y497511D01*
X109819Y497511D01*
X110466Y497338D01*
X111045Y497004D01*
X111518Y496530D01*
X111853Y495951D01*
X112026Y495305D01*
X112026Y491494D01*
X102753Y491494D01*
G37*
%LPD*%
%LPC*%
G36*
X356753Y491494D02*
X356753Y491494D01*
X356753Y497511D01*
X363819Y497511D01*
X364466Y497338D01*
X365045Y497004D01*
X365518Y496530D01*
X365853Y495951D01*
X366026Y495305D01*
X366026Y491494D01*
X356753Y491494D01*
G37*
%LPD*%
%LPC*%
G36*
X9783Y398523D02*
X9783Y398523D01*
X9783Y404541D01*
X16849Y404541D01*
X17495Y404368D01*
X18075Y404033D01*
X18548Y403560D01*
X18882Y402981D01*
X19055Y402334D01*
X19055Y398523D01*
X9783Y398523D01*
G37*
%LPD*%
%LPC*%
G36*
X356753Y51553D02*
X356753Y51553D01*
X356753Y57570D01*
X363819Y57570D01*
X364466Y57397D01*
X365045Y57063D01*
X365518Y56590D01*
X365853Y56010D01*
X366026Y55364D01*
X366026Y51553D01*
X356753Y51553D01*
G37*
%LPD*%
%LPC*%
G36*
X449724Y398523D02*
X449724Y398523D01*
X449724Y404541D01*
X456790Y404541D01*
X457436Y404368D01*
X458015Y404033D01*
X458489Y403560D01*
X458823Y402981D01*
X458996Y402334D01*
X458996Y398523D01*
X449724Y398523D01*
G37*
%LPD*%
%LPC*%
G36*
X483753Y271523D02*
X483753Y271523D01*
X483753Y277541D01*
X490819Y277541D01*
X491466Y277368D01*
X492045Y277033D01*
X492518Y276560D01*
X492853Y275981D01*
X493026Y275334D01*
X493026Y271523D01*
X483753Y271523D01*
G37*
%LPD*%
%LPC*%
G36*
X-36566Y271523D02*
X-36566Y271523D01*
X-36566Y275335D01*
X-36393Y275981D01*
X-36058Y276560D01*
X-35585Y277033D01*
X-35006Y277368D01*
X-34359Y277541D01*
X-27293Y277541D01*
X-27293Y271523D01*
X-36566Y271523D01*
G37*
%LPD*%
%LPC*%
G36*
X217434Y525523D02*
X217434Y525523D01*
X217434Y529334D01*
X217607Y529981D01*
X217942Y530560D01*
X218415Y531033D01*
X218994Y531368D01*
X219641Y531541D01*
X226707Y531541D01*
X226707Y525523D01*
X217434Y525523D01*
G37*
%LPD*%
%LPC*%
G36*
X437405Y144523D02*
X437405Y144523D01*
X437405Y148334D01*
X437578Y148981D01*
X437912Y149560D01*
X438385Y150033D01*
X438965Y150368D01*
X439611Y150541D01*
X446677Y150541D01*
X446677Y144523D01*
X437405Y144523D01*
G37*
%LPD*%
%LPC*%
G36*
X90434Y491494D02*
X90434Y491494D01*
X90434Y495305D01*
X90607Y495951D01*
X90942Y496530D01*
X91415Y497004D01*
X91994Y497338D01*
X92641Y497511D01*
X99707Y497511D01*
X99707Y491494D01*
X90434Y491494D01*
G37*
%LPD*%
%LPC*%
G36*
X344434Y491494D02*
X344434Y491494D01*
X344434Y495305D01*
X344607Y495951D01*
X344942Y496530D01*
X345415Y497004D01*
X345994Y497338D01*
X346641Y497511D01*
X353707Y497511D01*
X353707Y491494D01*
X344434Y491494D01*
G37*
%LPD*%
%LPC*%
G36*
X217434Y17523D02*
X217434Y17523D01*
X217434Y21334D01*
X217607Y21981D01*
X217942Y22560D01*
X218415Y23033D01*
X218994Y23368D01*
X219641Y23541D01*
X226707Y23541D01*
X226707Y17523D01*
X217434Y17523D01*
G37*
%LPD*%
%LPC*%
G36*
X437405Y398523D02*
X437405Y398523D01*
X437405Y402334D01*
X437578Y402981D01*
X437912Y403560D01*
X438385Y404033D01*
X438965Y404368D01*
X439611Y404541D01*
X446677Y404541D01*
X446677Y398523D01*
X437405Y398523D01*
G37*
%LPD*%
%LPC*%
G36*
X-24247Y271523D02*
X-24247Y271523D01*
X-24247Y277541D01*
X-17181Y277541D01*
X-16534Y277368D01*
X-15955Y277033D01*
X-15482Y276560D01*
X-15147Y275981D01*
X-14974Y275334D01*
X-14974Y271523D01*
X-24247Y271523D01*
G37*
%LPD*%
%LPC*%
G36*
X471434Y271523D02*
X471434Y271523D01*
X471434Y275334D01*
X471607Y275981D01*
X471942Y276560D01*
X472415Y277033D01*
X472994Y277368D01*
X473641Y277541D01*
X480707Y277541D01*
X480707Y271523D01*
X471434Y271523D01*
G37*
%LPD*%
%LPC*%
G36*
X90434Y51553D02*
X90434Y51553D01*
X90434Y55364D01*
X90607Y56010D01*
X90942Y56590D01*
X91415Y57063D01*
X91994Y57397D01*
X92641Y57570D01*
X99707Y57570D01*
X99707Y51553D01*
X90434Y51553D01*
G37*
%LPD*%
%LPC*%
G36*
X344434Y51553D02*
X344434Y51553D01*
X344434Y55364D01*
X344607Y56010D01*
X344942Y56590D01*
X345415Y57063D01*
X345994Y57397D01*
X346641Y57570D01*
X353707Y57570D01*
X353707Y51553D01*
X344434Y51553D01*
G37*
%LPD*%
%LPC*%
G36*
X-34359Y262459D02*
X-34359Y262459D01*
X-35006Y262632D01*
X-35585Y262967D01*
X-36058Y263440D01*
X-36393Y264019D01*
X-36566Y264666D01*
X-36566Y268477D01*
X-27293Y268477D01*
X-27293Y262459D01*
X-34359Y262459D01*
G37*
%LPD*%
%LPC*%
G36*
X483753Y262459D02*
X483753Y262459D01*
X483753Y268477D01*
X493026Y268477D01*
X493026Y264666D01*
X492853Y264019D01*
X492518Y263440D01*
X492045Y262967D01*
X491466Y262632D01*
X490819Y262459D01*
X483753Y262459D01*
G37*
%LPD*%
%LPC*%
G36*
X229753Y516459D02*
X229753Y516459D01*
X229753Y522477D01*
X239026Y522477D01*
X239026Y518665D01*
X238853Y518019D01*
X238518Y517440D01*
X238045Y516967D01*
X237466Y516632D01*
X236819Y516459D01*
X229753Y516459D01*
G37*
%LPD*%
%LPC*%
G36*
X356753Y42489D02*
X356753Y42489D01*
X356753Y48506D01*
X366026Y48506D01*
X366026Y44695D01*
X365853Y44049D01*
X365518Y43470D01*
X365045Y42996D01*
X364466Y42662D01*
X363819Y42489D01*
X356753Y42489D01*
G37*
%LPD*%
%LPC*%
G36*
X229753Y8459D02*
X229753Y8459D01*
X229753Y14477D01*
X239026Y14477D01*
X239026Y10665D01*
X238853Y10019D01*
X238518Y9440D01*
X238045Y8967D01*
X237466Y8632D01*
X236819Y8459D01*
X229753Y8459D01*
G37*
%LPD*%
%LPC*%
G36*
X102753Y42489D02*
X102753Y42489D01*
X102753Y48506D01*
X112026Y48506D01*
X112026Y44695D01*
X111853Y44049D01*
X111518Y43470D01*
X111045Y42996D01*
X110466Y42662D01*
X109819Y42489D01*
X102753Y42489D01*
G37*
%LPD*%
%LPC*%
G36*
X9783Y389459D02*
X9783Y389459D01*
X9783Y395477D01*
X19055Y395477D01*
X19055Y391665D01*
X18882Y391019D01*
X18548Y390440D01*
X18075Y389967D01*
X17495Y389632D01*
X16849Y389459D01*
X9783Y389459D01*
G37*
%LPD*%
%LPC*%
G36*
X449724Y389459D02*
X449724Y389459D01*
X449724Y395477D01*
X458996Y395477D01*
X458996Y391665D01*
X458823Y391019D01*
X458489Y390440D01*
X458015Y389967D01*
X457436Y389632D01*
X456790Y389459D01*
X449724Y389459D01*
G37*
%LPD*%
%LPC*%
G36*
X102753Y482430D02*
X102753Y482430D01*
X102753Y488447D01*
X112026Y488447D01*
X112026Y484636D01*
X111853Y483990D01*
X111518Y483410D01*
X111045Y482937D01*
X110466Y482603D01*
X109819Y482430D01*
X102753Y482430D01*
G37*
%LPD*%
%LPC*%
G36*
X356753Y482430D02*
X356753Y482430D01*
X356753Y488447D01*
X366026Y488447D01*
X366026Y484636D01*
X365853Y483990D01*
X365518Y483410D01*
X365045Y482937D01*
X364466Y482603D01*
X363819Y482430D01*
X356753Y482430D01*
G37*
%LPD*%
%LPC*%
G36*
X9783Y135459D02*
X9783Y135459D01*
X9783Y141477D01*
X19055Y141477D01*
X19055Y137665D01*
X18882Y137019D01*
X18548Y136440D01*
X18075Y135967D01*
X17495Y135632D01*
X16849Y135459D01*
X9783Y135459D01*
G37*
%LPD*%
%LPC*%
G36*
X449724Y135459D02*
X449724Y135459D01*
X449724Y141477D01*
X458996Y141477D01*
X458996Y137665D01*
X458823Y137019D01*
X458489Y136440D01*
X458015Y135967D01*
X457436Y135632D01*
X456790Y135459D01*
X449724Y135459D01*
G37*
%LPD*%
%LPC*%
G36*
X-2536Y144523D02*
X-2536Y144523D01*
X-2536Y148335D01*
X-2363Y148981D01*
X-2029Y149560D01*
X-1555Y150033D01*
X-976Y150368D01*
X-330Y150541D01*
X6736Y150541D01*
X6736Y144523D01*
X-2536Y144523D01*
G37*
%LPD*%
%LPC*%
G36*
X439611Y135459D02*
X439611Y135459D01*
X438965Y135632D01*
X438385Y135967D01*
X437912Y136440D01*
X437578Y137019D01*
X437405Y137666D01*
X437405Y141477D01*
X446677Y141477D01*
X446677Y135459D01*
X439611Y135459D01*
G37*
%LPD*%
%LPC*%
G36*
X219641Y516459D02*
X219641Y516459D01*
X218994Y516632D01*
X218415Y516967D01*
X217942Y517440D01*
X217607Y518019D01*
X217434Y518666D01*
X217434Y522477D01*
X226707Y522477D01*
X226707Y516459D01*
X219641Y516459D01*
G37*
%LPD*%
%LPC*%
G36*
X346641Y42489D02*
X346641Y42489D01*
X345994Y42662D01*
X345415Y42996D01*
X344942Y43470D01*
X344607Y44049D01*
X344434Y44695D01*
X344434Y48506D01*
X353707Y48506D01*
X353707Y42489D01*
X346641Y42489D01*
G37*
%LPD*%
%LPC*%
G36*
X92641Y42489D02*
X92641Y42489D01*
X91994Y42662D01*
X91415Y42996D01*
X90942Y43470D01*
X90607Y44049D01*
X90434Y44695D01*
X90434Y48506D01*
X99707Y48506D01*
X99707Y42489D01*
X92641Y42489D01*
G37*
%LPD*%
%LPC*%
G36*
X346641Y482430D02*
X346641Y482430D01*
X345994Y482603D01*
X345415Y482937D01*
X344942Y483410D01*
X344607Y483990D01*
X344434Y484636D01*
X344434Y488447D01*
X353707Y488447D01*
X353707Y482430D01*
X346641Y482430D01*
G37*
%LPD*%
%LPC*%
G36*
X92641Y482430D02*
X92641Y482430D01*
X91994Y482603D01*
X91415Y482937D01*
X90942Y483410D01*
X90607Y483990D01*
X90434Y484636D01*
X90434Y488447D01*
X99707Y488447D01*
X99707Y482430D01*
X92641Y482430D01*
G37*
%LPD*%
%LPC*%
G36*
X439611Y389459D02*
X439611Y389459D01*
X438965Y389632D01*
X438385Y389967D01*
X437912Y390440D01*
X437578Y391019D01*
X437405Y391666D01*
X437405Y395477D01*
X446677Y395477D01*
X446677Y389459D01*
X439611Y389459D01*
G37*
%LPD*%
%LPC*%
G36*
X473641Y262459D02*
X473641Y262459D01*
X472994Y262632D01*
X472415Y262967D01*
X471942Y263440D01*
X471607Y264019D01*
X471434Y264666D01*
X471434Y268477D01*
X480707Y268477D01*
X480707Y262459D01*
X473641Y262459D01*
G37*
%LPD*%
%LPC*%
G36*
X-24247Y262459D02*
X-24247Y262459D01*
X-24247Y268477D01*
X-14974Y268477D01*
X-14974Y264666D01*
X-15147Y264019D01*
X-15482Y263440D01*
X-15955Y262967D01*
X-16534Y262632D01*
X-17181Y262459D01*
X-24247Y262459D01*
G37*
%LPD*%
%LPC*%
G36*
X219641Y8459D02*
X219641Y8459D01*
X218994Y8632D01*
X218415Y8967D01*
X217942Y9440D01*
X217607Y10019D01*
X217434Y10666D01*
X217434Y14477D01*
X226707Y14477D01*
X226707Y8459D01*
X219641Y8459D01*
G37*
%LPD*%
%LPC*%
G36*
X-330Y135459D02*
X-330Y135459D01*
X-976Y135632D01*
X-1555Y135967D01*
X-2029Y136440D01*
X-2363Y137019D01*
X-2536Y137666D01*
X-2536Y141477D01*
X6736Y141477D01*
X6736Y135459D01*
X-330Y135459D01*
G37*
%LPD*%
%LPC*%
G36*
X352923Y101544D02*
X352923Y101544D01*
X352923Y107561D01*
X357234Y107561D01*
X357881Y107388D01*
X358460Y107054D01*
X358933Y106581D01*
X359268Y106001D01*
X359441Y105355D01*
X359441Y101544D01*
X352923Y101544D01*
G37*
%LPD*%
%LPC*%
G36*
X264023Y433323D02*
X264023Y433323D01*
X264023Y439341D01*
X268334Y439341D01*
X268981Y439168D01*
X269560Y438833D01*
X270033Y438360D01*
X270368Y437781D01*
X270541Y437134D01*
X270541Y433323D01*
X264023Y433323D01*
G37*
%LPD*%
%LPC*%
G36*
X175123Y101544D02*
X175123Y101544D01*
X175123Y107561D01*
X179434Y107561D01*
X180081Y107388D01*
X180660Y107054D01*
X181133Y106581D01*
X181468Y106001D01*
X181641Y105355D01*
X181641Y101544D01*
X175123Y101544D01*
G37*
%LPD*%
%LPC*%
G36*
X175123Y409502D02*
X175123Y409502D01*
X175123Y415520D01*
X179434Y415520D01*
X180081Y415347D01*
X180660Y415012D01*
X181133Y414539D01*
X181468Y413960D01*
X181641Y413314D01*
X181641Y409502D01*
X175123Y409502D01*
G37*
%LPD*%
%LPC*%
G36*
X352923Y409502D02*
X352923Y409502D01*
X352923Y415520D01*
X357234Y415520D01*
X357881Y415347D01*
X358460Y415012D01*
X358933Y414539D01*
X359268Y413960D01*
X359441Y413314D01*
X359441Y409502D01*
X352923Y409502D01*
G37*
%LPD*%
%LPC*%
G36*
X86223Y255523D02*
X86223Y255523D01*
X86223Y261541D01*
X90534Y261541D01*
X91181Y261368D01*
X91760Y261033D01*
X92233Y260560D01*
X92568Y259981D01*
X92741Y259334D01*
X92741Y255523D01*
X86223Y255523D01*
G37*
%LPD*%
%LPC*%
G36*
X441823Y255523D02*
X441823Y255523D01*
X441823Y261541D01*
X446134Y261541D01*
X446781Y261368D01*
X447360Y261033D01*
X447833Y260560D01*
X448168Y259981D01*
X448341Y259334D01*
X448341Y255523D01*
X441823Y255523D01*
G37*
%LPD*%
%LPC*%
G36*
X110044Y344423D02*
X110044Y344423D01*
X110044Y350441D01*
X114355Y350441D01*
X115001Y350268D01*
X115581Y349933D01*
X116054Y349460D01*
X116388Y348881D01*
X116561Y348234D01*
X116561Y344423D01*
X110044Y344423D01*
G37*
%LPD*%
%LPC*%
G36*
X110044Y166623D02*
X110044Y166623D01*
X110044Y172641D01*
X114355Y172641D01*
X115001Y172468D01*
X115581Y172133D01*
X116054Y171660D01*
X116388Y171081D01*
X116561Y170434D01*
X116561Y166623D01*
X110044Y166623D01*
G37*
%LPD*%
%LPC*%
G36*
X264023Y77723D02*
X264023Y77723D01*
X264023Y83741D01*
X268334Y83741D01*
X268981Y83568D01*
X269560Y83233D01*
X270033Y82760D01*
X270368Y82181D01*
X270541Y81534D01*
X270541Y77723D01*
X264023Y77723D01*
G37*
%LPD*%
%LPC*%
G36*
X418002Y166623D02*
X418002Y166623D01*
X418002Y172641D01*
X422314Y172641D01*
X422960Y172468D01*
X423539Y172133D01*
X424012Y171660D01*
X424347Y171081D01*
X424520Y170434D01*
X424520Y166623D01*
X418002Y166623D01*
G37*
%LPD*%
%LPC*%
G36*
X418002Y344423D02*
X418002Y344423D01*
X418002Y350441D01*
X422314Y350441D01*
X422960Y350268D01*
X423539Y349933D01*
X424012Y349460D01*
X424347Y348881D01*
X424520Y348234D01*
X424520Y344423D01*
X418002Y344423D01*
G37*
%LPD*%
%LPC*%
G36*
X165559Y409502D02*
X165559Y409502D01*
X165559Y413314D01*
X165732Y413960D01*
X166067Y414539D01*
X166540Y415012D01*
X167119Y415347D01*
X167766Y415520D01*
X172077Y415520D01*
X172077Y409502D01*
X165559Y409502D01*
G37*
%LPD*%
%LPC*%
G36*
X343359Y101544D02*
X343359Y101544D01*
X343359Y105355D01*
X343532Y106001D01*
X343867Y106581D01*
X344340Y107054D01*
X344919Y107388D01*
X345566Y107561D01*
X349877Y107561D01*
X349877Y101544D01*
X343359Y101544D01*
G37*
%LPD*%
%LPC*%
G36*
X254459Y433323D02*
X254459Y433323D01*
X254459Y437134D01*
X254632Y437781D01*
X254967Y438360D01*
X255440Y438833D01*
X256019Y439168D01*
X256666Y439341D01*
X260977Y439341D01*
X260977Y433323D01*
X254459Y433323D01*
G37*
%LPD*%
%LPC*%
G36*
X100480Y344423D02*
X100480Y344423D01*
X100480Y348234D01*
X100653Y348881D01*
X100988Y349460D01*
X101461Y349933D01*
X102040Y350268D01*
X102686Y350441D01*
X106997Y350441D01*
X106997Y344423D01*
X100480Y344423D01*
G37*
%LPD*%
%LPC*%
G36*
X432259Y255523D02*
X432259Y255523D01*
X432259Y259334D01*
X432432Y259981D01*
X432767Y260560D01*
X433240Y261033D01*
X433819Y261368D01*
X434466Y261541D01*
X438777Y261541D01*
X438777Y255523D01*
X432259Y255523D01*
G37*
%LPD*%
%LPC*%
G36*
X343359Y409502D02*
X343359Y409502D01*
X343359Y413314D01*
X343532Y413960D01*
X343867Y414539D01*
X344340Y415012D01*
X344919Y415347D01*
X345566Y415520D01*
X349877Y415520D01*
X349877Y409502D01*
X343359Y409502D01*
G37*
%LPD*%
%LPC*%
G36*
X76659Y255523D02*
X76659Y255523D01*
X76659Y259334D01*
X76832Y259981D01*
X77167Y260560D01*
X77640Y261033D01*
X78219Y261368D01*
X78866Y261541D01*
X83177Y261541D01*
X83177Y255523D01*
X76659Y255523D01*
G37*
%LPD*%
%LPC*%
G36*
X408439Y344423D02*
X408439Y344423D01*
X408439Y348234D01*
X408612Y348881D01*
X408946Y349460D01*
X409419Y349933D01*
X409999Y350268D01*
X410645Y350441D01*
X414956Y350441D01*
X414956Y344423D01*
X408439Y344423D01*
G37*
%LPD*%
%LPC*%
G36*
X254459Y77723D02*
X254459Y77723D01*
X254459Y81534D01*
X254632Y82181D01*
X254967Y82760D01*
X255440Y83233D01*
X256019Y83568D01*
X256666Y83741D01*
X260977Y83741D01*
X260977Y77723D01*
X254459Y77723D01*
G37*
%LPD*%
%LPC*%
G36*
X408439Y166623D02*
X408439Y166623D01*
X408439Y170434D01*
X408612Y171081D01*
X408946Y171660D01*
X409419Y172133D01*
X409999Y172468D01*
X410645Y172641D01*
X414956Y172641D01*
X414956Y166623D01*
X408439Y166623D01*
G37*
%LPD*%
%LPC*%
G36*
X100480Y166623D02*
X100480Y166623D01*
X100480Y170434D01*
X100653Y171081D01*
X100988Y171660D01*
X101461Y172133D01*
X102040Y172468D01*
X102686Y172641D01*
X106997Y172641D01*
X106997Y166623D01*
X100480Y166623D01*
G37*
%LPD*%
%LPC*%
G36*
X165559Y101544D02*
X165559Y101544D01*
X165559Y105355D01*
X165732Y106001D01*
X166067Y106581D01*
X166540Y107054D01*
X167119Y107388D01*
X167766Y107561D01*
X172077Y107561D01*
X172077Y101544D01*
X165559Y101544D01*
G37*
%LPD*%
%LPC*%
G36*
X352923Y92480D02*
X352923Y92480D01*
X352923Y98497D01*
X359441Y98497D01*
X359441Y94686D01*
X359268Y94040D01*
X358933Y93461D01*
X358460Y92988D01*
X357881Y92653D01*
X357234Y92480D01*
X352923Y92480D01*
G37*
%LPD*%
%LPC*%
G36*
X175123Y92480D02*
X175123Y92480D01*
X175123Y98497D01*
X181641Y98497D01*
X181641Y94686D01*
X181468Y94040D01*
X181133Y93461D01*
X180660Y92988D01*
X180081Y92653D01*
X179434Y92480D01*
X175123Y92480D01*
G37*
%LPD*%
%LPC*%
G36*
X352923Y400439D02*
X352923Y400439D01*
X352923Y406456D01*
X359441Y406456D01*
X359441Y402645D01*
X359268Y401999D01*
X358933Y401419D01*
X358460Y400946D01*
X357881Y400612D01*
X357234Y400439D01*
X352923Y400439D01*
G37*
%LPD*%
%LPC*%
G36*
X264023Y424259D02*
X264023Y424259D01*
X264023Y430277D01*
X270541Y430277D01*
X270541Y426465D01*
X270368Y425819D01*
X270033Y425240D01*
X269560Y424767D01*
X268981Y424432D01*
X268334Y424259D01*
X264023Y424259D01*
G37*
%LPD*%
%LPC*%
G36*
X175123Y400439D02*
X175123Y400439D01*
X175123Y406456D01*
X181641Y406456D01*
X181641Y402645D01*
X181468Y401999D01*
X181133Y401419D01*
X180660Y400946D01*
X180081Y400612D01*
X179434Y400439D01*
X175123Y400439D01*
G37*
%LPD*%
%LPC*%
G36*
X418002Y157559D02*
X418002Y157559D01*
X418002Y163577D01*
X424520Y163577D01*
X424520Y159765D01*
X424347Y159119D01*
X424012Y158540D01*
X423539Y158067D01*
X422960Y157732D01*
X422314Y157559D01*
X418002Y157559D01*
G37*
%LPD*%
%LPC*%
G36*
X441823Y246459D02*
X441823Y246459D01*
X441823Y252477D01*
X448341Y252477D01*
X448341Y248665D01*
X448168Y248019D01*
X447833Y247440D01*
X447360Y246967D01*
X446781Y246632D01*
X446134Y246459D01*
X441823Y246459D01*
G37*
%LPD*%
%LPC*%
G36*
X86223Y246459D02*
X86223Y246459D01*
X86223Y252477D01*
X92741Y252477D01*
X92741Y248665D01*
X92568Y248019D01*
X92233Y247440D01*
X91760Y246967D01*
X91181Y246632D01*
X90534Y246459D01*
X86223Y246459D01*
G37*
%LPD*%
%LPC*%
G36*
X418002Y335359D02*
X418002Y335359D01*
X418002Y341377D01*
X424520Y341377D01*
X424520Y337565D01*
X424347Y336919D01*
X424012Y336340D01*
X423539Y335867D01*
X422960Y335532D01*
X422314Y335359D01*
X418002Y335359D01*
G37*
%LPD*%
%LPC*%
G36*
X110044Y157559D02*
X110044Y157559D01*
X110044Y163577D01*
X116561Y163577D01*
X116561Y159765D01*
X116388Y159119D01*
X116054Y158540D01*
X115581Y158067D01*
X115001Y157732D01*
X114355Y157559D01*
X110044Y157559D01*
G37*
%LPD*%
%LPC*%
G36*
X110044Y335359D02*
X110044Y335359D01*
X110044Y341377D01*
X116561Y341377D01*
X116561Y337565D01*
X116388Y336919D01*
X116054Y336340D01*
X115581Y335867D01*
X115001Y335532D01*
X114355Y335359D01*
X110044Y335359D01*
G37*
%LPD*%
%LPC*%
G36*
X264023Y68659D02*
X264023Y68659D01*
X264023Y74677D01*
X270541Y74677D01*
X270541Y70865D01*
X270368Y70219D01*
X270033Y69640D01*
X269560Y69167D01*
X268981Y68832D01*
X268334Y68659D01*
X264023Y68659D01*
G37*
%LPD*%
%LPC*%
G36*
X410645Y335359D02*
X410645Y335359D01*
X409999Y335532D01*
X409419Y335867D01*
X408946Y336340D01*
X408612Y336919D01*
X408439Y337566D01*
X408439Y341377D01*
X414956Y341377D01*
X414956Y335359D01*
X410645Y335359D01*
G37*
%LPD*%
%LPC*%
G36*
X167766Y92480D02*
X167766Y92480D01*
X167119Y92653D01*
X166540Y92988D01*
X166067Y93461D01*
X165732Y94040D01*
X165559Y94686D01*
X165559Y98497D01*
X172077Y98497D01*
X172077Y92480D01*
X167766Y92480D01*
G37*
%LPD*%
%LPC*%
G36*
X345566Y92480D02*
X345566Y92480D01*
X344919Y92653D01*
X344340Y92988D01*
X343867Y93461D01*
X343532Y94040D01*
X343359Y94686D01*
X343359Y98497D01*
X349877Y98497D01*
X349877Y92480D01*
X345566Y92480D01*
G37*
%LPD*%
%LPC*%
G36*
X256666Y424259D02*
X256666Y424259D01*
X256019Y424432D01*
X255440Y424767D01*
X254967Y425240D01*
X254632Y425819D01*
X254459Y426466D01*
X254459Y430277D01*
X260977Y430277D01*
X260977Y424259D01*
X256666Y424259D01*
G37*
%LPD*%
%LPC*%
G36*
X102686Y157559D02*
X102686Y157559D01*
X102040Y157732D01*
X101461Y158067D01*
X100988Y158540D01*
X100653Y159119D01*
X100480Y159766D01*
X100480Y163577D01*
X106997Y163577D01*
X106997Y157559D01*
X102686Y157559D01*
G37*
%LPD*%
%LPC*%
G36*
X410645Y157559D02*
X410645Y157559D01*
X409999Y157732D01*
X409419Y158067D01*
X408946Y158540D01*
X408612Y159119D01*
X408439Y159766D01*
X408439Y163577D01*
X414956Y163577D01*
X414956Y157559D01*
X410645Y157559D01*
G37*
%LPD*%
%LPC*%
G36*
X78866Y246459D02*
X78866Y246459D01*
X78219Y246632D01*
X77640Y246967D01*
X77167Y247440D01*
X76832Y248019D01*
X76659Y248666D01*
X76659Y252477D01*
X83177Y252477D01*
X83177Y246459D01*
X78866Y246459D01*
G37*
%LPD*%
%LPC*%
G36*
X256666Y68659D02*
X256666Y68659D01*
X256019Y68832D01*
X255440Y69167D01*
X254967Y69640D01*
X254632Y70219D01*
X254459Y70866D01*
X254459Y74677D01*
X260977Y74677D01*
X260977Y68659D01*
X256666Y68659D01*
G37*
%LPD*%
%LPC*%
G36*
X434466Y246459D02*
X434466Y246459D01*
X433819Y246632D01*
X433240Y246967D01*
X432767Y247440D01*
X432432Y248019D01*
X432259Y248666D01*
X432259Y252477D01*
X438777Y252477D01*
X438777Y246459D01*
X434466Y246459D01*
G37*
%LPD*%
%LPC*%
G36*
X345566Y400439D02*
X345566Y400439D01*
X344919Y400612D01*
X344340Y400946D01*
X343867Y401419D01*
X343532Y401999D01*
X343359Y402645D01*
X343359Y406456D01*
X349877Y406456D01*
X349877Y400439D01*
X345566Y400439D01*
G37*
%LPD*%
%LPC*%
G36*
X167766Y400439D02*
X167766Y400439D01*
X167119Y400612D01*
X166540Y400946D01*
X166067Y401419D01*
X165732Y401999D01*
X165559Y402645D01*
X165559Y406456D01*
X172077Y406456D01*
X172077Y400439D01*
X167766Y400439D01*
G37*
%LPD*%
%LPC*%
G36*
X102686Y335359D02*
X102686Y335359D01*
X102040Y335532D01*
X101461Y335867D01*
X100988Y336340D01*
X100653Y336919D01*
X100480Y337566D01*
X100480Y341377D01*
X106997Y341377D01*
X106997Y335359D01*
X102686Y335359D01*
G37*
%LPD*%
%LPC*%
G36*
X228599Y253999D02*
X228599Y253999D01*
X228599Y254001D01*
X228601Y254001D01*
X228601Y253999D01*
X228599Y253999D01*
G37*
%LPD*%
%LPC*%
G36*
X173599Y100020D02*
X173599Y100020D01*
X173599Y100022D01*
X173601Y100022D01*
X173601Y100020D01*
X173599Y100020D01*
G37*
%LPD*%
%LPC*%
G36*
X8259Y142999D02*
X8259Y142999D01*
X8259Y143001D01*
X8260Y143001D01*
X8260Y142999D01*
X8259Y142999D01*
G37*
%LPD*%
%LPC*%
G36*
X416478Y342899D02*
X416478Y342899D01*
X416478Y342901D01*
X416480Y342901D01*
X416480Y342899D01*
X416478Y342899D01*
G37*
%LPD*%
%LPC*%
G36*
X-25771Y269999D02*
X-25771Y269999D01*
X-25771Y270001D01*
X-25769Y270001D01*
X-25769Y269999D01*
X-25771Y269999D01*
G37*
%LPD*%
%LPC*%
G36*
X482229Y269999D02*
X482229Y269999D01*
X482229Y270001D01*
X482231Y270001D01*
X482231Y269999D01*
X482229Y269999D01*
G37*
%LPD*%
%LPC*%
G36*
X262499Y76199D02*
X262499Y76199D01*
X262499Y76201D01*
X262501Y76201D01*
X262501Y76199D01*
X262499Y76199D01*
G37*
%LPD*%
%LPC*%
G36*
X355229Y489970D02*
X355229Y489970D01*
X355229Y489971D01*
X355231Y489971D01*
X355231Y489970D01*
X355229Y489970D01*
G37*
%LPD*%
%LPC*%
G36*
X101229Y489970D02*
X101229Y489970D01*
X101229Y489971D01*
X101231Y489971D01*
X101231Y489970D01*
X101229Y489970D01*
G37*
%LPD*%
%LPC*%
G36*
X262499Y431799D02*
X262499Y431799D01*
X262499Y431801D01*
X262501Y431801D01*
X262501Y431799D01*
X262499Y431799D01*
G37*
%LPD*%
%LPC*%
G36*
X448200Y396999D02*
X448200Y396999D01*
X448200Y397001D01*
X448201Y397001D01*
X448201Y396999D01*
X448200Y396999D01*
G37*
%LPD*%
%LPC*%
G36*
X108520Y165099D02*
X108520Y165099D01*
X108520Y165101D01*
X108522Y165101D01*
X108522Y165099D01*
X108520Y165099D01*
G37*
%LPD*%
%LPC*%
G36*
X108520Y342899D02*
X108520Y342899D01*
X108520Y342901D01*
X108522Y342901D01*
X108522Y342899D01*
X108520Y342899D01*
G37*
%LPD*%
%LPC*%
G36*
X355229Y50029D02*
X355229Y50029D01*
X355229Y50030D01*
X355231Y50030D01*
X355231Y50029D01*
X355229Y50029D01*
G37*
%LPD*%
%LPC*%
G36*
X228229Y523999D02*
X228229Y523999D01*
X228229Y524001D01*
X228231Y524001D01*
X228231Y523999D01*
X228229Y523999D01*
G37*
%LPD*%
%LPC*%
G36*
X416478Y165099D02*
X416478Y165099D01*
X416478Y165101D01*
X416480Y165101D01*
X416480Y165099D01*
X416478Y165099D01*
G37*
%LPD*%
%LPC*%
G36*
X84699Y253999D02*
X84699Y253999D01*
X84699Y254001D01*
X84701Y254001D01*
X84701Y253999D01*
X84699Y253999D01*
G37*
%LPD*%
%LPC*%
G36*
X448200Y142999D02*
X448200Y142999D01*
X448200Y143001D01*
X448201Y143001D01*
X448201Y142999D01*
X448200Y142999D01*
G37*
%LPD*%
%LPC*%
G36*
X440299Y253999D02*
X440299Y253999D01*
X440299Y254001D01*
X440301Y254001D01*
X440301Y253999D01*
X440299Y253999D01*
G37*
%LPD*%
%LPC*%
G36*
X173599Y407978D02*
X173599Y407978D01*
X173599Y407980D01*
X173601Y407980D01*
X173601Y407978D01*
X173599Y407978D01*
G37*
%LPD*%
%LPC*%
G36*
X351399Y407978D02*
X351399Y407978D01*
X351399Y407980D01*
X351401Y407980D01*
X351401Y407978D01*
X351399Y407978D01*
G37*
%LPD*%
%LPC*%
G36*
X228229Y15999D02*
X228229Y15999D01*
X228229Y16001D01*
X228231Y16001D01*
X228231Y15999D01*
X228229Y15999D01*
G37*
%LPD*%
%LPC*%
G36*
X351399Y100020D02*
X351399Y100020D01*
X351399Y100022D01*
X351401Y100022D01*
X351401Y100020D01*
X351399Y100020D01*
G37*
%LPD*%
%LPC*%
G36*
X101229Y50029D02*
X101229Y50029D01*
X101229Y50030D01*
X101231Y50030D01*
X101231Y50029D01*
X101229Y50029D01*
G37*
%LPD*%
D10*
X423300Y254000D03*
X440300Y254000D03*
X245500Y76200D03*
X262500Y76200D03*
X334400Y100021D03*
X351400Y100021D03*
X399479Y165100D03*
X416479Y165100D03*
X399479Y342900D03*
X416479Y342900D03*
X334400Y407979D03*
X351400Y407979D03*
X245500Y431800D03*
X262500Y431800D03*
X156600Y407979D03*
X173600Y407979D03*
X91521Y342900D03*
X108521Y342900D03*
X67700Y254000D03*
X84700Y254000D03*
X91521Y165100D03*
X108521Y165100D03*
X156600Y100021D03*
X173600Y100021D03*
D11*
X533770Y238000D03*
X482230Y238000D03*
X482230Y270000D03*
X533770Y270000D03*
X279770Y-16000D03*
X228230Y-16000D03*
X228230Y16000D03*
X279770Y16000D03*
X406770Y18030D03*
X355230Y18030D03*
X355230Y50030D03*
X406770Y50030D03*
X499740Y111000D03*
X448200Y111000D03*
X448200Y143000D03*
X499740Y143000D03*
X499740Y365000D03*
X448200Y365000D03*
X448200Y397000D03*
X499740Y397000D03*
X406770Y457970D03*
X355230Y457970D03*
X355230Y489970D03*
X406770Y489970D03*
X279770Y492000D03*
X228230Y492000D03*
X228230Y524000D03*
X279770Y524000D03*
X152770Y457970D03*
X101230Y457970D03*
X101230Y489970D03*
X152770Y489970D03*
X59800Y365000D03*
X8260Y365000D03*
X8260Y397000D03*
X59800Y397000D03*
X25770Y238000D03*
X-25770Y238000D03*
X-25770Y270000D03*
X25770Y270000D03*
X59800Y111000D03*
X8260Y111000D03*
X8260Y143000D03*
X59800Y143000D03*
X152770Y18030D03*
X101230Y18030D03*
X101230Y50030D03*
X152770Y50030D03*
D12*
X228600Y254000D03*
X254000Y254000D03*
X279400Y254000D03*
D13*
X280416Y-16764D02*
X280416Y-27432D01*
X280416Y-16764D02*
X279770Y-16000D01*
X406908Y18288D02*
X406908Y28956D01*
X406908Y18288D02*
X406770Y18030D01*
X489204Y109728D02*
X498348Y109728D01*
X489204Y109728D02*
X483108Y103632D01*
X483108Y100584D01*
X411480Y28956D01*
X406908Y28956D01*
X498348Y109728D02*
X499740Y111000D01*
X533400Y239268D02*
X533400Y248412D01*
X533400Y239268D02*
X533770Y238000D01*
X499872Y365760D02*
X499872Y376428D01*
X499872Y365760D02*
X499740Y365000D01*
X91521Y342900D02*
X79248Y342900D01*
X60960Y361188D01*
X60960Y364236D01*
X59800Y365000D01*
X156972Y431292D02*
X156972Y454152D01*
X156972Y431292D02*
X156972Y408432D01*
X156972Y454152D02*
X153924Y457200D01*
X156972Y408432D02*
X156600Y407979D01*
X153924Y457200D02*
X152770Y457970D01*
X92964Y350520D02*
X92964Y342900D01*
X92964Y350520D02*
X150876Y408432D01*
X155448Y408432D01*
X92964Y342900D02*
X91521Y342900D01*
X155448Y408432D02*
X156600Y407979D01*
X245364Y432816D02*
X245364Y454152D01*
X263652Y472440D02*
X278892Y487680D01*
X263652Y472440D02*
X245364Y454152D01*
X278892Y487680D02*
X278892Y490728D01*
X245364Y432816D02*
X245500Y431800D01*
X278892Y490728D02*
X279770Y492000D01*
X393192Y342900D02*
X397764Y342900D01*
X399479Y342900D01*
X350520Y385572D02*
X333756Y402336D01*
X350520Y385572D02*
X393192Y342900D01*
X333756Y402336D02*
X333756Y406908D01*
X423672Y312420D02*
X423672Y266700D01*
X423672Y254508D01*
X423672Y312420D02*
X397764Y338328D01*
X397764Y342900D01*
X423672Y254508D02*
X423300Y254000D01*
X399479Y342900D02*
X399288Y342900D01*
X406908Y441960D02*
X406908Y457200D01*
X406908Y441960D02*
X350520Y385572D01*
X406908Y457200D02*
X406770Y457970D01*
X329184Y406908D02*
X263652Y472440D01*
X329184Y406908D02*
X333756Y406908D01*
X334400Y407979D01*
X245364Y431292D02*
X156972Y431292D01*
X245364Y431292D02*
X245500Y431800D01*
X335280Y106680D02*
X335280Y100584D01*
X335280Y106680D02*
X394716Y166116D01*
X399288Y166116D01*
X335280Y100584D02*
X334400Y100021D01*
X399479Y165100D02*
X399288Y166116D01*
X67056Y254508D02*
X51816Y254508D01*
X38100Y240792D02*
X36576Y239268D01*
X38100Y240792D02*
X51816Y254508D01*
X36576Y239268D02*
X25908Y239268D01*
X25770Y238000D01*
X149352Y100584D02*
X155448Y100584D01*
X97536Y152400D02*
X92964Y156972D01*
X97536Y152400D02*
X149352Y100584D01*
X92964Y156972D02*
X92964Y164592D01*
X155448Y100584D02*
X156600Y100021D01*
X92964Y164592D02*
X91521Y165100D01*
X175260Y76200D02*
X245364Y76200D01*
X175260Y76200D02*
X156972Y94488D01*
X156972Y99060D01*
X156600Y100021D01*
X153924Y24384D02*
X153924Y18288D01*
X153924Y24384D02*
X175260Y45720D01*
X175260Y76200D01*
X153924Y18288D02*
X152770Y18030D01*
X60960Y111252D02*
X60960Y115824D01*
X97536Y152400D01*
X60960Y111252D02*
X59800Y111000D01*
X88392Y190500D02*
X38100Y240792D01*
X88392Y190500D02*
X88392Y169164D01*
X91440Y166116D01*
X91521Y165100D01*
X265176Y100584D02*
X333756Y100584D01*
X265176Y100584D02*
X245364Y80772D01*
X245364Y76200D01*
X333756Y100584D02*
X334400Y100021D01*
X245500Y76200D02*
X245364Y76200D01*
X79248Y271272D02*
X79248Y342900D01*
X79248Y271272D02*
X67056Y259080D01*
X67056Y254508D01*
X67700Y254000D01*
X466344Y248412D02*
X533400Y248412D01*
X466344Y248412D02*
X448056Y266700D01*
X423672Y266700D01*
D14*
X280416Y-27432D03*
X406908Y28956D03*
X533400Y248412D03*
X499872Y376428D03*
D13*
X481584Y237744D02*
X274320Y237744D01*
X259080Y252984D01*
X254508Y252984D01*
X481584Y237744D02*
X482230Y238000D01*
X254508Y252984D02*
X254000Y254000D01*
X356616Y458724D02*
X385572Y458724D01*
X396240Y469392D01*
X413004Y469392D01*
X417576Y464820D01*
X417576Y373380D01*
X518160Y272796D01*
X531876Y272796D01*
X533400Y271272D01*
X356616Y458724D02*
X355230Y457970D01*
X533400Y271272D02*
X533770Y270000D01*
X128016Y458724D02*
X102108Y458724D01*
X128016Y458724D02*
X150876Y481584D01*
X161544Y481584D01*
X216408Y536448D01*
X321564Y536448D01*
X356616Y501396D01*
X385572Y501396D01*
X397764Y489204D01*
X405384Y489204D01*
X102108Y458724D02*
X101230Y457970D01*
X405384Y489204D02*
X406770Y489970D01*
X-25908Y246888D02*
X-25908Y239268D01*
X-25908Y246888D02*
X-6096Y266700D01*
X-6096Y371856D01*
X6096Y384048D01*
X18288Y384048D01*
X86868Y452628D01*
X86868Y464820D01*
X99060Y477012D01*
X129540Y477012D01*
X141732Y489204D01*
X152400Y489204D01*
X-25908Y239268D02*
X-25770Y238000D01*
X152400Y489204D02*
X152770Y489970D01*
X100584Y27432D02*
X100584Y18288D01*
X100584Y27432D02*
X45720Y82296D01*
X45720Y118872D01*
X59436Y132588D01*
X71628Y132588D01*
X74676Y135636D01*
X74676Y172212D01*
X13716Y233172D01*
X13716Y254508D01*
X24384Y265176D01*
X24384Y269748D01*
X100584Y18288D02*
X101230Y18030D01*
X25770Y270000D02*
X24384Y269748D01*
X152400Y48768D02*
X152400Y39624D01*
X138684Y25908D01*
X138684Y10668D01*
X146304Y3048D01*
X330708Y3048D01*
X344424Y16764D01*
X355092Y16764D01*
X152770Y50030D02*
X152400Y48768D01*
X355230Y18030D02*
X355092Y16764D01*
X406908Y50292D02*
X406908Y67056D01*
X449580Y109728D01*
X406908Y50292D02*
X406770Y50030D01*
X449580Y109728D02*
X448200Y111000D01*
X259080Y-15240D02*
X228600Y-15240D01*
X259080Y-15240D02*
X274320Y0D01*
X367284Y0D01*
X406908Y39624D01*
X417576Y39624D01*
X480060Y102108D01*
X480060Y120396D01*
X498348Y138684D01*
X498348Y141732D01*
X228600Y-15240D02*
X228230Y-16000D01*
X498348Y141732D02*
X499740Y143000D01*
X9144Y109728D02*
X9144Y99060D01*
X86868Y21336D01*
X86868Y15240D01*
X92964Y9144D01*
X99060Y9144D01*
X100584Y7620D01*
X112776Y7620D01*
X138684Y33528D01*
X138684Y57912D01*
X141732Y60960D01*
X163068Y60960D01*
X167640Y56388D01*
X167640Y42672D01*
X153924Y28956D01*
X146304Y28956D01*
X141732Y24384D01*
X141732Y12192D01*
X146304Y7620D01*
X196596Y7620D01*
X217932Y28956D01*
X257556Y28956D01*
X271272Y15240D01*
X278892Y15240D01*
X9144Y109728D02*
X8260Y111000D01*
X278892Y15240D02*
X279770Y16000D01*
X59436Y143256D02*
X59436Y182880D01*
X10668Y231648D01*
X10668Y362712D01*
X9144Y364236D01*
X59436Y143256D02*
X59800Y143000D01*
X9144Y364236D02*
X8260Y365000D01*
X60960Y397764D02*
X71628Y397764D01*
X152400Y478536D01*
X205740Y478536D01*
X219456Y492252D01*
X227076Y492252D01*
X60960Y397764D02*
X59800Y397000D01*
X227076Y492252D02*
X228230Y492000D01*
X448056Y373380D02*
X448056Y365760D01*
X448056Y373380D02*
X420624Y400812D01*
X420624Y466344D01*
X408432Y478536D01*
X335280Y478536D01*
X291084Y522732D01*
X280416Y522732D01*
X448056Y365760D02*
X448200Y365000D01*
X280416Y522732D02*
X279770Y524000D01*
M02*
