G04 EAGLE Gerber RS-274X export*
G75*
%MOMM*%
%FSLAX34Y34*%
%LPD*%
%INBottom Copper*%
%IPPOS*%
%AMOC8*
5,1,8,0,0,1.08239X$1,22.5*%
G01*
%ADD10C,1.879600*%
%ADD11C,0.756400*%

G36*
X286918Y-38538D02*
X286918Y-38538D01*
X286947Y-38532D01*
X287003Y-38528D01*
X319465Y-33013D01*
X319492Y-33003D01*
X319548Y-32994D01*
X351189Y-23878D01*
X351215Y-23866D01*
X351269Y-23850D01*
X381690Y-11249D01*
X381715Y-11234D01*
X381767Y-11212D01*
X410586Y4715D01*
X410608Y4733D01*
X410658Y4761D01*
X437512Y23815D01*
X437533Y23835D01*
X437579Y23868D01*
X462131Y45809D01*
X462149Y45831D01*
X462191Y45869D01*
X484132Y70421D01*
X484148Y70446D01*
X484185Y70488D01*
X503239Y97342D01*
X503252Y97368D01*
X503285Y97414D01*
X519212Y126233D01*
X519222Y126260D01*
X519249Y126310D01*
X531850Y156731D01*
X531857Y156759D01*
X531878Y156811D01*
X540994Y188452D01*
X540997Y188481D01*
X541013Y188535D01*
X546528Y220997D01*
X546528Y221026D01*
X546538Y221082D01*
X548384Y253957D01*
X548381Y253986D01*
X548384Y254043D01*
X546538Y286918D01*
X546532Y286947D01*
X546528Y287003D01*
X541013Y319465D01*
X541003Y319492D01*
X540994Y319548D01*
X531878Y351189D01*
X531866Y351215D01*
X531850Y351269D01*
X519249Y381690D01*
X519234Y381715D01*
X519212Y381767D01*
X503285Y410586D01*
X503267Y410608D01*
X503239Y410658D01*
X484185Y437512D01*
X484165Y437533D01*
X484132Y437579D01*
X462191Y462131D01*
X462169Y462149D01*
X462131Y462191D01*
X437579Y484132D01*
X437554Y484148D01*
X437512Y484185D01*
X410658Y503239D01*
X410632Y503252D01*
X410586Y503285D01*
X381767Y519212D01*
X381740Y519222D01*
X381690Y519249D01*
X351269Y531850D01*
X351241Y531857D01*
X351189Y531878D01*
X319548Y540994D01*
X319519Y540997D01*
X319465Y541013D01*
X287003Y546528D01*
X286974Y546528D01*
X286918Y546538D01*
X254043Y548384D01*
X254014Y548381D01*
X253957Y548384D01*
X221082Y546538D01*
X221053Y546532D01*
X220997Y546528D01*
X188535Y541013D01*
X188508Y541003D01*
X188452Y540994D01*
X156811Y531878D01*
X156785Y531866D01*
X156731Y531850D01*
X126310Y519249D01*
X126285Y519234D01*
X126233Y519212D01*
X97414Y503285D01*
X97392Y503267D01*
X97342Y503239D01*
X70488Y484185D01*
X70467Y484165D01*
X70421Y484132D01*
X45869Y462191D01*
X45851Y462169D01*
X45809Y462131D01*
X23868Y437579D01*
X23852Y437554D01*
X23815Y437512D01*
X4761Y410658D01*
X4748Y410632D01*
X4715Y410586D01*
X-11212Y381767D01*
X-11222Y381740D01*
X-11249Y381690D01*
X-23850Y351269D01*
X-23857Y351241D01*
X-23878Y351189D01*
X-32994Y319548D01*
X-32997Y319519D01*
X-33013Y319465D01*
X-38528Y287003D01*
X-38528Y286974D01*
X-38538Y286918D01*
X-40384Y254043D01*
X-40381Y254014D01*
X-40384Y253957D01*
X-38538Y221082D01*
X-38532Y221053D01*
X-38528Y220997D01*
X-33013Y188535D01*
X-33003Y188508D01*
X-32994Y188452D01*
X-23878Y156811D01*
X-23866Y156785D01*
X-23850Y156731D01*
X-11249Y126310D01*
X-11234Y126285D01*
X-11212Y126233D01*
X4715Y97414D01*
X4733Y97392D01*
X4761Y97342D01*
X23815Y70488D01*
X23835Y70467D01*
X23868Y70421D01*
X45809Y45869D01*
X45831Y45851D01*
X45869Y45809D01*
X70421Y23868D01*
X70446Y23852D01*
X70488Y23815D01*
X97342Y4761D01*
X97368Y4748D01*
X97414Y4715D01*
X126233Y-11212D01*
X126260Y-11222D01*
X126310Y-11249D01*
X156731Y-23850D01*
X156759Y-23857D01*
X156811Y-23878D01*
X188452Y-32994D01*
X188481Y-32997D01*
X188535Y-33013D01*
X220997Y-38528D01*
X221026Y-38528D01*
X221082Y-38538D01*
X253957Y-40384D01*
X253986Y-40381D01*
X254043Y-40384D01*
X286918Y-38538D01*
G37*
%LPC*%
G36*
X250489Y341629D02*
X250489Y341629D01*
X243705Y343447D01*
X237624Y346958D01*
X232658Y351924D01*
X229147Y358005D01*
X227329Y364789D01*
X227329Y371811D01*
X229147Y378595D01*
X232658Y384676D01*
X237624Y389642D01*
X243705Y393153D01*
X250489Y394971D01*
X257511Y394971D01*
X264295Y393153D01*
X270376Y389642D01*
X275342Y384676D01*
X278853Y378595D01*
X280671Y371811D01*
X280671Y364789D01*
X278853Y358005D01*
X275342Y351924D01*
X270376Y346958D01*
X264295Y343447D01*
X257511Y341629D01*
X250489Y341629D01*
G37*
%LPD*%
%LPC*%
G36*
X250489Y113029D02*
X250489Y113029D01*
X243705Y114847D01*
X237624Y118358D01*
X232658Y123324D01*
X229147Y129405D01*
X227329Y136189D01*
X227329Y143211D01*
X229147Y149995D01*
X232658Y156076D01*
X237624Y161042D01*
X243705Y164553D01*
X250489Y166371D01*
X257511Y166371D01*
X264295Y164553D01*
X270376Y161042D01*
X275342Y156076D01*
X278853Y149995D01*
X280671Y143211D01*
X280671Y136189D01*
X278853Y129405D01*
X275342Y123324D01*
X270376Y118358D01*
X264295Y114847D01*
X257511Y113029D01*
X250489Y113029D01*
G37*
%LPD*%
%LPC*%
G36*
X251827Y243077D02*
X251827Y243077D01*
X247813Y244740D01*
X244740Y247813D01*
X243077Y251827D01*
X243077Y256173D01*
X244740Y260187D01*
X247813Y263260D01*
X251827Y264923D01*
X256173Y264923D01*
X260187Y263260D01*
X263260Y260187D01*
X264923Y256173D01*
X264923Y251827D01*
X263260Y247813D01*
X260187Y244740D01*
X256173Y243077D01*
X251827Y243077D01*
G37*
%LPD*%
%LPC*%
G36*
X226427Y243077D02*
X226427Y243077D01*
X222413Y244740D01*
X219340Y247813D01*
X217677Y251827D01*
X217677Y256173D01*
X219340Y260187D01*
X222413Y263260D01*
X226427Y264923D01*
X230773Y264923D01*
X234787Y263260D01*
X237860Y260187D01*
X239523Y256173D01*
X239523Y251827D01*
X237860Y247813D01*
X234787Y244740D01*
X230773Y243077D01*
X226427Y243077D01*
G37*
%LPD*%
%LPC*%
G36*
X280923Y255523D02*
X280923Y255523D01*
X280923Y265846D01*
X282196Y265645D01*
X283983Y265064D01*
X285657Y264211D01*
X287178Y263106D01*
X288506Y261778D01*
X289611Y260257D01*
X290464Y258583D01*
X291045Y256796D01*
X291246Y255523D01*
X280923Y255523D01*
G37*
%LPD*%
%LPC*%
G36*
X267554Y255523D02*
X267554Y255523D01*
X267755Y256796D01*
X268336Y258583D01*
X269189Y260257D01*
X270294Y261778D01*
X271622Y263106D01*
X273143Y264211D01*
X274817Y265064D01*
X276604Y265645D01*
X277877Y265846D01*
X277877Y255523D01*
X267554Y255523D01*
G37*
%LPD*%
%LPC*%
G36*
X280923Y252477D02*
X280923Y252477D01*
X291246Y252477D01*
X291045Y251204D01*
X290464Y249417D01*
X289611Y247743D01*
X288506Y246222D01*
X287178Y244894D01*
X285657Y243789D01*
X283983Y242936D01*
X282196Y242355D01*
X280923Y242154D01*
X280923Y252477D01*
G37*
%LPD*%
%LPC*%
G36*
X276604Y242355D02*
X276604Y242355D01*
X274817Y242936D01*
X273143Y243789D01*
X271622Y244894D01*
X270294Y246222D01*
X269189Y247743D01*
X268336Y249417D01*
X267755Y251204D01*
X267554Y252477D01*
X277877Y252477D01*
X277877Y242154D01*
X276604Y242355D01*
G37*
%LPD*%
%LPC*%
G36*
X279399Y253999D02*
X279399Y253999D01*
X279399Y254001D01*
X279401Y254001D01*
X279401Y253999D01*
X279399Y253999D01*
G37*
%LPD*%
D10*
X228600Y254000D03*
X254000Y254000D03*
X279400Y254000D03*
D11*
X280416Y-27432D03*
X406908Y28956D03*
X533400Y248412D03*
X499872Y376428D03*
M02*
