G04 EAGLE Gerber RS-274X export*
G75*
%MOMM*%
%FSLAX34Y34*%
%LPD*%
%IN*%
%IPPOS*%
%AMOC8*
5,1,8,0,0,1.08239X$1,22.5*%
G01*
%ADD10C,0.254000*%


D10*
X559308Y250253D02*
X559308Y257747D01*
X559124Y265238D01*
X558756Y272723D01*
X558205Y280197D01*
X557471Y287654D01*
X556553Y295092D01*
X555454Y302504D01*
X554173Y309888D01*
X552711Y317238D01*
X551069Y324549D01*
X549248Y331818D01*
X547249Y339041D01*
X545074Y346212D01*
X542723Y353327D01*
X540199Y360383D01*
X537502Y367375D01*
X534634Y374298D01*
X531597Y381149D01*
X528393Y387923D01*
X525024Y394617D01*
X521491Y401226D01*
X517798Y407746D01*
X513945Y414174D01*
X509936Y420505D01*
X505773Y426735D01*
X501458Y432862D01*
X496994Y438881D01*
X492383Y444789D01*
X487629Y450582D01*
X482735Y456256D01*
X477702Y461809D01*
X472535Y467236D01*
X467236Y472535D01*
X461809Y477702D01*
X456256Y482735D01*
X450582Y487629D01*
X444789Y492383D01*
X438881Y496994D01*
X432862Y501458D01*
X426735Y505773D01*
X420505Y509936D01*
X414174Y513945D01*
X407746Y517798D01*
X401226Y521491D01*
X394617Y525024D01*
X387923Y528393D01*
X381149Y531597D01*
X374298Y534634D01*
X367375Y537502D01*
X360383Y540199D01*
X353327Y542723D01*
X346212Y545074D01*
X339041Y547249D01*
X331818Y549248D01*
X324549Y551069D01*
X317238Y552711D01*
X309888Y554173D01*
X302504Y555454D01*
X295092Y556553D01*
X287654Y557471D01*
X280197Y558205D01*
X272723Y558756D01*
X265238Y559124D01*
X257747Y559308D01*
X250253Y559308D01*
X242762Y559124D01*
X235277Y558756D01*
X227803Y558205D01*
X220346Y557471D01*
X212908Y556553D01*
X205496Y555454D01*
X198112Y554173D01*
X190762Y552711D01*
X183451Y551069D01*
X176182Y549248D01*
X168959Y547249D01*
X161788Y545074D01*
X154673Y542723D01*
X147617Y540199D01*
X140625Y537502D01*
X133702Y534634D01*
X126851Y531597D01*
X120077Y528393D01*
X113383Y525024D01*
X106774Y521491D01*
X100254Y517798D01*
X93827Y513945D01*
X87495Y509936D01*
X81265Y505773D01*
X75138Y501458D01*
X69119Y496994D01*
X63211Y492383D01*
X57418Y487629D01*
X51744Y482735D01*
X46191Y477702D01*
X40764Y472535D01*
X35465Y467236D01*
X30298Y461809D01*
X25265Y456256D01*
X20371Y450582D01*
X15617Y444789D01*
X11006Y438881D01*
X6542Y432862D01*
X2227Y426735D01*
X-1936Y420505D01*
X-5945Y414174D01*
X-9798Y407746D01*
X-13491Y401226D01*
X-17024Y394617D01*
X-20393Y387923D01*
X-23597Y381149D01*
X-26634Y374298D01*
X-29502Y367375D01*
X-32199Y360383D01*
X-34723Y353327D01*
X-37074Y346212D01*
X-39249Y339041D01*
X-41248Y331818D01*
X-43069Y324549D01*
X-44711Y317238D01*
X-46173Y309888D01*
X-47454Y302504D01*
X-48553Y295092D01*
X-49471Y287654D01*
X-50205Y280197D01*
X-50756Y272723D01*
X-51124Y265238D01*
X-51308Y257747D01*
X-51308Y250253D01*
X-51124Y242762D01*
X-50756Y235277D01*
X-50205Y227803D01*
X-49471Y220346D01*
X-48553Y212908D01*
X-47454Y205496D01*
X-46173Y198112D01*
X-44711Y190762D01*
X-43069Y183451D01*
X-41248Y176182D01*
X-39249Y168959D01*
X-37074Y161788D01*
X-34723Y154673D01*
X-32199Y147617D01*
X-29502Y140625D01*
X-26634Y133702D01*
X-23597Y126851D01*
X-20393Y120077D01*
X-17024Y113383D01*
X-13491Y106774D01*
X-9798Y100254D01*
X-5945Y93827D01*
X-1936Y87495D01*
X2227Y81265D01*
X6542Y75138D01*
X11006Y69119D01*
X15617Y63211D01*
X20371Y57418D01*
X25265Y51744D01*
X30298Y46191D01*
X35465Y40764D01*
X40764Y35465D01*
X46191Y30298D01*
X51744Y25265D01*
X57418Y20371D01*
X63211Y15617D01*
X69119Y11006D01*
X75138Y6542D01*
X81265Y2227D01*
X87495Y-1936D01*
X93827Y-5945D01*
X100254Y-9798D01*
X106774Y-13491D01*
X113383Y-17024D01*
X120077Y-20393D01*
X126851Y-23597D01*
X133702Y-26634D01*
X140625Y-29502D01*
X147617Y-32199D01*
X154673Y-34723D01*
X161788Y-37074D01*
X168959Y-39249D01*
X176182Y-41248D01*
X183451Y-43069D01*
X190762Y-44711D01*
X198112Y-46173D01*
X205496Y-47454D01*
X212908Y-48553D01*
X220346Y-49471D01*
X227803Y-50205D01*
X235277Y-50756D01*
X242762Y-51124D01*
X250253Y-51308D01*
X257747Y-51308D01*
X265238Y-51124D01*
X272723Y-50756D01*
X280197Y-50205D01*
X287654Y-49471D01*
X295092Y-48553D01*
X302504Y-47454D01*
X309888Y-46173D01*
X317238Y-44711D01*
X324549Y-43069D01*
X331818Y-41248D01*
X339041Y-39249D01*
X346212Y-37074D01*
X353327Y-34723D01*
X360383Y-32199D01*
X367375Y-29502D01*
X374298Y-26634D01*
X381149Y-23597D01*
X387923Y-20393D01*
X394617Y-17024D01*
X401226Y-13491D01*
X407746Y-9798D01*
X414174Y-5945D01*
X420505Y-1936D01*
X426735Y2227D01*
X432862Y6542D01*
X438881Y11006D01*
X444789Y15617D01*
X450582Y20371D01*
X456256Y25265D01*
X461809Y30298D01*
X467236Y35465D01*
X472535Y40764D01*
X477702Y46191D01*
X482735Y51744D01*
X487629Y57418D01*
X492383Y63211D01*
X496994Y69119D01*
X501458Y75138D01*
X505773Y81265D01*
X509936Y87495D01*
X513945Y93827D01*
X517798Y100254D01*
X521491Y106774D01*
X525024Y113383D01*
X528393Y120077D01*
X531597Y126851D01*
X534634Y133702D01*
X537502Y140625D01*
X540199Y147617D01*
X542723Y154673D01*
X545074Y161788D01*
X547249Y168959D01*
X549248Y176182D01*
X551069Y183451D01*
X552711Y190762D01*
X554173Y198112D01*
X555454Y205496D01*
X556553Y212908D01*
X557471Y220346D01*
X558205Y227803D01*
X558756Y235277D01*
X559124Y242762D01*
X559308Y250253D01*
X270510Y139160D02*
X270439Y138081D01*
X270298Y137009D01*
X270087Y135949D01*
X269808Y134905D01*
X269460Y133881D01*
X269046Y132883D01*
X268568Y131913D01*
X268028Y130977D01*
X267427Y130078D01*
X266769Y129221D01*
X266057Y128408D01*
X265292Y127644D01*
X264479Y126931D01*
X263622Y126273D01*
X262723Y125672D01*
X261787Y125132D01*
X260817Y124654D01*
X259819Y124240D01*
X258795Y123892D01*
X257751Y123613D01*
X256691Y123402D01*
X255619Y123261D01*
X254540Y123190D01*
X253460Y123190D01*
X252381Y123261D01*
X251309Y123402D01*
X250249Y123613D01*
X249205Y123892D01*
X248181Y124240D01*
X247183Y124654D01*
X246213Y125132D01*
X245277Y125672D01*
X244378Y126273D01*
X243521Y126931D01*
X242708Y127644D01*
X241944Y128408D01*
X241231Y129221D01*
X240573Y130078D01*
X239972Y130977D01*
X239432Y131913D01*
X238954Y132883D01*
X238540Y133881D01*
X238192Y134905D01*
X237913Y135949D01*
X237702Y137009D01*
X237561Y138081D01*
X237490Y139160D01*
X237490Y140240D01*
X237561Y141319D01*
X237702Y142391D01*
X237913Y143451D01*
X238192Y144495D01*
X238540Y145519D01*
X238954Y146517D01*
X239432Y147487D01*
X239972Y148423D01*
X240573Y149322D01*
X241231Y150179D01*
X241944Y150992D01*
X242708Y151757D01*
X243521Y152469D01*
X244378Y153127D01*
X245277Y153728D01*
X246213Y154268D01*
X247183Y154746D01*
X248181Y155160D01*
X249205Y155508D01*
X250249Y155787D01*
X251309Y155998D01*
X252381Y156139D01*
X253460Y156210D01*
X254540Y156210D01*
X255619Y156139D01*
X256691Y155998D01*
X257751Y155787D01*
X258795Y155508D01*
X259819Y155160D01*
X260817Y154746D01*
X261787Y154268D01*
X262723Y153728D01*
X263622Y153127D01*
X264479Y152469D01*
X265292Y151757D01*
X266057Y150992D01*
X266769Y150179D01*
X267427Y149322D01*
X268028Y148423D01*
X268568Y147487D01*
X269046Y146517D01*
X269460Y145519D01*
X269808Y144495D01*
X270087Y143451D01*
X270298Y142391D01*
X270439Y141319D01*
X270510Y140240D01*
X270510Y139160D01*
X270510Y367760D02*
X270439Y366681D01*
X270298Y365609D01*
X270087Y364549D01*
X269808Y363505D01*
X269460Y362481D01*
X269046Y361483D01*
X268568Y360513D01*
X268028Y359577D01*
X267427Y358678D01*
X266769Y357821D01*
X266057Y357008D01*
X265292Y356244D01*
X264479Y355531D01*
X263622Y354873D01*
X262723Y354272D01*
X261787Y353732D01*
X260817Y353254D01*
X259819Y352840D01*
X258795Y352492D01*
X257751Y352213D01*
X256691Y352002D01*
X255619Y351861D01*
X254540Y351790D01*
X253460Y351790D01*
X252381Y351861D01*
X251309Y352002D01*
X250249Y352213D01*
X249205Y352492D01*
X248181Y352840D01*
X247183Y353254D01*
X246213Y353732D01*
X245277Y354272D01*
X244378Y354873D01*
X243521Y355531D01*
X242708Y356244D01*
X241944Y357008D01*
X241231Y357821D01*
X240573Y358678D01*
X239972Y359577D01*
X239432Y360513D01*
X238954Y361483D01*
X238540Y362481D01*
X238192Y363505D01*
X237913Y364549D01*
X237702Y365609D01*
X237561Y366681D01*
X237490Y367760D01*
X237490Y368840D01*
X237561Y369919D01*
X237702Y370991D01*
X237913Y372051D01*
X238192Y373095D01*
X238540Y374119D01*
X238954Y375117D01*
X239432Y376087D01*
X239972Y377023D01*
X240573Y377922D01*
X241231Y378779D01*
X241944Y379592D01*
X242708Y380357D01*
X243521Y381069D01*
X244378Y381727D01*
X245277Y382328D01*
X246213Y382868D01*
X247183Y383346D01*
X248181Y383760D01*
X249205Y384108D01*
X250249Y384387D01*
X251309Y384598D01*
X252381Y384739D01*
X253460Y384810D01*
X254540Y384810D01*
X255619Y384739D01*
X256691Y384598D01*
X257751Y384387D01*
X258795Y384108D01*
X259819Y383760D01*
X260817Y383346D01*
X261787Y382868D01*
X262723Y382328D01*
X263622Y381727D01*
X264479Y381069D01*
X265292Y380357D01*
X266057Y379592D01*
X266769Y378779D01*
X267427Y377922D01*
X268028Y377023D01*
X268568Y376087D01*
X269046Y375117D01*
X269460Y374119D01*
X269808Y373095D01*
X270087Y372051D01*
X270298Y370991D01*
X270439Y369919D01*
X270510Y368840D01*
X270510Y367760D01*
M02*
