G04 EAGLE Gerber RS-274X export*
G75*
%MOMM*%
%FSLAX34Y34*%
%LPD*%
%INSolderpaste Top*%
%IPPOS*%
%AMOC8*
5,1,8,0,0,1.08239X$1,22.5*%
G01*
%ADD10R,1.100000X1.000000*%
%ADD11R,1.651000X1.000000*%


D10*
X423300Y254000D03*
X440300Y254000D03*
X245500Y76200D03*
X262500Y76200D03*
X334400Y100021D03*
X351400Y100021D03*
X399479Y165100D03*
X416479Y165100D03*
X399479Y342900D03*
X416479Y342900D03*
X334400Y407979D03*
X351400Y407979D03*
X245500Y431800D03*
X262500Y431800D03*
X156600Y407979D03*
X173600Y407979D03*
X91521Y342900D03*
X108521Y342900D03*
X67700Y254000D03*
X84700Y254000D03*
X91521Y165100D03*
X108521Y165100D03*
X156600Y100021D03*
X173600Y100021D03*
D11*
X533770Y238000D03*
X482230Y238000D03*
X482230Y270000D03*
X533770Y270000D03*
X279770Y-16000D03*
X228230Y-16000D03*
X228230Y16000D03*
X279770Y16000D03*
X406770Y18030D03*
X355230Y18030D03*
X355230Y50030D03*
X406770Y50030D03*
X499740Y111000D03*
X448200Y111000D03*
X448200Y143000D03*
X499740Y143000D03*
X499740Y365000D03*
X448200Y365000D03*
X448200Y397000D03*
X499740Y397000D03*
X406770Y457970D03*
X355230Y457970D03*
X355230Y489970D03*
X406770Y489970D03*
X279770Y492000D03*
X228230Y492000D03*
X228230Y524000D03*
X279770Y524000D03*
X152770Y457970D03*
X101230Y457970D03*
X101230Y489970D03*
X152770Y489970D03*
X59800Y365000D03*
X8260Y365000D03*
X8260Y397000D03*
X59800Y397000D03*
X25770Y238000D03*
X-25770Y238000D03*
X-25770Y270000D03*
X25770Y270000D03*
X59800Y111000D03*
X8260Y111000D03*
X8260Y143000D03*
X59800Y143000D03*
X152770Y18030D03*
X101230Y18030D03*
X101230Y50030D03*
X152770Y50030D03*
M02*
