M48
;GenerationSoftware,Autodesk,EAGLE,9.5.1*%
;CreationDate,2019-11-03T00:24:24Z*%
FMAT,2
ICI,OFF
METRIC,TZ,000.000
T6C0.350
T5C0.381
T4C0.600
T3C0.850
T2C1.016
T1C3.302
%
G90
M71
T1
X19050Y76200
X63500Y76200
X19050Y40640
X63500Y40640
T2
X24384Y64897
X43180Y77470
X30480Y77470
X33020Y77470
X35560Y77470
X38100Y77470
X40640Y77470
X45720Y39370
X43180Y39370
X40640Y39370
X38100Y39370
X35560Y39370
X33020Y39370
X30480Y39370
X27940Y39370
X24384Y62357
T3
X59880Y57190
X59880Y62190
T4
X62580Y56190
X62580Y63190
T5
X26670Y64770
X26670Y67310
X29210Y67310
X44450Y67310
X46990Y67310
X46990Y64770
X46990Y62230
X44450Y49530
X41910Y49530
X31750Y49530
X31750Y67310
X41910Y67310
X50800Y76200
X53340Y73660
X55880Y73660
X55880Y69850
X33020Y54610
X35560Y54610
X38100Y54610
X40640Y54610
X33020Y69850
X29210Y69850
X26670Y69850
X41910Y69850
X44450Y69850
X41910Y72390
X45720Y52070
X48260Y52070
X48260Y54610
X46228Y54610
X53340Y55880
X49530Y62230
X40640Y59690
X29210Y72390
X26670Y72390
X31750Y69850
X31750Y72390
X31750Y46990
X29210Y46990
X26670Y46990
X24130Y53340
X41910Y46990
X22352Y64770
X22352Y62230
X24384Y66548
X23876Y72644
X23876Y71120
X38608Y45974
X36322Y45974
X24384Y61214
X52324Y63754
X46570Y44450
X20752Y55677
X48336Y48209
X20244Y57506
X42760Y44450
X29489Y41681
X36830Y74930
X23012Y58064
X17780Y58420
X34290Y73660
X34265Y42139
X53594Y61849
X54864Y53594
X55880Y57150
X52070Y44272
X33020Y62230
X35560Y62230
X38100Y62230
X40640Y62230
X33020Y57150
X35560Y57150
X38100Y57150
X33020Y72390
X40640Y57150
X33020Y59690
X35560Y59690
X38100Y59690
X26670Y55880
X26670Y53340
X26670Y50800
X29210Y49530
X30480Y52070
X43180Y52070
X43180Y64770
X30480Y64770
X26670Y62230
X24765Y68580
T6
X57912Y60579
M30