G04 EAGLE Gerber RS-274X export*
G75*
%MOMM*%
%FSLAX34Y34*%
%LPD*%
%INSilkscreen Bottom*%
%IPPOS*%
%AMOC8*
5,1,8,0,0,1.08239X$1,22.5*%
G01*
%ADD10C,0.177800*%
%ADD11R,0.040000X3.520000*%
%ADD12R,0.040000X3.640000*%
%ADD13R,0.040000X3.720000*%
%ADD14R,0.040000X3.800000*%
%ADD15R,0.040000X3.840000*%
%ADD16R,0.040000X3.880000*%
%ADD17R,0.040000X3.920000*%
%ADD18R,0.040000X0.720000*%
%ADD19R,0.040000X3.040000*%
%ADD20R,0.040000X0.640000*%
%ADD21R,0.040000X0.280000*%
%ADD22R,0.040000X0.800000*%
%ADD23R,0.040000X1.160000*%
%ADD24R,0.040000X0.560000*%
%ADD25R,0.040000X0.200000*%
%ADD26R,0.040000X0.680000*%
%ADD27R,0.040000X1.120000*%
%ADD28R,0.040000X0.520000*%
%ADD29R,0.040000X0.160000*%
%ADD30R,0.040000X0.480000*%
%ADD31R,0.040000X0.440000*%
%ADD32R,0.040000X0.400000*%
%ADD33R,0.040000X0.240000*%
%ADD34R,0.040000X0.600000*%
%ADD35R,0.040000X0.320000*%
%ADD36R,0.040000X0.360000*%
%ADD37R,0.040000X1.080000*%
%ADD38R,0.040000X0.080000*%
%ADD39R,0.040000X1.040000*%
%ADD40R,0.040000X0.120000*%
%ADD41R,0.040000X1.000000*%
%ADD42R,0.040000X0.840000*%
%ADD43R,0.040000X0.960000*%
%ADD44R,0.040000X0.880000*%
%ADD45R,0.040000X0.760000*%
%ADD46R,0.040000X3.280000*%
%ADD47R,0.040000X3.400000*%
%ADD48R,0.040000X3.480000*%
%ADD49R,0.040000X3.560000*%
%ADD50R,0.040000X3.600000*%
%ADD51R,0.040000X3.680000*%
%ADD52R,0.040000X1.800000*%
%ADD53R,0.040000X1.240000*%
%ADD54R,0.040000X1.280000*%
%ADD55R,0.040000X1.320000*%
%ADD56R,0.040000X0.920000*%
%ADD57R,0.040000X0.040000*%
%ADD58R,0.040000X2.800000*%
%ADD59R,0.040000X3.240000*%
%ADD60R,0.040000X2.480000*%
%ADD61R,0.040000X2.520000*%
%ADD62R,0.040000X2.600000*%
%ADD63R,0.040000X2.640000*%
%ADD64R,0.040000X2.680000*%
%ADD65R,0.040000X2.720000*%
%ADD66R,0.040000X2.760000*%
%ADD67R,0.040000X1.440000*%
%ADD68R,0.040000X3.320000*%
%ADD69R,0.040000X3.200000*%
%ADD70R,0.040000X3.160000*%
%ADD71R,0.040000X3.120000*%
%ADD72R,0.040000X3.080000*%
%ADD73R,0.040000X1.680000*%
%ADD74R,0.040000X2.840000*%
%ADD75R,0.040000X2.920000*%
%ADD76R,0.040000X2.960000*%
%ADD77R,0.040000X3.360000*%
%ADD78R,0.040000X3.000000*%
%ADD79R,0.040000X3.760000*%
%ADD80R,0.040000X4.040000*%
%ADD81R,0.040000X4.080000*%
%ADD82R,0.040000X4.120000*%
%ADD83R,0.040000X4.160000*%
%ADD84R,0.030000X0.330000*%
%ADD85R,0.030000X0.030000*%
%ADD86R,0.030000X0.060000*%
%ADD87R,0.030000X0.090000*%
%ADD88R,0.040000X0.180000*%
%ADD89R,0.040000X0.150000*%
%ADD90R,0.030000X0.540000*%
%ADD91R,0.030000X0.210000*%
%ADD92R,0.030000X0.180000*%
%ADD93R,0.030000X0.570000*%
%ADD94R,0.030000X0.240000*%
%ADD95R,0.030000X0.600000*%
%ADD96R,0.030000X0.270000*%
%ADD97R,0.040000X0.210000*%
%ADD98R,0.040000X0.270000*%
%ADD99R,0.030000X0.450000*%
%ADD100R,0.030000X0.300000*%
%ADD101R,0.030000X0.420000*%
%ADD102R,0.030000X0.390000*%
%ADD103R,0.040000X0.330000*%
%ADD104R,0.030000X0.360000*%
%ADD105R,0.040000X0.450000*%
%ADD106R,0.030000X0.630000*%
%ADD107R,0.040000X0.630000*%
%ADD108R,0.040000X0.510000*%
%ADD109R,0.040000X0.540000*%
%ADD110R,0.040000X0.570000*%
%ADD111R,0.030000X0.150000*%
%ADD112R,0.030000X0.120000*%
%ADD113R,0.040000X0.390000*%
%ADD114R,0.030000X0.510000*%
%ADD115R,0.040000X0.660000*%
%ADD116R,0.040000X0.300000*%
%ADD117R,0.040000X0.420000*%


D10*
X444500Y762000D02*
X444500Y787400D01*
X292100Y787400D02*
X292100Y762000D01*
X444500Y762000D01*
D11*
X439800Y419910D03*
D12*
X439400Y420510D03*
D13*
X439000Y420910D03*
D14*
X438600Y421310D03*
D15*
X438200Y421510D03*
D16*
X437800Y421710D03*
D17*
X437400Y421910D03*
D18*
X437000Y405910D03*
D19*
X437000Y426710D03*
D20*
X436600Y405510D03*
D21*
X436600Y414110D03*
D22*
X436600Y425110D03*
D23*
X436600Y436510D03*
D24*
X436200Y405110D03*
D25*
X436200Y414510D03*
D26*
X436200Y425310D03*
D27*
X436200Y436710D03*
D28*
X435800Y404910D03*
D29*
X435800Y414710D03*
D24*
X435800Y425510D03*
D23*
X435800Y436910D03*
D28*
X435400Y404910D03*
D29*
X435400Y414710D03*
D28*
X435400Y425710D03*
D27*
X435400Y437110D03*
D30*
X435000Y404710D03*
D29*
X435000Y414710D03*
D31*
X435000Y425710D03*
D23*
X435000Y437310D03*
D30*
X434600Y404710D03*
D29*
X434600Y410710D03*
D25*
X434600Y414510D03*
D32*
X434600Y425910D03*
D27*
X434600Y437510D03*
D30*
X434200Y404710D03*
D33*
X434200Y410710D03*
X434200Y414310D03*
X434200Y419110D03*
D32*
X434200Y425910D03*
D27*
X434200Y437510D03*
D30*
X433800Y404710D03*
D34*
X433800Y412510D03*
D35*
X433800Y419510D03*
X433800Y425910D03*
D23*
X433800Y437710D03*
D30*
X433400Y404710D03*
D24*
X433400Y412710D03*
D36*
X433400Y419710D03*
D35*
X433400Y425910D03*
D27*
X433400Y437910D03*
D30*
X433000Y404710D03*
X433000Y413110D03*
D32*
X433000Y419910D03*
D33*
X433000Y425910D03*
D27*
X433000Y437910D03*
D28*
X432600Y404910D03*
D35*
X432600Y413910D03*
D32*
X432600Y419910D03*
D33*
X432600Y425910D03*
D37*
X432600Y438110D03*
D28*
X432200Y404910D03*
D25*
X432200Y414510D03*
D31*
X432200Y420110D03*
D25*
X432200Y425710D03*
D38*
X432200Y429910D03*
D37*
X432200Y438110D03*
D24*
X431800Y405110D03*
D29*
X431800Y414710D03*
D31*
X431800Y420110D03*
D25*
X431800Y425710D03*
D38*
X431800Y429910D03*
D39*
X431800Y438310D03*
D34*
X431400Y405310D03*
D40*
X431400Y414910D03*
D31*
X431400Y420110D03*
D29*
X431400Y425510D03*
D40*
X431400Y429710D03*
D39*
X431400Y438310D03*
D18*
X431000Y405910D03*
D40*
X431000Y414910D03*
D32*
X431000Y419910D03*
D29*
X431000Y425510D03*
X431000Y429910D03*
D41*
X431000Y438510D03*
D42*
X430600Y406510D03*
D40*
X430600Y414910D03*
D32*
X430600Y419910D03*
D40*
X430600Y425310D03*
D41*
X430600Y438510D03*
D43*
X430200Y407110D03*
D40*
X430200Y414910D03*
D32*
X430200Y419910D03*
D29*
X430200Y425110D03*
D43*
X430200Y438710D03*
D28*
X429800Y404910D03*
D35*
X429800Y410310D03*
D38*
X429800Y415110D03*
D36*
X429800Y419710D03*
D40*
X429800Y424910D03*
D43*
X429800Y438710D03*
D30*
X429400Y404710D03*
D21*
X429400Y410510D03*
D40*
X429400Y414910D03*
D35*
X429400Y419510D03*
D40*
X429400Y424910D03*
D44*
X429400Y438710D03*
D30*
X429000Y404710D03*
D33*
X429000Y410710D03*
D40*
X429000Y414910D03*
D29*
X429000Y419110D03*
D40*
X429000Y424510D03*
D44*
X429000Y438710D03*
D30*
X428600Y404710D03*
D40*
X428600Y414910D03*
D29*
X428600Y424310D03*
D32*
X428600Y429910D03*
D42*
X428600Y438910D03*
D30*
X428200Y404710D03*
D40*
X428200Y414910D03*
D29*
X428200Y423910D03*
D31*
X428200Y429710D03*
D22*
X428200Y438710D03*
D28*
X427800Y404910D03*
D29*
X427800Y414710D03*
X427800Y423910D03*
D30*
X427800Y429910D03*
D45*
X427800Y438910D03*
D28*
X427400Y404910D03*
D25*
X427400Y414510D03*
D33*
X427400Y423510D03*
D28*
X427400Y429710D03*
D18*
X427400Y438710D03*
D34*
X427000Y405310D03*
D33*
X427000Y414310D03*
D21*
X427000Y423310D03*
D24*
X427000Y429910D03*
D18*
X427000Y438710D03*
D26*
X426600Y405710D03*
D36*
X426600Y414110D03*
D31*
X426600Y422910D03*
D34*
X426600Y429710D03*
D45*
X426600Y438110D03*
D17*
X426200Y421910D03*
D16*
X425800Y421710D03*
D15*
X425400Y421510D03*
D14*
X425000Y421310D03*
D13*
X424600Y420910D03*
D12*
X424200Y420510D03*
D11*
X423800Y419910D03*
D46*
X465200Y418710D03*
D47*
X464800Y419310D03*
D48*
X464400Y419710D03*
D49*
X464000Y420110D03*
D50*
X463600Y420310D03*
D12*
X463200Y420510D03*
D51*
X462800Y420710D03*
D18*
X462400Y405910D03*
D42*
X462400Y415710D03*
D52*
X462400Y430510D03*
D34*
X462000Y405310D03*
X462000Y415710D03*
D21*
X462000Y424110D03*
D53*
X462000Y433710D03*
D24*
X461600Y405110D03*
D31*
X461600Y415710D03*
D29*
X461600Y424310D03*
D53*
X461600Y433710D03*
D28*
X461200Y404910D03*
D35*
X461200Y415510D03*
D40*
X461200Y424510D03*
D53*
X461200Y434110D03*
D28*
X460800Y404910D03*
D21*
X460800Y415310D03*
D38*
X460800Y424710D03*
D53*
X460800Y434110D03*
D30*
X460400Y404710D03*
D21*
X460400Y414910D03*
D38*
X460400Y424710D03*
D54*
X460400Y434310D03*
D30*
X460000Y404710D03*
D29*
X460000Y410710D03*
D33*
X460000Y414710D03*
D40*
X460000Y424510D03*
D54*
X460000Y434310D03*
D30*
X459600Y404710D03*
D33*
X459600Y410710D03*
D21*
X459600Y414510D03*
X459600Y420510D03*
D29*
X459600Y424310D03*
D54*
X459600Y434310D03*
D30*
X459200Y404710D03*
D34*
X459200Y412510D03*
D32*
X459200Y420710D03*
D25*
X459200Y424110D03*
D55*
X459200Y434510D03*
D30*
X458800Y404710D03*
D24*
X458800Y412710D03*
D26*
X458800Y421710D03*
D55*
X458800Y434510D03*
D30*
X458400Y404710D03*
X458400Y413110D03*
D18*
X458400Y421510D03*
D55*
X458400Y434510D03*
D30*
X458000Y404710D03*
D21*
X458000Y413710D03*
D18*
X458000Y421510D03*
D55*
X458000Y434510D03*
D28*
X457600Y404910D03*
D25*
X457600Y414110D03*
D18*
X457600Y421510D03*
D55*
X457600Y434510D03*
D24*
X457200Y405110D03*
D40*
X457200Y414510D03*
D18*
X457200Y421510D03*
D55*
X457200Y434510D03*
D34*
X456800Y405310D03*
D40*
X456800Y414510D03*
D18*
X456800Y421510D03*
D55*
X456800Y434510D03*
D26*
X456400Y405710D03*
D38*
X456400Y414710D03*
D18*
X456400Y421510D03*
D55*
X456400Y434510D03*
D42*
X456000Y406510D03*
D40*
X456000Y414910D03*
D18*
X456000Y421510D03*
D55*
X456000Y434510D03*
D56*
X455600Y406910D03*
D40*
X455600Y414910D03*
D18*
X455600Y421510D03*
D55*
X455600Y434510D03*
D28*
X455200Y404910D03*
D35*
X455200Y410310D03*
D40*
X455200Y414910D03*
D26*
X455200Y421710D03*
D55*
X455200Y434510D03*
D30*
X454800Y404710D03*
D21*
X454800Y410510D03*
D29*
X454800Y415110D03*
D36*
X454800Y420510D03*
D29*
X454800Y424310D03*
D54*
X454800Y434310D03*
D30*
X454400Y404710D03*
D33*
X454400Y410710D03*
D29*
X454400Y415110D03*
D25*
X454400Y420510D03*
D40*
X454400Y424510D03*
D54*
X454400Y434310D03*
D31*
X454000Y404510D03*
D25*
X454000Y415310D03*
D40*
X454000Y424510D03*
D54*
X454000Y434310D03*
D30*
X453600Y404710D03*
D25*
X453600Y415310D03*
D38*
X453600Y424710D03*
D45*
X453600Y436510D03*
D30*
X453200Y404710D03*
D21*
X453200Y415310D03*
D38*
X453200Y424710D03*
D45*
X453200Y436510D03*
D28*
X452800Y404910D03*
D32*
X452800Y415510D03*
D40*
X452800Y424510D03*
D18*
X452800Y436310D03*
D34*
X452400Y405310D03*
D30*
X452400Y415510D03*
D33*
X452400Y424310D03*
D18*
X452400Y436310D03*
D20*
X452000Y405510D03*
X452000Y415510D03*
D35*
X452000Y423910D03*
D18*
X452000Y435910D03*
D51*
X451600Y420710D03*
D12*
X451200Y420510D03*
D50*
X450800Y420310D03*
D49*
X450400Y420110D03*
D48*
X450000Y419710D03*
D47*
X449600Y419310D03*
D46*
X449200Y418710D03*
D12*
X414400Y420910D03*
X414000Y420910D03*
X413600Y420910D03*
X413200Y420910D03*
X412800Y420910D03*
X412400Y420910D03*
X412000Y420910D03*
D18*
X411600Y406310D03*
D52*
X411600Y420910D03*
D18*
X411600Y435510D03*
D34*
X411200Y405710D03*
D21*
X411200Y414510D03*
D34*
X411200Y420910D03*
D21*
X411200Y427310D03*
D34*
X411200Y436110D03*
D24*
X410800Y405510D03*
D25*
X410800Y414510D03*
D34*
X410800Y420910D03*
D25*
X410800Y427310D03*
D24*
X410800Y436310D03*
D28*
X410400Y405310D03*
D29*
X410400Y414710D03*
D28*
X410400Y420910D03*
D29*
X410400Y427110D03*
D28*
X410400Y436510D03*
D30*
X410000Y405110D03*
D40*
X410000Y414910D03*
D28*
X410000Y420910D03*
D40*
X410000Y426910D03*
D30*
X410000Y436710D03*
X409600Y405110D03*
D29*
X409600Y415110D03*
D30*
X409600Y421110D03*
D29*
X409600Y426710D03*
D30*
X409600Y436710D03*
X409200Y405110D03*
D38*
X409200Y411110D03*
D40*
X409200Y415310D03*
D31*
X409200Y420910D03*
D29*
X409200Y426710D03*
D38*
X409200Y431110D03*
D31*
X409200Y436910D03*
D30*
X408800Y405110D03*
D25*
X408800Y410910D03*
D29*
X408800Y415510D03*
D32*
X408800Y421110D03*
D25*
X408800Y426510D03*
X408800Y430910D03*
D31*
X408800Y436910D03*
D30*
X408400Y405110D03*
D21*
X408400Y410910D03*
D29*
X408400Y415510D03*
D36*
X408400Y420910D03*
D25*
X408400Y426510D03*
D21*
X408400Y430910D03*
D31*
X408400Y436910D03*
D24*
X408000Y405510D03*
D21*
X408000Y410510D03*
D25*
X408000Y415710D03*
D35*
X408000Y421110D03*
X408000Y426710D03*
D21*
X408000Y430510D03*
D31*
X408000Y436910D03*
D18*
X407600Y406310D03*
D33*
X407600Y415510D03*
D21*
X407600Y420910D03*
D30*
X407600Y427510D03*
X407600Y436710D03*
D18*
X407200Y406310D03*
D21*
X407200Y415710D03*
X407200Y420910D03*
D28*
X407200Y427310D03*
D30*
X407200Y436710D03*
D18*
X406800Y406310D03*
D35*
X406800Y415510D03*
D25*
X406800Y420910D03*
D28*
X406800Y427310D03*
X406800Y436510D03*
D18*
X406400Y406310D03*
D32*
X406400Y415510D03*
D25*
X406400Y420910D03*
D24*
X406400Y427110D03*
X406400Y436310D03*
D18*
X406000Y406310D03*
D35*
X406000Y415910D03*
D40*
X406000Y420910D03*
D24*
X406000Y427110D03*
D30*
X406000Y436710D03*
D18*
X405600Y406310D03*
D36*
X405600Y416110D03*
D40*
X405600Y420910D03*
D34*
X405600Y426910D03*
D30*
X405600Y436710D03*
D44*
X405200Y407110D03*
D35*
X405200Y416310D03*
D57*
X405200Y420910D03*
D45*
X405200Y427710D03*
D31*
X405200Y436910D03*
D30*
X404800Y405110D03*
D35*
X404800Y410710D03*
D36*
X404800Y416510D03*
D57*
X404800Y420910D03*
D32*
X404800Y425510D03*
D35*
X404800Y430710D03*
D31*
X404800Y436910D03*
X404400Y404910D03*
D21*
X404400Y410910D03*
D36*
X404400Y416510D03*
X404400Y425310D03*
D21*
X404400Y430910D03*
D31*
X404400Y436910D03*
X404000Y404910D03*
D21*
X404000Y410910D03*
D32*
X404000Y416710D03*
X404000Y425110D03*
D21*
X404000Y430910D03*
D31*
X404000Y436910D03*
X403600Y404910D03*
D25*
X403600Y410910D03*
D32*
X403600Y416710D03*
X403600Y425110D03*
D25*
X403600Y430910D03*
D31*
X403600Y436910D03*
X403200Y404910D03*
X403200Y416910D03*
X403200Y424910D03*
X403200Y436910D03*
X402800Y404910D03*
X402800Y416910D03*
X402800Y424910D03*
X402800Y436910D03*
D30*
X402400Y405110D03*
D28*
X402400Y416910D03*
X402400Y424910D03*
D30*
X402400Y436710D03*
D28*
X402000Y405310D03*
D24*
X402000Y416710D03*
X402000Y425110D03*
D28*
X402000Y436510D03*
D24*
X401600Y405510D03*
D20*
X401600Y416710D03*
X401600Y425110D03*
D24*
X401600Y436310D03*
D20*
X401200Y405910D03*
D45*
X401200Y416510D03*
X401200Y425310D03*
D20*
X401200Y435910D03*
D12*
X400800Y420910D03*
X400400Y420910D03*
X400000Y420910D03*
X399600Y420910D03*
X399200Y420910D03*
X398800Y420910D03*
X398400Y420910D03*
D16*
X389000Y421710D03*
X388600Y421710D03*
X388200Y421710D03*
X387800Y421710D03*
X387400Y421710D03*
X387000Y421710D03*
X386600Y421710D03*
D42*
X386200Y406510D03*
D58*
X386200Y427110D03*
D45*
X385800Y406110D03*
D35*
X385800Y415910D03*
D30*
X385800Y421910D03*
D29*
X385800Y427110D03*
D45*
X385800Y437310D03*
D26*
X385400Y405710D03*
D25*
X385400Y416110D03*
D32*
X385400Y421910D03*
D40*
X385400Y426910D03*
D26*
X385400Y437710D03*
D20*
X385000Y405510D03*
D29*
X385000Y416310D03*
D36*
X385000Y422110D03*
D40*
X385000Y426910D03*
D20*
X385000Y437910D03*
D24*
X384600Y405110D03*
D29*
X384600Y416310D03*
D36*
X384600Y422110D03*
D40*
X384600Y426910D03*
D34*
X384600Y438110D03*
D24*
X384200Y405110D03*
D29*
X384200Y416310D03*
D35*
X384200Y422310D03*
D40*
X384200Y426910D03*
D24*
X384200Y438310D03*
D28*
X383800Y404910D03*
D29*
X383800Y416310D03*
D21*
X383800Y422510D03*
D40*
X383800Y426910D03*
D28*
X383800Y438510D03*
D30*
X383400Y404710D03*
D21*
X383400Y412110D03*
D25*
X383400Y416110D03*
D33*
X383400Y422710D03*
D40*
X383400Y426910D03*
D33*
X383400Y431510D03*
D30*
X383400Y438710D03*
X383000Y404710D03*
D18*
X383000Y413510D03*
D33*
X383000Y422710D03*
D40*
X383000Y426910D03*
D21*
X383000Y431710D03*
D30*
X383000Y438710D03*
X382600Y404710D03*
D45*
X382600Y413310D03*
D25*
X382600Y422910D03*
D40*
X382600Y426910D03*
D35*
X382600Y431910D03*
D31*
X382600Y438910D03*
X382200Y404510D03*
D45*
X382200Y413310D03*
D29*
X382200Y423110D03*
D40*
X382200Y426910D03*
D36*
X382200Y432110D03*
D31*
X382200Y438910D03*
X381800Y404510D03*
D21*
X381800Y410510D03*
D29*
X381800Y416310D03*
D40*
X381800Y423310D03*
X381800Y426910D03*
D32*
X381800Y432310D03*
D31*
X381800Y438910D03*
X381400Y404510D03*
D33*
X381400Y410310D03*
D40*
X381400Y416510D03*
X381400Y423310D03*
X381400Y426910D03*
D32*
X381400Y432310D03*
D31*
X381400Y438910D03*
X381000Y404510D03*
D33*
X381000Y410310D03*
D40*
X381000Y416510D03*
D57*
X381000Y420110D03*
D38*
X381000Y423510D03*
D40*
X381000Y426910D03*
D32*
X381000Y432310D03*
D31*
X381000Y438910D03*
X380600Y404510D03*
D33*
X380600Y410310D03*
D40*
X380600Y416510D03*
D38*
X380600Y420310D03*
D57*
X380600Y423710D03*
D40*
X380600Y426910D03*
D32*
X380600Y432310D03*
D31*
X380600Y438910D03*
X380200Y404510D03*
D33*
X380200Y410310D03*
D40*
X380200Y416510D03*
D38*
X380200Y420310D03*
D40*
X380200Y426910D03*
D32*
X380200Y432310D03*
D31*
X380200Y438910D03*
X379800Y404510D03*
D32*
X379800Y411510D03*
D40*
X379800Y416510D03*
X379800Y420510D03*
X379800Y426910D03*
D36*
X379800Y432110D03*
D31*
X379800Y438910D03*
D30*
X379400Y404710D03*
D32*
X379400Y411510D03*
D40*
X379400Y416510D03*
D29*
X379400Y420710D03*
D40*
X379400Y426910D03*
D36*
X379400Y432110D03*
D31*
X379400Y438910D03*
D30*
X379000Y404710D03*
D36*
X379000Y411710D03*
D40*
X379000Y416510D03*
D25*
X379000Y420910D03*
D40*
X379000Y426910D03*
D35*
X379000Y431910D03*
D30*
X379000Y438710D03*
X378600Y404710D03*
D35*
X378600Y411910D03*
D40*
X378600Y416510D03*
D25*
X378600Y420910D03*
D40*
X378600Y426910D03*
D21*
X378600Y431710D03*
D30*
X378600Y438710D03*
D28*
X378200Y404910D03*
D25*
X378200Y412110D03*
D40*
X378200Y416510D03*
D33*
X378200Y421110D03*
D40*
X378200Y426910D03*
D29*
X378200Y431110D03*
D28*
X378200Y438510D03*
X377800Y404910D03*
D40*
X377800Y416510D03*
D21*
X377800Y421310D03*
D40*
X377800Y426910D03*
D28*
X377800Y438510D03*
D24*
X377400Y405110D03*
D40*
X377400Y416510D03*
D35*
X377400Y421510D03*
D40*
X377400Y426910D03*
D24*
X377400Y438310D03*
D34*
X377000Y405310D03*
D40*
X377000Y416510D03*
D35*
X377000Y421510D03*
D40*
X377000Y426910D03*
D34*
X377000Y438110D03*
D20*
X376600Y405510D03*
D29*
X376600Y416310D03*
D36*
X376600Y421710D03*
D40*
X376600Y426910D03*
D20*
X376600Y437910D03*
D18*
X376200Y405910D03*
D33*
X376200Y416310D03*
D31*
X376200Y421710D03*
D29*
X376200Y427110D03*
D18*
X376200Y437510D03*
D22*
X375800Y406310D03*
D35*
X375800Y415910D03*
D30*
X375800Y421910D03*
D25*
X375800Y426910D03*
D42*
X375800Y436910D03*
D16*
X375400Y421710D03*
X375000Y421710D03*
X374600Y421710D03*
X374200Y421710D03*
X373800Y421710D03*
X373400Y421710D03*
X373000Y421710D03*
D59*
X363600Y418910D03*
X363200Y418910D03*
X362800Y418910D03*
X362400Y418910D03*
X362000Y418910D03*
X361600Y418910D03*
X361200Y418910D03*
X360800Y418910D03*
D30*
X360400Y405110D03*
D29*
X360400Y410310D03*
D30*
X360400Y415510D03*
D40*
X360400Y420510D03*
D31*
X360400Y432910D03*
X360000Y404910D03*
D29*
X360000Y410310D03*
D32*
X360000Y415510D03*
D40*
X360000Y420510D03*
D32*
X360000Y433110D03*
D31*
X359600Y404910D03*
D40*
X359600Y410510D03*
D36*
X359600Y415710D03*
D40*
X359600Y420510D03*
D32*
X359600Y433110D03*
D31*
X359200Y404910D03*
D40*
X359200Y410510D03*
D35*
X359200Y415910D03*
D40*
X359200Y420510D03*
D32*
X359200Y433110D03*
D31*
X358800Y404910D03*
D40*
X358800Y410510D03*
D35*
X358800Y415910D03*
D29*
X358800Y420710D03*
D31*
X358800Y432910D03*
X358400Y404910D03*
D40*
X358400Y410510D03*
D21*
X358400Y416110D03*
D30*
X358400Y422310D03*
D22*
X358400Y431110D03*
D31*
X358000Y404910D03*
D40*
X358000Y410510D03*
D33*
X358000Y416310D03*
D30*
X358000Y422310D03*
D22*
X358000Y431110D03*
D31*
X357600Y404910D03*
D40*
X357600Y410510D03*
D25*
X357600Y416510D03*
D30*
X357600Y422310D03*
D22*
X357600Y431110D03*
D31*
X357200Y404910D03*
D40*
X357200Y410510D03*
D25*
X357200Y416510D03*
D30*
X357200Y422310D03*
D22*
X357200Y431110D03*
D31*
X356800Y404910D03*
D40*
X356800Y410510D03*
D29*
X356800Y416710D03*
D30*
X356800Y422310D03*
D22*
X356800Y431110D03*
D31*
X356400Y404910D03*
D40*
X356400Y410510D03*
X356400Y416910D03*
D30*
X356400Y422310D03*
D22*
X356400Y431110D03*
D31*
X356000Y404910D03*
D40*
X356000Y410510D03*
D38*
X356000Y417110D03*
D30*
X356000Y422310D03*
D22*
X356000Y431110D03*
D31*
X355600Y404910D03*
D40*
X355600Y410510D03*
D57*
X355600Y413710D03*
D38*
X355600Y417110D03*
D30*
X355600Y422310D03*
D22*
X355600Y431110D03*
D31*
X355200Y404910D03*
D40*
X355200Y410510D03*
D38*
X355200Y413910D03*
D57*
X355200Y417310D03*
D30*
X355200Y422310D03*
D22*
X355200Y431110D03*
D31*
X354800Y404910D03*
D40*
X354800Y410510D03*
X354800Y414110D03*
D30*
X354800Y422310D03*
D22*
X354800Y431110D03*
D31*
X354400Y404910D03*
D40*
X354400Y410510D03*
X354400Y414110D03*
D30*
X354400Y422310D03*
D22*
X354400Y431110D03*
D31*
X354000Y404910D03*
D40*
X354000Y410510D03*
D29*
X354000Y414310D03*
D30*
X354000Y422310D03*
D22*
X354000Y431110D03*
D31*
X353600Y404910D03*
D40*
X353600Y410510D03*
D25*
X353600Y414510D03*
D30*
X353600Y422310D03*
D22*
X353600Y431110D03*
D31*
X353200Y404910D03*
D40*
X353200Y410510D03*
D33*
X353200Y414710D03*
D30*
X353200Y422310D03*
D22*
X353200Y431110D03*
D31*
X352800Y404910D03*
D40*
X352800Y410510D03*
D33*
X352800Y414710D03*
D30*
X352800Y422310D03*
D22*
X352800Y431110D03*
D31*
X352400Y404910D03*
D40*
X352400Y410510D03*
D21*
X352400Y414910D03*
D30*
X352400Y422310D03*
D22*
X352400Y431110D03*
D31*
X352000Y404910D03*
D40*
X352000Y410510D03*
D35*
X352000Y415110D03*
D30*
X352000Y422310D03*
D22*
X352000Y431110D03*
D31*
X351600Y404910D03*
D40*
X351600Y410510D03*
D36*
X351600Y415310D03*
D30*
X351600Y422310D03*
D22*
X351600Y431110D03*
D31*
X351200Y404910D03*
D40*
X351200Y410510D03*
D36*
X351200Y415310D03*
D30*
X351200Y422310D03*
D22*
X351200Y431110D03*
D30*
X350800Y405110D03*
D29*
X350800Y410310D03*
D32*
X350800Y415510D03*
D30*
X350800Y422310D03*
D22*
X350800Y431110D03*
D30*
X350400Y405110D03*
D29*
X350400Y410310D03*
D30*
X350400Y415510D03*
D24*
X350400Y422310D03*
D42*
X350400Y430910D03*
D59*
X350000Y418910D03*
X349600Y418910D03*
X349200Y418910D03*
X348800Y418910D03*
X348400Y418910D03*
X348000Y418910D03*
X347600Y418910D03*
D60*
X389000Y749380D03*
D61*
X388600Y749180D03*
D62*
X388200Y748780D03*
D63*
X387800Y748580D03*
D64*
X387400Y748380D03*
D65*
X387000Y748180D03*
D66*
X386600Y747980D03*
D67*
X386200Y740980D03*
D20*
X386200Y752580D03*
D28*
X386200Y759180D03*
D24*
X385800Y736180D03*
D35*
X385800Y746180D03*
D24*
X385800Y752580D03*
D30*
X385800Y759380D03*
D24*
X385400Y735780D03*
D25*
X385400Y746380D03*
D30*
X385400Y752580D03*
D31*
X385400Y759580D03*
D34*
X385000Y735580D03*
D29*
X385000Y746580D03*
D32*
X385000Y752580D03*
X385000Y759780D03*
D20*
X384600Y735380D03*
D40*
X384600Y746780D03*
D35*
X384600Y752580D03*
D31*
X384600Y759580D03*
D26*
X384200Y735180D03*
D29*
X384200Y746980D03*
D33*
X384200Y752580D03*
D30*
X384200Y759380D03*
D18*
X383800Y734980D03*
D29*
X383800Y747380D03*
D25*
X383800Y752380D03*
D30*
X383800Y759380D03*
D45*
X383400Y734780D03*
D33*
X383400Y742580D03*
D25*
X383400Y747580D03*
D40*
X383400Y752380D03*
D28*
X383400Y759180D03*
D45*
X383000Y734780D03*
D21*
X383000Y742780D03*
D25*
X383000Y747980D03*
D38*
X383000Y752580D03*
D24*
X383000Y758980D03*
D22*
X382600Y734580D03*
D21*
X382600Y742780D03*
D33*
X382600Y748180D03*
D34*
X382600Y758780D03*
D42*
X382200Y734380D03*
D21*
X382200Y742780D03*
X382200Y748380D03*
D20*
X382200Y758580D03*
D42*
X381800Y734380D03*
D21*
X381800Y742780D03*
D35*
X381800Y748580D03*
D26*
X381800Y758380D03*
D42*
X381400Y734380D03*
D21*
X381400Y742780D03*
D32*
X381400Y748580D03*
D18*
X381400Y758180D03*
D42*
X381000Y734380D03*
D32*
X381000Y748580D03*
D45*
X381000Y757980D03*
D42*
X380600Y734380D03*
D32*
X380600Y748580D03*
D18*
X380600Y758180D03*
D42*
X380200Y734380D03*
D32*
X380200Y748180D03*
D26*
X380200Y758380D03*
D42*
X379800Y734380D03*
D32*
X379800Y747780D03*
D20*
X379800Y758580D03*
D22*
X379400Y734580D03*
D36*
X379400Y747580D03*
D34*
X379400Y758780D03*
D45*
X379000Y734780D03*
D21*
X379000Y747580D03*
D24*
X379000Y758980D03*
D45*
X378600Y734780D03*
D33*
X378600Y747380D03*
D38*
X378600Y752580D03*
D24*
X378600Y758980D03*
D18*
X378200Y734980D03*
D33*
X378200Y742580D03*
D25*
X378200Y747180D03*
D29*
X378200Y752580D03*
D28*
X378200Y759180D03*
D26*
X377800Y735180D03*
D33*
X377800Y742580D03*
D40*
X377800Y747180D03*
D33*
X377800Y752580D03*
D30*
X377800Y759380D03*
D20*
X377400Y735380D03*
D21*
X377400Y742780D03*
D40*
X377400Y747180D03*
D35*
X377400Y752580D03*
D31*
X377400Y759580D03*
D34*
X377000Y735580D03*
D21*
X377000Y742780D03*
D57*
X377000Y747180D03*
D32*
X377000Y752580D03*
X377000Y759780D03*
D24*
X376600Y735780D03*
D21*
X376600Y742780D03*
D57*
X376600Y747180D03*
D30*
X376600Y752580D03*
D31*
X376600Y759580D03*
D24*
X376200Y736180D03*
D36*
X376200Y742780D03*
D38*
X376200Y747380D03*
D28*
X376200Y752380D03*
D31*
X376200Y759580D03*
D28*
X375800Y736380D03*
D36*
X375800Y742780D03*
D25*
X375800Y747180D03*
D34*
X375800Y752380D03*
D30*
X375800Y759380D03*
D66*
X375400Y747980D03*
D65*
X375000Y748180D03*
D64*
X374600Y748380D03*
D63*
X374200Y748580D03*
D62*
X373800Y748780D03*
D61*
X373400Y749180D03*
D60*
X373000Y749380D03*
D68*
X414400Y745110D03*
D46*
X414000Y745310D03*
D59*
X413600Y745510D03*
D69*
X413200Y745710D03*
D70*
X412800Y745910D03*
D71*
X412400Y746110D03*
D72*
X412000Y746310D03*
D73*
X411600Y739710D03*
D20*
X411600Y752510D03*
D28*
X411600Y759110D03*
X411200Y734310D03*
D40*
X411200Y747110D03*
D24*
X411200Y752510D03*
D30*
X411200Y759310D03*
X410800Y734510D03*
D57*
X410800Y747110D03*
D30*
X410800Y752510D03*
D31*
X410800Y759510D03*
X410400Y734710D03*
D57*
X410400Y747110D03*
D32*
X410400Y752510D03*
D31*
X410400Y759510D03*
D32*
X410000Y734910D03*
D57*
X410000Y747110D03*
D36*
X410000Y752310D03*
D31*
X410000Y759510D03*
D32*
X409600Y735310D03*
D40*
X409600Y747110D03*
D21*
X409600Y752310D03*
D30*
X409600Y759310D03*
D26*
X409200Y737110D03*
D28*
X409200Y745510D03*
D25*
X409200Y752310D03*
D28*
X409200Y759110D03*
D20*
X408800Y737310D03*
D24*
X408800Y745710D03*
D40*
X408800Y752310D03*
D28*
X408800Y759110D03*
D34*
X408400Y737510D03*
X408400Y745910D03*
D57*
X408400Y752310D03*
D24*
X408400Y758910D03*
X408000Y737710D03*
D20*
X408000Y746110D03*
D34*
X408000Y758710D03*
D28*
X407600Y737910D03*
D26*
X407600Y746310D03*
D20*
X407600Y758510D03*
D28*
X407200Y737910D03*
D18*
X407200Y746510D03*
D26*
X407200Y758310D03*
D28*
X406800Y737910D03*
D18*
X406800Y746510D03*
X406800Y758110D03*
D28*
X406400Y737910D03*
D45*
X406400Y746710D03*
X406400Y757910D03*
D28*
X406000Y737910D03*
D45*
X406000Y746710D03*
D18*
X406000Y758110D03*
D28*
X405600Y737910D03*
D18*
X405600Y746510D03*
D26*
X405600Y758310D03*
D28*
X405200Y737910D03*
D26*
X405200Y746310D03*
D20*
X405200Y758510D03*
D24*
X404800Y737710D03*
D20*
X404800Y746110D03*
X404800Y758510D03*
D34*
X404400Y737510D03*
X404400Y745910D03*
D57*
X404400Y752310D03*
D34*
X404400Y758710D03*
D20*
X404000Y737310D03*
D24*
X404000Y745710D03*
D40*
X404000Y752310D03*
D24*
X404000Y758910D03*
D26*
X403600Y737110D03*
D28*
X403600Y745510D03*
D25*
X403600Y752310D03*
D28*
X403600Y759110D03*
D18*
X403200Y736910D03*
D30*
X403200Y745310D03*
D33*
X403200Y752510D03*
D30*
X403200Y759310D03*
D45*
X402800Y736710D03*
D30*
X402800Y745310D03*
D35*
X402800Y752510D03*
D31*
X402800Y759510D03*
D22*
X402400Y736510D03*
D31*
X402400Y745110D03*
D32*
X402400Y752510D03*
D31*
X402400Y759510D03*
D42*
X402000Y736310D03*
D31*
X402000Y745110D03*
X402000Y752310D03*
X402000Y759510D03*
D44*
X401600Y736110D03*
D30*
X401600Y745310D03*
D28*
X401600Y752310D03*
D31*
X401600Y759510D03*
D43*
X401200Y736110D03*
D24*
X401200Y745310D03*
D34*
X401200Y752310D03*
D30*
X401200Y759310D03*
D72*
X400800Y746310D03*
D71*
X400400Y746110D03*
D70*
X400000Y745910D03*
D69*
X399600Y745710D03*
D59*
X399200Y745510D03*
D46*
X398800Y745310D03*
D68*
X398400Y745110D03*
D12*
X363600Y743490D03*
X363200Y743490D03*
X362800Y743490D03*
X362400Y743490D03*
X362000Y743490D03*
X361600Y743490D03*
X361200Y743490D03*
D18*
X360800Y728890D03*
D52*
X360800Y743490D03*
D18*
X360800Y758090D03*
D34*
X360400Y728290D03*
D21*
X360400Y737090D03*
D34*
X360400Y743490D03*
D21*
X360400Y749890D03*
D34*
X360400Y758690D03*
D24*
X360000Y728090D03*
D25*
X360000Y737090D03*
D34*
X360000Y743490D03*
D25*
X360000Y749890D03*
D24*
X360000Y758890D03*
D28*
X359600Y727890D03*
D29*
X359600Y737290D03*
D28*
X359600Y743490D03*
D29*
X359600Y749690D03*
D28*
X359600Y759090D03*
D30*
X359200Y727690D03*
D40*
X359200Y737490D03*
D28*
X359200Y743490D03*
D40*
X359200Y749490D03*
D30*
X359200Y759290D03*
X358800Y727690D03*
D29*
X358800Y737690D03*
D30*
X358800Y743690D03*
D29*
X358800Y749290D03*
D30*
X358800Y759290D03*
X358400Y727690D03*
D38*
X358400Y733690D03*
D40*
X358400Y737890D03*
D31*
X358400Y743490D03*
D29*
X358400Y749290D03*
D38*
X358400Y753690D03*
D31*
X358400Y759490D03*
D30*
X358000Y727690D03*
D25*
X358000Y733490D03*
D29*
X358000Y738090D03*
D32*
X358000Y743690D03*
D25*
X358000Y749090D03*
X358000Y753490D03*
D31*
X358000Y759490D03*
D30*
X357600Y727690D03*
D21*
X357600Y733490D03*
D29*
X357600Y738090D03*
D36*
X357600Y743490D03*
D25*
X357600Y749090D03*
D21*
X357600Y753490D03*
D31*
X357600Y759490D03*
D24*
X357200Y728090D03*
D21*
X357200Y733090D03*
D25*
X357200Y738290D03*
D35*
X357200Y743690D03*
X357200Y749290D03*
D21*
X357200Y753090D03*
D31*
X357200Y759490D03*
D18*
X356800Y728890D03*
D33*
X356800Y738090D03*
D21*
X356800Y743490D03*
D30*
X356800Y750090D03*
X356800Y759290D03*
D18*
X356400Y728890D03*
D21*
X356400Y738290D03*
X356400Y743490D03*
D28*
X356400Y749890D03*
D30*
X356400Y759290D03*
D18*
X356000Y728890D03*
D35*
X356000Y738090D03*
D25*
X356000Y743490D03*
D28*
X356000Y749890D03*
X356000Y759090D03*
D18*
X355600Y728890D03*
D32*
X355600Y738090D03*
D25*
X355600Y743490D03*
D24*
X355600Y749690D03*
X355600Y758890D03*
D18*
X355200Y728890D03*
D35*
X355200Y738490D03*
D40*
X355200Y743490D03*
D24*
X355200Y749690D03*
D30*
X355200Y759290D03*
D18*
X354800Y728890D03*
D36*
X354800Y738690D03*
D40*
X354800Y743490D03*
D34*
X354800Y749490D03*
D30*
X354800Y759290D03*
D44*
X354400Y729690D03*
D35*
X354400Y738890D03*
D57*
X354400Y743490D03*
D45*
X354400Y750290D03*
D31*
X354400Y759490D03*
D30*
X354000Y727690D03*
D35*
X354000Y733290D03*
D36*
X354000Y739090D03*
D57*
X354000Y743490D03*
D32*
X354000Y748090D03*
D35*
X354000Y753290D03*
D31*
X354000Y759490D03*
X353600Y727490D03*
D21*
X353600Y733490D03*
D36*
X353600Y739090D03*
X353600Y747890D03*
D21*
X353600Y753490D03*
D31*
X353600Y759490D03*
X353200Y727490D03*
D21*
X353200Y733490D03*
D32*
X353200Y739290D03*
X353200Y747690D03*
D21*
X353200Y753490D03*
D31*
X353200Y759490D03*
X352800Y727490D03*
D25*
X352800Y733490D03*
D32*
X352800Y739290D03*
X352800Y747690D03*
D25*
X352800Y753490D03*
D31*
X352800Y759490D03*
X352400Y727490D03*
X352400Y739490D03*
X352400Y747490D03*
X352400Y759490D03*
X352000Y727490D03*
X352000Y739490D03*
X352000Y747490D03*
X352000Y759490D03*
D30*
X351600Y727690D03*
D28*
X351600Y739490D03*
X351600Y747490D03*
D30*
X351600Y759290D03*
D28*
X351200Y727890D03*
D24*
X351200Y739290D03*
X351200Y747690D03*
D28*
X351200Y759090D03*
D24*
X350800Y728090D03*
D20*
X350800Y739290D03*
X350800Y747690D03*
D24*
X350800Y758890D03*
D20*
X350400Y728490D03*
D45*
X350400Y739090D03*
X350400Y747890D03*
D20*
X350400Y758490D03*
D12*
X350000Y743490D03*
X349600Y743490D03*
X349200Y743490D03*
X348800Y743490D03*
X348400Y743490D03*
X348000Y743490D03*
X347600Y743490D03*
D16*
X312800Y741750D03*
X312400Y741750D03*
X312000Y741750D03*
X311600Y741750D03*
X311200Y741750D03*
X310800Y741750D03*
X310400Y741750D03*
D42*
X310000Y726550D03*
D58*
X310000Y747150D03*
D45*
X309600Y726150D03*
D35*
X309600Y735950D03*
D30*
X309600Y741950D03*
D29*
X309600Y747150D03*
D45*
X309600Y757350D03*
D26*
X309200Y725750D03*
D25*
X309200Y736150D03*
D32*
X309200Y741950D03*
D40*
X309200Y746950D03*
D26*
X309200Y757750D03*
D20*
X308800Y725550D03*
D29*
X308800Y736350D03*
D36*
X308800Y742150D03*
D40*
X308800Y746950D03*
D20*
X308800Y757950D03*
D24*
X308400Y725150D03*
D29*
X308400Y736350D03*
D36*
X308400Y742150D03*
D40*
X308400Y746950D03*
D34*
X308400Y758150D03*
D24*
X308000Y725150D03*
D29*
X308000Y736350D03*
D35*
X308000Y742350D03*
D40*
X308000Y746950D03*
D24*
X308000Y758350D03*
D28*
X307600Y724950D03*
D29*
X307600Y736350D03*
D21*
X307600Y742550D03*
D40*
X307600Y746950D03*
D28*
X307600Y758550D03*
D30*
X307200Y724750D03*
D21*
X307200Y732150D03*
D25*
X307200Y736150D03*
D33*
X307200Y742750D03*
D40*
X307200Y746950D03*
D33*
X307200Y751550D03*
D30*
X307200Y758750D03*
X306800Y724750D03*
D18*
X306800Y733550D03*
D33*
X306800Y742750D03*
D40*
X306800Y746950D03*
D21*
X306800Y751750D03*
D30*
X306800Y758750D03*
X306400Y724750D03*
D45*
X306400Y733350D03*
D25*
X306400Y742950D03*
D40*
X306400Y746950D03*
D35*
X306400Y751950D03*
D31*
X306400Y758950D03*
X306000Y724550D03*
D45*
X306000Y733350D03*
D29*
X306000Y743150D03*
D40*
X306000Y746950D03*
D36*
X306000Y752150D03*
D31*
X306000Y758950D03*
X305600Y724550D03*
D21*
X305600Y730550D03*
D29*
X305600Y736350D03*
D40*
X305600Y743350D03*
X305600Y746950D03*
D32*
X305600Y752350D03*
D31*
X305600Y758950D03*
X305200Y724550D03*
D33*
X305200Y730350D03*
D40*
X305200Y736550D03*
X305200Y743350D03*
X305200Y746950D03*
D32*
X305200Y752350D03*
D31*
X305200Y758950D03*
X304800Y724550D03*
D33*
X304800Y730350D03*
D40*
X304800Y736550D03*
D57*
X304800Y740150D03*
D38*
X304800Y743550D03*
D40*
X304800Y746950D03*
D32*
X304800Y752350D03*
D31*
X304800Y758950D03*
X304400Y724550D03*
D33*
X304400Y730350D03*
D40*
X304400Y736550D03*
D38*
X304400Y740350D03*
D57*
X304400Y743750D03*
D40*
X304400Y746950D03*
D32*
X304400Y752350D03*
D31*
X304400Y758950D03*
X304000Y724550D03*
D33*
X304000Y730350D03*
D40*
X304000Y736550D03*
D38*
X304000Y740350D03*
D40*
X304000Y746950D03*
D32*
X304000Y752350D03*
D31*
X304000Y758950D03*
X303600Y724550D03*
D32*
X303600Y731550D03*
D40*
X303600Y736550D03*
X303600Y740550D03*
X303600Y746950D03*
D36*
X303600Y752150D03*
D31*
X303600Y758950D03*
D30*
X303200Y724750D03*
D32*
X303200Y731550D03*
D40*
X303200Y736550D03*
D29*
X303200Y740750D03*
D40*
X303200Y746950D03*
D36*
X303200Y752150D03*
D31*
X303200Y758950D03*
D30*
X302800Y724750D03*
D36*
X302800Y731750D03*
D40*
X302800Y736550D03*
D25*
X302800Y740950D03*
D40*
X302800Y746950D03*
D35*
X302800Y751950D03*
D30*
X302800Y758750D03*
X302400Y724750D03*
D35*
X302400Y731950D03*
D40*
X302400Y736550D03*
D25*
X302400Y740950D03*
D40*
X302400Y746950D03*
D21*
X302400Y751750D03*
D30*
X302400Y758750D03*
D28*
X302000Y724950D03*
D25*
X302000Y732150D03*
D40*
X302000Y736550D03*
D33*
X302000Y741150D03*
D40*
X302000Y746950D03*
D29*
X302000Y751150D03*
D28*
X302000Y758550D03*
X301600Y724950D03*
D40*
X301600Y736550D03*
D21*
X301600Y741350D03*
D40*
X301600Y746950D03*
D28*
X301600Y758550D03*
D24*
X301200Y725150D03*
D40*
X301200Y736550D03*
D35*
X301200Y741550D03*
D40*
X301200Y746950D03*
D24*
X301200Y758350D03*
D34*
X300800Y725350D03*
D40*
X300800Y736550D03*
D35*
X300800Y741550D03*
D40*
X300800Y746950D03*
D34*
X300800Y758150D03*
D20*
X300400Y725550D03*
D29*
X300400Y736350D03*
D36*
X300400Y741750D03*
D40*
X300400Y746950D03*
D20*
X300400Y757950D03*
D18*
X300000Y725950D03*
D33*
X300000Y736350D03*
D31*
X300000Y741750D03*
D29*
X300000Y747150D03*
D18*
X300000Y757550D03*
D22*
X299600Y726350D03*
D35*
X299600Y735950D03*
D30*
X299600Y741950D03*
D25*
X299600Y746950D03*
D42*
X299600Y756950D03*
D16*
X299200Y741750D03*
X298800Y741750D03*
X298400Y741750D03*
X298000Y741750D03*
X297600Y741750D03*
X297200Y741750D03*
X296800Y741750D03*
D58*
X312800Y415370D03*
D74*
X312400Y415570D03*
D75*
X312000Y415970D03*
D76*
X311600Y416170D03*
D31*
X311200Y403570D03*
D32*
X311200Y429370D03*
X310800Y403370D03*
X310800Y429770D03*
X310400Y403370D03*
D31*
X310400Y429970D03*
D32*
X310000Y403370D03*
D30*
X310000Y430170D03*
D32*
X309600Y403370D03*
D28*
X309600Y430370D03*
D31*
X309200Y403570D03*
D34*
X309200Y430370D03*
D59*
X308800Y417570D03*
D46*
X308400Y417770D03*
D68*
X308000Y417970D03*
D77*
X307600Y418170D03*
D30*
X307200Y403770D03*
D31*
X307200Y412770D03*
D29*
X307200Y418970D03*
D45*
X307200Y431570D03*
D30*
X306800Y403770D03*
D21*
X306800Y412770D03*
D38*
X306800Y418970D03*
D45*
X306800Y431570D03*
D30*
X306400Y403770D03*
D25*
X306400Y412770D03*
D57*
X306400Y419170D03*
D22*
X306400Y431770D03*
D30*
X306000Y403770D03*
D29*
X306000Y412970D03*
D38*
X306000Y419370D03*
D42*
X306000Y431970D03*
D30*
X305600Y403770D03*
D38*
X305600Y412970D03*
D36*
X305600Y420770D03*
D27*
X305600Y430570D03*
D30*
X305200Y403770D03*
D25*
X305200Y409170D03*
D38*
X305200Y412970D03*
D25*
X305200Y416370D03*
D32*
X305200Y420570D03*
D23*
X305200Y430370D03*
D30*
X304800Y403770D03*
D33*
X304800Y409370D03*
D38*
X304800Y412970D03*
D18*
X304800Y418970D03*
D23*
X304800Y430370D03*
D30*
X304400Y403770D03*
D33*
X304400Y409370D03*
D38*
X304400Y412970D03*
D26*
X304400Y419170D03*
D23*
X304400Y430370D03*
D30*
X304000Y403770D03*
D33*
X304000Y409370D03*
D38*
X304000Y412970D03*
D34*
X304000Y419570D03*
D23*
X304000Y430370D03*
D30*
X303600Y403770D03*
D33*
X303600Y409370D03*
D40*
X303600Y413170D03*
D31*
X303600Y420370D03*
D23*
X303600Y430370D03*
D30*
X303200Y403770D03*
D25*
X303200Y409170D03*
D29*
X303200Y413370D03*
D36*
X303200Y420770D03*
D27*
X303200Y430170D03*
D30*
X302800Y403770D03*
D25*
X302800Y413570D03*
D35*
X302800Y420970D03*
D37*
X302800Y429970D03*
D30*
X302400Y403770D03*
D35*
X302400Y413770D03*
X302400Y420970D03*
D37*
X302400Y429970D03*
D30*
X302000Y403770D03*
D28*
X302000Y414370D03*
D35*
X302000Y420970D03*
D39*
X302000Y429770D03*
D30*
X301600Y403770D03*
D28*
X301600Y414770D03*
D35*
X301600Y420970D03*
D41*
X301600Y429570D03*
D30*
X301200Y403770D03*
D29*
X301200Y412970D03*
D33*
X301200Y416170D03*
D35*
X301200Y420970D03*
D43*
X301200Y429370D03*
D30*
X300800Y403770D03*
D25*
X300800Y409170D03*
D38*
X300800Y412970D03*
D25*
X300800Y416370D03*
D35*
X300800Y420970D03*
D56*
X300800Y429170D03*
D30*
X300400Y403770D03*
D25*
X300400Y409170D03*
D38*
X300400Y412970D03*
D35*
X300400Y420970D03*
D44*
X300400Y428970D03*
D30*
X300000Y403770D03*
D33*
X300000Y409370D03*
D38*
X300000Y412970D03*
D35*
X300000Y420970D03*
D42*
X300000Y428770D03*
D30*
X299600Y403770D03*
D33*
X299600Y409370D03*
D38*
X299600Y413370D03*
D36*
X299600Y420770D03*
D22*
X299600Y428570D03*
D30*
X299200Y403770D03*
D21*
X299200Y409570D03*
D40*
X299200Y413570D03*
D32*
X299200Y420570D03*
D45*
X299200Y428370D03*
D30*
X298800Y403770D03*
D35*
X298800Y409370D03*
D21*
X298800Y413570D03*
D28*
X298800Y420370D03*
D18*
X298800Y428170D03*
D78*
X298400Y416370D03*
D76*
X298000Y416170D03*
D75*
X297600Y415970D03*
D74*
X297200Y415570D03*
D58*
X296800Y415370D03*
D50*
X338200Y419770D03*
D12*
X337800Y419970D03*
D13*
X337400Y420370D03*
D79*
X337000Y420570D03*
D31*
X336600Y403970D03*
D32*
X336600Y437770D03*
X336200Y403770D03*
D36*
X336200Y438370D03*
D32*
X335800Y403770D03*
X335800Y438570D03*
X335400Y403770D03*
D31*
X335400Y438770D03*
D32*
X335000Y403770D03*
D30*
X335000Y438970D03*
D31*
X334600Y403970D03*
D34*
X334600Y438770D03*
D80*
X334200Y421970D03*
D81*
X333800Y422170D03*
D82*
X333400Y422370D03*
D83*
X333000Y422570D03*
D34*
X332600Y404770D03*
D28*
X332600Y413570D03*
D30*
X332600Y419770D03*
D40*
X332600Y429170D03*
D45*
X332600Y439970D03*
D28*
X332200Y404370D03*
D31*
X332200Y413570D03*
D32*
X332200Y419770D03*
D38*
X332200Y428970D03*
D45*
X332200Y439970D03*
D30*
X331800Y404170D03*
D32*
X331800Y413770D03*
X331800Y419770D03*
D38*
X331800Y428970D03*
D22*
X331800Y440170D03*
D30*
X331400Y404170D03*
D36*
X331400Y413570D03*
X331400Y419970D03*
D38*
X331400Y428970D03*
D42*
X331400Y440370D03*
D31*
X331000Y403970D03*
D36*
X331000Y413570D03*
X331000Y419970D03*
D38*
X331000Y428970D03*
D42*
X331000Y440370D03*
D31*
X330600Y403970D03*
D25*
X330600Y409170D03*
D36*
X330600Y413170D03*
D35*
X330600Y420170D03*
D28*
X330600Y426770D03*
D54*
X330600Y438170D03*
D31*
X330200Y403970D03*
D26*
X330200Y411570D03*
D35*
X330200Y420170D03*
D24*
X330200Y426570D03*
D55*
X330200Y437970D03*
D31*
X329800Y403970D03*
D34*
X329800Y411570D03*
D21*
X329800Y420370D03*
D24*
X329800Y426570D03*
D55*
X329800Y437970D03*
D31*
X329400Y403970D03*
D28*
X329400Y411970D03*
D21*
X329400Y420370D03*
D33*
X329400Y428170D03*
D41*
X329400Y439570D03*
D30*
X329000Y404170D03*
D35*
X329000Y412570D03*
D57*
X329000Y416770D03*
D33*
X329000Y420570D03*
D25*
X329000Y428370D03*
D43*
X329000Y439770D03*
D28*
X328600Y404370D03*
D33*
X328600Y412970D03*
D57*
X328600Y416770D03*
D33*
X328600Y420570D03*
D25*
X328600Y428370D03*
D56*
X328600Y439570D03*
D24*
X328200Y404570D03*
D29*
X328200Y412970D03*
D40*
X328200Y416770D03*
D25*
X328200Y420770D03*
X328200Y428370D03*
D44*
X328200Y439370D03*
D20*
X327800Y404970D03*
D29*
X327800Y412970D03*
D40*
X327800Y416770D03*
D25*
X327800Y420770D03*
X327800Y428370D03*
D44*
X327800Y439370D03*
D22*
X327400Y405770D03*
D40*
X327400Y412770D03*
D29*
X327400Y420970D03*
D33*
X327400Y428170D03*
D44*
X327400Y438970D03*
D42*
X327000Y405970D03*
D40*
X327000Y412770D03*
D29*
X327000Y420970D03*
D24*
X327000Y426570D03*
D23*
X327000Y437170D03*
D30*
X326600Y404170D03*
D33*
X326600Y408970D03*
D38*
X326600Y412570D03*
D40*
X326600Y421170D03*
D24*
X326600Y426570D03*
D27*
X326600Y436970D03*
D31*
X326200Y403970D03*
D25*
X326200Y409170D03*
D38*
X326200Y412570D03*
D40*
X326200Y421170D03*
D24*
X326200Y426570D03*
D39*
X326200Y436970D03*
D31*
X325800Y403970D03*
D57*
X325800Y412370D03*
D36*
X325800Y416770D03*
D38*
X325800Y421370D03*
D24*
X325800Y426570D03*
X325800Y438970D03*
D31*
X325400Y403970D03*
D57*
X325400Y412370D03*
D36*
X325400Y416770D03*
D38*
X325400Y421370D03*
D24*
X325400Y426570D03*
D28*
X325400Y438770D03*
D30*
X325000Y404170D03*
D38*
X325000Y412170D03*
D31*
X325000Y416770D03*
D38*
X325000Y421370D03*
D24*
X325000Y426570D03*
D30*
X325000Y438570D03*
D28*
X324600Y404370D03*
D40*
X324600Y411970D03*
D31*
X324600Y416770D03*
D38*
X324600Y421370D03*
D24*
X324600Y426570D03*
D31*
X324600Y438370D03*
D34*
X324200Y404770D03*
D33*
X324200Y411770D03*
D28*
X324200Y416770D03*
D29*
X324200Y421370D03*
D34*
X324200Y426770D03*
D32*
X324200Y438170D03*
D14*
X323800Y420770D03*
D79*
X323400Y420570D03*
D13*
X323000Y420370D03*
D12*
X322600Y419970D03*
D50*
X322200Y419770D03*
D16*
X287400Y419170D03*
D15*
X287000Y418970D03*
D14*
X286600Y418770D03*
D79*
X286200Y418570D03*
D13*
X285800Y418370D03*
D51*
X285400Y418170D03*
D12*
X285000Y417970D03*
D61*
X284600Y412370D03*
D42*
X284600Y431570D03*
D30*
X284200Y402170D03*
D36*
X284200Y411970D03*
D30*
X284200Y421770D03*
D26*
X284200Y431970D03*
D30*
X283800Y402170D03*
D21*
X283800Y412370D03*
D36*
X283800Y421970D03*
D34*
X283800Y431970D03*
D30*
X283400Y402170D03*
D33*
X283400Y412570D03*
D21*
X283400Y421970D03*
D28*
X283400Y431970D03*
D30*
X283000Y402170D03*
D25*
X283000Y412770D03*
X283000Y421970D03*
D30*
X283000Y431770D03*
X282600Y402170D03*
D29*
X282600Y412970D03*
X282600Y422170D03*
D31*
X282600Y431570D03*
D30*
X282200Y402170D03*
D29*
X282200Y412970D03*
D40*
X282200Y421970D03*
D29*
X282200Y426170D03*
D31*
X282200Y431170D03*
D30*
X281800Y402170D03*
D33*
X281800Y408170D03*
D40*
X281800Y413170D03*
D33*
X281800Y417370D03*
D40*
X281800Y421970D03*
D25*
X281800Y426370D03*
D31*
X281800Y430770D03*
D30*
X281400Y402170D03*
D35*
X281400Y408570D03*
D40*
X281400Y413170D03*
D21*
X281400Y417570D03*
D38*
X281400Y422170D03*
D45*
X281400Y428770D03*
D30*
X281000Y402170D03*
D35*
X281000Y408570D03*
D40*
X281000Y413170D03*
D35*
X281000Y417770D03*
D38*
X281000Y422170D03*
D26*
X281000Y428770D03*
D30*
X280600Y402170D03*
D35*
X280600Y408570D03*
D40*
X280600Y413170D03*
D35*
X280600Y417770D03*
D40*
X280600Y422370D03*
D24*
X280600Y428970D03*
D30*
X280200Y402170D03*
D35*
X280200Y408570D03*
D40*
X280200Y413170D03*
D21*
X280200Y417570D03*
D40*
X280200Y422370D03*
D32*
X280200Y429770D03*
D30*
X279800Y402170D03*
D21*
X279800Y408370D03*
D40*
X279800Y413170D03*
D21*
X279800Y417570D03*
D29*
X279800Y422570D03*
D21*
X279800Y430370D03*
D30*
X279400Y402170D03*
D40*
X279400Y413170D03*
D25*
X279400Y422370D03*
D33*
X279400Y430570D03*
D30*
X279000Y402170D03*
D29*
X279000Y412970D03*
D21*
X279000Y422770D03*
D25*
X279000Y430770D03*
D30*
X278600Y402170D03*
D29*
X278600Y412970D03*
D32*
X278600Y422970D03*
D25*
X278600Y430770D03*
D30*
X278200Y402170D03*
D25*
X278200Y412770D03*
D24*
X278200Y423370D03*
D29*
X278200Y430970D03*
D30*
X277800Y402170D03*
D33*
X277800Y412570D03*
D18*
X277800Y423770D03*
D25*
X277800Y431170D03*
D30*
X277400Y402170D03*
D35*
X277400Y412170D03*
D36*
X277400Y421570D03*
X277400Y425970D03*
D33*
X277400Y431370D03*
D30*
X277000Y402170D03*
D31*
X277000Y411570D03*
X277000Y420770D03*
D21*
X277000Y426370D03*
X277000Y431570D03*
D30*
X276600Y402170D03*
D26*
X276600Y410370D03*
D20*
X276600Y419370D03*
D25*
X276600Y426370D03*
D35*
X276600Y431770D03*
D30*
X276200Y402170D03*
D26*
X276200Y410370D03*
D20*
X276200Y419370D03*
D32*
X276200Y431770D03*
D30*
X275800Y402170D03*
D26*
X275800Y410370D03*
D20*
X275800Y419370D03*
D31*
X275800Y431970D03*
D30*
X275400Y402170D03*
D26*
X275400Y410370D03*
X275400Y419570D03*
D28*
X275400Y431970D03*
D30*
X275000Y402170D03*
D26*
X275000Y410370D03*
D18*
X275000Y419770D03*
D24*
X275000Y432170D03*
D30*
X274600Y402170D03*
D26*
X274600Y410370D03*
D45*
X274600Y419970D03*
D26*
X274600Y431970D03*
D28*
X274200Y402370D03*
D45*
X274200Y410370D03*
D44*
X274200Y420170D03*
D22*
X274200Y431770D03*
D12*
X273800Y417970D03*
D51*
X273400Y418170D03*
D13*
X273000Y418370D03*
D79*
X272600Y418570D03*
D14*
X272200Y418770D03*
D15*
X271800Y418970D03*
D16*
X271400Y419170D03*
D84*
X288430Y766670D03*
D85*
X288430Y772070D03*
D86*
X288430Y778520D03*
D87*
X288430Y782570D03*
D30*
X288080Y766820D03*
D88*
X288080Y772220D03*
X288080Y778520D03*
D89*
X288080Y782570D03*
D90*
X287730Y766820D03*
D91*
X287730Y772070D03*
D92*
X287730Y778520D03*
D91*
X287730Y782570D03*
D93*
X287530Y766970D03*
D91*
X287530Y772070D03*
D92*
X287530Y778520D03*
D94*
X287530Y782420D03*
D95*
X287230Y767120D03*
D91*
X287230Y772070D03*
D92*
X287230Y778520D03*
D96*
X287230Y782270D03*
D34*
X286880Y767120D03*
D97*
X286880Y772070D03*
D88*
X286880Y778520D03*
D98*
X286880Y781970D03*
D95*
X286530Y767120D03*
D91*
X286530Y772070D03*
D92*
X286530Y778520D03*
D96*
X286530Y781970D03*
D91*
X286330Y765170D03*
D94*
X286330Y769220D03*
D91*
X286330Y772070D03*
D92*
X286330Y778520D03*
D96*
X286330Y781670D03*
D91*
X286030Y765170D03*
X286030Y769370D03*
X286030Y772070D03*
D92*
X286030Y778520D03*
D96*
X286030Y781370D03*
D97*
X285680Y765170D03*
X285680Y769370D03*
X285680Y772070D03*
D88*
X285680Y778520D03*
D98*
X285680Y781070D03*
D91*
X285330Y765170D03*
D94*
X285330Y768920D03*
D91*
X285330Y772070D03*
D99*
X285330Y779870D03*
D91*
X285030Y765170D03*
D100*
X285030Y768620D03*
D91*
X285030Y772070D03*
D101*
X285030Y779720D03*
D91*
X284830Y765170D03*
D84*
X284830Y768470D03*
D91*
X284830Y772070D03*
D102*
X284830Y779570D03*
D97*
X284480Y765170D03*
D103*
X284480Y768470D03*
D97*
X284480Y772070D03*
D36*
X284480Y779420D03*
D91*
X284130Y765170D03*
D84*
X284130Y768470D03*
D91*
X284130Y772070D03*
D104*
X284130Y779420D03*
D91*
X283930Y765170D03*
D84*
X283930Y768770D03*
D91*
X283930Y772070D03*
D102*
X283930Y779570D03*
D91*
X283630Y765170D03*
X283630Y769370D03*
X283630Y772070D03*
D101*
X283630Y779720D03*
D97*
X283280Y765170D03*
D88*
X283280Y769520D03*
D97*
X283280Y772070D03*
D105*
X283280Y779870D03*
D91*
X282930Y765170D03*
D92*
X282930Y769520D03*
D91*
X282930Y772070D03*
D92*
X282930Y778520D03*
D96*
X282930Y781070D03*
D91*
X282630Y765170D03*
X282630Y769370D03*
X282630Y772070D03*
D92*
X282630Y778520D03*
D96*
X282630Y781370D03*
D106*
X282430Y767270D03*
D91*
X282430Y772070D03*
D92*
X282430Y778520D03*
D96*
X282430Y781670D03*
D107*
X282080Y767270D03*
D108*
X282080Y773570D03*
D88*
X282080Y778520D03*
D98*
X282080Y781970D03*
D95*
X281730Y767120D03*
D93*
X281730Y773870D03*
D92*
X281730Y778520D03*
D96*
X281730Y782270D03*
D95*
X281530Y767120D03*
D93*
X281530Y773870D03*
D92*
X281530Y778520D03*
D94*
X281530Y782420D03*
D93*
X281230Y766970D03*
X281230Y773870D03*
D92*
X281230Y778520D03*
D91*
X281230Y782570D03*
D109*
X280880Y766820D03*
D110*
X280880Y773870D03*
D88*
X280880Y778520D03*
X280880Y782720D03*
D99*
X280530Y766670D03*
D90*
X280530Y774020D03*
D111*
X280530Y778370D03*
D112*
X280530Y782420D03*
D91*
X456070Y767870D03*
D96*
X456070Y773870D03*
D85*
X456070Y779570D03*
X456070Y784670D03*
D113*
X455720Y767870D03*
D105*
X455720Y774170D03*
D89*
X455720Y779570D03*
D88*
X455720Y784520D03*
D99*
X455370Y767870D03*
D114*
X455370Y774170D03*
D91*
X455370Y779570D03*
D92*
X455370Y784520D03*
D90*
X455170Y768020D03*
X455170Y774320D03*
D94*
X455170Y779720D03*
D91*
X455170Y784670D03*
D93*
X454870Y767870D03*
X454870Y774470D03*
D96*
X454870Y779870D03*
D91*
X454870Y784670D03*
D34*
X454520Y767720D03*
X454520Y774620D03*
D98*
X454520Y779870D03*
D97*
X454520Y784670D03*
D95*
X454170Y767420D03*
X454170Y774620D03*
D100*
X454170Y780020D03*
D91*
X454170Y784670D03*
D96*
X453970Y765470D03*
D112*
X453970Y769520D03*
D91*
X453970Y772670D03*
D94*
X453970Y776720D03*
D84*
X453970Y780170D03*
D91*
X453970Y784670D03*
D94*
X453670Y765320D03*
D85*
X453670Y769670D03*
D91*
X453670Y772670D03*
X453670Y776870D03*
D104*
X453670Y780320D03*
D91*
X453670Y784670D03*
D97*
X453320Y765170D03*
X453320Y772670D03*
X453320Y776870D03*
D36*
X453320Y780320D03*
D97*
X453320Y784670D03*
D91*
X452970Y764870D03*
X452970Y772670D03*
X452970Y776870D03*
D102*
X452970Y780470D03*
D91*
X452970Y784670D03*
X452670Y764870D03*
D100*
X452670Y769220D03*
D91*
X452670Y772670D03*
X452670Y776870D03*
D101*
X452670Y780620D03*
D91*
X452670Y784670D03*
X452470Y764870D03*
D104*
X452470Y769220D03*
D91*
X452470Y772670D03*
D94*
X452470Y776720D03*
D99*
X452470Y780770D03*
D91*
X452470Y784670D03*
D97*
X452120Y764870D03*
D36*
X452120Y769220D03*
D107*
X452120Y774770D03*
D97*
X452120Y779570D03*
X452120Y781970D03*
X452120Y784670D03*
D91*
X451770Y764870D03*
D104*
X451770Y769220D03*
D95*
X451770Y774620D03*
D91*
X451770Y779570D03*
D94*
X451770Y782120D03*
D91*
X451770Y784670D03*
X451570Y764870D03*
D104*
X451570Y769220D03*
D95*
X451570Y774620D03*
D91*
X451570Y779570D03*
D99*
X451570Y783470D03*
D91*
X451270Y764870D03*
D100*
X451270Y769520D03*
D93*
X451270Y774470D03*
D91*
X451270Y779570D03*
D101*
X451270Y783620D03*
D97*
X450920Y765170D03*
X450920Y769970D03*
D110*
X450920Y774470D03*
D97*
X450920Y779570D03*
D113*
X450920Y783770D03*
D94*
X450570Y765320D03*
D91*
X450570Y769970D03*
D93*
X450570Y774470D03*
D91*
X450570Y779570D03*
D102*
X450570Y783770D03*
D96*
X450270Y765470D03*
D91*
X450270Y769970D03*
D93*
X450270Y774470D03*
D91*
X450270Y779570D03*
D104*
X450270Y783920D03*
D100*
X450070Y765920D03*
D94*
X450070Y769820D03*
D91*
X450070Y772670D03*
X450070Y776570D03*
X450070Y779570D03*
D84*
X450070Y784070D03*
D115*
X449720Y767720D03*
D97*
X449720Y772670D03*
X449720Y776570D03*
X449720Y779570D03*
D116*
X449720Y784220D03*
D106*
X449370Y767870D03*
D91*
X449370Y772670D03*
D94*
X449370Y776720D03*
D91*
X449370Y779570D03*
D100*
X449370Y784220D03*
D93*
X449170Y767870D03*
D91*
X449170Y772670D03*
X449170Y776870D03*
X449170Y779570D03*
D96*
X449170Y784370D03*
D90*
X448870Y768020D03*
D91*
X448870Y772670D03*
X448870Y776870D03*
X448870Y779570D03*
D94*
X448870Y784520D03*
D117*
X448520Y768020D03*
D97*
X448520Y772670D03*
D88*
X448520Y777020D03*
D97*
X448520Y779570D03*
D88*
X448520Y784520D03*
D100*
X448170Y768020D03*
D111*
X448170Y772670D03*
X448170Y776870D03*
X448170Y779570D03*
X448170Y784670D03*
D86*
X447870Y768020D03*
M02*
