G04 EAGLE Gerber RS-274X export*
G75*
%MOMM*%
%FSLAX34Y34*%
%LPD*%
%INSilkscreen Top*%
%IPPOS*%
%AMOC8*
5,1,8,0,0,1.08239X$1,22.5*%
G01*
%ADD10C,0.177800*%
%ADD11C,0.203200*%
%ADD12C,0.127000*%
%ADD13C,0.152400*%
%ADD14C,0.803212*%
%ADD15C,0.050800*%
%ADD16R,0.040000X3.520000*%
%ADD17R,0.040000X3.640000*%
%ADD18R,0.040000X3.720000*%
%ADD19R,0.040000X3.800000*%
%ADD20R,0.040000X3.840000*%
%ADD21R,0.040000X3.880000*%
%ADD22R,0.040000X3.920000*%
%ADD23R,0.040000X0.720000*%
%ADD24R,0.040000X3.040000*%
%ADD25R,0.040000X0.640000*%
%ADD26R,0.040000X0.280000*%
%ADD27R,0.040000X0.800000*%
%ADD28R,0.040000X1.160000*%
%ADD29R,0.040000X0.560000*%
%ADD30R,0.040000X0.200000*%
%ADD31R,0.040000X0.680000*%
%ADD32R,0.040000X1.120000*%
%ADD33R,0.040000X0.520000*%
%ADD34R,0.040000X0.160000*%
%ADD35R,0.040000X0.480000*%
%ADD36R,0.040000X0.440000*%
%ADD37R,0.040000X0.400000*%
%ADD38R,0.040000X0.240000*%
%ADD39R,0.040000X0.600000*%
%ADD40R,0.040000X0.320000*%
%ADD41R,0.040000X0.360000*%
%ADD42R,0.040000X1.080000*%
%ADD43R,0.040000X0.080000*%
%ADD44R,0.040000X1.040000*%
%ADD45R,0.040000X0.120000*%
%ADD46R,0.040000X1.000000*%
%ADD47R,0.040000X0.840000*%
%ADD48R,0.040000X0.960000*%
%ADD49R,0.040000X0.880000*%
%ADD50R,0.040000X0.760000*%
%ADD51R,0.040000X3.280000*%
%ADD52R,0.040000X3.400000*%
%ADD53R,0.040000X3.480000*%
%ADD54R,0.040000X3.560000*%
%ADD55R,0.040000X3.600000*%
%ADD56R,0.040000X3.680000*%
%ADD57R,0.040000X1.800000*%
%ADD58R,0.040000X1.240000*%
%ADD59R,0.040000X1.280000*%
%ADD60R,0.040000X1.320000*%
%ADD61R,0.040000X0.920000*%
%ADD62R,0.040000X0.040000*%
%ADD63R,0.040000X2.800000*%
%ADD64R,1.830000X0.030000*%
%ADD65R,2.010000X0.030000*%
%ADD66R,2.130000X0.020000*%
%ADD67R,2.250000X0.040000*%
%ADD68R,2.310000X0.030000*%
%ADD69R,2.370000X0.030000*%
%ADD70R,2.430000X0.020000*%
%ADD71R,0.930000X0.030000*%
%ADD72R,0.540000X0.030000*%
%ADD73R,0.750000X0.030000*%
%ADD74R,0.570000X0.040000*%
%ADD75R,0.150000X0.040000*%
%ADD76R,0.390000X0.040000*%
%ADD77R,0.660000X0.040000*%
%ADD78R,0.570000X0.030000*%
%ADD79R,0.120000X0.030000*%
%ADD80R,0.300000X0.030000*%
%ADD81R,0.600000X0.030000*%
%ADD82R,0.240000X0.030000*%
%ADD83R,0.090000X0.030000*%
%ADD84R,0.210000X0.030000*%
%ADD85R,0.630000X0.040000*%
%ADD86R,0.090000X0.040000*%
%ADD87R,0.060000X0.040000*%
%ADD88R,0.630000X0.030000*%
%ADD89R,0.660000X0.030000*%
%ADD90R,0.270000X0.030000*%
%ADD91R,0.720000X0.030000*%
%ADD92R,0.120000X0.040000*%
%ADD93R,1.080000X0.040000*%
%ADD94R,1.110000X0.030000*%
%ADD95R,0.150000X0.030000*%
%ADD96R,1.140000X0.030000*%
%ADD97R,0.180000X0.040000*%
%ADD98R,1.140000X0.040000*%
%ADD99R,0.060000X0.030000*%
%ADD100R,0.030000X0.030000*%
%ADD101R,0.030000X0.040000*%
%ADD102R,1.110000X0.040000*%
%ADD103R,1.080000X0.030000*%
%ADD104R,0.690000X0.030000*%
%ADD105R,0.780000X0.040000*%
%ADD106R,0.870000X0.030000*%
%ADD107R,2.430000X0.030000*%
%ADD108R,2.250000X0.030000*%
%ADD109R,2.130000X0.030000*%
%ADD110R,0.040000X3.240000*%
%ADD111R,0.040000X2.480000*%
%ADD112R,0.040000X2.520000*%
%ADD113R,0.040000X2.600000*%
%ADD114R,0.040000X2.640000*%
%ADD115R,0.040000X2.680000*%
%ADD116R,0.040000X2.720000*%
%ADD117R,0.040000X2.760000*%
%ADD118R,0.040000X1.440000*%
%ADD119R,0.040000X3.320000*%
%ADD120R,0.040000X3.200000*%
%ADD121R,0.040000X3.160000*%
%ADD122R,0.040000X3.120000*%
%ADD123R,0.040000X3.080000*%
%ADD124R,0.040000X1.680000*%
%ADD125R,0.040000X1.360000*%
%ADD126R,0.040000X2.840000*%
%ADD127R,0.040000X2.920000*%
%ADD128R,0.040000X2.960000*%
%ADD129R,0.040000X3.360000*%
%ADD130R,0.040000X3.000000*%
%ADD131R,0.040000X3.760000*%
%ADD132R,0.040000X4.040000*%
%ADD133R,0.040000X4.080000*%
%ADD134R,0.040000X4.120000*%
%ADD135R,0.040000X4.160000*%
%ADD136R,0.030000X0.330000*%
%ADD137R,0.030000X0.060000*%
%ADD138R,0.030000X0.090000*%
%ADD139R,0.040000X0.180000*%
%ADD140R,0.040000X0.150000*%
%ADD141R,0.030000X0.540000*%
%ADD142R,0.030000X0.210000*%
%ADD143R,0.030000X0.180000*%
%ADD144R,0.030000X0.570000*%
%ADD145R,0.030000X0.240000*%
%ADD146R,0.030000X0.600000*%
%ADD147R,0.030000X0.270000*%
%ADD148R,0.040000X0.210000*%
%ADD149R,0.040000X0.270000*%
%ADD150R,0.030000X0.450000*%
%ADD151R,0.030000X0.300000*%
%ADD152R,0.030000X0.420000*%
%ADD153R,0.030000X0.390000*%
%ADD154R,0.040000X0.330000*%
%ADD155R,0.030000X0.360000*%
%ADD156R,0.040000X0.450000*%
%ADD157R,0.030000X0.630000*%
%ADD158R,0.040000X0.630000*%
%ADD159R,0.040000X0.510000*%
%ADD160R,0.040000X0.540000*%
%ADD161R,0.040000X0.570000*%
%ADD162R,0.030000X0.150000*%
%ADD163R,0.030000X0.120000*%
%ADD164R,0.040000X0.390000*%
%ADD165R,0.030000X0.510000*%
%ADD166R,0.040000X0.660000*%
%ADD167R,0.040000X0.300000*%
%ADD168R,0.040000X0.420000*%
%ADD169R,2.680000X0.040000*%
%ADD170R,2.920000X0.040000*%
%ADD171R,3.080000X0.040000*%
%ADD172R,3.240000X0.040000*%
%ADD173R,3.320000X0.040000*%
%ADD174R,3.400000X0.040000*%
%ADD175R,3.480000X0.040000*%
%ADD176R,3.560000X0.040000*%
%ADD177R,1.200000X0.040000*%
%ADD178R,0.160000X0.040000*%
%ADD179R,0.560000X0.040000*%
%ADD180R,0.760000X0.040000*%
%ADD181R,1.160000X0.040000*%
%ADD182R,0.440000X0.040000*%
%ADD183R,0.720000X0.040000*%
%ADD184R,0.360000X0.040000*%
%ADD185R,0.280000X0.040000*%
%ADD186R,1.240000X0.040000*%
%ADD187R,0.240000X0.040000*%
%ADD188R,0.800000X0.040000*%
%ADD189R,1.280000X0.040000*%
%ADD190R,0.080000X0.040000*%
%ADD191R,0.840000X0.040000*%
%ADD192R,0.320000X0.040000*%
%ADD193R,0.400000X0.040000*%
%ADD194R,0.480000X0.040000*%
%ADD195R,0.600000X0.040000*%
%ADD196R,0.200000X0.040000*%
%ADD197R,0.920000X0.040000*%
%ADD198R,3.000000X0.040000*%
%ADD199R,3.640000X0.040000*%
%ADD200R,3.720000X0.040000*%
%ADD201R,3.800000X0.040000*%
%ADD202R,1.000000X0.040000*%
%ADD203R,0.520000X0.040000*%
%ADD204R,0.960000X0.040000*%
%ADD205R,0.880000X0.040000*%
%ADD206R,1.040000X0.040000*%
%ADD207R,0.680000X0.040000*%
%ADD208R,0.640000X0.040000*%
%ADD209C,0.200000*%
%ADD210C,0.101600*%
%ADD211C,0.254000*%


D10*
X292100Y787400D02*
X292100Y762000D01*
X444500Y762000D02*
X444500Y787400D01*
X444500Y762000D02*
X292100Y762000D01*
D11*
X178308Y678265D02*
X171196Y678265D01*
X174752Y674709D02*
X174752Y681821D01*
X171196Y713825D02*
X178308Y713825D01*
X169900Y599200D02*
X169900Y569200D01*
X195900Y614200D02*
X212400Y614200D01*
X212400Y561700D02*
X212400Y554200D01*
X195900Y554200D01*
X212400Y606700D02*
X212400Y614200D01*
X217884Y609200D02*
X217886Y609263D01*
X217892Y609326D01*
X217902Y609389D01*
X217915Y609450D01*
X217933Y609511D01*
X217954Y609570D01*
X217979Y609629D01*
X218007Y609685D01*
X218039Y609740D01*
X218074Y609792D01*
X218113Y609842D01*
X218154Y609890D01*
X218199Y609935D01*
X218246Y609977D01*
X218295Y610016D01*
X218347Y610052D01*
X218401Y610085D01*
X218457Y610114D01*
X218515Y610140D01*
X218574Y610162D01*
X218634Y610181D01*
X218696Y610195D01*
X218758Y610206D01*
X218821Y610213D01*
X218884Y610216D01*
X218947Y610215D01*
X219010Y610210D01*
X219073Y610201D01*
X219135Y610188D01*
X219196Y610172D01*
X219256Y610152D01*
X219314Y610128D01*
X219371Y610100D01*
X219426Y610069D01*
X219479Y610035D01*
X219530Y609997D01*
X219578Y609956D01*
X219624Y609913D01*
X219667Y609866D01*
X219707Y609817D01*
X219744Y609766D01*
X219777Y609713D01*
X219807Y609657D01*
X219834Y609600D01*
X219857Y609541D01*
X219876Y609481D01*
X219892Y609419D01*
X219904Y609357D01*
X219912Y609295D01*
X219916Y609232D01*
X219916Y609168D01*
X219912Y609105D01*
X219904Y609043D01*
X219892Y608981D01*
X219876Y608919D01*
X219857Y608859D01*
X219834Y608800D01*
X219807Y608743D01*
X219777Y608687D01*
X219744Y608634D01*
X219707Y608583D01*
X219667Y608534D01*
X219624Y608487D01*
X219578Y608444D01*
X219530Y608403D01*
X219479Y608365D01*
X219426Y608331D01*
X219371Y608300D01*
X219314Y608272D01*
X219256Y608248D01*
X219196Y608228D01*
X219135Y608212D01*
X219073Y608199D01*
X219010Y608190D01*
X218947Y608185D01*
X218884Y608184D01*
X218821Y608187D01*
X218758Y608194D01*
X218696Y608205D01*
X218634Y608219D01*
X218574Y608238D01*
X218515Y608260D01*
X218457Y608286D01*
X218401Y608315D01*
X218347Y608348D01*
X218295Y608384D01*
X218246Y608423D01*
X218199Y608465D01*
X218154Y608510D01*
X218113Y608558D01*
X218074Y608608D01*
X218039Y608660D01*
X218007Y608715D01*
X217979Y608771D01*
X217954Y608830D01*
X217933Y608889D01*
X217915Y608950D01*
X217902Y609011D01*
X217892Y609074D01*
X217886Y609137D01*
X217884Y609200D01*
D12*
X198699Y591906D02*
X194945Y591906D01*
X198699Y591906D02*
X198764Y591904D01*
X198828Y591898D01*
X198892Y591888D01*
X198956Y591875D01*
X199018Y591857D01*
X199079Y591836D01*
X199139Y591812D01*
X199197Y591783D01*
X199254Y591751D01*
X199308Y591716D01*
X199360Y591678D01*
X199410Y591636D01*
X199457Y591592D01*
X199501Y591545D01*
X199543Y591495D01*
X199581Y591443D01*
X199616Y591389D01*
X199648Y591332D01*
X199677Y591274D01*
X199701Y591214D01*
X199722Y591153D01*
X199740Y591091D01*
X199753Y591027D01*
X199763Y590963D01*
X199769Y590899D01*
X199771Y590834D01*
X199771Y590297D01*
X196017Y594854D02*
X194945Y596194D01*
X199771Y596194D01*
X199771Y594854D02*
X199771Y597535D01*
X189004Y520319D02*
X187932Y520319D01*
X187867Y520321D01*
X187803Y520327D01*
X187739Y520337D01*
X187675Y520350D01*
X187613Y520368D01*
X187552Y520389D01*
X187492Y520413D01*
X187434Y520442D01*
X187377Y520474D01*
X187323Y520509D01*
X187271Y520547D01*
X187221Y520589D01*
X187174Y520633D01*
X187130Y520680D01*
X187088Y520730D01*
X187050Y520782D01*
X187015Y520836D01*
X186983Y520893D01*
X186954Y520951D01*
X186930Y521011D01*
X186909Y521072D01*
X186891Y521134D01*
X186878Y521198D01*
X186868Y521262D01*
X186862Y521326D01*
X186860Y521391D01*
X186859Y521391D02*
X186859Y524073D01*
X186860Y524073D02*
X186862Y524138D01*
X186868Y524202D01*
X186878Y524266D01*
X186891Y524330D01*
X186909Y524392D01*
X186930Y524453D01*
X186954Y524513D01*
X186983Y524571D01*
X187015Y524628D01*
X187050Y524682D01*
X187088Y524734D01*
X187130Y524784D01*
X187174Y524831D01*
X187221Y524875D01*
X187271Y524917D01*
X187323Y524955D01*
X187377Y524990D01*
X187434Y525022D01*
X187492Y525051D01*
X187552Y525075D01*
X187613Y525096D01*
X187675Y525114D01*
X187739Y525127D01*
X187803Y525137D01*
X187867Y525143D01*
X187932Y525145D01*
X189004Y525145D01*
X192934Y525145D02*
X193002Y525143D01*
X193069Y525137D01*
X193136Y525128D01*
X193203Y525115D01*
X193268Y525098D01*
X193333Y525077D01*
X193396Y525053D01*
X193458Y525025D01*
X193518Y524994D01*
X193576Y524960D01*
X193632Y524922D01*
X193687Y524882D01*
X193738Y524838D01*
X193787Y524791D01*
X193834Y524742D01*
X193878Y524691D01*
X193918Y524636D01*
X193956Y524580D01*
X193990Y524522D01*
X194021Y524462D01*
X194049Y524400D01*
X194073Y524337D01*
X194094Y524272D01*
X194111Y524207D01*
X194124Y524140D01*
X194133Y524073D01*
X194139Y524006D01*
X194141Y523938D01*
X192934Y525145D02*
X192856Y525143D01*
X192778Y525137D01*
X192701Y525127D01*
X192624Y525114D01*
X192548Y525096D01*
X192473Y525075D01*
X192399Y525050D01*
X192327Y525021D01*
X192256Y524989D01*
X192187Y524953D01*
X192119Y524914D01*
X192054Y524871D01*
X191991Y524825D01*
X191930Y524776D01*
X191872Y524724D01*
X191817Y524669D01*
X191764Y524612D01*
X191715Y524552D01*
X191668Y524489D01*
X191625Y524425D01*
X191585Y524358D01*
X191548Y524289D01*
X191515Y524218D01*
X191485Y524146D01*
X191459Y524073D01*
X193739Y523000D02*
X193788Y523049D01*
X193835Y523101D01*
X193878Y523156D01*
X193919Y523213D01*
X193957Y523272D01*
X193991Y523333D01*
X194022Y523396D01*
X194050Y523460D01*
X194074Y523526D01*
X194094Y523592D01*
X194111Y523660D01*
X194124Y523729D01*
X194133Y523798D01*
X194139Y523868D01*
X194141Y523938D01*
X193739Y523000D02*
X191460Y520319D01*
X194141Y520319D01*
X433705Y732548D02*
X438531Y732548D01*
X433705Y732548D02*
X433705Y733889D01*
X433707Y733960D01*
X433713Y734032D01*
X433722Y734102D01*
X433735Y734172D01*
X433752Y734242D01*
X433773Y734310D01*
X433797Y734377D01*
X433825Y734443D01*
X433856Y734507D01*
X433891Y734570D01*
X433929Y734630D01*
X433970Y734689D01*
X434014Y734745D01*
X434061Y734799D01*
X434110Y734850D01*
X434163Y734898D01*
X434218Y734944D01*
X434275Y734986D01*
X434335Y735026D01*
X434396Y735062D01*
X434460Y735095D01*
X434525Y735124D01*
X434591Y735150D01*
X434659Y735173D01*
X434728Y735192D01*
X434798Y735207D01*
X434868Y735218D01*
X434939Y735226D01*
X435010Y735230D01*
X435082Y735230D01*
X435153Y735226D01*
X435224Y735218D01*
X435294Y735207D01*
X435364Y735192D01*
X435433Y735173D01*
X435501Y735150D01*
X435567Y735124D01*
X435632Y735095D01*
X435696Y735062D01*
X435757Y735026D01*
X435817Y734986D01*
X435874Y734944D01*
X435929Y734898D01*
X435982Y734850D01*
X436031Y734799D01*
X436078Y734745D01*
X436122Y734689D01*
X436163Y734630D01*
X436201Y734570D01*
X436236Y734507D01*
X436267Y734443D01*
X436295Y734377D01*
X436319Y734310D01*
X436340Y734242D01*
X436357Y734172D01*
X436370Y734102D01*
X436379Y734032D01*
X436385Y733960D01*
X436387Y733889D01*
X436386Y733889D02*
X436386Y732548D01*
X436386Y734157D02*
X438531Y735229D01*
X435850Y737971D02*
X435850Y739579D01*
X435852Y739644D01*
X435858Y739708D01*
X435868Y739772D01*
X435881Y739836D01*
X435899Y739898D01*
X435920Y739959D01*
X435944Y740019D01*
X435973Y740077D01*
X436005Y740134D01*
X436040Y740188D01*
X436078Y740240D01*
X436120Y740290D01*
X436164Y740337D01*
X436211Y740381D01*
X436261Y740423D01*
X436313Y740461D01*
X436367Y740496D01*
X436424Y740528D01*
X436482Y740557D01*
X436542Y740581D01*
X436603Y740602D01*
X436665Y740620D01*
X436729Y740633D01*
X436793Y740643D01*
X436857Y740649D01*
X436922Y740651D01*
X436922Y740652D02*
X437190Y740652D01*
X437261Y740650D01*
X437333Y740644D01*
X437403Y740635D01*
X437473Y740622D01*
X437543Y740605D01*
X437611Y740584D01*
X437678Y740560D01*
X437744Y740532D01*
X437808Y740501D01*
X437871Y740466D01*
X437931Y740428D01*
X437990Y740387D01*
X438046Y740343D01*
X438100Y740296D01*
X438151Y740247D01*
X438199Y740194D01*
X438245Y740139D01*
X438287Y740082D01*
X438327Y740022D01*
X438363Y739961D01*
X438396Y739897D01*
X438425Y739832D01*
X438451Y739766D01*
X438474Y739698D01*
X438493Y739629D01*
X438508Y739559D01*
X438519Y739489D01*
X438527Y739418D01*
X438531Y739347D01*
X438531Y739275D01*
X438527Y739204D01*
X438519Y739133D01*
X438508Y739063D01*
X438493Y738993D01*
X438474Y738924D01*
X438451Y738856D01*
X438425Y738790D01*
X438396Y738725D01*
X438363Y738661D01*
X438327Y738600D01*
X438287Y738540D01*
X438245Y738483D01*
X438199Y738428D01*
X438151Y738375D01*
X438100Y738326D01*
X438046Y738279D01*
X437990Y738235D01*
X437931Y738194D01*
X437871Y738156D01*
X437808Y738121D01*
X437744Y738090D01*
X437678Y738062D01*
X437611Y738038D01*
X437543Y738017D01*
X437473Y738000D01*
X437403Y737987D01*
X437333Y737978D01*
X437261Y737972D01*
X437190Y737970D01*
X437190Y737971D02*
X435850Y737971D01*
X435759Y737973D01*
X435668Y737979D01*
X435578Y737988D01*
X435487Y738002D01*
X435398Y738019D01*
X435310Y738040D01*
X435222Y738065D01*
X435135Y738094D01*
X435050Y738126D01*
X434966Y738161D01*
X434884Y738201D01*
X434804Y738243D01*
X434725Y738289D01*
X434649Y738339D01*
X434575Y738391D01*
X434502Y738447D01*
X434433Y738506D01*
X434366Y738567D01*
X434301Y738632D01*
X434240Y738699D01*
X434181Y738768D01*
X434125Y738840D01*
X434073Y738915D01*
X434023Y738991D01*
X433977Y739070D01*
X433935Y739150D01*
X433895Y739232D01*
X433860Y739316D01*
X433828Y739401D01*
X433799Y739488D01*
X433774Y739575D01*
X433753Y739664D01*
X433736Y739753D01*
X433722Y739843D01*
X433713Y739934D01*
X433707Y740025D01*
X433705Y740116D01*
X423545Y732548D02*
X418719Y732548D01*
X418719Y733889D01*
X418721Y733960D01*
X418727Y734032D01*
X418736Y734102D01*
X418749Y734172D01*
X418766Y734242D01*
X418787Y734310D01*
X418811Y734377D01*
X418839Y734443D01*
X418870Y734507D01*
X418905Y734570D01*
X418943Y734630D01*
X418984Y734689D01*
X419028Y734745D01*
X419075Y734799D01*
X419124Y734850D01*
X419177Y734898D01*
X419232Y734944D01*
X419289Y734986D01*
X419349Y735026D01*
X419410Y735062D01*
X419474Y735095D01*
X419539Y735124D01*
X419605Y735150D01*
X419673Y735173D01*
X419742Y735192D01*
X419812Y735207D01*
X419882Y735218D01*
X419953Y735226D01*
X420024Y735230D01*
X420096Y735230D01*
X420167Y735226D01*
X420238Y735218D01*
X420308Y735207D01*
X420378Y735192D01*
X420447Y735173D01*
X420515Y735150D01*
X420581Y735124D01*
X420646Y735095D01*
X420710Y735062D01*
X420771Y735026D01*
X420831Y734986D01*
X420888Y734944D01*
X420943Y734898D01*
X420996Y734850D01*
X421045Y734799D01*
X421092Y734745D01*
X421136Y734689D01*
X421177Y734630D01*
X421215Y734570D01*
X421250Y734507D01*
X421281Y734443D01*
X421309Y734377D01*
X421333Y734310D01*
X421354Y734242D01*
X421371Y734172D01*
X421384Y734102D01*
X421393Y734032D01*
X421399Y733960D01*
X421401Y733889D01*
X421400Y733889D02*
X421400Y732548D01*
X421400Y734157D02*
X423545Y735229D01*
X419255Y737971D02*
X418719Y737971D01*
X418719Y740652D01*
X423545Y739311D01*
X220345Y759432D02*
X220345Y760504D01*
X220345Y759432D02*
X220343Y759367D01*
X220337Y759303D01*
X220327Y759239D01*
X220314Y759175D01*
X220296Y759113D01*
X220275Y759052D01*
X220251Y758992D01*
X220222Y758934D01*
X220190Y758877D01*
X220155Y758823D01*
X220117Y758771D01*
X220075Y758721D01*
X220031Y758674D01*
X219984Y758630D01*
X219934Y758588D01*
X219882Y758550D01*
X219828Y758515D01*
X219771Y758483D01*
X219713Y758454D01*
X219653Y758430D01*
X219592Y758409D01*
X219530Y758391D01*
X219466Y758378D01*
X219402Y758368D01*
X219338Y758362D01*
X219273Y758360D01*
X219273Y758359D02*
X216591Y758359D01*
X216526Y758361D01*
X216462Y758367D01*
X216398Y758377D01*
X216334Y758390D01*
X216272Y758408D01*
X216211Y758429D01*
X216151Y758454D01*
X216092Y758482D01*
X216036Y758514D01*
X215981Y758549D01*
X215929Y758587D01*
X215879Y758629D01*
X215832Y758673D01*
X215788Y758720D01*
X215746Y758770D01*
X215708Y758822D01*
X215673Y758877D01*
X215641Y758933D01*
X215613Y758992D01*
X215588Y759051D01*
X215567Y759113D01*
X215549Y759175D01*
X215536Y759239D01*
X215526Y759303D01*
X215520Y759367D01*
X215518Y759432D01*
X215519Y759432D02*
X215519Y760504D01*
X216591Y762960D02*
X215519Y764300D01*
X220345Y764300D01*
X220345Y762960D02*
X220345Y765641D01*
X215055Y679803D02*
X213291Y679803D01*
X215055Y679803D02*
X215138Y679801D01*
X215220Y679795D01*
X215302Y679786D01*
X215384Y679772D01*
X215465Y679755D01*
X215545Y679734D01*
X215624Y679709D01*
X215701Y679680D01*
X215778Y679648D01*
X215852Y679613D01*
X215925Y679574D01*
X215996Y679531D01*
X216065Y679485D01*
X216132Y679436D01*
X216196Y679384D01*
X216258Y679329D01*
X216317Y679272D01*
X216373Y679211D01*
X216427Y679148D01*
X216477Y679083D01*
X216525Y679015D01*
X216569Y678945D01*
X216609Y678873D01*
X216647Y678799D01*
X216681Y678724D01*
X216711Y678647D01*
X216738Y678568D01*
X216761Y678489D01*
X216780Y678408D01*
X216795Y678327D01*
X216807Y678245D01*
X216815Y678163D01*
X216819Y678080D01*
X216819Y677998D01*
X216815Y677915D01*
X216807Y677833D01*
X216795Y677751D01*
X216780Y677670D01*
X216761Y677589D01*
X216738Y677510D01*
X216711Y677431D01*
X216681Y677354D01*
X216647Y677279D01*
X216609Y677205D01*
X216569Y677133D01*
X216525Y677063D01*
X216477Y676995D01*
X216427Y676930D01*
X216373Y676867D01*
X216317Y676806D01*
X216258Y676749D01*
X216196Y676694D01*
X216132Y676642D01*
X216065Y676593D01*
X215996Y676547D01*
X215925Y676504D01*
X215852Y676465D01*
X215778Y676430D01*
X215701Y676398D01*
X215624Y676369D01*
X215545Y676344D01*
X215465Y676323D01*
X215384Y676306D01*
X215302Y676292D01*
X215220Y676283D01*
X215138Y676277D01*
X215055Y676275D01*
X213291Y676275D01*
X213291Y682625D01*
X215055Y682625D01*
X215129Y682623D01*
X215202Y682617D01*
X215276Y682608D01*
X215348Y682594D01*
X215420Y682577D01*
X215491Y682556D01*
X215561Y682531D01*
X215629Y682503D01*
X215696Y682471D01*
X215760Y682436D01*
X215823Y682397D01*
X215884Y682356D01*
X215943Y682311D01*
X215999Y682263D01*
X216053Y682212D01*
X216104Y682158D01*
X216152Y682102D01*
X216197Y682043D01*
X216238Y681982D01*
X216277Y681920D01*
X216312Y681855D01*
X216344Y681788D01*
X216372Y681720D01*
X216397Y681650D01*
X216418Y681579D01*
X216435Y681507D01*
X216449Y681435D01*
X216458Y681361D01*
X216464Y681288D01*
X216466Y681214D01*
X216464Y681140D01*
X216458Y681067D01*
X216449Y680993D01*
X216435Y680921D01*
X216418Y680849D01*
X216397Y680778D01*
X216372Y680708D01*
X216344Y680640D01*
X216312Y680573D01*
X216277Y680509D01*
X216238Y680446D01*
X216197Y680385D01*
X216152Y680326D01*
X216104Y680270D01*
X216053Y680216D01*
X215999Y680165D01*
X215943Y680117D01*
X215884Y680072D01*
X215823Y680031D01*
X215761Y679992D01*
X215696Y679957D01*
X215629Y679925D01*
X215561Y679897D01*
X215491Y679872D01*
X215420Y679851D01*
X215348Y679834D01*
X215276Y679820D01*
X215202Y679811D01*
X215129Y679805D01*
X215055Y679803D01*
X221070Y682625D02*
X221070Y676275D01*
X219307Y682625D02*
X222834Y682625D01*
X225707Y681214D02*
X227471Y682625D01*
X227471Y676275D01*
X225707Y676275D02*
X229235Y676275D01*
X503555Y460768D02*
X508381Y460768D01*
X503555Y460768D02*
X503555Y462109D01*
X503557Y462180D01*
X503563Y462252D01*
X503572Y462322D01*
X503585Y462392D01*
X503602Y462462D01*
X503623Y462530D01*
X503647Y462597D01*
X503675Y462663D01*
X503706Y462727D01*
X503741Y462790D01*
X503779Y462850D01*
X503820Y462909D01*
X503864Y462965D01*
X503911Y463019D01*
X503960Y463070D01*
X504013Y463118D01*
X504068Y463164D01*
X504125Y463206D01*
X504185Y463246D01*
X504246Y463282D01*
X504310Y463315D01*
X504375Y463344D01*
X504441Y463370D01*
X504509Y463393D01*
X504578Y463412D01*
X504648Y463427D01*
X504718Y463438D01*
X504789Y463446D01*
X504860Y463450D01*
X504932Y463450D01*
X505003Y463446D01*
X505074Y463438D01*
X505144Y463427D01*
X505214Y463412D01*
X505283Y463393D01*
X505351Y463370D01*
X505417Y463344D01*
X505482Y463315D01*
X505546Y463282D01*
X505607Y463246D01*
X505667Y463206D01*
X505724Y463164D01*
X505779Y463118D01*
X505832Y463070D01*
X505881Y463019D01*
X505928Y462965D01*
X505972Y462909D01*
X506013Y462850D01*
X506051Y462790D01*
X506086Y462727D01*
X506117Y462663D01*
X506145Y462597D01*
X506169Y462530D01*
X506190Y462462D01*
X506207Y462392D01*
X506220Y462322D01*
X506229Y462252D01*
X506235Y462180D01*
X506237Y462109D01*
X506236Y462109D02*
X506236Y460768D01*
X506236Y462377D02*
X508381Y463449D01*
X507040Y466190D02*
X506969Y466192D01*
X506897Y466198D01*
X506827Y466207D01*
X506757Y466220D01*
X506687Y466237D01*
X506619Y466258D01*
X506552Y466282D01*
X506486Y466310D01*
X506422Y466341D01*
X506359Y466376D01*
X506299Y466414D01*
X506240Y466455D01*
X506184Y466499D01*
X506130Y466546D01*
X506079Y466595D01*
X506031Y466648D01*
X505985Y466703D01*
X505943Y466760D01*
X505903Y466820D01*
X505867Y466881D01*
X505834Y466945D01*
X505805Y467010D01*
X505779Y467076D01*
X505756Y467144D01*
X505737Y467213D01*
X505722Y467283D01*
X505711Y467353D01*
X505703Y467424D01*
X505699Y467495D01*
X505699Y467567D01*
X505703Y467638D01*
X505711Y467709D01*
X505722Y467779D01*
X505737Y467849D01*
X505756Y467918D01*
X505779Y467986D01*
X505805Y468052D01*
X505834Y468117D01*
X505867Y468181D01*
X505903Y468242D01*
X505943Y468302D01*
X505985Y468359D01*
X506031Y468414D01*
X506079Y468467D01*
X506130Y468516D01*
X506184Y468563D01*
X506240Y468607D01*
X506299Y468648D01*
X506359Y468686D01*
X506422Y468721D01*
X506486Y468752D01*
X506552Y468780D01*
X506619Y468804D01*
X506687Y468825D01*
X506757Y468842D01*
X506827Y468855D01*
X506897Y468864D01*
X506969Y468870D01*
X507040Y468872D01*
X507111Y468870D01*
X507183Y468864D01*
X507253Y468855D01*
X507323Y468842D01*
X507393Y468825D01*
X507461Y468804D01*
X507528Y468780D01*
X507594Y468752D01*
X507658Y468721D01*
X507721Y468686D01*
X507781Y468648D01*
X507840Y468607D01*
X507896Y468563D01*
X507950Y468516D01*
X508001Y468467D01*
X508049Y468414D01*
X508095Y468359D01*
X508137Y468302D01*
X508177Y468242D01*
X508213Y468181D01*
X508246Y468117D01*
X508275Y468052D01*
X508301Y467986D01*
X508324Y467918D01*
X508343Y467849D01*
X508358Y467779D01*
X508369Y467709D01*
X508377Y467638D01*
X508381Y467567D01*
X508381Y467495D01*
X508377Y467424D01*
X508369Y467353D01*
X508358Y467283D01*
X508343Y467213D01*
X508324Y467144D01*
X508301Y467076D01*
X508275Y467010D01*
X508246Y466945D01*
X508213Y466881D01*
X508177Y466820D01*
X508137Y466760D01*
X508095Y466703D01*
X508049Y466648D01*
X508001Y466595D01*
X507950Y466546D01*
X507896Y466499D01*
X507840Y466455D01*
X507781Y466414D01*
X507721Y466376D01*
X507658Y466341D01*
X507594Y466310D01*
X507528Y466282D01*
X507461Y466258D01*
X507393Y466237D01*
X507323Y466220D01*
X507253Y466207D01*
X507183Y466198D01*
X507111Y466192D01*
X507040Y466190D01*
X504627Y466459D02*
X504562Y466461D01*
X504498Y466467D01*
X504434Y466477D01*
X504370Y466490D01*
X504308Y466508D01*
X504247Y466529D01*
X504187Y466553D01*
X504129Y466582D01*
X504072Y466614D01*
X504018Y466649D01*
X503966Y466687D01*
X503916Y466729D01*
X503869Y466773D01*
X503825Y466820D01*
X503783Y466870D01*
X503745Y466922D01*
X503710Y466976D01*
X503678Y467033D01*
X503649Y467091D01*
X503625Y467151D01*
X503604Y467212D01*
X503586Y467274D01*
X503573Y467338D01*
X503563Y467402D01*
X503557Y467466D01*
X503555Y467531D01*
X503557Y467596D01*
X503563Y467660D01*
X503573Y467724D01*
X503586Y467788D01*
X503604Y467850D01*
X503625Y467911D01*
X503649Y467971D01*
X503678Y468029D01*
X503710Y468086D01*
X503745Y468140D01*
X503783Y468192D01*
X503825Y468242D01*
X503869Y468289D01*
X503916Y468333D01*
X503966Y468375D01*
X504018Y468413D01*
X504072Y468448D01*
X504129Y468480D01*
X504187Y468509D01*
X504247Y468533D01*
X504308Y468554D01*
X504370Y468572D01*
X504434Y468585D01*
X504498Y468595D01*
X504562Y468601D01*
X504627Y468603D01*
X504692Y468601D01*
X504756Y468595D01*
X504820Y468585D01*
X504884Y468572D01*
X504946Y468554D01*
X505007Y468533D01*
X505067Y468509D01*
X505125Y468480D01*
X505182Y468448D01*
X505236Y468413D01*
X505288Y468375D01*
X505338Y468333D01*
X505385Y468289D01*
X505429Y468242D01*
X505471Y468192D01*
X505509Y468140D01*
X505544Y468086D01*
X505576Y468029D01*
X505605Y467971D01*
X505629Y467911D01*
X505650Y467850D01*
X505668Y467788D01*
X505681Y467724D01*
X505691Y467660D01*
X505697Y467596D01*
X505699Y467531D01*
X505697Y467466D01*
X505691Y467402D01*
X505681Y467338D01*
X505668Y467274D01*
X505650Y467212D01*
X505629Y467151D01*
X505605Y467091D01*
X505576Y467033D01*
X505544Y466976D01*
X505509Y466922D01*
X505471Y466870D01*
X505429Y466820D01*
X505385Y466773D01*
X505338Y466729D01*
X505288Y466687D01*
X505236Y466649D01*
X505182Y466614D01*
X505125Y466582D01*
X505067Y466553D01*
X505007Y466529D01*
X504946Y466508D01*
X504884Y466490D01*
X504820Y466477D01*
X504756Y466467D01*
X504692Y466461D01*
X504627Y466459D01*
X554355Y462038D02*
X559181Y462038D01*
X554355Y462038D02*
X554355Y463379D01*
X554357Y463450D01*
X554363Y463522D01*
X554372Y463592D01*
X554385Y463662D01*
X554402Y463732D01*
X554423Y463800D01*
X554447Y463867D01*
X554475Y463933D01*
X554506Y463997D01*
X554541Y464060D01*
X554579Y464120D01*
X554620Y464179D01*
X554664Y464235D01*
X554711Y464289D01*
X554760Y464340D01*
X554813Y464388D01*
X554868Y464434D01*
X554925Y464476D01*
X554985Y464516D01*
X555046Y464552D01*
X555110Y464585D01*
X555175Y464614D01*
X555241Y464640D01*
X555309Y464663D01*
X555378Y464682D01*
X555448Y464697D01*
X555518Y464708D01*
X555589Y464716D01*
X555660Y464720D01*
X555732Y464720D01*
X555803Y464716D01*
X555874Y464708D01*
X555944Y464697D01*
X556014Y464682D01*
X556083Y464663D01*
X556151Y464640D01*
X556217Y464614D01*
X556282Y464585D01*
X556346Y464552D01*
X556407Y464516D01*
X556467Y464476D01*
X556524Y464434D01*
X556579Y464388D01*
X556632Y464340D01*
X556681Y464289D01*
X556728Y464235D01*
X556772Y464179D01*
X556813Y464120D01*
X556851Y464060D01*
X556886Y463997D01*
X556917Y463933D01*
X556945Y463867D01*
X556969Y463800D01*
X556990Y463732D01*
X557007Y463662D01*
X557020Y463592D01*
X557029Y463522D01*
X557035Y463450D01*
X557037Y463379D01*
X557036Y463379D02*
X557036Y462038D01*
X557036Y463647D02*
X559181Y464719D01*
X557036Y468533D02*
X557036Y470142D01*
X557036Y468533D02*
X557034Y468468D01*
X557028Y468404D01*
X557018Y468340D01*
X557005Y468276D01*
X556987Y468214D01*
X556966Y468153D01*
X556942Y468093D01*
X556913Y468035D01*
X556881Y467978D01*
X556846Y467924D01*
X556808Y467872D01*
X556766Y467822D01*
X556722Y467775D01*
X556675Y467731D01*
X556625Y467689D01*
X556573Y467651D01*
X556519Y467616D01*
X556462Y467584D01*
X556404Y467555D01*
X556344Y467531D01*
X556283Y467510D01*
X556221Y467492D01*
X556157Y467479D01*
X556093Y467469D01*
X556029Y467463D01*
X555964Y467461D01*
X555696Y467461D01*
X555696Y467460D02*
X555625Y467462D01*
X555553Y467468D01*
X555483Y467477D01*
X555413Y467490D01*
X555343Y467507D01*
X555275Y467528D01*
X555208Y467552D01*
X555142Y467580D01*
X555078Y467611D01*
X555015Y467646D01*
X554955Y467684D01*
X554896Y467725D01*
X554840Y467769D01*
X554786Y467816D01*
X554735Y467865D01*
X554687Y467918D01*
X554641Y467973D01*
X554599Y468030D01*
X554559Y468090D01*
X554523Y468151D01*
X554490Y468215D01*
X554461Y468280D01*
X554435Y468346D01*
X554412Y468414D01*
X554393Y468483D01*
X554378Y468553D01*
X554367Y468623D01*
X554359Y468694D01*
X554355Y468765D01*
X554355Y468837D01*
X554359Y468908D01*
X554367Y468979D01*
X554378Y469049D01*
X554393Y469119D01*
X554412Y469188D01*
X554435Y469256D01*
X554461Y469322D01*
X554490Y469387D01*
X554523Y469451D01*
X554559Y469512D01*
X554599Y469572D01*
X554641Y469629D01*
X554687Y469684D01*
X554735Y469737D01*
X554786Y469786D01*
X554840Y469833D01*
X554896Y469877D01*
X554955Y469918D01*
X555015Y469956D01*
X555078Y469991D01*
X555142Y470022D01*
X555208Y470050D01*
X555275Y470074D01*
X555343Y470095D01*
X555413Y470112D01*
X555483Y470125D01*
X555553Y470134D01*
X555625Y470140D01*
X555696Y470142D01*
X557036Y470142D01*
X557127Y470140D01*
X557218Y470134D01*
X557308Y470125D01*
X557399Y470111D01*
X557488Y470094D01*
X557576Y470073D01*
X557664Y470048D01*
X557751Y470019D01*
X557836Y469987D01*
X557920Y469952D01*
X558002Y469912D01*
X558082Y469870D01*
X558161Y469824D01*
X558237Y469774D01*
X558311Y469722D01*
X558384Y469666D01*
X558453Y469607D01*
X558520Y469546D01*
X558585Y469481D01*
X558646Y469414D01*
X558705Y469345D01*
X558761Y469272D01*
X558813Y469198D01*
X558863Y469122D01*
X558909Y469043D01*
X558951Y468963D01*
X558991Y468881D01*
X559026Y468797D01*
X559058Y468712D01*
X559087Y468625D01*
X559112Y468537D01*
X559133Y468449D01*
X559150Y468360D01*
X559164Y468269D01*
X559173Y468179D01*
X559179Y468088D01*
X559181Y467997D01*
D11*
X533400Y467360D02*
X508000Y467360D01*
X503428Y451612D02*
X503430Y451479D01*
X503436Y451346D01*
X503445Y451214D01*
X503459Y451081D01*
X503476Y450949D01*
X503497Y450818D01*
X503522Y450687D01*
X503551Y450558D01*
X503584Y450429D01*
X503620Y450301D01*
X503660Y450174D01*
X503704Y450048D01*
X503751Y449924D01*
X503802Y449801D01*
X503856Y449680D01*
X503914Y449560D01*
X503976Y449442D01*
X504041Y449326D01*
X504109Y449212D01*
X504180Y449100D01*
X504255Y448990D01*
X504333Y448882D01*
X504414Y448776D01*
X504498Y448673D01*
X504585Y448573D01*
X504674Y448475D01*
X504767Y448379D01*
X504863Y448286D01*
X504961Y448197D01*
X505061Y448110D01*
X505164Y448026D01*
X505270Y447945D01*
X505378Y447867D01*
X505488Y447792D01*
X505600Y447721D01*
X505714Y447653D01*
X505830Y447588D01*
X505948Y447526D01*
X506068Y447468D01*
X506189Y447414D01*
X506312Y447363D01*
X506436Y447316D01*
X506562Y447272D01*
X506689Y447232D01*
X506817Y447196D01*
X506946Y447163D01*
X507075Y447134D01*
X507206Y447109D01*
X507337Y447088D01*
X507469Y447071D01*
X507602Y447057D01*
X507734Y447048D01*
X507867Y447042D01*
X508000Y447040D01*
X533400Y447040D02*
X533533Y447042D01*
X533666Y447048D01*
X533798Y447057D01*
X533931Y447071D01*
X534063Y447088D01*
X534194Y447109D01*
X534325Y447134D01*
X534454Y447163D01*
X534583Y447196D01*
X534711Y447232D01*
X534838Y447272D01*
X534964Y447316D01*
X535088Y447363D01*
X535211Y447414D01*
X535332Y447468D01*
X535452Y447526D01*
X535570Y447588D01*
X535686Y447653D01*
X535800Y447721D01*
X535912Y447792D01*
X536022Y447867D01*
X536130Y447945D01*
X536236Y448026D01*
X536339Y448110D01*
X536439Y448197D01*
X536537Y448286D01*
X536633Y448379D01*
X536726Y448475D01*
X536815Y448573D01*
X536902Y448673D01*
X536986Y448776D01*
X537067Y448882D01*
X537145Y448990D01*
X537220Y449100D01*
X537291Y449212D01*
X537359Y449326D01*
X537424Y449442D01*
X537486Y449560D01*
X537544Y449680D01*
X537598Y449801D01*
X537649Y449924D01*
X537696Y450048D01*
X537740Y450174D01*
X537780Y450301D01*
X537816Y450429D01*
X537849Y450558D01*
X537878Y450687D01*
X537903Y450818D01*
X537924Y450949D01*
X537941Y451081D01*
X537955Y451214D01*
X537964Y451346D01*
X537970Y451479D01*
X537972Y451612D01*
X537972Y462788D02*
X537970Y462921D01*
X537964Y463054D01*
X537955Y463186D01*
X537941Y463319D01*
X537924Y463451D01*
X537903Y463582D01*
X537878Y463713D01*
X537849Y463842D01*
X537816Y463971D01*
X537780Y464099D01*
X537740Y464226D01*
X537696Y464352D01*
X537649Y464476D01*
X537598Y464599D01*
X537544Y464720D01*
X537486Y464840D01*
X537424Y464958D01*
X537359Y465074D01*
X537291Y465188D01*
X537220Y465300D01*
X537145Y465410D01*
X537067Y465518D01*
X536986Y465624D01*
X536902Y465727D01*
X536815Y465827D01*
X536726Y465925D01*
X536633Y466021D01*
X536537Y466114D01*
X536439Y466203D01*
X536339Y466290D01*
X536236Y466374D01*
X536130Y466455D01*
X536022Y466533D01*
X535912Y466608D01*
X535800Y466679D01*
X535686Y466747D01*
X535570Y466812D01*
X535452Y466874D01*
X535332Y466932D01*
X535211Y466986D01*
X535088Y467037D01*
X534964Y467084D01*
X534838Y467128D01*
X534711Y467168D01*
X534583Y467204D01*
X534454Y467237D01*
X534325Y467266D01*
X534194Y467291D01*
X534063Y467312D01*
X533931Y467329D01*
X533798Y467343D01*
X533666Y467352D01*
X533533Y467358D01*
X533400Y467360D01*
X508000Y467360D02*
X507867Y467358D01*
X507734Y467352D01*
X507602Y467343D01*
X507469Y467329D01*
X507337Y467312D01*
X507206Y467291D01*
X507075Y467266D01*
X506946Y467237D01*
X506817Y467204D01*
X506689Y467168D01*
X506562Y467128D01*
X506436Y467084D01*
X506312Y467037D01*
X506189Y466986D01*
X506068Y466932D01*
X505948Y466874D01*
X505830Y466812D01*
X505714Y466747D01*
X505600Y466679D01*
X505488Y466608D01*
X505378Y466533D01*
X505270Y466455D01*
X505164Y466374D01*
X505061Y466290D01*
X504961Y466203D01*
X504863Y466114D01*
X504767Y466021D01*
X504674Y465925D01*
X504585Y465827D01*
X504498Y465727D01*
X504414Y465624D01*
X504333Y465518D01*
X504255Y465410D01*
X504180Y465300D01*
X504109Y465188D01*
X504041Y465074D01*
X503976Y464958D01*
X503914Y464840D01*
X503856Y464720D01*
X503802Y464599D01*
X503751Y464476D01*
X503704Y464352D01*
X503660Y464226D01*
X503620Y464099D01*
X503584Y463971D01*
X503551Y463842D01*
X503522Y463713D01*
X503497Y463582D01*
X503476Y463451D01*
X503459Y463319D01*
X503445Y463186D01*
X503436Y463054D01*
X503430Y462921D01*
X503428Y462788D01*
X503428Y451612D01*
X537972Y451612D02*
X537972Y462788D01*
X533400Y447040D02*
X508000Y447040D01*
D12*
X515947Y445135D02*
X515947Y441381D01*
X515946Y441381D02*
X515944Y441316D01*
X515938Y441252D01*
X515928Y441188D01*
X515915Y441124D01*
X515897Y441062D01*
X515876Y441001D01*
X515852Y440941D01*
X515823Y440883D01*
X515791Y440826D01*
X515756Y440772D01*
X515718Y440720D01*
X515676Y440670D01*
X515632Y440623D01*
X515585Y440579D01*
X515535Y440537D01*
X515483Y440499D01*
X515429Y440464D01*
X515372Y440432D01*
X515314Y440403D01*
X515254Y440379D01*
X515193Y440358D01*
X515131Y440340D01*
X515067Y440327D01*
X515003Y440317D01*
X514939Y440311D01*
X514874Y440309D01*
X514338Y440309D01*
X519224Y440309D02*
X519224Y445135D01*
X520564Y445135D01*
X520635Y445133D01*
X520707Y445127D01*
X520777Y445118D01*
X520847Y445105D01*
X520917Y445088D01*
X520985Y445067D01*
X521052Y445043D01*
X521118Y445015D01*
X521182Y444984D01*
X521245Y444949D01*
X521305Y444911D01*
X521364Y444870D01*
X521420Y444826D01*
X521474Y444779D01*
X521525Y444730D01*
X521573Y444677D01*
X521619Y444622D01*
X521661Y444565D01*
X521701Y444505D01*
X521737Y444444D01*
X521770Y444380D01*
X521799Y444315D01*
X521825Y444249D01*
X521848Y444181D01*
X521867Y444112D01*
X521882Y444042D01*
X521893Y443972D01*
X521901Y443901D01*
X521905Y443830D01*
X521905Y443758D01*
X521901Y443687D01*
X521893Y443616D01*
X521882Y443546D01*
X521867Y443476D01*
X521848Y443407D01*
X521825Y443339D01*
X521799Y443273D01*
X521770Y443208D01*
X521737Y443144D01*
X521701Y443083D01*
X521661Y443023D01*
X521619Y442966D01*
X521573Y442911D01*
X521525Y442858D01*
X521474Y442809D01*
X521420Y442762D01*
X521364Y442718D01*
X521305Y442677D01*
X521245Y442639D01*
X521182Y442604D01*
X521118Y442573D01*
X521052Y442545D01*
X520985Y442521D01*
X520917Y442500D01*
X520847Y442483D01*
X520777Y442470D01*
X520707Y442461D01*
X520635Y442455D01*
X520564Y442453D01*
X520564Y442454D02*
X519224Y442454D01*
X524381Y440309D02*
X525721Y440309D01*
X525792Y440311D01*
X525864Y440317D01*
X525934Y440326D01*
X526004Y440339D01*
X526074Y440356D01*
X526142Y440377D01*
X526209Y440401D01*
X526275Y440429D01*
X526339Y440460D01*
X526402Y440495D01*
X526462Y440533D01*
X526521Y440574D01*
X526577Y440618D01*
X526631Y440665D01*
X526682Y440714D01*
X526730Y440767D01*
X526776Y440822D01*
X526818Y440879D01*
X526858Y440939D01*
X526894Y441000D01*
X526927Y441064D01*
X526956Y441129D01*
X526982Y441195D01*
X527005Y441263D01*
X527024Y441332D01*
X527039Y441402D01*
X527050Y441472D01*
X527058Y441543D01*
X527062Y441614D01*
X527062Y441686D01*
X527058Y441757D01*
X527050Y441828D01*
X527039Y441898D01*
X527024Y441968D01*
X527005Y442037D01*
X526982Y442105D01*
X526956Y442171D01*
X526927Y442236D01*
X526894Y442300D01*
X526858Y442361D01*
X526818Y442421D01*
X526776Y442478D01*
X526730Y442533D01*
X526682Y442586D01*
X526631Y442635D01*
X526577Y442682D01*
X526521Y442726D01*
X526462Y442767D01*
X526402Y442805D01*
X526339Y442840D01*
X526275Y442871D01*
X526209Y442899D01*
X526142Y442923D01*
X526074Y442944D01*
X526004Y442961D01*
X525934Y442974D01*
X525864Y442983D01*
X525792Y442989D01*
X525721Y442991D01*
X525990Y445135D02*
X524381Y445135D01*
X525990Y445135D02*
X526055Y445133D01*
X526119Y445127D01*
X526183Y445117D01*
X526247Y445104D01*
X526309Y445086D01*
X526370Y445065D01*
X526430Y445041D01*
X526488Y445012D01*
X526545Y444980D01*
X526599Y444945D01*
X526651Y444907D01*
X526701Y444865D01*
X526748Y444821D01*
X526792Y444774D01*
X526834Y444724D01*
X526872Y444672D01*
X526907Y444618D01*
X526939Y444561D01*
X526968Y444503D01*
X526992Y444443D01*
X527013Y444382D01*
X527031Y444320D01*
X527044Y444256D01*
X527054Y444192D01*
X527060Y444128D01*
X527062Y444063D01*
X527060Y443998D01*
X527054Y443934D01*
X527044Y443870D01*
X527031Y443806D01*
X527013Y443744D01*
X526992Y443683D01*
X526968Y443623D01*
X526939Y443565D01*
X526907Y443508D01*
X526872Y443454D01*
X526834Y443402D01*
X526792Y443352D01*
X526748Y443305D01*
X526701Y443261D01*
X526651Y443219D01*
X526599Y443181D01*
X526545Y443146D01*
X526488Y443114D01*
X526430Y443085D01*
X526370Y443061D01*
X526309Y443040D01*
X526247Y443022D01*
X526183Y443009D01*
X526119Y442999D01*
X526055Y442993D01*
X525990Y442991D01*
X525990Y442990D02*
X524917Y442990D01*
D11*
X201613Y466725D02*
X192088Y466725D01*
D12*
X203835Y478425D02*
X208661Y478425D01*
X203835Y478425D02*
X203835Y479765D01*
X203837Y479835D01*
X203842Y479905D01*
X203852Y479975D01*
X203864Y480044D01*
X203881Y480112D01*
X203901Y480179D01*
X203924Y480246D01*
X203951Y480310D01*
X203981Y480374D01*
X204015Y480436D01*
X204051Y480495D01*
X204091Y480553D01*
X204134Y480609D01*
X204179Y480662D01*
X204228Y480713D01*
X204279Y480762D01*
X204332Y480807D01*
X204388Y480850D01*
X204446Y480890D01*
X204506Y480926D01*
X204567Y480960D01*
X204631Y480990D01*
X204695Y481017D01*
X204762Y481040D01*
X204829Y481060D01*
X204897Y481077D01*
X204966Y481089D01*
X205036Y481099D01*
X205106Y481104D01*
X205176Y481106D01*
X207320Y481106D01*
X207390Y481104D01*
X207460Y481099D01*
X207530Y481089D01*
X207599Y481077D01*
X207667Y481060D01*
X207734Y481040D01*
X207801Y481017D01*
X207865Y480990D01*
X207929Y480960D01*
X207991Y480926D01*
X208050Y480890D01*
X208108Y480850D01*
X208164Y480807D01*
X208217Y480762D01*
X208268Y480713D01*
X208317Y480662D01*
X208362Y480609D01*
X208405Y480553D01*
X208445Y480495D01*
X208481Y480435D01*
X208515Y480374D01*
X208545Y480310D01*
X208572Y480246D01*
X208595Y480179D01*
X208615Y480112D01*
X208632Y480044D01*
X208644Y479975D01*
X208654Y479905D01*
X208659Y479835D01*
X208661Y479765D01*
X208661Y478425D01*
X204907Y484094D02*
X203835Y485435D01*
X208661Y485435D01*
X208661Y486775D02*
X208661Y484094D01*
D13*
X233680Y472440D02*
X248920Y472440D01*
X253492Y488188D02*
X253490Y488321D01*
X253484Y488454D01*
X253475Y488586D01*
X253461Y488719D01*
X253444Y488851D01*
X253423Y488982D01*
X253398Y489113D01*
X253369Y489242D01*
X253336Y489371D01*
X253300Y489499D01*
X253260Y489626D01*
X253216Y489752D01*
X253169Y489876D01*
X253118Y489999D01*
X253064Y490120D01*
X253006Y490240D01*
X252944Y490358D01*
X252879Y490474D01*
X252811Y490588D01*
X252740Y490700D01*
X252665Y490810D01*
X252587Y490918D01*
X252506Y491024D01*
X252422Y491127D01*
X252335Y491227D01*
X252246Y491325D01*
X252153Y491421D01*
X252057Y491514D01*
X251959Y491603D01*
X251859Y491690D01*
X251756Y491774D01*
X251650Y491855D01*
X251542Y491933D01*
X251432Y492008D01*
X251320Y492079D01*
X251206Y492147D01*
X251090Y492212D01*
X250972Y492274D01*
X250852Y492332D01*
X250731Y492386D01*
X250608Y492437D01*
X250484Y492484D01*
X250358Y492528D01*
X250231Y492568D01*
X250103Y492604D01*
X249974Y492637D01*
X249845Y492666D01*
X249714Y492691D01*
X249583Y492712D01*
X249451Y492729D01*
X249318Y492743D01*
X249186Y492752D01*
X249053Y492758D01*
X248920Y492760D01*
X233680Y492760D02*
X233547Y492758D01*
X233414Y492752D01*
X233282Y492743D01*
X233149Y492729D01*
X233017Y492712D01*
X232886Y492691D01*
X232755Y492666D01*
X232626Y492637D01*
X232497Y492604D01*
X232369Y492568D01*
X232242Y492528D01*
X232116Y492484D01*
X231992Y492437D01*
X231869Y492386D01*
X231748Y492332D01*
X231628Y492274D01*
X231510Y492212D01*
X231394Y492147D01*
X231280Y492079D01*
X231168Y492008D01*
X231058Y491933D01*
X230950Y491855D01*
X230844Y491774D01*
X230741Y491690D01*
X230641Y491603D01*
X230543Y491514D01*
X230447Y491421D01*
X230354Y491325D01*
X230265Y491227D01*
X230178Y491127D01*
X230094Y491024D01*
X230013Y490918D01*
X229935Y490810D01*
X229860Y490700D01*
X229789Y490588D01*
X229721Y490474D01*
X229656Y490358D01*
X229594Y490240D01*
X229536Y490120D01*
X229482Y489999D01*
X229431Y489876D01*
X229384Y489752D01*
X229340Y489626D01*
X229300Y489499D01*
X229264Y489371D01*
X229231Y489242D01*
X229202Y489113D01*
X229177Y488982D01*
X229156Y488851D01*
X229139Y488719D01*
X229125Y488586D01*
X229116Y488454D01*
X229110Y488321D01*
X229108Y488188D01*
X229108Y477012D02*
X229110Y476879D01*
X229116Y476746D01*
X229125Y476614D01*
X229139Y476481D01*
X229156Y476349D01*
X229177Y476218D01*
X229202Y476087D01*
X229231Y475958D01*
X229264Y475829D01*
X229300Y475701D01*
X229340Y475574D01*
X229384Y475448D01*
X229431Y475324D01*
X229482Y475201D01*
X229536Y475080D01*
X229594Y474960D01*
X229656Y474842D01*
X229721Y474726D01*
X229789Y474612D01*
X229860Y474500D01*
X229935Y474390D01*
X230013Y474282D01*
X230094Y474176D01*
X230178Y474073D01*
X230265Y473973D01*
X230354Y473875D01*
X230447Y473779D01*
X230543Y473686D01*
X230641Y473597D01*
X230741Y473510D01*
X230844Y473426D01*
X230950Y473345D01*
X231058Y473267D01*
X231168Y473192D01*
X231280Y473121D01*
X231394Y473053D01*
X231510Y472988D01*
X231628Y472926D01*
X231748Y472868D01*
X231869Y472814D01*
X231992Y472763D01*
X232116Y472716D01*
X232242Y472672D01*
X232369Y472632D01*
X232497Y472596D01*
X232626Y472563D01*
X232755Y472534D01*
X232886Y472509D01*
X233017Y472488D01*
X233149Y472471D01*
X233282Y472457D01*
X233414Y472448D01*
X233547Y472442D01*
X233680Y472440D01*
X248920Y472440D02*
X249053Y472442D01*
X249186Y472448D01*
X249318Y472457D01*
X249451Y472471D01*
X249583Y472488D01*
X249714Y472509D01*
X249845Y472534D01*
X249974Y472563D01*
X250103Y472596D01*
X250231Y472632D01*
X250358Y472672D01*
X250484Y472716D01*
X250608Y472763D01*
X250731Y472814D01*
X250852Y472868D01*
X250972Y472926D01*
X251090Y472988D01*
X251206Y473053D01*
X251320Y473121D01*
X251432Y473192D01*
X251542Y473267D01*
X251650Y473345D01*
X251756Y473426D01*
X251859Y473510D01*
X251959Y473597D01*
X252057Y473686D01*
X252153Y473779D01*
X252246Y473875D01*
X252335Y473973D01*
X252422Y474073D01*
X252506Y474176D01*
X252587Y474282D01*
X252665Y474390D01*
X252740Y474500D01*
X252811Y474612D01*
X252879Y474726D01*
X252944Y474842D01*
X253006Y474960D01*
X253064Y475080D01*
X253118Y475201D01*
X253169Y475324D01*
X253216Y475448D01*
X253260Y475574D01*
X253300Y475701D01*
X253336Y475829D01*
X253369Y475958D01*
X253398Y476087D01*
X253423Y476218D01*
X253444Y476349D01*
X253461Y476481D01*
X253475Y476614D01*
X253484Y476746D01*
X253490Y476879D01*
X253492Y477012D01*
X253492Y488188D01*
X229108Y488188D02*
X229108Y477012D01*
X233680Y492760D02*
X248920Y492760D01*
D12*
X236547Y495737D02*
X236547Y499491D01*
X236546Y495737D02*
X236544Y495672D01*
X236538Y495608D01*
X236528Y495544D01*
X236515Y495480D01*
X236497Y495418D01*
X236476Y495357D01*
X236452Y495297D01*
X236423Y495239D01*
X236391Y495182D01*
X236356Y495128D01*
X236318Y495076D01*
X236276Y495026D01*
X236232Y494979D01*
X236185Y494935D01*
X236135Y494893D01*
X236083Y494855D01*
X236029Y494820D01*
X235972Y494788D01*
X235914Y494759D01*
X235854Y494735D01*
X235793Y494714D01*
X235731Y494696D01*
X235667Y494683D01*
X235603Y494673D01*
X235539Y494667D01*
X235474Y494665D01*
X234938Y494665D01*
X239824Y494665D02*
X239824Y499491D01*
X241164Y499491D01*
X241235Y499489D01*
X241307Y499483D01*
X241377Y499474D01*
X241447Y499461D01*
X241517Y499444D01*
X241585Y499423D01*
X241652Y499399D01*
X241718Y499371D01*
X241782Y499340D01*
X241845Y499305D01*
X241905Y499267D01*
X241964Y499226D01*
X242020Y499182D01*
X242074Y499135D01*
X242125Y499086D01*
X242173Y499033D01*
X242219Y498978D01*
X242261Y498921D01*
X242301Y498861D01*
X242337Y498800D01*
X242370Y498736D01*
X242399Y498671D01*
X242425Y498605D01*
X242448Y498537D01*
X242467Y498468D01*
X242482Y498398D01*
X242493Y498328D01*
X242501Y498257D01*
X242505Y498186D01*
X242505Y498114D01*
X242501Y498043D01*
X242493Y497972D01*
X242482Y497902D01*
X242467Y497832D01*
X242448Y497763D01*
X242425Y497695D01*
X242399Y497629D01*
X242370Y497564D01*
X242337Y497500D01*
X242301Y497439D01*
X242261Y497379D01*
X242219Y497322D01*
X242173Y497267D01*
X242125Y497214D01*
X242074Y497165D01*
X242020Y497118D01*
X241964Y497074D01*
X241905Y497033D01*
X241845Y496995D01*
X241782Y496960D01*
X241718Y496929D01*
X241652Y496901D01*
X241585Y496877D01*
X241517Y496856D01*
X241447Y496839D01*
X241377Y496826D01*
X241307Y496817D01*
X241235Y496811D01*
X241164Y496809D01*
X241164Y496810D02*
X239824Y496810D01*
X244981Y498419D02*
X246321Y499491D01*
X246321Y494665D01*
X244981Y494665D02*
X247662Y494665D01*
D11*
X260450Y744300D02*
X272950Y744300D01*
X260450Y753000D02*
X260450Y771000D01*
X272950Y771000D02*
X272950Y753000D01*
D12*
X258445Y757825D02*
X253619Y757825D01*
X253619Y759165D01*
X253621Y759235D01*
X253626Y759305D01*
X253636Y759375D01*
X253648Y759444D01*
X253665Y759512D01*
X253685Y759579D01*
X253708Y759646D01*
X253735Y759710D01*
X253765Y759774D01*
X253799Y759836D01*
X253835Y759895D01*
X253875Y759953D01*
X253918Y760009D01*
X253963Y760062D01*
X254012Y760113D01*
X254063Y760162D01*
X254116Y760207D01*
X254172Y760250D01*
X254230Y760290D01*
X254290Y760326D01*
X254351Y760360D01*
X254415Y760390D01*
X254479Y760417D01*
X254546Y760440D01*
X254613Y760460D01*
X254681Y760477D01*
X254750Y760489D01*
X254820Y760499D01*
X254890Y760504D01*
X254960Y760506D01*
X257104Y760506D01*
X257174Y760504D01*
X257244Y760499D01*
X257314Y760489D01*
X257383Y760477D01*
X257451Y760460D01*
X257518Y760440D01*
X257585Y760417D01*
X257649Y760390D01*
X257713Y760360D01*
X257775Y760326D01*
X257834Y760290D01*
X257892Y760250D01*
X257948Y760207D01*
X258001Y760162D01*
X258052Y760113D01*
X258101Y760062D01*
X258146Y760009D01*
X258189Y759953D01*
X258229Y759895D01*
X258265Y759835D01*
X258299Y759774D01*
X258329Y759710D01*
X258356Y759646D01*
X258379Y759579D01*
X258399Y759512D01*
X258416Y759444D01*
X258428Y759375D01*
X258438Y759305D01*
X258443Y759235D01*
X258445Y759165D01*
X258445Y757825D01*
X253619Y764969D02*
X253621Y765037D01*
X253627Y765104D01*
X253636Y765171D01*
X253649Y765238D01*
X253666Y765303D01*
X253687Y765368D01*
X253711Y765431D01*
X253739Y765493D01*
X253770Y765553D01*
X253804Y765611D01*
X253842Y765667D01*
X253882Y765722D01*
X253926Y765773D01*
X253973Y765822D01*
X254022Y765869D01*
X254073Y765913D01*
X254128Y765953D01*
X254184Y765991D01*
X254242Y766025D01*
X254302Y766056D01*
X254364Y766084D01*
X254427Y766108D01*
X254492Y766129D01*
X254557Y766146D01*
X254624Y766159D01*
X254691Y766168D01*
X254758Y766174D01*
X254826Y766176D01*
X253619Y764969D02*
X253621Y764891D01*
X253627Y764813D01*
X253637Y764736D01*
X253650Y764659D01*
X253668Y764583D01*
X253689Y764508D01*
X253714Y764434D01*
X253743Y764362D01*
X253775Y764291D01*
X253811Y764222D01*
X253850Y764154D01*
X253893Y764089D01*
X253939Y764026D01*
X253988Y763965D01*
X254040Y763907D01*
X254095Y763852D01*
X254152Y763799D01*
X254212Y763750D01*
X254275Y763703D01*
X254340Y763660D01*
X254406Y763620D01*
X254475Y763583D01*
X254546Y763550D01*
X254618Y763520D01*
X254692Y763494D01*
X255764Y765773D02*
X255715Y765822D01*
X255663Y765869D01*
X255608Y765912D01*
X255551Y765953D01*
X255492Y765991D01*
X255431Y766025D01*
X255368Y766056D01*
X255304Y766084D01*
X255238Y766108D01*
X255172Y766128D01*
X255104Y766145D01*
X255035Y766158D01*
X254966Y766167D01*
X254896Y766173D01*
X254826Y766175D01*
X255764Y765773D02*
X258445Y763494D01*
X258445Y766175D01*
X239395Y757948D02*
X234569Y757948D01*
X234569Y759289D01*
X234571Y759360D01*
X234577Y759432D01*
X234586Y759502D01*
X234599Y759572D01*
X234616Y759642D01*
X234637Y759710D01*
X234661Y759777D01*
X234689Y759843D01*
X234720Y759907D01*
X234755Y759970D01*
X234793Y760030D01*
X234834Y760089D01*
X234878Y760145D01*
X234925Y760199D01*
X234974Y760250D01*
X235027Y760298D01*
X235082Y760344D01*
X235139Y760386D01*
X235199Y760426D01*
X235260Y760462D01*
X235324Y760495D01*
X235389Y760524D01*
X235455Y760550D01*
X235523Y760573D01*
X235592Y760592D01*
X235662Y760607D01*
X235732Y760618D01*
X235803Y760626D01*
X235874Y760630D01*
X235946Y760630D01*
X236017Y760626D01*
X236088Y760618D01*
X236158Y760607D01*
X236228Y760592D01*
X236297Y760573D01*
X236365Y760550D01*
X236431Y760524D01*
X236496Y760495D01*
X236560Y760462D01*
X236621Y760426D01*
X236681Y760386D01*
X236738Y760344D01*
X236793Y760298D01*
X236846Y760250D01*
X236895Y760199D01*
X236942Y760145D01*
X236986Y760089D01*
X237027Y760030D01*
X237065Y759970D01*
X237100Y759907D01*
X237131Y759843D01*
X237159Y759777D01*
X237183Y759710D01*
X237204Y759642D01*
X237221Y759572D01*
X237234Y759502D01*
X237243Y759432D01*
X237249Y759360D01*
X237251Y759289D01*
X237250Y759289D02*
X237250Y757948D01*
X237250Y759557D02*
X239395Y760629D01*
X234569Y764845D02*
X234571Y764913D01*
X234577Y764980D01*
X234586Y765047D01*
X234599Y765114D01*
X234616Y765179D01*
X234637Y765244D01*
X234661Y765307D01*
X234689Y765369D01*
X234720Y765429D01*
X234754Y765487D01*
X234792Y765543D01*
X234832Y765598D01*
X234876Y765649D01*
X234923Y765698D01*
X234972Y765745D01*
X235023Y765789D01*
X235078Y765829D01*
X235134Y765867D01*
X235192Y765901D01*
X235252Y765932D01*
X235314Y765960D01*
X235377Y765984D01*
X235442Y766005D01*
X235507Y766022D01*
X235574Y766035D01*
X235641Y766044D01*
X235708Y766050D01*
X235776Y766052D01*
X234569Y764845D02*
X234571Y764767D01*
X234577Y764689D01*
X234587Y764612D01*
X234600Y764535D01*
X234618Y764459D01*
X234639Y764384D01*
X234664Y764310D01*
X234693Y764238D01*
X234725Y764167D01*
X234761Y764098D01*
X234800Y764030D01*
X234843Y763965D01*
X234889Y763902D01*
X234938Y763841D01*
X234990Y763783D01*
X235045Y763728D01*
X235102Y763675D01*
X235162Y763626D01*
X235225Y763579D01*
X235290Y763536D01*
X235356Y763496D01*
X235425Y763459D01*
X235496Y763426D01*
X235568Y763396D01*
X235642Y763370D01*
X236714Y765650D02*
X236665Y765699D01*
X236613Y765746D01*
X236558Y765789D01*
X236501Y765830D01*
X236442Y765868D01*
X236381Y765902D01*
X236318Y765933D01*
X236254Y765961D01*
X236188Y765985D01*
X236122Y766005D01*
X236054Y766022D01*
X235985Y766035D01*
X235916Y766044D01*
X235846Y766050D01*
X235776Y766052D01*
X236714Y765650D02*
X239395Y763371D01*
X239395Y766052D01*
X207645Y478548D02*
X202819Y478548D01*
X202819Y479889D01*
X202821Y479960D01*
X202827Y480032D01*
X202836Y480102D01*
X202849Y480172D01*
X202866Y480242D01*
X202887Y480310D01*
X202911Y480377D01*
X202939Y480443D01*
X202970Y480507D01*
X203005Y480570D01*
X203043Y480630D01*
X203084Y480689D01*
X203128Y480745D01*
X203175Y480799D01*
X203224Y480850D01*
X203277Y480898D01*
X203332Y480944D01*
X203389Y480986D01*
X203449Y481026D01*
X203510Y481062D01*
X203574Y481095D01*
X203639Y481124D01*
X203705Y481150D01*
X203773Y481173D01*
X203842Y481192D01*
X203912Y481207D01*
X203982Y481218D01*
X204053Y481226D01*
X204124Y481230D01*
X204196Y481230D01*
X204267Y481226D01*
X204338Y481218D01*
X204408Y481207D01*
X204478Y481192D01*
X204547Y481173D01*
X204615Y481150D01*
X204681Y481124D01*
X204746Y481095D01*
X204810Y481062D01*
X204871Y481026D01*
X204931Y480986D01*
X204988Y480944D01*
X205043Y480898D01*
X205096Y480850D01*
X205145Y480799D01*
X205192Y480745D01*
X205236Y480689D01*
X205277Y480630D01*
X205315Y480570D01*
X205350Y480507D01*
X205381Y480443D01*
X205409Y480377D01*
X205433Y480310D01*
X205454Y480242D01*
X205471Y480172D01*
X205484Y480102D01*
X205493Y480032D01*
X205499Y479960D01*
X205501Y479889D01*
X205500Y479889D02*
X205500Y478548D01*
X205500Y480157D02*
X207645Y481229D01*
X203891Y483971D02*
X202819Y485311D01*
X207645Y485311D01*
X207645Y483971D02*
X207645Y486652D01*
D10*
X430300Y664200D02*
X448300Y664200D01*
X448300Y646200D01*
X448300Y522200D02*
X448300Y504200D01*
X430300Y504200D01*
X306300Y504200D02*
X288300Y504200D01*
X288300Y522200D01*
X288300Y646200D02*
X288300Y664200D01*
X306300Y664200D01*
D14*
X279400Y660400D03*
D15*
X291054Y668224D02*
X291054Y671526D01*
X291054Y668224D02*
X291056Y668154D01*
X291062Y668084D01*
X291071Y668015D01*
X291085Y667946D01*
X291102Y667878D01*
X291123Y667812D01*
X291147Y667746D01*
X291175Y667682D01*
X291207Y667620D01*
X291242Y667559D01*
X291280Y667500D01*
X291322Y667444D01*
X291366Y667390D01*
X291414Y667338D01*
X291464Y667290D01*
X291517Y667244D01*
X291572Y667201D01*
X291629Y667161D01*
X291689Y667124D01*
X291751Y667091D01*
X291814Y667061D01*
X291879Y667035D01*
X291945Y667012D01*
X292012Y666993D01*
X292081Y666978D01*
X292150Y666966D01*
X292219Y666958D01*
X292289Y666954D01*
X292359Y666954D01*
X292429Y666958D01*
X292498Y666966D01*
X292567Y666978D01*
X292636Y666993D01*
X292703Y667012D01*
X292769Y667035D01*
X292834Y667061D01*
X292897Y667091D01*
X292959Y667124D01*
X293019Y667161D01*
X293076Y667201D01*
X293131Y667244D01*
X293184Y667290D01*
X293234Y667338D01*
X293282Y667390D01*
X293326Y667444D01*
X293368Y667500D01*
X293406Y667559D01*
X293441Y667620D01*
X293473Y667682D01*
X293501Y667746D01*
X293525Y667812D01*
X293546Y667878D01*
X293563Y667946D01*
X293577Y668015D01*
X293586Y668084D01*
X293592Y668154D01*
X293594Y668224D01*
X293594Y671526D01*
X295778Y670510D02*
X297048Y671526D01*
X297048Y666954D01*
X295778Y666954D02*
X298318Y666954D01*
D12*
X415048Y470281D02*
X415048Y465455D01*
X415048Y470281D02*
X416389Y470281D01*
X416460Y470279D01*
X416532Y470273D01*
X416602Y470264D01*
X416672Y470251D01*
X416742Y470234D01*
X416810Y470213D01*
X416877Y470189D01*
X416943Y470161D01*
X417007Y470130D01*
X417070Y470095D01*
X417130Y470057D01*
X417189Y470016D01*
X417245Y469972D01*
X417299Y469925D01*
X417350Y469876D01*
X417398Y469823D01*
X417444Y469768D01*
X417486Y469711D01*
X417526Y469651D01*
X417562Y469590D01*
X417595Y469526D01*
X417624Y469461D01*
X417650Y469395D01*
X417673Y469327D01*
X417692Y469258D01*
X417707Y469188D01*
X417718Y469118D01*
X417726Y469047D01*
X417730Y468976D01*
X417730Y468904D01*
X417726Y468833D01*
X417718Y468762D01*
X417707Y468692D01*
X417692Y468622D01*
X417673Y468553D01*
X417650Y468485D01*
X417624Y468419D01*
X417595Y468354D01*
X417562Y468290D01*
X417526Y468229D01*
X417486Y468169D01*
X417444Y468112D01*
X417398Y468057D01*
X417350Y468004D01*
X417299Y467955D01*
X417245Y467908D01*
X417189Y467864D01*
X417130Y467823D01*
X417070Y467785D01*
X417007Y467750D01*
X416943Y467719D01*
X416877Y467691D01*
X416810Y467667D01*
X416742Y467646D01*
X416672Y467629D01*
X416602Y467616D01*
X416532Y467607D01*
X416460Y467601D01*
X416389Y467599D01*
X416389Y467600D02*
X415048Y467600D01*
X416657Y467600D02*
X417729Y465455D01*
X420471Y466527D02*
X421543Y470281D01*
X420471Y466527D02*
X423152Y466527D01*
X422348Y467600D02*
X422348Y465455D01*
X453148Y465455D02*
X453148Y470281D01*
X454489Y470281D01*
X454560Y470279D01*
X454632Y470273D01*
X454702Y470264D01*
X454772Y470251D01*
X454842Y470234D01*
X454910Y470213D01*
X454977Y470189D01*
X455043Y470161D01*
X455107Y470130D01*
X455170Y470095D01*
X455230Y470057D01*
X455289Y470016D01*
X455345Y469972D01*
X455399Y469925D01*
X455450Y469876D01*
X455498Y469823D01*
X455544Y469768D01*
X455586Y469711D01*
X455626Y469651D01*
X455662Y469590D01*
X455695Y469526D01*
X455724Y469461D01*
X455750Y469395D01*
X455773Y469327D01*
X455792Y469258D01*
X455807Y469188D01*
X455818Y469118D01*
X455826Y469047D01*
X455830Y468976D01*
X455830Y468904D01*
X455826Y468833D01*
X455818Y468762D01*
X455807Y468692D01*
X455792Y468622D01*
X455773Y468553D01*
X455750Y468485D01*
X455724Y468419D01*
X455695Y468354D01*
X455662Y468290D01*
X455626Y468229D01*
X455586Y468169D01*
X455544Y468112D01*
X455498Y468057D01*
X455450Y468004D01*
X455399Y467955D01*
X455345Y467908D01*
X455289Y467864D01*
X455230Y467823D01*
X455170Y467785D01*
X455107Y467750D01*
X455043Y467719D01*
X454977Y467691D01*
X454910Y467667D01*
X454842Y467646D01*
X454772Y467629D01*
X454702Y467616D01*
X454632Y467607D01*
X454560Y467601D01*
X454489Y467599D01*
X454489Y467600D02*
X453148Y467600D01*
X454757Y467600D02*
X455829Y465455D01*
X458571Y465455D02*
X460179Y465455D01*
X460244Y465457D01*
X460308Y465463D01*
X460372Y465473D01*
X460436Y465486D01*
X460498Y465504D01*
X460559Y465525D01*
X460619Y465549D01*
X460677Y465578D01*
X460734Y465610D01*
X460788Y465645D01*
X460840Y465683D01*
X460890Y465725D01*
X460937Y465769D01*
X460981Y465816D01*
X461023Y465866D01*
X461061Y465918D01*
X461096Y465972D01*
X461128Y466029D01*
X461157Y466087D01*
X461181Y466147D01*
X461202Y466208D01*
X461220Y466270D01*
X461233Y466334D01*
X461243Y466398D01*
X461249Y466462D01*
X461251Y466527D01*
X461252Y466527D02*
X461252Y467064D01*
X461251Y467064D02*
X461249Y467129D01*
X461243Y467193D01*
X461233Y467257D01*
X461220Y467321D01*
X461202Y467383D01*
X461181Y467444D01*
X461157Y467504D01*
X461128Y467562D01*
X461096Y467619D01*
X461061Y467673D01*
X461023Y467725D01*
X460981Y467775D01*
X460937Y467822D01*
X460890Y467866D01*
X460840Y467908D01*
X460788Y467946D01*
X460734Y467981D01*
X460677Y468013D01*
X460619Y468042D01*
X460559Y468066D01*
X460498Y468087D01*
X460436Y468105D01*
X460372Y468118D01*
X460308Y468128D01*
X460244Y468134D01*
X460179Y468136D01*
X458571Y468136D01*
X458571Y470281D01*
X461252Y470281D01*
D16*
X423800Y419910D03*
D17*
X424200Y420510D03*
D18*
X424600Y420910D03*
D19*
X425000Y421310D03*
D20*
X425400Y421510D03*
D21*
X425800Y421710D03*
D22*
X426200Y421910D03*
D23*
X426600Y405910D03*
D24*
X426600Y426710D03*
D25*
X427000Y405510D03*
D26*
X427000Y414110D03*
D27*
X427000Y425110D03*
D28*
X427000Y436510D03*
D29*
X427400Y405110D03*
D30*
X427400Y414510D03*
D31*
X427400Y425310D03*
D32*
X427400Y436710D03*
D33*
X427800Y404910D03*
D34*
X427800Y414710D03*
D29*
X427800Y425510D03*
D28*
X427800Y436910D03*
D33*
X428200Y404910D03*
D34*
X428200Y414710D03*
D33*
X428200Y425710D03*
D32*
X428200Y437110D03*
D35*
X428600Y404710D03*
D34*
X428600Y414710D03*
D36*
X428600Y425710D03*
D28*
X428600Y437310D03*
D35*
X429000Y404710D03*
D34*
X429000Y410710D03*
D30*
X429000Y414510D03*
D37*
X429000Y425910D03*
D32*
X429000Y437510D03*
D35*
X429400Y404710D03*
D38*
X429400Y410710D03*
X429400Y414310D03*
X429400Y419110D03*
D37*
X429400Y425910D03*
D32*
X429400Y437510D03*
D35*
X429800Y404710D03*
D39*
X429800Y412510D03*
D40*
X429800Y419510D03*
X429800Y425910D03*
D28*
X429800Y437710D03*
D35*
X430200Y404710D03*
D29*
X430200Y412710D03*
D41*
X430200Y419710D03*
D40*
X430200Y425910D03*
D32*
X430200Y437910D03*
D35*
X430600Y404710D03*
X430600Y413110D03*
D37*
X430600Y419910D03*
D38*
X430600Y425910D03*
D32*
X430600Y437910D03*
D33*
X431000Y404910D03*
D40*
X431000Y413910D03*
D37*
X431000Y419910D03*
D38*
X431000Y425910D03*
D42*
X431000Y438110D03*
D33*
X431400Y404910D03*
D30*
X431400Y414510D03*
D36*
X431400Y420110D03*
D30*
X431400Y425710D03*
D43*
X431400Y429910D03*
D42*
X431400Y438110D03*
D29*
X431800Y405110D03*
D34*
X431800Y414710D03*
D36*
X431800Y420110D03*
D30*
X431800Y425710D03*
D43*
X431800Y429910D03*
D44*
X431800Y438310D03*
D39*
X432200Y405310D03*
D45*
X432200Y414910D03*
D36*
X432200Y420110D03*
D34*
X432200Y425510D03*
D45*
X432200Y429710D03*
D44*
X432200Y438310D03*
D23*
X432600Y405910D03*
D45*
X432600Y414910D03*
D37*
X432600Y419910D03*
D34*
X432600Y425510D03*
X432600Y429910D03*
D46*
X432600Y438510D03*
D47*
X433000Y406510D03*
D45*
X433000Y414910D03*
D37*
X433000Y419910D03*
D45*
X433000Y425310D03*
D46*
X433000Y438510D03*
D48*
X433400Y407110D03*
D45*
X433400Y414910D03*
D37*
X433400Y419910D03*
D34*
X433400Y425110D03*
D48*
X433400Y438710D03*
D33*
X433800Y404910D03*
D40*
X433800Y410310D03*
D43*
X433800Y415110D03*
D41*
X433800Y419710D03*
D45*
X433800Y424910D03*
D48*
X433800Y438710D03*
D35*
X434200Y404710D03*
D26*
X434200Y410510D03*
D45*
X434200Y414910D03*
D40*
X434200Y419510D03*
D45*
X434200Y424910D03*
D49*
X434200Y438710D03*
D35*
X434600Y404710D03*
D38*
X434600Y410710D03*
D45*
X434600Y414910D03*
D34*
X434600Y419110D03*
D45*
X434600Y424510D03*
D49*
X434600Y438710D03*
D35*
X435000Y404710D03*
D45*
X435000Y414910D03*
D34*
X435000Y424310D03*
D37*
X435000Y429910D03*
D47*
X435000Y438910D03*
D35*
X435400Y404710D03*
D45*
X435400Y414910D03*
D34*
X435400Y423910D03*
D36*
X435400Y429710D03*
D27*
X435400Y438710D03*
D33*
X435800Y404910D03*
D34*
X435800Y414710D03*
X435800Y423910D03*
D35*
X435800Y429910D03*
D50*
X435800Y438910D03*
D33*
X436200Y404910D03*
D30*
X436200Y414510D03*
D38*
X436200Y423510D03*
D33*
X436200Y429710D03*
D23*
X436200Y438710D03*
D39*
X436600Y405310D03*
D38*
X436600Y414310D03*
D26*
X436600Y423310D03*
D29*
X436600Y429910D03*
D23*
X436600Y438710D03*
D31*
X437000Y405710D03*
D41*
X437000Y414110D03*
D36*
X437000Y422910D03*
D39*
X437000Y429710D03*
D50*
X437000Y438110D03*
D22*
X437400Y421910D03*
D21*
X437800Y421710D03*
D20*
X438200Y421510D03*
D19*
X438600Y421310D03*
D18*
X439000Y420910D03*
D17*
X439400Y420510D03*
D16*
X439800Y419910D03*
D51*
X449200Y418710D03*
D52*
X449600Y419310D03*
D53*
X450000Y419710D03*
D54*
X450400Y420110D03*
D55*
X450800Y420310D03*
D17*
X451200Y420510D03*
D56*
X451600Y420710D03*
D23*
X452000Y405910D03*
D47*
X452000Y415710D03*
D57*
X452000Y430510D03*
D39*
X452400Y405310D03*
X452400Y415710D03*
D26*
X452400Y424110D03*
D58*
X452400Y433710D03*
D29*
X452800Y405110D03*
D36*
X452800Y415710D03*
D34*
X452800Y424310D03*
D58*
X452800Y433710D03*
D33*
X453200Y404910D03*
D40*
X453200Y415510D03*
D45*
X453200Y424510D03*
D58*
X453200Y434110D03*
D33*
X453600Y404910D03*
D26*
X453600Y415310D03*
D43*
X453600Y424710D03*
D58*
X453600Y434110D03*
D35*
X454000Y404710D03*
D26*
X454000Y414910D03*
D43*
X454000Y424710D03*
D59*
X454000Y434310D03*
D35*
X454400Y404710D03*
D34*
X454400Y410710D03*
D38*
X454400Y414710D03*
D45*
X454400Y424510D03*
D59*
X454400Y434310D03*
D35*
X454800Y404710D03*
D38*
X454800Y410710D03*
D26*
X454800Y414510D03*
X454800Y420510D03*
D34*
X454800Y424310D03*
D59*
X454800Y434310D03*
D35*
X455200Y404710D03*
D39*
X455200Y412510D03*
D37*
X455200Y420710D03*
D30*
X455200Y424110D03*
D60*
X455200Y434510D03*
D35*
X455600Y404710D03*
D29*
X455600Y412710D03*
D31*
X455600Y421710D03*
D60*
X455600Y434510D03*
D35*
X456000Y404710D03*
X456000Y413110D03*
D23*
X456000Y421510D03*
D60*
X456000Y434510D03*
D35*
X456400Y404710D03*
D26*
X456400Y413710D03*
D23*
X456400Y421510D03*
D60*
X456400Y434510D03*
D33*
X456800Y404910D03*
D30*
X456800Y414110D03*
D23*
X456800Y421510D03*
D60*
X456800Y434510D03*
D29*
X457200Y405110D03*
D45*
X457200Y414510D03*
D23*
X457200Y421510D03*
D60*
X457200Y434510D03*
D39*
X457600Y405310D03*
D45*
X457600Y414510D03*
D23*
X457600Y421510D03*
D60*
X457600Y434510D03*
D31*
X458000Y405710D03*
D43*
X458000Y414710D03*
D23*
X458000Y421510D03*
D60*
X458000Y434510D03*
D47*
X458400Y406510D03*
D45*
X458400Y414910D03*
D23*
X458400Y421510D03*
D60*
X458400Y434510D03*
D61*
X458800Y406910D03*
D45*
X458800Y414910D03*
D23*
X458800Y421510D03*
D60*
X458800Y434510D03*
D33*
X459200Y404910D03*
D40*
X459200Y410310D03*
D45*
X459200Y414910D03*
D31*
X459200Y421710D03*
D60*
X459200Y434510D03*
D35*
X459600Y404710D03*
D26*
X459600Y410510D03*
D34*
X459600Y415110D03*
D41*
X459600Y420510D03*
D34*
X459600Y424310D03*
D59*
X459600Y434310D03*
D35*
X460000Y404710D03*
D38*
X460000Y410710D03*
D34*
X460000Y415110D03*
D30*
X460000Y420510D03*
D45*
X460000Y424510D03*
D59*
X460000Y434310D03*
D36*
X460400Y404510D03*
D30*
X460400Y415310D03*
D45*
X460400Y424510D03*
D59*
X460400Y434310D03*
D35*
X460800Y404710D03*
D30*
X460800Y415310D03*
D43*
X460800Y424710D03*
D50*
X460800Y436510D03*
D35*
X461200Y404710D03*
D26*
X461200Y415310D03*
D43*
X461200Y424710D03*
D50*
X461200Y436510D03*
D33*
X461600Y404910D03*
D37*
X461600Y415510D03*
D45*
X461600Y424510D03*
D23*
X461600Y436310D03*
D39*
X462000Y405310D03*
D35*
X462000Y415510D03*
D38*
X462000Y424310D03*
D23*
X462000Y436310D03*
D25*
X462400Y405510D03*
X462400Y415510D03*
D40*
X462400Y423910D03*
D23*
X462400Y435910D03*
D56*
X462800Y420710D03*
D17*
X463200Y420510D03*
D55*
X463600Y420310D03*
D54*
X464000Y420110D03*
D53*
X464400Y419710D03*
D52*
X464800Y419310D03*
D51*
X465200Y418710D03*
D17*
X398400Y420910D03*
X398800Y420910D03*
X399200Y420910D03*
X399600Y420910D03*
X400000Y420910D03*
X400400Y420910D03*
X400800Y420910D03*
D23*
X401200Y406310D03*
D57*
X401200Y420910D03*
D23*
X401200Y435510D03*
D39*
X401600Y405710D03*
D26*
X401600Y414510D03*
D39*
X401600Y420910D03*
D26*
X401600Y427310D03*
D39*
X401600Y436110D03*
D29*
X402000Y405510D03*
D30*
X402000Y414510D03*
D39*
X402000Y420910D03*
D30*
X402000Y427310D03*
D29*
X402000Y436310D03*
D33*
X402400Y405310D03*
D34*
X402400Y414710D03*
D33*
X402400Y420910D03*
D34*
X402400Y427110D03*
D33*
X402400Y436510D03*
D35*
X402800Y405110D03*
D45*
X402800Y414910D03*
D33*
X402800Y420910D03*
D45*
X402800Y426910D03*
D35*
X402800Y436710D03*
X403200Y405110D03*
D34*
X403200Y415110D03*
D35*
X403200Y421110D03*
D34*
X403200Y426710D03*
D35*
X403200Y436710D03*
X403600Y405110D03*
D43*
X403600Y411110D03*
D45*
X403600Y415310D03*
D36*
X403600Y420910D03*
D34*
X403600Y426710D03*
D43*
X403600Y431110D03*
D36*
X403600Y436910D03*
D35*
X404000Y405110D03*
D30*
X404000Y410910D03*
D34*
X404000Y415510D03*
D37*
X404000Y421110D03*
D30*
X404000Y426510D03*
X404000Y430910D03*
D36*
X404000Y436910D03*
D35*
X404400Y405110D03*
D26*
X404400Y410910D03*
D34*
X404400Y415510D03*
D41*
X404400Y420910D03*
D30*
X404400Y426510D03*
D26*
X404400Y430910D03*
D36*
X404400Y436910D03*
D29*
X404800Y405510D03*
D26*
X404800Y410510D03*
D30*
X404800Y415710D03*
D40*
X404800Y421110D03*
X404800Y426710D03*
D26*
X404800Y430510D03*
D36*
X404800Y436910D03*
D23*
X405200Y406310D03*
D38*
X405200Y415510D03*
D26*
X405200Y420910D03*
D35*
X405200Y427510D03*
X405200Y436710D03*
D23*
X405600Y406310D03*
D26*
X405600Y415710D03*
X405600Y420910D03*
D33*
X405600Y427310D03*
D35*
X405600Y436710D03*
D23*
X406000Y406310D03*
D40*
X406000Y415510D03*
D30*
X406000Y420910D03*
D33*
X406000Y427310D03*
X406000Y436510D03*
D23*
X406400Y406310D03*
D37*
X406400Y415510D03*
D30*
X406400Y420910D03*
D29*
X406400Y427110D03*
X406400Y436310D03*
D23*
X406800Y406310D03*
D40*
X406800Y415910D03*
D45*
X406800Y420910D03*
D29*
X406800Y427110D03*
D35*
X406800Y436710D03*
D23*
X407200Y406310D03*
D41*
X407200Y416110D03*
D45*
X407200Y420910D03*
D39*
X407200Y426910D03*
D35*
X407200Y436710D03*
D49*
X407600Y407110D03*
D40*
X407600Y416310D03*
D62*
X407600Y420910D03*
D50*
X407600Y427710D03*
D36*
X407600Y436910D03*
D35*
X408000Y405110D03*
D40*
X408000Y410710D03*
D41*
X408000Y416510D03*
D62*
X408000Y420910D03*
D37*
X408000Y425510D03*
D40*
X408000Y430710D03*
D36*
X408000Y436910D03*
X408400Y404910D03*
D26*
X408400Y410910D03*
D41*
X408400Y416510D03*
X408400Y425310D03*
D26*
X408400Y430910D03*
D36*
X408400Y436910D03*
X408800Y404910D03*
D26*
X408800Y410910D03*
D37*
X408800Y416710D03*
X408800Y425110D03*
D26*
X408800Y430910D03*
D36*
X408800Y436910D03*
X409200Y404910D03*
D30*
X409200Y410910D03*
D37*
X409200Y416710D03*
X409200Y425110D03*
D30*
X409200Y430910D03*
D36*
X409200Y436910D03*
X409600Y404910D03*
X409600Y416910D03*
X409600Y424910D03*
X409600Y436910D03*
X410000Y404910D03*
X410000Y416910D03*
X410000Y424910D03*
X410000Y436910D03*
D35*
X410400Y405110D03*
D33*
X410400Y416910D03*
X410400Y424910D03*
D35*
X410400Y436710D03*
D33*
X410800Y405310D03*
D29*
X410800Y416710D03*
X410800Y425110D03*
D33*
X410800Y436510D03*
D29*
X411200Y405510D03*
D25*
X411200Y416710D03*
X411200Y425110D03*
D29*
X411200Y436310D03*
D25*
X411600Y405910D03*
D50*
X411600Y416510D03*
X411600Y425310D03*
D25*
X411600Y435910D03*
D17*
X412000Y420910D03*
X412400Y420910D03*
X412800Y420910D03*
X413200Y420910D03*
X413600Y420910D03*
X414000Y420910D03*
X414400Y420910D03*
D21*
X373000Y421710D03*
X373400Y421710D03*
X373800Y421710D03*
X374200Y421710D03*
X374600Y421710D03*
X375000Y421710D03*
X375400Y421710D03*
D47*
X375800Y406510D03*
D63*
X375800Y427110D03*
D50*
X376200Y406110D03*
D40*
X376200Y415910D03*
D35*
X376200Y421910D03*
D34*
X376200Y427110D03*
D50*
X376200Y437310D03*
D31*
X376600Y405710D03*
D30*
X376600Y416110D03*
D37*
X376600Y421910D03*
D45*
X376600Y426910D03*
D31*
X376600Y437710D03*
D25*
X377000Y405510D03*
D34*
X377000Y416310D03*
D41*
X377000Y422110D03*
D45*
X377000Y426910D03*
D25*
X377000Y437910D03*
D29*
X377400Y405110D03*
D34*
X377400Y416310D03*
D41*
X377400Y422110D03*
D45*
X377400Y426910D03*
D39*
X377400Y438110D03*
D29*
X377800Y405110D03*
D34*
X377800Y416310D03*
D40*
X377800Y422310D03*
D45*
X377800Y426910D03*
D29*
X377800Y438310D03*
D33*
X378200Y404910D03*
D34*
X378200Y416310D03*
D26*
X378200Y422510D03*
D45*
X378200Y426910D03*
D33*
X378200Y438510D03*
D35*
X378600Y404710D03*
D26*
X378600Y412110D03*
D30*
X378600Y416110D03*
D38*
X378600Y422710D03*
D45*
X378600Y426910D03*
D38*
X378600Y431510D03*
D35*
X378600Y438710D03*
X379000Y404710D03*
D23*
X379000Y413510D03*
D38*
X379000Y422710D03*
D45*
X379000Y426910D03*
D26*
X379000Y431710D03*
D35*
X379000Y438710D03*
X379400Y404710D03*
D50*
X379400Y413310D03*
D30*
X379400Y422910D03*
D45*
X379400Y426910D03*
D40*
X379400Y431910D03*
D36*
X379400Y438910D03*
X379800Y404510D03*
D50*
X379800Y413310D03*
D34*
X379800Y423110D03*
D45*
X379800Y426910D03*
D41*
X379800Y432110D03*
D36*
X379800Y438910D03*
X380200Y404510D03*
D26*
X380200Y410510D03*
D34*
X380200Y416310D03*
D45*
X380200Y423310D03*
X380200Y426910D03*
D37*
X380200Y432310D03*
D36*
X380200Y438910D03*
X380600Y404510D03*
D38*
X380600Y410310D03*
D45*
X380600Y416510D03*
X380600Y423310D03*
X380600Y426910D03*
D37*
X380600Y432310D03*
D36*
X380600Y438910D03*
X381000Y404510D03*
D38*
X381000Y410310D03*
D45*
X381000Y416510D03*
D62*
X381000Y420110D03*
D43*
X381000Y423510D03*
D45*
X381000Y426910D03*
D37*
X381000Y432310D03*
D36*
X381000Y438910D03*
X381400Y404510D03*
D38*
X381400Y410310D03*
D45*
X381400Y416510D03*
D43*
X381400Y420310D03*
D62*
X381400Y423710D03*
D45*
X381400Y426910D03*
D37*
X381400Y432310D03*
D36*
X381400Y438910D03*
X381800Y404510D03*
D38*
X381800Y410310D03*
D45*
X381800Y416510D03*
D43*
X381800Y420310D03*
D45*
X381800Y426910D03*
D37*
X381800Y432310D03*
D36*
X381800Y438910D03*
X382200Y404510D03*
D37*
X382200Y411510D03*
D45*
X382200Y416510D03*
X382200Y420510D03*
X382200Y426910D03*
D41*
X382200Y432110D03*
D36*
X382200Y438910D03*
D35*
X382600Y404710D03*
D37*
X382600Y411510D03*
D45*
X382600Y416510D03*
D34*
X382600Y420710D03*
D45*
X382600Y426910D03*
D41*
X382600Y432110D03*
D36*
X382600Y438910D03*
D35*
X383000Y404710D03*
D41*
X383000Y411710D03*
D45*
X383000Y416510D03*
D30*
X383000Y420910D03*
D45*
X383000Y426910D03*
D40*
X383000Y431910D03*
D35*
X383000Y438710D03*
X383400Y404710D03*
D40*
X383400Y411910D03*
D45*
X383400Y416510D03*
D30*
X383400Y420910D03*
D45*
X383400Y426910D03*
D26*
X383400Y431710D03*
D35*
X383400Y438710D03*
D33*
X383800Y404910D03*
D30*
X383800Y412110D03*
D45*
X383800Y416510D03*
D38*
X383800Y421110D03*
D45*
X383800Y426910D03*
D34*
X383800Y431110D03*
D33*
X383800Y438510D03*
X384200Y404910D03*
D45*
X384200Y416510D03*
D26*
X384200Y421310D03*
D45*
X384200Y426910D03*
D33*
X384200Y438510D03*
D29*
X384600Y405110D03*
D45*
X384600Y416510D03*
D40*
X384600Y421510D03*
D45*
X384600Y426910D03*
D29*
X384600Y438310D03*
D39*
X385000Y405310D03*
D45*
X385000Y416510D03*
D40*
X385000Y421510D03*
D45*
X385000Y426910D03*
D39*
X385000Y438110D03*
D25*
X385400Y405510D03*
D34*
X385400Y416310D03*
D41*
X385400Y421710D03*
D45*
X385400Y426910D03*
D25*
X385400Y437910D03*
D23*
X385800Y405910D03*
D38*
X385800Y416310D03*
D36*
X385800Y421710D03*
D34*
X385800Y427110D03*
D23*
X385800Y437510D03*
D27*
X386200Y406310D03*
D40*
X386200Y415910D03*
D35*
X386200Y421910D03*
D30*
X386200Y426910D03*
D47*
X386200Y436910D03*
D21*
X386600Y421710D03*
X387000Y421710D03*
X387400Y421710D03*
X387800Y421710D03*
X388200Y421710D03*
X388600Y421710D03*
X389000Y421710D03*
D64*
X520980Y479660D03*
D65*
X520980Y479360D03*
D66*
X520980Y479110D03*
D67*
X520980Y478810D03*
D68*
X520980Y478460D03*
D69*
X520980Y478160D03*
D70*
X520980Y477910D03*
D71*
X513180Y477660D03*
D72*
X522330Y477660D03*
D73*
X529680Y477660D03*
D74*
X511080Y477310D03*
D75*
X516480Y477310D03*
D76*
X521880Y477310D03*
D77*
X530430Y477310D03*
D78*
X511080Y476960D03*
D79*
X516330Y476960D03*
D80*
X521730Y476960D03*
D81*
X530730Y476960D03*
X510930Y476760D03*
D79*
X516330Y476760D03*
D82*
X521730Y476760D03*
D81*
X531030Y476760D03*
X510930Y476460D03*
D83*
X516180Y476460D03*
D84*
X521580Y476460D03*
D81*
X531030Y476460D03*
D85*
X510780Y476110D03*
D86*
X516180Y476110D03*
D87*
X518730Y476110D03*
D75*
X521580Y476110D03*
D85*
X531180Y476110D03*
D88*
X510780Y475760D03*
D83*
X516180Y475760D03*
D79*
X518730Y475760D03*
X521430Y475760D03*
D88*
X531180Y475760D03*
X510780Y475560D03*
D83*
X516180Y475560D03*
D79*
X518730Y475560D03*
D83*
X521280Y475560D03*
D84*
X525480Y475560D03*
D89*
X531030Y475560D03*
X510630Y475260D03*
D83*
X516180Y475260D03*
X518580Y475260D03*
X521280Y475260D03*
D90*
X525480Y475260D03*
D91*
X531030Y475260D03*
D77*
X510630Y474910D03*
D92*
X516330Y474910D03*
X518130Y474910D03*
X521130Y474910D03*
D93*
X529230Y474910D03*
D89*
X510630Y474560D03*
D90*
X517080Y474560D03*
D83*
X520980Y474560D03*
D94*
X529080Y474560D03*
D89*
X510630Y474260D03*
D84*
X516780Y474260D03*
D79*
X520830Y474260D03*
D94*
X529080Y474260D03*
D89*
X510630Y474060D03*
D95*
X516480Y474060D03*
X520680Y474060D03*
D96*
X528930Y474060D03*
D77*
X510630Y473710D03*
D92*
X516330Y473710D03*
D97*
X520530Y473710D03*
D98*
X528930Y473710D03*
D89*
X510630Y473360D03*
D83*
X516180Y473360D03*
D99*
X521130Y473360D03*
D96*
X528930Y473360D03*
D89*
X510630Y473160D03*
D83*
X516180Y473160D03*
D100*
X521280Y473160D03*
D96*
X528930Y473160D03*
D89*
X510630Y472860D03*
D83*
X516180Y472860D03*
D100*
X521280Y472860D03*
D94*
X529080Y472860D03*
D77*
X510630Y472510D03*
D86*
X516180Y472510D03*
D101*
X521280Y472510D03*
D102*
X529080Y472510D03*
D89*
X510630Y472160D03*
D79*
X516330Y472160D03*
D83*
X521280Y472160D03*
D103*
X529230Y472160D03*
D88*
X510780Y471860D03*
D81*
X518730Y471860D03*
D90*
X525480Y471860D03*
D104*
X530880Y471860D03*
D88*
X510780Y471660D03*
X518880Y471660D03*
D95*
X525480Y471660D03*
D89*
X531030Y471660D03*
D85*
X510780Y471310D03*
X518880Y471310D03*
X531180Y471310D03*
D81*
X510930Y470960D03*
D89*
X519030Y470960D03*
D81*
X531030Y470960D03*
X510930Y470760D03*
D104*
X519180Y470760D03*
D81*
X531030Y470760D03*
D78*
X511080Y470460D03*
D91*
X519330Y470460D03*
D78*
X530880Y470460D03*
D74*
X511080Y470110D03*
D105*
X519630Y470110D03*
D85*
X530580Y470110D03*
D78*
X511380Y469760D03*
D106*
X519780Y469760D03*
D89*
X530130Y469760D03*
D107*
X520980Y469460D03*
D69*
X520980Y469160D03*
D68*
X520980Y468860D03*
D108*
X520980Y468660D03*
D109*
X520980Y468360D03*
D65*
X520980Y468060D03*
D64*
X520980Y467760D03*
D110*
X347600Y418910D03*
X348000Y418910D03*
X348400Y418910D03*
X348800Y418910D03*
X349200Y418910D03*
X349600Y418910D03*
X350000Y418910D03*
X350400Y418910D03*
D35*
X350800Y405110D03*
D34*
X350800Y410310D03*
D35*
X350800Y415510D03*
D45*
X350800Y420510D03*
D36*
X350800Y432910D03*
X351200Y404910D03*
D34*
X351200Y410310D03*
D37*
X351200Y415510D03*
D45*
X351200Y420510D03*
D37*
X351200Y433110D03*
D36*
X351600Y404910D03*
D45*
X351600Y410510D03*
D41*
X351600Y415710D03*
D45*
X351600Y420510D03*
D37*
X351600Y433110D03*
D36*
X352000Y404910D03*
D45*
X352000Y410510D03*
D40*
X352000Y415910D03*
D45*
X352000Y420510D03*
D37*
X352000Y433110D03*
D36*
X352400Y404910D03*
D45*
X352400Y410510D03*
D40*
X352400Y415910D03*
D34*
X352400Y420710D03*
D36*
X352400Y432910D03*
X352800Y404910D03*
D45*
X352800Y410510D03*
D26*
X352800Y416110D03*
D35*
X352800Y422310D03*
D27*
X352800Y431110D03*
D36*
X353200Y404910D03*
D45*
X353200Y410510D03*
D38*
X353200Y416310D03*
D35*
X353200Y422310D03*
D27*
X353200Y431110D03*
D36*
X353600Y404910D03*
D45*
X353600Y410510D03*
D30*
X353600Y416510D03*
D35*
X353600Y422310D03*
D27*
X353600Y431110D03*
D36*
X354000Y404910D03*
D45*
X354000Y410510D03*
D30*
X354000Y416510D03*
D35*
X354000Y422310D03*
D27*
X354000Y431110D03*
D36*
X354400Y404910D03*
D45*
X354400Y410510D03*
D34*
X354400Y416710D03*
D35*
X354400Y422310D03*
D27*
X354400Y431110D03*
D36*
X354800Y404910D03*
D45*
X354800Y410510D03*
X354800Y416910D03*
D35*
X354800Y422310D03*
D27*
X354800Y431110D03*
D36*
X355200Y404910D03*
D45*
X355200Y410510D03*
D43*
X355200Y417110D03*
D35*
X355200Y422310D03*
D27*
X355200Y431110D03*
D36*
X355600Y404910D03*
D45*
X355600Y410510D03*
D62*
X355600Y413710D03*
D43*
X355600Y417110D03*
D35*
X355600Y422310D03*
D27*
X355600Y431110D03*
D36*
X356000Y404910D03*
D45*
X356000Y410510D03*
D43*
X356000Y413910D03*
D62*
X356000Y417310D03*
D35*
X356000Y422310D03*
D27*
X356000Y431110D03*
D36*
X356400Y404910D03*
D45*
X356400Y410510D03*
X356400Y414110D03*
D35*
X356400Y422310D03*
D27*
X356400Y431110D03*
D36*
X356800Y404910D03*
D45*
X356800Y410510D03*
X356800Y414110D03*
D35*
X356800Y422310D03*
D27*
X356800Y431110D03*
D36*
X357200Y404910D03*
D45*
X357200Y410510D03*
D34*
X357200Y414310D03*
D35*
X357200Y422310D03*
D27*
X357200Y431110D03*
D36*
X357600Y404910D03*
D45*
X357600Y410510D03*
D30*
X357600Y414510D03*
D35*
X357600Y422310D03*
D27*
X357600Y431110D03*
D36*
X358000Y404910D03*
D45*
X358000Y410510D03*
D38*
X358000Y414710D03*
D35*
X358000Y422310D03*
D27*
X358000Y431110D03*
D36*
X358400Y404910D03*
D45*
X358400Y410510D03*
D38*
X358400Y414710D03*
D35*
X358400Y422310D03*
D27*
X358400Y431110D03*
D36*
X358800Y404910D03*
D45*
X358800Y410510D03*
D26*
X358800Y414910D03*
D35*
X358800Y422310D03*
D27*
X358800Y431110D03*
D36*
X359200Y404910D03*
D45*
X359200Y410510D03*
D40*
X359200Y415110D03*
D35*
X359200Y422310D03*
D27*
X359200Y431110D03*
D36*
X359600Y404910D03*
D45*
X359600Y410510D03*
D41*
X359600Y415310D03*
D35*
X359600Y422310D03*
D27*
X359600Y431110D03*
D36*
X360000Y404910D03*
D45*
X360000Y410510D03*
D41*
X360000Y415310D03*
D35*
X360000Y422310D03*
D27*
X360000Y431110D03*
D35*
X360400Y405110D03*
D34*
X360400Y410310D03*
D37*
X360400Y415510D03*
D35*
X360400Y422310D03*
D27*
X360400Y431110D03*
D35*
X360800Y405110D03*
D34*
X360800Y410310D03*
D35*
X360800Y415510D03*
D29*
X360800Y422310D03*
D47*
X360800Y430910D03*
D110*
X361200Y418910D03*
X361600Y418910D03*
X362000Y418910D03*
X362400Y418910D03*
X362800Y418910D03*
X363200Y418910D03*
X363600Y418910D03*
D111*
X373000Y749380D03*
D112*
X373400Y749180D03*
D113*
X373800Y748780D03*
D114*
X374200Y748580D03*
D115*
X374600Y748380D03*
D116*
X375000Y748180D03*
D117*
X375400Y747980D03*
D118*
X375800Y740980D03*
D25*
X375800Y752580D03*
D33*
X375800Y759180D03*
D29*
X376200Y736180D03*
D40*
X376200Y746180D03*
D29*
X376200Y752580D03*
D35*
X376200Y759380D03*
D29*
X376600Y735780D03*
D30*
X376600Y746380D03*
D35*
X376600Y752580D03*
D36*
X376600Y759580D03*
D39*
X377000Y735580D03*
D34*
X377000Y746580D03*
D37*
X377000Y752580D03*
X377000Y759780D03*
D25*
X377400Y735380D03*
D45*
X377400Y746780D03*
D40*
X377400Y752580D03*
D36*
X377400Y759580D03*
D31*
X377800Y735180D03*
D34*
X377800Y746980D03*
D38*
X377800Y752580D03*
D35*
X377800Y759380D03*
D23*
X378200Y734980D03*
D34*
X378200Y747380D03*
D30*
X378200Y752380D03*
D35*
X378200Y759380D03*
D50*
X378600Y734780D03*
D38*
X378600Y742580D03*
D30*
X378600Y747580D03*
D45*
X378600Y752380D03*
D33*
X378600Y759180D03*
D50*
X379000Y734780D03*
D26*
X379000Y742780D03*
D30*
X379000Y747980D03*
D43*
X379000Y752580D03*
D29*
X379000Y758980D03*
D27*
X379400Y734580D03*
D26*
X379400Y742780D03*
D38*
X379400Y748180D03*
D39*
X379400Y758780D03*
D47*
X379800Y734380D03*
D26*
X379800Y742780D03*
X379800Y748380D03*
D25*
X379800Y758580D03*
D47*
X380200Y734380D03*
D26*
X380200Y742780D03*
D40*
X380200Y748580D03*
D31*
X380200Y758380D03*
D47*
X380600Y734380D03*
D26*
X380600Y742780D03*
D37*
X380600Y748580D03*
D23*
X380600Y758180D03*
D47*
X381000Y734380D03*
D37*
X381000Y748580D03*
D50*
X381000Y757980D03*
D47*
X381400Y734380D03*
D37*
X381400Y748580D03*
D23*
X381400Y758180D03*
D47*
X381800Y734380D03*
D37*
X381800Y748180D03*
D31*
X381800Y758380D03*
D47*
X382200Y734380D03*
D37*
X382200Y747780D03*
D25*
X382200Y758580D03*
D27*
X382600Y734580D03*
D41*
X382600Y747580D03*
D39*
X382600Y758780D03*
D50*
X383000Y734780D03*
D26*
X383000Y747580D03*
D29*
X383000Y758980D03*
D50*
X383400Y734780D03*
D38*
X383400Y747380D03*
D43*
X383400Y752580D03*
D29*
X383400Y758980D03*
D23*
X383800Y734980D03*
D38*
X383800Y742580D03*
D30*
X383800Y747180D03*
D34*
X383800Y752580D03*
D33*
X383800Y759180D03*
D31*
X384200Y735180D03*
D38*
X384200Y742580D03*
D45*
X384200Y747180D03*
D38*
X384200Y752580D03*
D35*
X384200Y759380D03*
D25*
X384600Y735380D03*
D26*
X384600Y742780D03*
D45*
X384600Y747180D03*
D40*
X384600Y752580D03*
D36*
X384600Y759580D03*
D39*
X385000Y735580D03*
D26*
X385000Y742780D03*
D62*
X385000Y747180D03*
D37*
X385000Y752580D03*
X385000Y759780D03*
D29*
X385400Y735780D03*
D26*
X385400Y742780D03*
D62*
X385400Y747180D03*
D35*
X385400Y752580D03*
D36*
X385400Y759580D03*
D29*
X385800Y736180D03*
D41*
X385800Y742780D03*
D43*
X385800Y747380D03*
D33*
X385800Y752380D03*
D36*
X385800Y759580D03*
D33*
X386200Y736380D03*
D41*
X386200Y742780D03*
D30*
X386200Y747180D03*
D39*
X386200Y752380D03*
D35*
X386200Y759380D03*
D117*
X386600Y747980D03*
D116*
X387000Y748180D03*
D115*
X387400Y748380D03*
D114*
X387800Y748580D03*
D113*
X388200Y748780D03*
D112*
X388600Y749180D03*
D111*
X389000Y749380D03*
D119*
X398400Y745110D03*
D51*
X398800Y745310D03*
D110*
X399200Y745510D03*
D120*
X399600Y745710D03*
D121*
X400000Y745910D03*
D122*
X400400Y746110D03*
D123*
X400800Y746310D03*
D124*
X401200Y739710D03*
D25*
X401200Y752510D03*
D33*
X401200Y759110D03*
X401600Y734310D03*
D45*
X401600Y747110D03*
D29*
X401600Y752510D03*
D35*
X401600Y759310D03*
X402000Y734510D03*
D62*
X402000Y747110D03*
D35*
X402000Y752510D03*
D36*
X402000Y759510D03*
X402400Y734710D03*
D62*
X402400Y747110D03*
D37*
X402400Y752510D03*
D36*
X402400Y759510D03*
D37*
X402800Y734910D03*
D62*
X402800Y747110D03*
D41*
X402800Y752310D03*
D36*
X402800Y759510D03*
D37*
X403200Y735310D03*
D45*
X403200Y747110D03*
D26*
X403200Y752310D03*
D35*
X403200Y759310D03*
D31*
X403600Y737110D03*
D33*
X403600Y745510D03*
D30*
X403600Y752310D03*
D33*
X403600Y759110D03*
D25*
X404000Y737310D03*
D29*
X404000Y745710D03*
D45*
X404000Y752310D03*
D33*
X404000Y759110D03*
D39*
X404400Y737510D03*
X404400Y745910D03*
D62*
X404400Y752310D03*
D29*
X404400Y758910D03*
X404800Y737710D03*
D25*
X404800Y746110D03*
D39*
X404800Y758710D03*
D33*
X405200Y737910D03*
D31*
X405200Y746310D03*
D25*
X405200Y758510D03*
D33*
X405600Y737910D03*
D23*
X405600Y746510D03*
D31*
X405600Y758310D03*
D33*
X406000Y737910D03*
D23*
X406000Y746510D03*
X406000Y758110D03*
D33*
X406400Y737910D03*
D50*
X406400Y746710D03*
X406400Y757910D03*
D33*
X406800Y737910D03*
D50*
X406800Y746710D03*
D23*
X406800Y758110D03*
D33*
X407200Y737910D03*
D23*
X407200Y746510D03*
D31*
X407200Y758310D03*
D33*
X407600Y737910D03*
D31*
X407600Y746310D03*
D25*
X407600Y758510D03*
D29*
X408000Y737710D03*
D25*
X408000Y746110D03*
X408000Y758510D03*
D39*
X408400Y737510D03*
X408400Y745910D03*
D62*
X408400Y752310D03*
D39*
X408400Y758710D03*
D25*
X408800Y737310D03*
D29*
X408800Y745710D03*
D45*
X408800Y752310D03*
D29*
X408800Y758910D03*
D31*
X409200Y737110D03*
D33*
X409200Y745510D03*
D30*
X409200Y752310D03*
D33*
X409200Y759110D03*
D23*
X409600Y736910D03*
D35*
X409600Y745310D03*
D38*
X409600Y752510D03*
D35*
X409600Y759310D03*
D50*
X410000Y736710D03*
D35*
X410000Y745310D03*
D40*
X410000Y752510D03*
D36*
X410000Y759510D03*
D27*
X410400Y736510D03*
D36*
X410400Y745110D03*
D37*
X410400Y752510D03*
D36*
X410400Y759510D03*
D47*
X410800Y736310D03*
D36*
X410800Y745110D03*
X410800Y752310D03*
X410800Y759510D03*
D49*
X411200Y736110D03*
D35*
X411200Y745310D03*
D33*
X411200Y752310D03*
D36*
X411200Y759510D03*
D48*
X411600Y736110D03*
D29*
X411600Y745310D03*
D39*
X411600Y752310D03*
D35*
X411600Y759310D03*
D123*
X412000Y746310D03*
D122*
X412400Y746110D03*
D121*
X412800Y745910D03*
D120*
X413200Y745710D03*
D110*
X413600Y745510D03*
D51*
X414000Y745310D03*
D119*
X414400Y745110D03*
D123*
X172340Y480670D03*
D119*
X172740Y480670D03*
D53*
X173140Y480670D03*
D17*
X173540Y480670D03*
D18*
X173940Y480670D03*
D19*
X174340Y480670D03*
D21*
X174740Y480670D03*
D117*
X175140Y474670D03*
D48*
X175140Y495670D03*
D50*
X175540Y464270D03*
D41*
X175540Y475470D03*
D35*
X175540Y485270D03*
D49*
X175540Y496470D03*
D50*
X175940Y464270D03*
D26*
X175940Y475870D03*
D41*
X175940Y485470D03*
D47*
X175940Y496670D03*
D27*
X176340Y464070D03*
D38*
X176340Y476070D03*
D26*
X176340Y485470D03*
D47*
X176340Y497070D03*
D27*
X176740Y464070D03*
D30*
X176740Y476270D03*
X176740Y485470D03*
D47*
X176740Y497070D03*
X177140Y463870D03*
D34*
X177140Y476470D03*
X177140Y485670D03*
D49*
X177140Y497270D03*
D47*
X177540Y463870D03*
D34*
X177540Y476470D03*
D45*
X177540Y485470D03*
D34*
X177540Y489670D03*
D61*
X177540Y497070D03*
D47*
X177940Y463870D03*
D38*
X177940Y471670D03*
D45*
X177940Y476670D03*
D38*
X177940Y480870D03*
D45*
X177940Y485470D03*
D30*
X177940Y489870D03*
D48*
X177940Y496870D03*
D49*
X178340Y463670D03*
D40*
X178340Y472070D03*
D45*
X178340Y476670D03*
D26*
X178340Y481070D03*
D43*
X178340Y485670D03*
D125*
X178340Y495270D03*
D49*
X178740Y463670D03*
D40*
X178740Y472070D03*
D45*
X178740Y476670D03*
D40*
X178740Y481270D03*
D43*
X178740Y485670D03*
D60*
X178740Y495470D03*
D49*
X179140Y463670D03*
D40*
X179140Y472070D03*
D45*
X179140Y476670D03*
D40*
X179140Y481270D03*
D45*
X179140Y485870D03*
D58*
X179140Y495870D03*
D49*
X179540Y463670D03*
D40*
X179540Y472070D03*
D45*
X179540Y476670D03*
D26*
X179540Y481070D03*
D45*
X179540Y485870D03*
D42*
X179540Y496670D03*
D49*
X179940Y463670D03*
D26*
X179940Y471870D03*
D45*
X179940Y476670D03*
D26*
X179940Y481070D03*
D34*
X179940Y486070D03*
D48*
X179940Y497270D03*
D49*
X180340Y463670D03*
D45*
X180340Y476670D03*
D30*
X180340Y485870D03*
D61*
X180340Y497470D03*
D49*
X180740Y463670D03*
D34*
X180740Y476470D03*
D26*
X180740Y486270D03*
D49*
X180740Y497670D03*
X181140Y463670D03*
D34*
X181140Y476470D03*
D37*
X181140Y486470D03*
D49*
X181140Y497670D03*
X181540Y463670D03*
D30*
X181540Y476270D03*
D29*
X181540Y486870D03*
D47*
X181540Y497870D03*
D49*
X181940Y463670D03*
D38*
X181940Y476070D03*
D23*
X181940Y487270D03*
D47*
X181940Y497870D03*
D49*
X182340Y463670D03*
D40*
X182340Y475670D03*
D41*
X182340Y485070D03*
X182340Y489470D03*
D47*
X182340Y497870D03*
X182740Y463870D03*
D36*
X182740Y475070D03*
X182740Y484270D03*
D26*
X182740Y489870D03*
D27*
X182740Y497670D03*
D47*
X183140Y463870D03*
D31*
X183140Y473870D03*
D25*
X183140Y482870D03*
D30*
X183140Y489870D03*
D27*
X183140Y497670D03*
D47*
X183540Y463870D03*
D31*
X183540Y473870D03*
D25*
X183540Y482870D03*
D47*
X183540Y497470D03*
D27*
X183940Y464070D03*
D31*
X183940Y473870D03*
D25*
X183940Y482870D03*
D27*
X183940Y497270D03*
X184340Y464070D03*
D31*
X184340Y473870D03*
X184340Y483070D03*
D47*
X184340Y497070D03*
D50*
X184740Y464270D03*
D31*
X184740Y473870D03*
D23*
X184740Y483270D03*
D27*
X184740Y496870D03*
D50*
X185140Y464270D03*
D31*
X185140Y473870D03*
D50*
X185140Y483470D03*
D49*
X185140Y496470D03*
D50*
X185540Y464670D03*
X185540Y473870D03*
D49*
X185540Y483670D03*
D61*
X185540Y495870D03*
D21*
X185940Y480670D03*
D19*
X186340Y480670D03*
D18*
X186740Y480670D03*
D17*
X187140Y480670D03*
D53*
X187540Y480670D03*
D119*
X187940Y480670D03*
D123*
X188340Y480670D03*
D12*
X295783Y796163D02*
X295783Y805053D01*
X295783Y796163D02*
X295781Y796063D01*
X295775Y795964D01*
X295765Y795864D01*
X295752Y795766D01*
X295734Y795667D01*
X295713Y795570D01*
X295688Y795474D01*
X295659Y795378D01*
X295626Y795284D01*
X295590Y795191D01*
X295550Y795100D01*
X295506Y795010D01*
X295459Y794922D01*
X295409Y794836D01*
X295355Y794752D01*
X295298Y794670D01*
X295238Y794591D01*
X295174Y794513D01*
X295108Y794439D01*
X295039Y794367D01*
X294967Y794298D01*
X294893Y794232D01*
X294815Y794168D01*
X294736Y794108D01*
X294654Y794051D01*
X294570Y793997D01*
X294484Y793947D01*
X294396Y793900D01*
X294306Y793856D01*
X294215Y793816D01*
X294122Y793780D01*
X294028Y793747D01*
X293932Y793718D01*
X293836Y793693D01*
X293739Y793672D01*
X293640Y793654D01*
X293542Y793641D01*
X293442Y793631D01*
X293343Y793625D01*
X293243Y793623D01*
X291973Y793623D01*
X301192Y796163D02*
X303732Y805053D01*
X301192Y796163D02*
X307542Y796163D01*
X305637Y798703D02*
X305637Y793623D01*
X463636Y379095D02*
X463636Y375341D01*
X463634Y375276D01*
X463628Y375212D01*
X463618Y375148D01*
X463605Y375084D01*
X463587Y375022D01*
X463566Y374961D01*
X463542Y374901D01*
X463513Y374843D01*
X463481Y374786D01*
X463446Y374732D01*
X463408Y374680D01*
X463366Y374630D01*
X463322Y374583D01*
X463275Y374539D01*
X463225Y374497D01*
X463173Y374459D01*
X463119Y374424D01*
X463062Y374392D01*
X463004Y374363D01*
X462944Y374339D01*
X462883Y374318D01*
X462821Y374300D01*
X462757Y374287D01*
X462693Y374277D01*
X462629Y374271D01*
X462564Y374269D01*
X462027Y374269D01*
X466584Y374269D02*
X467924Y374269D01*
X467995Y374271D01*
X468067Y374277D01*
X468137Y374286D01*
X468207Y374299D01*
X468277Y374316D01*
X468345Y374337D01*
X468412Y374361D01*
X468478Y374389D01*
X468542Y374420D01*
X468605Y374455D01*
X468665Y374493D01*
X468724Y374534D01*
X468780Y374578D01*
X468834Y374625D01*
X468885Y374674D01*
X468933Y374727D01*
X468979Y374782D01*
X469021Y374839D01*
X469061Y374899D01*
X469097Y374960D01*
X469130Y375024D01*
X469159Y375089D01*
X469185Y375155D01*
X469208Y375223D01*
X469227Y375292D01*
X469242Y375362D01*
X469253Y375432D01*
X469261Y375503D01*
X469265Y375574D01*
X469265Y375646D01*
X469261Y375717D01*
X469253Y375788D01*
X469242Y375858D01*
X469227Y375928D01*
X469208Y375997D01*
X469185Y376065D01*
X469159Y376131D01*
X469130Y376196D01*
X469097Y376260D01*
X469061Y376321D01*
X469021Y376381D01*
X468979Y376438D01*
X468933Y376493D01*
X468885Y376546D01*
X468834Y376595D01*
X468780Y376642D01*
X468724Y376686D01*
X468665Y376727D01*
X468605Y376765D01*
X468542Y376800D01*
X468478Y376831D01*
X468412Y376859D01*
X468345Y376883D01*
X468277Y376904D01*
X468207Y376921D01*
X468137Y376934D01*
X468067Y376943D01*
X467995Y376949D01*
X467924Y376951D01*
X468193Y379095D02*
X466584Y379095D01*
X468193Y379095D02*
X468258Y379093D01*
X468322Y379087D01*
X468386Y379077D01*
X468450Y379064D01*
X468512Y379046D01*
X468573Y379025D01*
X468633Y379001D01*
X468691Y378972D01*
X468748Y378940D01*
X468802Y378905D01*
X468854Y378867D01*
X468904Y378825D01*
X468951Y378781D01*
X468995Y378734D01*
X469037Y378684D01*
X469075Y378632D01*
X469110Y378578D01*
X469142Y378521D01*
X469171Y378463D01*
X469195Y378403D01*
X469216Y378342D01*
X469234Y378280D01*
X469247Y378216D01*
X469257Y378152D01*
X469263Y378088D01*
X469265Y378023D01*
X469263Y377958D01*
X469257Y377894D01*
X469247Y377830D01*
X469234Y377766D01*
X469216Y377704D01*
X469195Y377643D01*
X469171Y377583D01*
X469142Y377525D01*
X469110Y377468D01*
X469075Y377414D01*
X469037Y377362D01*
X468995Y377312D01*
X468951Y377265D01*
X468904Y377221D01*
X468854Y377179D01*
X468802Y377141D01*
X468748Y377106D01*
X468691Y377074D01*
X468633Y377045D01*
X468573Y377021D01*
X468512Y377000D01*
X468450Y376982D01*
X468386Y376969D01*
X468322Y376959D01*
X468258Y376953D01*
X468193Y376951D01*
X468193Y376950D02*
X467120Y376950D01*
D17*
X347600Y743490D03*
X348000Y743490D03*
X348400Y743490D03*
X348800Y743490D03*
X349200Y743490D03*
X349600Y743490D03*
X350000Y743490D03*
D23*
X350400Y728890D03*
D57*
X350400Y743490D03*
D23*
X350400Y758090D03*
D39*
X350800Y728290D03*
D26*
X350800Y737090D03*
D39*
X350800Y743490D03*
D26*
X350800Y749890D03*
D39*
X350800Y758690D03*
D29*
X351200Y728090D03*
D30*
X351200Y737090D03*
D39*
X351200Y743490D03*
D30*
X351200Y749890D03*
D29*
X351200Y758890D03*
D33*
X351600Y727890D03*
D34*
X351600Y737290D03*
D33*
X351600Y743490D03*
D34*
X351600Y749690D03*
D33*
X351600Y759090D03*
D35*
X352000Y727690D03*
D45*
X352000Y737490D03*
D33*
X352000Y743490D03*
D45*
X352000Y749490D03*
D35*
X352000Y759290D03*
X352400Y727690D03*
D34*
X352400Y737690D03*
D35*
X352400Y743690D03*
D34*
X352400Y749290D03*
D35*
X352400Y759290D03*
X352800Y727690D03*
D43*
X352800Y733690D03*
D45*
X352800Y737890D03*
D36*
X352800Y743490D03*
D34*
X352800Y749290D03*
D43*
X352800Y753690D03*
D36*
X352800Y759490D03*
D35*
X353200Y727690D03*
D30*
X353200Y733490D03*
D34*
X353200Y738090D03*
D37*
X353200Y743690D03*
D30*
X353200Y749090D03*
X353200Y753490D03*
D36*
X353200Y759490D03*
D35*
X353600Y727690D03*
D26*
X353600Y733490D03*
D34*
X353600Y738090D03*
D41*
X353600Y743490D03*
D30*
X353600Y749090D03*
D26*
X353600Y753490D03*
D36*
X353600Y759490D03*
D29*
X354000Y728090D03*
D26*
X354000Y733090D03*
D30*
X354000Y738290D03*
D40*
X354000Y743690D03*
X354000Y749290D03*
D26*
X354000Y753090D03*
D36*
X354000Y759490D03*
D23*
X354400Y728890D03*
D38*
X354400Y738090D03*
D26*
X354400Y743490D03*
D35*
X354400Y750090D03*
X354400Y759290D03*
D23*
X354800Y728890D03*
D26*
X354800Y738290D03*
X354800Y743490D03*
D33*
X354800Y749890D03*
D35*
X354800Y759290D03*
D23*
X355200Y728890D03*
D40*
X355200Y738090D03*
D30*
X355200Y743490D03*
D33*
X355200Y749890D03*
X355200Y759090D03*
D23*
X355600Y728890D03*
D37*
X355600Y738090D03*
D30*
X355600Y743490D03*
D29*
X355600Y749690D03*
X355600Y758890D03*
D23*
X356000Y728890D03*
D40*
X356000Y738490D03*
D45*
X356000Y743490D03*
D29*
X356000Y749690D03*
D35*
X356000Y759290D03*
D23*
X356400Y728890D03*
D41*
X356400Y738690D03*
D45*
X356400Y743490D03*
D39*
X356400Y749490D03*
D35*
X356400Y759290D03*
D49*
X356800Y729690D03*
D40*
X356800Y738890D03*
D62*
X356800Y743490D03*
D50*
X356800Y750290D03*
D36*
X356800Y759490D03*
D35*
X357200Y727690D03*
D40*
X357200Y733290D03*
D41*
X357200Y739090D03*
D62*
X357200Y743490D03*
D37*
X357200Y748090D03*
D40*
X357200Y753290D03*
D36*
X357200Y759490D03*
X357600Y727490D03*
D26*
X357600Y733490D03*
D41*
X357600Y739090D03*
X357600Y747890D03*
D26*
X357600Y753490D03*
D36*
X357600Y759490D03*
X358000Y727490D03*
D26*
X358000Y733490D03*
D37*
X358000Y739290D03*
X358000Y747690D03*
D26*
X358000Y753490D03*
D36*
X358000Y759490D03*
X358400Y727490D03*
D30*
X358400Y733490D03*
D37*
X358400Y739290D03*
X358400Y747690D03*
D30*
X358400Y753490D03*
D36*
X358400Y759490D03*
X358800Y727490D03*
X358800Y739490D03*
X358800Y747490D03*
X358800Y759490D03*
X359200Y727490D03*
X359200Y739490D03*
X359200Y747490D03*
X359200Y759490D03*
D35*
X359600Y727690D03*
D33*
X359600Y739490D03*
X359600Y747490D03*
D35*
X359600Y759290D03*
D33*
X360000Y727890D03*
D29*
X360000Y739290D03*
X360000Y747690D03*
D33*
X360000Y759090D03*
D29*
X360400Y728090D03*
D25*
X360400Y739290D03*
X360400Y747690D03*
D29*
X360400Y758890D03*
D25*
X360800Y728490D03*
D50*
X360800Y739090D03*
X360800Y747890D03*
D25*
X360800Y758490D03*
D17*
X361200Y743490D03*
X361600Y743490D03*
X362000Y743490D03*
X362400Y743490D03*
X362800Y743490D03*
X363200Y743490D03*
X363600Y743490D03*
D21*
X296800Y741750D03*
X297200Y741750D03*
X297600Y741750D03*
X298000Y741750D03*
X298400Y741750D03*
X298800Y741750D03*
X299200Y741750D03*
D47*
X299600Y726550D03*
D63*
X299600Y747150D03*
D50*
X300000Y726150D03*
D40*
X300000Y735950D03*
D35*
X300000Y741950D03*
D34*
X300000Y747150D03*
D50*
X300000Y757350D03*
D31*
X300400Y725750D03*
D30*
X300400Y736150D03*
D37*
X300400Y741950D03*
D45*
X300400Y746950D03*
D31*
X300400Y757750D03*
D25*
X300800Y725550D03*
D34*
X300800Y736350D03*
D41*
X300800Y742150D03*
D45*
X300800Y746950D03*
D25*
X300800Y757950D03*
D29*
X301200Y725150D03*
D34*
X301200Y736350D03*
D41*
X301200Y742150D03*
D45*
X301200Y746950D03*
D39*
X301200Y758150D03*
D29*
X301600Y725150D03*
D34*
X301600Y736350D03*
D40*
X301600Y742350D03*
D45*
X301600Y746950D03*
D29*
X301600Y758350D03*
D33*
X302000Y724950D03*
D34*
X302000Y736350D03*
D26*
X302000Y742550D03*
D45*
X302000Y746950D03*
D33*
X302000Y758550D03*
D35*
X302400Y724750D03*
D26*
X302400Y732150D03*
D30*
X302400Y736150D03*
D38*
X302400Y742750D03*
D45*
X302400Y746950D03*
D38*
X302400Y751550D03*
D35*
X302400Y758750D03*
X302800Y724750D03*
D23*
X302800Y733550D03*
D38*
X302800Y742750D03*
D45*
X302800Y746950D03*
D26*
X302800Y751750D03*
D35*
X302800Y758750D03*
X303200Y724750D03*
D50*
X303200Y733350D03*
D30*
X303200Y742950D03*
D45*
X303200Y746950D03*
D40*
X303200Y751950D03*
D36*
X303200Y758950D03*
X303600Y724550D03*
D50*
X303600Y733350D03*
D34*
X303600Y743150D03*
D45*
X303600Y746950D03*
D41*
X303600Y752150D03*
D36*
X303600Y758950D03*
X304000Y724550D03*
D26*
X304000Y730550D03*
D34*
X304000Y736350D03*
D45*
X304000Y743350D03*
X304000Y746950D03*
D37*
X304000Y752350D03*
D36*
X304000Y758950D03*
X304400Y724550D03*
D38*
X304400Y730350D03*
D45*
X304400Y736550D03*
X304400Y743350D03*
X304400Y746950D03*
D37*
X304400Y752350D03*
D36*
X304400Y758950D03*
X304800Y724550D03*
D38*
X304800Y730350D03*
D45*
X304800Y736550D03*
D62*
X304800Y740150D03*
D43*
X304800Y743550D03*
D45*
X304800Y746950D03*
D37*
X304800Y752350D03*
D36*
X304800Y758950D03*
X305200Y724550D03*
D38*
X305200Y730350D03*
D45*
X305200Y736550D03*
D43*
X305200Y740350D03*
D62*
X305200Y743750D03*
D45*
X305200Y746950D03*
D37*
X305200Y752350D03*
D36*
X305200Y758950D03*
X305600Y724550D03*
D38*
X305600Y730350D03*
D45*
X305600Y736550D03*
D43*
X305600Y740350D03*
D45*
X305600Y746950D03*
D37*
X305600Y752350D03*
D36*
X305600Y758950D03*
X306000Y724550D03*
D37*
X306000Y731550D03*
D45*
X306000Y736550D03*
X306000Y740550D03*
X306000Y746950D03*
D41*
X306000Y752150D03*
D36*
X306000Y758950D03*
D35*
X306400Y724750D03*
D37*
X306400Y731550D03*
D45*
X306400Y736550D03*
D34*
X306400Y740750D03*
D45*
X306400Y746950D03*
D41*
X306400Y752150D03*
D36*
X306400Y758950D03*
D35*
X306800Y724750D03*
D41*
X306800Y731750D03*
D45*
X306800Y736550D03*
D30*
X306800Y740950D03*
D45*
X306800Y746950D03*
D40*
X306800Y751950D03*
D35*
X306800Y758750D03*
X307200Y724750D03*
D40*
X307200Y731950D03*
D45*
X307200Y736550D03*
D30*
X307200Y740950D03*
D45*
X307200Y746950D03*
D26*
X307200Y751750D03*
D35*
X307200Y758750D03*
D33*
X307600Y724950D03*
D30*
X307600Y732150D03*
D45*
X307600Y736550D03*
D38*
X307600Y741150D03*
D45*
X307600Y746950D03*
D34*
X307600Y751150D03*
D33*
X307600Y758550D03*
X308000Y724950D03*
D45*
X308000Y736550D03*
D26*
X308000Y741350D03*
D45*
X308000Y746950D03*
D33*
X308000Y758550D03*
D29*
X308400Y725150D03*
D45*
X308400Y736550D03*
D40*
X308400Y741550D03*
D45*
X308400Y746950D03*
D29*
X308400Y758350D03*
D39*
X308800Y725350D03*
D45*
X308800Y736550D03*
D40*
X308800Y741550D03*
D45*
X308800Y746950D03*
D39*
X308800Y758150D03*
D25*
X309200Y725550D03*
D34*
X309200Y736350D03*
D41*
X309200Y741750D03*
D45*
X309200Y746950D03*
D25*
X309200Y757950D03*
D23*
X309600Y725950D03*
D38*
X309600Y736350D03*
D36*
X309600Y741750D03*
D34*
X309600Y747150D03*
D23*
X309600Y757550D03*
D27*
X310000Y726350D03*
D40*
X310000Y735950D03*
D35*
X310000Y741950D03*
D30*
X310000Y746950D03*
D47*
X310000Y756950D03*
D21*
X310400Y741750D03*
X310800Y741750D03*
X311200Y741750D03*
X311600Y741750D03*
X312000Y741750D03*
X312400Y741750D03*
X312800Y741750D03*
D63*
X296800Y415370D03*
D126*
X297200Y415570D03*
D127*
X297600Y415970D03*
D128*
X298000Y416170D03*
D36*
X298400Y403570D03*
D37*
X298400Y429370D03*
X298800Y403370D03*
X298800Y429770D03*
X299200Y403370D03*
D36*
X299200Y429970D03*
D37*
X299600Y403370D03*
D35*
X299600Y430170D03*
D37*
X300000Y403370D03*
D33*
X300000Y430370D03*
D36*
X300400Y403570D03*
D39*
X300400Y430370D03*
D110*
X300800Y417570D03*
D51*
X301200Y417770D03*
D119*
X301600Y417970D03*
D129*
X302000Y418170D03*
D35*
X302400Y403770D03*
D36*
X302400Y412770D03*
D34*
X302400Y418970D03*
D50*
X302400Y431570D03*
D35*
X302800Y403770D03*
D26*
X302800Y412770D03*
D43*
X302800Y418970D03*
D50*
X302800Y431570D03*
D35*
X303200Y403770D03*
D30*
X303200Y412770D03*
D62*
X303200Y419170D03*
D27*
X303200Y431770D03*
D35*
X303600Y403770D03*
D34*
X303600Y412970D03*
D43*
X303600Y419370D03*
D47*
X303600Y431970D03*
D35*
X304000Y403770D03*
D43*
X304000Y412970D03*
D41*
X304000Y420770D03*
D32*
X304000Y430570D03*
D35*
X304400Y403770D03*
D30*
X304400Y409170D03*
D43*
X304400Y412970D03*
D30*
X304400Y416370D03*
D37*
X304400Y420570D03*
D28*
X304400Y430370D03*
D35*
X304800Y403770D03*
D38*
X304800Y409370D03*
D43*
X304800Y412970D03*
D23*
X304800Y418970D03*
D28*
X304800Y430370D03*
D35*
X305200Y403770D03*
D38*
X305200Y409370D03*
D43*
X305200Y412970D03*
D31*
X305200Y419170D03*
D28*
X305200Y430370D03*
D35*
X305600Y403770D03*
D38*
X305600Y409370D03*
D43*
X305600Y412970D03*
D39*
X305600Y419570D03*
D28*
X305600Y430370D03*
D35*
X306000Y403770D03*
D38*
X306000Y409370D03*
D45*
X306000Y413170D03*
D36*
X306000Y420370D03*
D28*
X306000Y430370D03*
D35*
X306400Y403770D03*
D30*
X306400Y409170D03*
D34*
X306400Y413370D03*
D41*
X306400Y420770D03*
D32*
X306400Y430170D03*
D35*
X306800Y403770D03*
D30*
X306800Y413570D03*
D40*
X306800Y420970D03*
D42*
X306800Y429970D03*
D35*
X307200Y403770D03*
D40*
X307200Y413770D03*
X307200Y420970D03*
D42*
X307200Y429970D03*
D35*
X307600Y403770D03*
D33*
X307600Y414370D03*
D40*
X307600Y420970D03*
D44*
X307600Y429770D03*
D35*
X308000Y403770D03*
D33*
X308000Y414770D03*
D40*
X308000Y420970D03*
D46*
X308000Y429570D03*
D35*
X308400Y403770D03*
D34*
X308400Y412970D03*
D38*
X308400Y416170D03*
D40*
X308400Y420970D03*
D48*
X308400Y429370D03*
D35*
X308800Y403770D03*
D30*
X308800Y409170D03*
D43*
X308800Y412970D03*
D30*
X308800Y416370D03*
D40*
X308800Y420970D03*
D61*
X308800Y429170D03*
D35*
X309200Y403770D03*
D30*
X309200Y409170D03*
D43*
X309200Y412970D03*
D40*
X309200Y420970D03*
D49*
X309200Y428970D03*
D35*
X309600Y403770D03*
D38*
X309600Y409370D03*
D43*
X309600Y412970D03*
D40*
X309600Y420970D03*
D47*
X309600Y428770D03*
D35*
X310000Y403770D03*
D38*
X310000Y409370D03*
D43*
X310000Y413370D03*
D41*
X310000Y420770D03*
D27*
X310000Y428570D03*
D35*
X310400Y403770D03*
D26*
X310400Y409570D03*
D45*
X310400Y413570D03*
D37*
X310400Y420570D03*
D50*
X310400Y428370D03*
D35*
X310800Y403770D03*
D40*
X310800Y409370D03*
D26*
X310800Y413570D03*
D33*
X310800Y420370D03*
D23*
X310800Y428170D03*
D130*
X311200Y416370D03*
D128*
X311600Y416170D03*
D127*
X312000Y415970D03*
D126*
X312400Y415570D03*
D63*
X312800Y415370D03*
D55*
X322200Y419770D03*
D17*
X322600Y419970D03*
D18*
X323000Y420370D03*
D131*
X323400Y420570D03*
D36*
X323800Y403970D03*
D37*
X323800Y437770D03*
X324200Y403770D03*
D41*
X324200Y438370D03*
D37*
X324600Y403770D03*
X324600Y438570D03*
X325000Y403770D03*
D36*
X325000Y438770D03*
D37*
X325400Y403770D03*
D35*
X325400Y438970D03*
D36*
X325800Y403970D03*
D39*
X325800Y438770D03*
D132*
X326200Y421970D03*
D133*
X326600Y422170D03*
D134*
X327000Y422370D03*
D135*
X327400Y422570D03*
D39*
X327800Y404770D03*
D33*
X327800Y413570D03*
D35*
X327800Y419770D03*
D45*
X327800Y429170D03*
D50*
X327800Y439970D03*
D33*
X328200Y404370D03*
D36*
X328200Y413570D03*
D37*
X328200Y419770D03*
D43*
X328200Y428970D03*
D50*
X328200Y439970D03*
D35*
X328600Y404170D03*
D37*
X328600Y413770D03*
X328600Y419770D03*
D43*
X328600Y428970D03*
D27*
X328600Y440170D03*
D35*
X329000Y404170D03*
D41*
X329000Y413570D03*
X329000Y419970D03*
D43*
X329000Y428970D03*
D47*
X329000Y440370D03*
D36*
X329400Y403970D03*
D41*
X329400Y413570D03*
X329400Y419970D03*
D43*
X329400Y428970D03*
D47*
X329400Y440370D03*
D36*
X329800Y403970D03*
D30*
X329800Y409170D03*
D41*
X329800Y413170D03*
D40*
X329800Y420170D03*
D33*
X329800Y426770D03*
D59*
X329800Y438170D03*
D36*
X330200Y403970D03*
D31*
X330200Y411570D03*
D40*
X330200Y420170D03*
D29*
X330200Y426570D03*
D60*
X330200Y437970D03*
D36*
X330600Y403970D03*
D39*
X330600Y411570D03*
D26*
X330600Y420370D03*
D29*
X330600Y426570D03*
D60*
X330600Y437970D03*
D36*
X331000Y403970D03*
D33*
X331000Y411970D03*
D26*
X331000Y420370D03*
D38*
X331000Y428170D03*
D46*
X331000Y439570D03*
D35*
X331400Y404170D03*
D40*
X331400Y412570D03*
D62*
X331400Y416770D03*
D38*
X331400Y420570D03*
D30*
X331400Y428370D03*
D48*
X331400Y439770D03*
D33*
X331800Y404370D03*
D38*
X331800Y412970D03*
D62*
X331800Y416770D03*
D38*
X331800Y420570D03*
D30*
X331800Y428370D03*
D61*
X331800Y439570D03*
D29*
X332200Y404570D03*
D34*
X332200Y412970D03*
D45*
X332200Y416770D03*
D30*
X332200Y420770D03*
X332200Y428370D03*
D49*
X332200Y439370D03*
D25*
X332600Y404970D03*
D34*
X332600Y412970D03*
D45*
X332600Y416770D03*
D30*
X332600Y420770D03*
X332600Y428370D03*
D49*
X332600Y439370D03*
D27*
X333000Y405770D03*
D45*
X333000Y412770D03*
D34*
X333000Y420970D03*
D38*
X333000Y428170D03*
D49*
X333000Y438970D03*
D47*
X333400Y405970D03*
D45*
X333400Y412770D03*
D34*
X333400Y420970D03*
D29*
X333400Y426570D03*
D28*
X333400Y437170D03*
D35*
X333800Y404170D03*
D38*
X333800Y408970D03*
D43*
X333800Y412570D03*
D45*
X333800Y421170D03*
D29*
X333800Y426570D03*
D32*
X333800Y436970D03*
D36*
X334200Y403970D03*
D30*
X334200Y409170D03*
D43*
X334200Y412570D03*
D45*
X334200Y421170D03*
D29*
X334200Y426570D03*
D44*
X334200Y436970D03*
D36*
X334600Y403970D03*
D62*
X334600Y412370D03*
D41*
X334600Y416770D03*
D43*
X334600Y421370D03*
D29*
X334600Y426570D03*
X334600Y438970D03*
D36*
X335000Y403970D03*
D62*
X335000Y412370D03*
D41*
X335000Y416770D03*
D43*
X335000Y421370D03*
D29*
X335000Y426570D03*
D33*
X335000Y438770D03*
D35*
X335400Y404170D03*
D43*
X335400Y412170D03*
D36*
X335400Y416770D03*
D43*
X335400Y421370D03*
D29*
X335400Y426570D03*
D35*
X335400Y438570D03*
D33*
X335800Y404370D03*
D45*
X335800Y411970D03*
D36*
X335800Y416770D03*
D43*
X335800Y421370D03*
D29*
X335800Y426570D03*
D36*
X335800Y438370D03*
D39*
X336200Y404770D03*
D38*
X336200Y411770D03*
D33*
X336200Y416770D03*
D34*
X336200Y421370D03*
D39*
X336200Y426770D03*
D37*
X336200Y438170D03*
D19*
X336600Y420770D03*
D131*
X337000Y420570D03*
D18*
X337400Y420370D03*
D17*
X337800Y419970D03*
D55*
X338200Y419770D03*
D21*
X271400Y419170D03*
D20*
X271800Y418970D03*
D19*
X272200Y418770D03*
D131*
X272600Y418570D03*
D18*
X273000Y418370D03*
D56*
X273400Y418170D03*
D17*
X273800Y417970D03*
D112*
X274200Y412370D03*
D47*
X274200Y431570D03*
D35*
X274600Y402170D03*
D41*
X274600Y411970D03*
D35*
X274600Y421770D03*
D31*
X274600Y431970D03*
D35*
X275000Y402170D03*
D26*
X275000Y412370D03*
D41*
X275000Y421970D03*
D39*
X275000Y431970D03*
D35*
X275400Y402170D03*
D38*
X275400Y412570D03*
D26*
X275400Y421970D03*
D33*
X275400Y431970D03*
D35*
X275800Y402170D03*
D30*
X275800Y412770D03*
X275800Y421970D03*
D35*
X275800Y431770D03*
X276200Y402170D03*
D34*
X276200Y412970D03*
X276200Y422170D03*
D36*
X276200Y431570D03*
D35*
X276600Y402170D03*
D34*
X276600Y412970D03*
D45*
X276600Y421970D03*
D34*
X276600Y426170D03*
D36*
X276600Y431170D03*
D35*
X277000Y402170D03*
D38*
X277000Y408170D03*
D45*
X277000Y413170D03*
D38*
X277000Y417370D03*
D45*
X277000Y421970D03*
D30*
X277000Y426370D03*
D36*
X277000Y430770D03*
D35*
X277400Y402170D03*
D40*
X277400Y408570D03*
D45*
X277400Y413170D03*
D26*
X277400Y417570D03*
D43*
X277400Y422170D03*
D50*
X277400Y428770D03*
D35*
X277800Y402170D03*
D40*
X277800Y408570D03*
D45*
X277800Y413170D03*
D40*
X277800Y417770D03*
D43*
X277800Y422170D03*
D31*
X277800Y428770D03*
D35*
X278200Y402170D03*
D40*
X278200Y408570D03*
D45*
X278200Y413170D03*
D40*
X278200Y417770D03*
D45*
X278200Y422370D03*
D29*
X278200Y428970D03*
D35*
X278600Y402170D03*
D40*
X278600Y408570D03*
D45*
X278600Y413170D03*
D26*
X278600Y417570D03*
D45*
X278600Y422370D03*
D37*
X278600Y429770D03*
D35*
X279000Y402170D03*
D26*
X279000Y408370D03*
D45*
X279000Y413170D03*
D26*
X279000Y417570D03*
D34*
X279000Y422570D03*
D26*
X279000Y430370D03*
D35*
X279400Y402170D03*
D45*
X279400Y413170D03*
D30*
X279400Y422370D03*
D38*
X279400Y430570D03*
D35*
X279800Y402170D03*
D34*
X279800Y412970D03*
D26*
X279800Y422770D03*
D30*
X279800Y430770D03*
D35*
X280200Y402170D03*
D34*
X280200Y412970D03*
D37*
X280200Y422970D03*
D30*
X280200Y430770D03*
D35*
X280600Y402170D03*
D30*
X280600Y412770D03*
D29*
X280600Y423370D03*
D34*
X280600Y430970D03*
D35*
X281000Y402170D03*
D38*
X281000Y412570D03*
D23*
X281000Y423770D03*
D30*
X281000Y431170D03*
D35*
X281400Y402170D03*
D40*
X281400Y412170D03*
D41*
X281400Y421570D03*
X281400Y425970D03*
D38*
X281400Y431370D03*
D35*
X281800Y402170D03*
D36*
X281800Y411570D03*
X281800Y420770D03*
D26*
X281800Y426370D03*
X281800Y431570D03*
D35*
X282200Y402170D03*
D31*
X282200Y410370D03*
D25*
X282200Y419370D03*
D30*
X282200Y426370D03*
D40*
X282200Y431770D03*
D35*
X282600Y402170D03*
D31*
X282600Y410370D03*
D25*
X282600Y419370D03*
D37*
X282600Y431770D03*
D35*
X283000Y402170D03*
D31*
X283000Y410370D03*
D25*
X283000Y419370D03*
D36*
X283000Y431970D03*
D35*
X283400Y402170D03*
D31*
X283400Y410370D03*
X283400Y419570D03*
D33*
X283400Y431970D03*
D35*
X283800Y402170D03*
D31*
X283800Y410370D03*
D23*
X283800Y419770D03*
D29*
X283800Y432170D03*
D35*
X284200Y402170D03*
D31*
X284200Y410370D03*
D50*
X284200Y419970D03*
D31*
X284200Y431970D03*
D33*
X284600Y402370D03*
D50*
X284600Y410370D03*
D49*
X284600Y420170D03*
D27*
X284600Y431770D03*
D17*
X285000Y417970D03*
D56*
X285400Y418170D03*
D18*
X285800Y418370D03*
D131*
X286200Y418570D03*
D19*
X286600Y418770D03*
D20*
X287000Y418970D03*
D21*
X287400Y419170D03*
D136*
X280530Y766670D03*
D100*
X280530Y772070D03*
D137*
X280530Y778520D03*
D138*
X280530Y782570D03*
D35*
X280880Y766820D03*
D139*
X280880Y772220D03*
X280880Y778520D03*
D140*
X280880Y782570D03*
D141*
X281230Y766820D03*
D142*
X281230Y772070D03*
D143*
X281230Y778520D03*
D142*
X281230Y782570D03*
D144*
X281430Y766970D03*
D142*
X281430Y772070D03*
D143*
X281430Y778520D03*
D145*
X281430Y782420D03*
D146*
X281730Y767120D03*
D142*
X281730Y772070D03*
D143*
X281730Y778520D03*
D147*
X281730Y782270D03*
D39*
X282080Y767120D03*
D148*
X282080Y772070D03*
D139*
X282080Y778520D03*
D149*
X282080Y781970D03*
D146*
X282430Y767120D03*
D142*
X282430Y772070D03*
D143*
X282430Y778520D03*
D147*
X282430Y781970D03*
D142*
X282630Y765170D03*
D145*
X282630Y769220D03*
D142*
X282630Y772070D03*
D143*
X282630Y778520D03*
D147*
X282630Y781670D03*
D142*
X282930Y765170D03*
X282930Y769370D03*
X282930Y772070D03*
D143*
X282930Y778520D03*
D147*
X282930Y781370D03*
D148*
X283280Y765170D03*
X283280Y769370D03*
X283280Y772070D03*
D139*
X283280Y778520D03*
D149*
X283280Y781070D03*
D142*
X283630Y765170D03*
D145*
X283630Y768920D03*
D142*
X283630Y772070D03*
D150*
X283630Y779870D03*
D142*
X283930Y765170D03*
D151*
X283930Y768620D03*
D142*
X283930Y772070D03*
D152*
X283930Y779720D03*
D142*
X284130Y765170D03*
D136*
X284130Y768470D03*
D142*
X284130Y772070D03*
D153*
X284130Y779570D03*
D148*
X284480Y765170D03*
D154*
X284480Y768470D03*
D148*
X284480Y772070D03*
D41*
X284480Y779420D03*
D142*
X284830Y765170D03*
D136*
X284830Y768470D03*
D142*
X284830Y772070D03*
D155*
X284830Y779420D03*
D142*
X285030Y765170D03*
D136*
X285030Y768770D03*
D142*
X285030Y772070D03*
D153*
X285030Y779570D03*
D142*
X285330Y765170D03*
X285330Y769370D03*
X285330Y772070D03*
D152*
X285330Y779720D03*
D148*
X285680Y765170D03*
D139*
X285680Y769520D03*
D148*
X285680Y772070D03*
D156*
X285680Y779870D03*
D142*
X286030Y765170D03*
D143*
X286030Y769520D03*
D142*
X286030Y772070D03*
D143*
X286030Y778520D03*
D147*
X286030Y781070D03*
D142*
X286330Y765170D03*
X286330Y769370D03*
X286330Y772070D03*
D143*
X286330Y778520D03*
D147*
X286330Y781370D03*
D157*
X286530Y767270D03*
D142*
X286530Y772070D03*
D143*
X286530Y778520D03*
D147*
X286530Y781670D03*
D158*
X286880Y767270D03*
D159*
X286880Y773570D03*
D139*
X286880Y778520D03*
D149*
X286880Y781970D03*
D146*
X287230Y767120D03*
D144*
X287230Y773870D03*
D143*
X287230Y778520D03*
D147*
X287230Y782270D03*
D146*
X287430Y767120D03*
D144*
X287430Y773870D03*
D143*
X287430Y778520D03*
D145*
X287430Y782420D03*
D144*
X287730Y766970D03*
X287730Y773870D03*
D143*
X287730Y778520D03*
D142*
X287730Y782570D03*
D160*
X288080Y766820D03*
D161*
X288080Y773870D03*
D139*
X288080Y778520D03*
X288080Y782720D03*
D150*
X288430Y766670D03*
D141*
X288430Y774020D03*
D162*
X288430Y778370D03*
D163*
X288430Y782420D03*
D142*
X448170Y767870D03*
D147*
X448170Y773870D03*
D100*
X448170Y779570D03*
X448170Y784670D03*
D164*
X448520Y767870D03*
D156*
X448520Y774170D03*
D140*
X448520Y779570D03*
D139*
X448520Y784520D03*
D150*
X448870Y767870D03*
D165*
X448870Y774170D03*
D142*
X448870Y779570D03*
D143*
X448870Y784520D03*
D141*
X449070Y768020D03*
X449070Y774320D03*
D145*
X449070Y779720D03*
D142*
X449070Y784670D03*
D144*
X449370Y767870D03*
X449370Y774470D03*
D147*
X449370Y779870D03*
D142*
X449370Y784670D03*
D39*
X449720Y767720D03*
X449720Y774620D03*
D149*
X449720Y779870D03*
D148*
X449720Y784670D03*
D146*
X450070Y767420D03*
X450070Y774620D03*
D151*
X450070Y780020D03*
D142*
X450070Y784670D03*
D147*
X450270Y765470D03*
D163*
X450270Y769520D03*
D142*
X450270Y772670D03*
D145*
X450270Y776720D03*
D136*
X450270Y780170D03*
D142*
X450270Y784670D03*
D145*
X450570Y765320D03*
D100*
X450570Y769670D03*
D142*
X450570Y772670D03*
X450570Y776870D03*
D155*
X450570Y780320D03*
D142*
X450570Y784670D03*
D148*
X450920Y765170D03*
X450920Y772670D03*
X450920Y776870D03*
D41*
X450920Y780320D03*
D148*
X450920Y784670D03*
D142*
X451270Y764870D03*
X451270Y772670D03*
X451270Y776870D03*
D153*
X451270Y780470D03*
D142*
X451270Y784670D03*
X451570Y764870D03*
D151*
X451570Y769220D03*
D142*
X451570Y772670D03*
X451570Y776870D03*
D152*
X451570Y780620D03*
D142*
X451570Y784670D03*
X451770Y764870D03*
D155*
X451770Y769220D03*
D142*
X451770Y772670D03*
D145*
X451770Y776720D03*
D150*
X451770Y780770D03*
D142*
X451770Y784670D03*
D148*
X452120Y764870D03*
D41*
X452120Y769220D03*
D158*
X452120Y774770D03*
D148*
X452120Y779570D03*
X452120Y781970D03*
X452120Y784670D03*
D142*
X452470Y764870D03*
D155*
X452470Y769220D03*
D146*
X452470Y774620D03*
D142*
X452470Y779570D03*
D145*
X452470Y782120D03*
D142*
X452470Y784670D03*
X452670Y764870D03*
D155*
X452670Y769220D03*
D146*
X452670Y774620D03*
D142*
X452670Y779570D03*
D150*
X452670Y783470D03*
D142*
X452970Y764870D03*
D151*
X452970Y769520D03*
D144*
X452970Y774470D03*
D142*
X452970Y779570D03*
D152*
X452970Y783620D03*
D148*
X453320Y765170D03*
X453320Y769970D03*
D161*
X453320Y774470D03*
D148*
X453320Y779570D03*
D164*
X453320Y783770D03*
D145*
X453670Y765320D03*
D142*
X453670Y769970D03*
D144*
X453670Y774470D03*
D142*
X453670Y779570D03*
D153*
X453670Y783770D03*
D147*
X453970Y765470D03*
D142*
X453970Y769970D03*
D144*
X453970Y774470D03*
D142*
X453970Y779570D03*
D155*
X453970Y783920D03*
D151*
X454170Y765920D03*
D145*
X454170Y769820D03*
D142*
X454170Y772670D03*
X454170Y776570D03*
X454170Y779570D03*
D136*
X454170Y784070D03*
D166*
X454520Y767720D03*
D148*
X454520Y772670D03*
X454520Y776570D03*
X454520Y779570D03*
D167*
X454520Y784220D03*
D157*
X454870Y767870D03*
D142*
X454870Y772670D03*
D145*
X454870Y776720D03*
D142*
X454870Y779570D03*
D151*
X454870Y784220D03*
D144*
X455070Y767870D03*
D142*
X455070Y772670D03*
X455070Y776870D03*
X455070Y779570D03*
D147*
X455070Y784370D03*
D141*
X455370Y768020D03*
D142*
X455370Y772670D03*
X455370Y776870D03*
X455370Y779570D03*
D145*
X455370Y784520D03*
D168*
X455720Y768020D03*
D148*
X455720Y772670D03*
D139*
X455720Y777020D03*
D148*
X455720Y779570D03*
D139*
X455720Y784520D03*
D151*
X456070Y768020D03*
D162*
X456070Y772670D03*
X456070Y776870D03*
X456070Y779570D03*
X456070Y784670D03*
D137*
X456370Y768020D03*
D169*
X240310Y510920D03*
D170*
X240310Y510520D03*
D171*
X240310Y510120D03*
D172*
X240310Y509720D03*
D173*
X240310Y509320D03*
D174*
X240310Y508920D03*
D175*
X240310Y508520D03*
D176*
X240310Y508120D03*
D177*
X228110Y507720D03*
D178*
X236910Y507720D03*
D179*
X246110Y507720D03*
D180*
X254710Y507720D03*
D181*
X227910Y507320D03*
D92*
X236710Y507320D03*
D182*
X246310Y507320D03*
D183*
X254910Y507320D03*
D177*
X227710Y506920D03*
D92*
X236710Y506920D03*
D184*
X246310Y506920D03*
D180*
X255110Y506920D03*
D177*
X227710Y506520D03*
D92*
X236710Y506520D03*
D185*
X246310Y506520D03*
D180*
X255110Y506520D03*
D186*
X227510Y506120D03*
D92*
X236710Y506120D03*
D187*
X246110Y506120D03*
D188*
X255310Y506120D03*
D186*
X227510Y505720D03*
D92*
X236710Y505720D03*
D178*
X246110Y505720D03*
D188*
X255310Y505720D03*
D186*
X227510Y505320D03*
D92*
X236710Y505320D03*
D187*
X241310Y505320D03*
D92*
X245910Y505320D03*
D188*
X255310Y505320D03*
D189*
X227310Y504920D03*
D92*
X236710Y504920D03*
D185*
X241510Y504920D03*
D190*
X245710Y504920D03*
D191*
X255510Y504920D03*
D189*
X227310Y504520D03*
D92*
X236710Y504520D03*
D185*
X241510Y504520D03*
D62*
X245910Y504520D03*
D191*
X255510Y504520D03*
D189*
X227310Y504120D03*
D92*
X236710Y504120D03*
D185*
X241510Y504120D03*
D190*
X246110Y504120D03*
D191*
X255510Y504120D03*
D189*
X227310Y503720D03*
D92*
X236710Y503720D03*
D185*
X241510Y503720D03*
D190*
X246110Y503720D03*
D191*
X255510Y503720D03*
D189*
X227310Y503320D03*
D92*
X236710Y503320D03*
D187*
X241310Y503320D03*
D192*
X246910Y503320D03*
D191*
X255510Y503320D03*
D189*
X227310Y502920D03*
D92*
X236710Y502920D03*
D192*
X246910Y502920D03*
D191*
X255510Y502920D03*
D189*
X227310Y502520D03*
D92*
X236710Y502520D03*
D192*
X246910Y502520D03*
D191*
X255510Y502520D03*
D189*
X227310Y502120D03*
D92*
X236710Y502120D03*
D184*
X246710Y502120D03*
D191*
X255510Y502120D03*
D189*
X227310Y501720D03*
D92*
X236710Y501720D03*
D193*
X246510Y501720D03*
D191*
X255510Y501720D03*
D189*
X227310Y501320D03*
D92*
X236710Y501320D03*
D182*
X246310Y501320D03*
D191*
X255510Y501320D03*
D189*
X227310Y500920D03*
D92*
X236710Y500920D03*
D194*
X246110Y500920D03*
D191*
X255510Y500920D03*
X225510Y500520D03*
D187*
X232510Y500520D03*
D92*
X236710Y500520D03*
D195*
X245510Y500520D03*
D188*
X255310Y500520D03*
X225310Y500120D03*
D92*
X232310Y500120D03*
X236710Y500120D03*
D191*
X244310Y500120D03*
D188*
X255310Y500120D03*
X225310Y499720D03*
D178*
X236510Y499720D03*
D191*
X244310Y499720D03*
D188*
X255310Y499720D03*
D180*
X225510Y499320D03*
D178*
X236510Y499320D03*
D191*
X244310Y499320D03*
D180*
X255110Y499320D03*
X225510Y498920D03*
D196*
X236310Y498920D03*
D191*
X244310Y498920D03*
D180*
X255110Y498920D03*
X225910Y498520D03*
D187*
X236110Y498520D03*
D191*
X244310Y498520D03*
D183*
X254910Y498520D03*
D188*
X226110Y498120D03*
D192*
X236110Y498120D03*
D197*
X244310Y498120D03*
D180*
X254710Y498120D03*
D191*
X226710Y497720D03*
D184*
X235910Y497720D03*
D197*
X244310Y497720D03*
D183*
X254510Y497720D03*
D175*
X240310Y497320D03*
D174*
X240310Y496920D03*
D173*
X240310Y496520D03*
D172*
X240310Y496120D03*
D171*
X240310Y495720D03*
D170*
X240310Y495320D03*
D169*
X240310Y494920D03*
D12*
X540778Y618109D02*
X540778Y622935D01*
X542119Y622935D01*
X542190Y622933D01*
X542262Y622927D01*
X542332Y622918D01*
X542402Y622905D01*
X542472Y622888D01*
X542540Y622867D01*
X542607Y622843D01*
X542673Y622815D01*
X542737Y622784D01*
X542800Y622749D01*
X542860Y622711D01*
X542919Y622670D01*
X542975Y622626D01*
X543029Y622579D01*
X543080Y622530D01*
X543128Y622477D01*
X543174Y622422D01*
X543216Y622365D01*
X543256Y622305D01*
X543292Y622244D01*
X543325Y622180D01*
X543354Y622115D01*
X543380Y622049D01*
X543403Y621981D01*
X543422Y621912D01*
X543437Y621842D01*
X543448Y621772D01*
X543456Y621701D01*
X543460Y621630D01*
X543460Y621558D01*
X543456Y621487D01*
X543448Y621416D01*
X543437Y621346D01*
X543422Y621276D01*
X543403Y621207D01*
X543380Y621139D01*
X543354Y621073D01*
X543325Y621008D01*
X543292Y620944D01*
X543256Y620883D01*
X543216Y620823D01*
X543174Y620766D01*
X543128Y620711D01*
X543080Y620658D01*
X543029Y620609D01*
X542975Y620562D01*
X542919Y620518D01*
X542860Y620477D01*
X542800Y620439D01*
X542737Y620404D01*
X542673Y620373D01*
X542607Y620345D01*
X542540Y620321D01*
X542472Y620300D01*
X542402Y620283D01*
X542332Y620270D01*
X542262Y620261D01*
X542190Y620255D01*
X542119Y620253D01*
X542119Y620254D02*
X540778Y620254D01*
X542387Y620254D02*
X543459Y618109D01*
X546201Y618109D02*
X547541Y618109D01*
X547612Y618111D01*
X547684Y618117D01*
X547754Y618126D01*
X547824Y618139D01*
X547894Y618156D01*
X547962Y618177D01*
X548029Y618201D01*
X548095Y618229D01*
X548159Y618260D01*
X548222Y618295D01*
X548282Y618333D01*
X548341Y618374D01*
X548397Y618418D01*
X548451Y618465D01*
X548502Y618514D01*
X548550Y618567D01*
X548596Y618622D01*
X548638Y618679D01*
X548678Y618739D01*
X548714Y618800D01*
X548747Y618864D01*
X548776Y618929D01*
X548802Y618995D01*
X548825Y619063D01*
X548844Y619132D01*
X548859Y619202D01*
X548870Y619272D01*
X548878Y619343D01*
X548882Y619414D01*
X548882Y619486D01*
X548878Y619557D01*
X548870Y619628D01*
X548859Y619698D01*
X548844Y619768D01*
X548825Y619837D01*
X548802Y619905D01*
X548776Y619971D01*
X548747Y620036D01*
X548714Y620100D01*
X548678Y620161D01*
X548638Y620221D01*
X548596Y620278D01*
X548550Y620333D01*
X548502Y620386D01*
X548451Y620435D01*
X548397Y620482D01*
X548341Y620526D01*
X548282Y620567D01*
X548222Y620605D01*
X548159Y620640D01*
X548095Y620671D01*
X548029Y620699D01*
X547962Y620723D01*
X547894Y620744D01*
X547824Y620761D01*
X547754Y620774D01*
X547684Y620783D01*
X547612Y620789D01*
X547541Y620791D01*
X547809Y622935D02*
X546201Y622935D01*
X547809Y622935D02*
X547874Y622933D01*
X547938Y622927D01*
X548002Y622917D01*
X548066Y622904D01*
X548128Y622886D01*
X548189Y622865D01*
X548249Y622841D01*
X548307Y622812D01*
X548364Y622780D01*
X548418Y622745D01*
X548470Y622707D01*
X548520Y622665D01*
X548567Y622621D01*
X548611Y622574D01*
X548653Y622524D01*
X548691Y622472D01*
X548726Y622418D01*
X548758Y622361D01*
X548787Y622303D01*
X548811Y622243D01*
X548832Y622182D01*
X548850Y622120D01*
X548863Y622056D01*
X548873Y621992D01*
X548879Y621928D01*
X548881Y621863D01*
X548879Y621798D01*
X548873Y621734D01*
X548863Y621670D01*
X548850Y621606D01*
X548832Y621544D01*
X548811Y621483D01*
X548787Y621423D01*
X548758Y621365D01*
X548726Y621308D01*
X548691Y621254D01*
X548653Y621202D01*
X548611Y621152D01*
X548567Y621105D01*
X548520Y621061D01*
X548470Y621019D01*
X548418Y620981D01*
X548364Y620946D01*
X548307Y620914D01*
X548249Y620885D01*
X548189Y620861D01*
X548128Y620840D01*
X548066Y620822D01*
X548002Y620809D01*
X547938Y620799D01*
X547874Y620793D01*
X547809Y620791D01*
X547809Y620790D02*
X546737Y620790D01*
D11*
X531495Y641668D02*
X531495Y651193D01*
D12*
X543195Y639445D02*
X543195Y634619D01*
X543195Y639445D02*
X544535Y639445D01*
X544605Y639443D01*
X544675Y639438D01*
X544745Y639428D01*
X544814Y639416D01*
X544882Y639399D01*
X544949Y639379D01*
X545016Y639356D01*
X545080Y639329D01*
X545144Y639299D01*
X545206Y639265D01*
X545265Y639229D01*
X545323Y639189D01*
X545379Y639146D01*
X545432Y639101D01*
X545483Y639052D01*
X545532Y639001D01*
X545577Y638948D01*
X545620Y638892D01*
X545660Y638834D01*
X545696Y638775D01*
X545730Y638713D01*
X545760Y638649D01*
X545787Y638585D01*
X545810Y638518D01*
X545830Y638451D01*
X545847Y638383D01*
X545859Y638314D01*
X545869Y638244D01*
X545874Y638174D01*
X545876Y638104D01*
X545876Y635960D01*
X545874Y635890D01*
X545869Y635820D01*
X545859Y635750D01*
X545847Y635681D01*
X545830Y635613D01*
X545810Y635546D01*
X545787Y635479D01*
X545760Y635415D01*
X545730Y635351D01*
X545696Y635289D01*
X545660Y635230D01*
X545620Y635172D01*
X545577Y635116D01*
X545532Y635063D01*
X545483Y635012D01*
X545432Y634963D01*
X545379Y634918D01*
X545323Y634875D01*
X545265Y634835D01*
X545205Y634799D01*
X545144Y634765D01*
X545080Y634735D01*
X545016Y634708D01*
X544949Y634685D01*
X544882Y634665D01*
X544814Y634648D01*
X544745Y634636D01*
X544675Y634626D01*
X544605Y634621D01*
X544535Y634619D01*
X543195Y634619D01*
X548864Y634619D02*
X550205Y634619D01*
X550276Y634621D01*
X550348Y634627D01*
X550418Y634636D01*
X550488Y634649D01*
X550558Y634666D01*
X550626Y634687D01*
X550693Y634711D01*
X550759Y634739D01*
X550823Y634770D01*
X550886Y634805D01*
X550946Y634843D01*
X551005Y634884D01*
X551061Y634928D01*
X551115Y634975D01*
X551166Y635024D01*
X551214Y635077D01*
X551260Y635132D01*
X551302Y635189D01*
X551342Y635249D01*
X551378Y635310D01*
X551411Y635374D01*
X551440Y635439D01*
X551466Y635505D01*
X551489Y635573D01*
X551508Y635642D01*
X551523Y635712D01*
X551534Y635782D01*
X551542Y635853D01*
X551546Y635924D01*
X551546Y635996D01*
X551542Y636067D01*
X551534Y636138D01*
X551523Y636208D01*
X551508Y636278D01*
X551489Y636347D01*
X551466Y636415D01*
X551440Y636481D01*
X551411Y636546D01*
X551378Y636610D01*
X551342Y636671D01*
X551302Y636731D01*
X551260Y636788D01*
X551214Y636843D01*
X551166Y636896D01*
X551115Y636945D01*
X551061Y636992D01*
X551005Y637036D01*
X550946Y637077D01*
X550886Y637115D01*
X550823Y637150D01*
X550759Y637181D01*
X550693Y637209D01*
X550626Y637233D01*
X550558Y637254D01*
X550488Y637271D01*
X550418Y637284D01*
X550348Y637293D01*
X550276Y637299D01*
X550205Y637301D01*
X550473Y639445D02*
X548864Y639445D01*
X550473Y639445D02*
X550538Y639443D01*
X550602Y639437D01*
X550666Y639427D01*
X550730Y639414D01*
X550792Y639396D01*
X550853Y639375D01*
X550913Y639351D01*
X550971Y639322D01*
X551028Y639290D01*
X551082Y639255D01*
X551134Y639217D01*
X551184Y639175D01*
X551231Y639131D01*
X551275Y639084D01*
X551317Y639034D01*
X551355Y638982D01*
X551390Y638928D01*
X551422Y638871D01*
X551451Y638813D01*
X551475Y638753D01*
X551496Y638692D01*
X551514Y638630D01*
X551527Y638566D01*
X551537Y638502D01*
X551543Y638438D01*
X551545Y638373D01*
X551543Y638308D01*
X551537Y638244D01*
X551527Y638180D01*
X551514Y638116D01*
X551496Y638054D01*
X551475Y637993D01*
X551451Y637933D01*
X551422Y637875D01*
X551390Y637818D01*
X551355Y637764D01*
X551317Y637712D01*
X551275Y637662D01*
X551231Y637615D01*
X551184Y637571D01*
X551134Y637529D01*
X551082Y637491D01*
X551028Y637456D01*
X550971Y637424D01*
X550913Y637395D01*
X550853Y637371D01*
X550792Y637350D01*
X550730Y637332D01*
X550666Y637319D01*
X550602Y637309D01*
X550538Y637303D01*
X550473Y637301D01*
X550473Y637300D02*
X549400Y637300D01*
D13*
X539750Y544830D02*
X524510Y544830D01*
X519938Y529082D02*
X519940Y528949D01*
X519946Y528816D01*
X519955Y528684D01*
X519969Y528551D01*
X519986Y528419D01*
X520007Y528288D01*
X520032Y528157D01*
X520061Y528028D01*
X520094Y527899D01*
X520130Y527771D01*
X520170Y527644D01*
X520214Y527518D01*
X520261Y527394D01*
X520312Y527271D01*
X520366Y527150D01*
X520424Y527030D01*
X520486Y526912D01*
X520551Y526796D01*
X520619Y526682D01*
X520690Y526570D01*
X520765Y526460D01*
X520843Y526352D01*
X520924Y526246D01*
X521008Y526143D01*
X521095Y526043D01*
X521184Y525945D01*
X521277Y525849D01*
X521373Y525756D01*
X521471Y525667D01*
X521571Y525580D01*
X521674Y525496D01*
X521780Y525415D01*
X521888Y525337D01*
X521998Y525262D01*
X522110Y525191D01*
X522224Y525123D01*
X522340Y525058D01*
X522458Y524996D01*
X522578Y524938D01*
X522699Y524884D01*
X522822Y524833D01*
X522946Y524786D01*
X523072Y524742D01*
X523199Y524702D01*
X523327Y524666D01*
X523456Y524633D01*
X523585Y524604D01*
X523716Y524579D01*
X523847Y524558D01*
X523979Y524541D01*
X524112Y524527D01*
X524244Y524518D01*
X524377Y524512D01*
X524510Y524510D01*
X539750Y524510D02*
X539883Y524512D01*
X540016Y524518D01*
X540148Y524527D01*
X540281Y524541D01*
X540413Y524558D01*
X540544Y524579D01*
X540675Y524604D01*
X540804Y524633D01*
X540933Y524666D01*
X541061Y524702D01*
X541188Y524742D01*
X541314Y524786D01*
X541438Y524833D01*
X541561Y524884D01*
X541682Y524938D01*
X541802Y524996D01*
X541920Y525058D01*
X542036Y525123D01*
X542150Y525191D01*
X542262Y525262D01*
X542372Y525337D01*
X542480Y525415D01*
X542586Y525496D01*
X542689Y525580D01*
X542789Y525667D01*
X542887Y525756D01*
X542983Y525849D01*
X543076Y525945D01*
X543165Y526043D01*
X543252Y526143D01*
X543336Y526246D01*
X543417Y526352D01*
X543495Y526460D01*
X543570Y526570D01*
X543641Y526682D01*
X543709Y526796D01*
X543774Y526912D01*
X543836Y527030D01*
X543894Y527150D01*
X543948Y527271D01*
X543999Y527394D01*
X544046Y527518D01*
X544090Y527644D01*
X544130Y527771D01*
X544166Y527899D01*
X544199Y528028D01*
X544228Y528157D01*
X544253Y528288D01*
X544274Y528419D01*
X544291Y528551D01*
X544305Y528684D01*
X544314Y528816D01*
X544320Y528949D01*
X544322Y529082D01*
X544322Y540258D02*
X544320Y540391D01*
X544314Y540524D01*
X544305Y540656D01*
X544291Y540789D01*
X544274Y540921D01*
X544253Y541052D01*
X544228Y541183D01*
X544199Y541312D01*
X544166Y541441D01*
X544130Y541569D01*
X544090Y541696D01*
X544046Y541822D01*
X543999Y541946D01*
X543948Y542069D01*
X543894Y542190D01*
X543836Y542310D01*
X543774Y542428D01*
X543709Y542544D01*
X543641Y542658D01*
X543570Y542770D01*
X543495Y542880D01*
X543417Y542988D01*
X543336Y543094D01*
X543252Y543197D01*
X543165Y543297D01*
X543076Y543395D01*
X542983Y543491D01*
X542887Y543584D01*
X542789Y543673D01*
X542689Y543760D01*
X542586Y543844D01*
X542480Y543925D01*
X542372Y544003D01*
X542262Y544078D01*
X542150Y544149D01*
X542036Y544217D01*
X541920Y544282D01*
X541802Y544344D01*
X541682Y544402D01*
X541561Y544456D01*
X541438Y544507D01*
X541314Y544554D01*
X541188Y544598D01*
X541061Y544638D01*
X540933Y544674D01*
X540804Y544707D01*
X540675Y544736D01*
X540544Y544761D01*
X540413Y544782D01*
X540281Y544799D01*
X540148Y544813D01*
X540016Y544822D01*
X539883Y544828D01*
X539750Y544830D01*
X524510Y544830D02*
X524377Y544828D01*
X524244Y544822D01*
X524112Y544813D01*
X523979Y544799D01*
X523847Y544782D01*
X523716Y544761D01*
X523585Y544736D01*
X523456Y544707D01*
X523327Y544674D01*
X523199Y544638D01*
X523072Y544598D01*
X522946Y544554D01*
X522822Y544507D01*
X522699Y544456D01*
X522578Y544402D01*
X522458Y544344D01*
X522340Y544282D01*
X522224Y544217D01*
X522110Y544149D01*
X521998Y544078D01*
X521888Y544003D01*
X521780Y543925D01*
X521674Y543844D01*
X521571Y543760D01*
X521471Y543673D01*
X521373Y543584D01*
X521277Y543491D01*
X521184Y543395D01*
X521095Y543297D01*
X521008Y543197D01*
X520924Y543094D01*
X520843Y542988D01*
X520765Y542880D01*
X520690Y542770D01*
X520619Y542658D01*
X520551Y542544D01*
X520486Y542428D01*
X520424Y542310D01*
X520366Y542190D01*
X520312Y542069D01*
X520261Y541946D01*
X520214Y541822D01*
X520170Y541696D01*
X520130Y541569D01*
X520094Y541441D01*
X520061Y541312D01*
X520032Y541183D01*
X520007Y541052D01*
X519986Y540921D01*
X519969Y540789D01*
X519955Y540656D01*
X519946Y540524D01*
X519940Y540391D01*
X519938Y540258D01*
X519938Y529082D01*
X544322Y529082D02*
X544322Y540258D01*
X539750Y524510D02*
X524510Y524510D01*
D12*
X527377Y522605D02*
X527377Y518851D01*
X527376Y518851D02*
X527374Y518786D01*
X527368Y518722D01*
X527358Y518658D01*
X527345Y518594D01*
X527327Y518532D01*
X527306Y518471D01*
X527282Y518411D01*
X527253Y518353D01*
X527221Y518296D01*
X527186Y518242D01*
X527148Y518190D01*
X527106Y518140D01*
X527062Y518093D01*
X527015Y518049D01*
X526965Y518007D01*
X526913Y517969D01*
X526859Y517934D01*
X526802Y517902D01*
X526744Y517873D01*
X526684Y517849D01*
X526623Y517828D01*
X526561Y517810D01*
X526497Y517797D01*
X526433Y517787D01*
X526369Y517781D01*
X526304Y517779D01*
X525768Y517779D01*
X530654Y517779D02*
X530654Y522605D01*
X531994Y522605D01*
X532065Y522603D01*
X532137Y522597D01*
X532207Y522588D01*
X532277Y522575D01*
X532347Y522558D01*
X532415Y522537D01*
X532482Y522513D01*
X532548Y522485D01*
X532612Y522454D01*
X532675Y522419D01*
X532735Y522381D01*
X532794Y522340D01*
X532850Y522296D01*
X532904Y522249D01*
X532955Y522200D01*
X533003Y522147D01*
X533049Y522092D01*
X533091Y522035D01*
X533131Y521975D01*
X533167Y521914D01*
X533200Y521850D01*
X533229Y521785D01*
X533255Y521719D01*
X533278Y521651D01*
X533297Y521582D01*
X533312Y521512D01*
X533323Y521442D01*
X533331Y521371D01*
X533335Y521300D01*
X533335Y521228D01*
X533331Y521157D01*
X533323Y521086D01*
X533312Y521016D01*
X533297Y520946D01*
X533278Y520877D01*
X533255Y520809D01*
X533229Y520743D01*
X533200Y520678D01*
X533167Y520614D01*
X533131Y520553D01*
X533091Y520493D01*
X533049Y520436D01*
X533003Y520381D01*
X532955Y520328D01*
X532904Y520279D01*
X532850Y520232D01*
X532794Y520188D01*
X532735Y520147D01*
X532675Y520109D01*
X532612Y520074D01*
X532548Y520043D01*
X532482Y520015D01*
X532415Y519991D01*
X532347Y519970D01*
X532277Y519953D01*
X532207Y519940D01*
X532137Y519931D01*
X532065Y519925D01*
X531994Y519923D01*
X531994Y519924D02*
X530654Y519924D01*
X537286Y522605D02*
X537354Y522603D01*
X537421Y522597D01*
X537488Y522588D01*
X537555Y522575D01*
X537620Y522558D01*
X537685Y522537D01*
X537748Y522513D01*
X537810Y522485D01*
X537870Y522454D01*
X537928Y522420D01*
X537984Y522382D01*
X538039Y522342D01*
X538090Y522298D01*
X538139Y522251D01*
X538186Y522202D01*
X538230Y522151D01*
X538270Y522096D01*
X538308Y522040D01*
X538342Y521982D01*
X538373Y521922D01*
X538401Y521860D01*
X538425Y521797D01*
X538446Y521732D01*
X538463Y521667D01*
X538476Y521600D01*
X538485Y521533D01*
X538491Y521466D01*
X538493Y521398D01*
X537286Y522605D02*
X537208Y522603D01*
X537130Y522597D01*
X537053Y522587D01*
X536976Y522574D01*
X536900Y522556D01*
X536825Y522535D01*
X536751Y522510D01*
X536679Y522481D01*
X536608Y522449D01*
X536539Y522413D01*
X536471Y522374D01*
X536406Y522331D01*
X536343Y522285D01*
X536282Y522236D01*
X536224Y522184D01*
X536169Y522129D01*
X536116Y522072D01*
X536067Y522012D01*
X536020Y521949D01*
X535977Y521885D01*
X535937Y521818D01*
X535900Y521749D01*
X535867Y521678D01*
X535837Y521606D01*
X535811Y521533D01*
X538090Y520460D02*
X538139Y520509D01*
X538186Y520561D01*
X538229Y520616D01*
X538270Y520673D01*
X538308Y520732D01*
X538342Y520793D01*
X538373Y520856D01*
X538401Y520920D01*
X538425Y520986D01*
X538445Y521052D01*
X538462Y521120D01*
X538475Y521189D01*
X538484Y521258D01*
X538490Y521328D01*
X538492Y521398D01*
X538090Y520460D02*
X535811Y517779D01*
X538492Y517779D01*
D198*
X532086Y522858D03*
D172*
X532086Y522458D03*
D174*
X532086Y522058D03*
D176*
X532086Y521658D03*
D199*
X532086Y521258D03*
D200*
X532086Y520858D03*
D201*
X532086Y520458D03*
D169*
X526086Y520058D03*
D202*
X546486Y520058D03*
D177*
X518286Y519658D03*
D178*
X527086Y519658D03*
D203*
X536086Y519658D03*
D204*
X547086Y519658D03*
D177*
X518286Y519258D03*
D178*
X527086Y519258D03*
D184*
X536086Y519258D03*
D205*
X547486Y519258D03*
D177*
X517886Y518858D03*
D92*
X527286Y518858D03*
D185*
X536086Y518858D03*
D205*
X547886Y518858D03*
D177*
X517886Y518458D03*
D92*
X527286Y518458D03*
D196*
X536086Y518458D03*
D205*
X547886Y518458D03*
D186*
X517686Y518058D03*
D92*
X527286Y518058D03*
D178*
X536286Y518058D03*
D205*
X548286Y518058D03*
D186*
X517686Y517658D03*
D92*
X527286Y517658D03*
X536086Y517658D03*
D205*
X548286Y517658D03*
D186*
X517686Y517258D03*
D92*
X527286Y517258D03*
D187*
X531486Y517258D03*
D92*
X536086Y517258D03*
D196*
X540486Y517258D03*
D191*
X548486Y517258D03*
D189*
X517486Y516858D03*
D92*
X527286Y516858D03*
D185*
X531686Y516858D03*
D190*
X536286Y516858D03*
D185*
X540486Y516858D03*
D205*
X548686Y516858D03*
D189*
X517486Y516458D03*
D92*
X527286Y516458D03*
D192*
X531886Y516458D03*
D190*
X536286Y516458D03*
D185*
X540486Y516458D03*
D205*
X548686Y516458D03*
D189*
X517486Y516058D03*
D92*
X527286Y516058D03*
D192*
X531886Y516058D03*
D190*
X536286Y516058D03*
D185*
X540486Y516058D03*
D205*
X548686Y516058D03*
D189*
X517486Y515658D03*
D92*
X527286Y515658D03*
D185*
X531686Y515658D03*
D190*
X536286Y515658D03*
D187*
X540286Y515658D03*
D205*
X548686Y515658D03*
D189*
X517486Y515258D03*
D92*
X527286Y515258D03*
D185*
X531686Y515258D03*
D92*
X536486Y515258D03*
D185*
X540086Y515258D03*
D205*
X548686Y515258D03*
D189*
X517486Y514858D03*
D92*
X527286Y514858D03*
D179*
X538286Y514858D03*
D197*
X548486Y514858D03*
D189*
X517486Y514458D03*
D92*
X527286Y514458D03*
D194*
X537886Y514458D03*
D197*
X548486Y514458D03*
D189*
X517486Y514058D03*
D92*
X527286Y514058D03*
D194*
X537486Y514058D03*
D204*
X548286Y514058D03*
D189*
X517486Y513658D03*
D92*
X527286Y513658D03*
D182*
X536886Y513658D03*
D202*
X548086Y513658D03*
D189*
X517486Y513258D03*
D92*
X527286Y513258D03*
D193*
X536286Y513258D03*
D206*
X547886Y513258D03*
D189*
X517486Y512858D03*
D92*
X527286Y512858D03*
D193*
X535886Y512858D03*
D93*
X547686Y512858D03*
D205*
X515886Y512458D03*
D187*
X522686Y512458D03*
D178*
X527086Y512458D03*
D194*
X535086Y512458D03*
D93*
X547286Y512458D03*
D191*
X515686Y512058D03*
D178*
X522686Y512058D03*
X527086Y512058D03*
D207*
X533686Y512058D03*
D181*
X546886Y512058D03*
D188*
X515486Y511658D03*
D178*
X527086Y511658D03*
D208*
X533486Y511658D03*
D188*
X548686Y511658D03*
D180*
X515686Y511258D03*
D196*
X526886Y511258D03*
D208*
X533486Y511258D03*
D180*
X548486Y511258D03*
X515686Y510858D03*
D196*
X526886Y510858D03*
D208*
X533486Y510858D03*
D180*
X548486Y510858D03*
X516086Y510458D03*
D187*
X526686Y510458D03*
D208*
X533486Y510458D03*
D183*
X548286Y510458D03*
D188*
X516286Y510058D03*
D185*
X526486Y510058D03*
D208*
X533486Y510058D03*
D183*
X548286Y510058D03*
D191*
X516886Y509658D03*
D193*
X526286Y509658D03*
D183*
X533486Y509658D03*
X547886Y509658D03*
D201*
X532086Y509258D03*
D200*
X532086Y508858D03*
D199*
X532086Y508458D03*
D176*
X532086Y508058D03*
D174*
X532086Y507658D03*
D172*
X532086Y507258D03*
D198*
X532086Y506858D03*
D12*
X617620Y559400D02*
X636120Y559400D01*
X636120Y634400D02*
X617620Y634400D01*
D209*
X605620Y583900D02*
X605622Y583963D01*
X605628Y584025D01*
X605638Y584087D01*
X605651Y584149D01*
X605669Y584209D01*
X605690Y584268D01*
X605715Y584326D01*
X605744Y584382D01*
X605776Y584436D01*
X605811Y584488D01*
X605849Y584537D01*
X605891Y584585D01*
X605935Y584629D01*
X605983Y584671D01*
X606032Y584709D01*
X606084Y584744D01*
X606138Y584776D01*
X606194Y584805D01*
X606252Y584830D01*
X606311Y584851D01*
X606371Y584869D01*
X606433Y584882D01*
X606495Y584892D01*
X606557Y584898D01*
X606620Y584900D01*
X606683Y584898D01*
X606745Y584892D01*
X606807Y584882D01*
X606869Y584869D01*
X606929Y584851D01*
X606988Y584830D01*
X607046Y584805D01*
X607102Y584776D01*
X607156Y584744D01*
X607208Y584709D01*
X607257Y584671D01*
X607305Y584629D01*
X607349Y584585D01*
X607391Y584537D01*
X607429Y584488D01*
X607464Y584436D01*
X607496Y584382D01*
X607525Y584326D01*
X607550Y584268D01*
X607571Y584209D01*
X607589Y584149D01*
X607602Y584087D01*
X607612Y584025D01*
X607618Y583963D01*
X607620Y583900D01*
X607618Y583837D01*
X607612Y583775D01*
X607602Y583713D01*
X607589Y583651D01*
X607571Y583591D01*
X607550Y583532D01*
X607525Y583474D01*
X607496Y583418D01*
X607464Y583364D01*
X607429Y583312D01*
X607391Y583263D01*
X607349Y583215D01*
X607305Y583171D01*
X607257Y583129D01*
X607208Y583091D01*
X607156Y583056D01*
X607102Y583024D01*
X607046Y582995D01*
X606988Y582970D01*
X606929Y582949D01*
X606869Y582931D01*
X606807Y582918D01*
X606745Y582908D01*
X606683Y582902D01*
X606620Y582900D01*
X606557Y582902D01*
X606495Y582908D01*
X606433Y582918D01*
X606371Y582931D01*
X606311Y582949D01*
X606252Y582970D01*
X606194Y582995D01*
X606138Y583024D01*
X606084Y583056D01*
X606032Y583091D01*
X605983Y583129D01*
X605935Y583171D01*
X605891Y583215D01*
X605849Y583263D01*
X605811Y583312D01*
X605776Y583364D01*
X605744Y583418D01*
X605715Y583474D01*
X605690Y583532D01*
X605669Y583591D01*
X605651Y583651D01*
X605638Y583713D01*
X605628Y583775D01*
X605622Y583837D01*
X605620Y583900D01*
D12*
X657120Y634400D02*
X667620Y634400D01*
X667620Y559400D01*
X657120Y559400D01*
D210*
X603113Y558200D02*
X594025Y558200D01*
X603113Y558201D02*
X603212Y558199D01*
X603312Y558193D01*
X603411Y558184D01*
X603509Y558171D01*
X603607Y558153D01*
X603705Y558133D01*
X603801Y558108D01*
X603897Y558080D01*
X603991Y558048D01*
X604084Y558013D01*
X604175Y557974D01*
X604265Y557931D01*
X604354Y557885D01*
X604440Y557836D01*
X604525Y557784D01*
X604607Y557728D01*
X604687Y557669D01*
X604765Y557608D01*
X604841Y557543D01*
X604914Y557475D01*
X604984Y557405D01*
X605052Y557332D01*
X605117Y557256D01*
X605178Y557178D01*
X605237Y557098D01*
X605293Y557016D01*
X605345Y556931D01*
X605394Y556845D01*
X605440Y556756D01*
X605483Y556666D01*
X605522Y556575D01*
X605557Y556482D01*
X605589Y556388D01*
X605617Y556292D01*
X605642Y556196D01*
X605662Y556098D01*
X605680Y556000D01*
X605693Y555902D01*
X605702Y555803D01*
X605708Y555703D01*
X605710Y555604D01*
X605710Y554305D01*
X594025Y567044D02*
X594027Y567151D01*
X594033Y567257D01*
X594043Y567364D01*
X594056Y567469D01*
X594074Y567575D01*
X594095Y567679D01*
X594120Y567783D01*
X594149Y567886D01*
X594181Y567987D01*
X594218Y568087D01*
X594258Y568186D01*
X594301Y568284D01*
X594348Y568380D01*
X594399Y568474D01*
X594453Y568566D01*
X594510Y568656D01*
X594570Y568744D01*
X594634Y568829D01*
X594701Y568912D01*
X594771Y568993D01*
X594843Y569071D01*
X594919Y569147D01*
X594997Y569219D01*
X595078Y569289D01*
X595161Y569356D01*
X595246Y569420D01*
X595334Y569480D01*
X595424Y569537D01*
X595516Y569591D01*
X595610Y569642D01*
X595706Y569689D01*
X595804Y569732D01*
X595903Y569772D01*
X596003Y569809D01*
X596104Y569841D01*
X596207Y569870D01*
X596311Y569895D01*
X596415Y569916D01*
X596521Y569934D01*
X596627Y569947D01*
X596733Y569957D01*
X596839Y569963D01*
X596946Y569965D01*
X594025Y567044D02*
X594027Y566923D01*
X594033Y566802D01*
X594043Y566682D01*
X594056Y566561D01*
X594074Y566442D01*
X594095Y566322D01*
X594120Y566204D01*
X594149Y566087D01*
X594182Y565970D01*
X594218Y565855D01*
X594259Y565741D01*
X594302Y565628D01*
X594350Y565516D01*
X594401Y565407D01*
X594456Y565299D01*
X594514Y565192D01*
X594575Y565088D01*
X594640Y564986D01*
X594708Y564886D01*
X594779Y564788D01*
X594853Y564692D01*
X594930Y564599D01*
X595011Y564509D01*
X595094Y564421D01*
X595180Y564336D01*
X595269Y564253D01*
X595360Y564174D01*
X595454Y564097D01*
X595550Y564024D01*
X595648Y563954D01*
X595749Y563887D01*
X595852Y563823D01*
X595957Y563763D01*
X596064Y563705D01*
X596172Y563652D01*
X596282Y563602D01*
X596394Y563556D01*
X596507Y563513D01*
X596622Y563474D01*
X599218Y568991D02*
X599140Y569070D01*
X599060Y569146D01*
X598977Y569219D01*
X598892Y569289D01*
X598804Y569356D01*
X598714Y569420D01*
X598621Y569480D01*
X598527Y569538D01*
X598430Y569592D01*
X598332Y569642D01*
X598232Y569689D01*
X598131Y569733D01*
X598028Y569773D01*
X597924Y569809D01*
X597818Y569841D01*
X597711Y569870D01*
X597604Y569895D01*
X597495Y569917D01*
X597386Y569934D01*
X597277Y569948D01*
X597167Y569957D01*
X597056Y569963D01*
X596946Y569965D01*
X599218Y568992D02*
X605710Y563474D01*
X605710Y569966D01*
D211*
X256540Y610870D02*
X231140Y610870D01*
X256540Y610870D02*
X256540Y661670D01*
X231140Y636270D02*
X231140Y610870D01*
X231140Y636270D02*
X231140Y661670D01*
X256540Y661670D01*
X256540Y636270D02*
X231140Y636270D01*
M02*
